<svg xmlns="http://www.w3.org/2000/svg" viewBox="0 0 728 90"><title>728x90</title><g id="Layer_2" data-name="Layer 2"><g id="_59_takes_taxes_off_your_to-do_list." data-name="$59* takes taxes off  your to-do list."><path d="M126.14,24.35c-3.55-.25-5.27-2.13-5.41-4.83h3.79a1.93,1.93,0,0,0,1.62,1.92v-3c-3.57-.51-5.08-1.8-5.08-4.64,0-2.48,1.94-4.26,5.08-4.49V7.5h1.59V9.34c3,.25,4.73,1.62,5,4.42H129a1.63,1.63,0,0,0-1.27-1.53v2.82c3.14.45,5.18,1.52,5.18,4.49,0,2.5-1.61,4.59-5.18,4.81v2.56h-1.59Zm0-9.54V12.19c-.92.16-1.4.65-1.4,1.31S125,14.58,126.14,14.81Zm1.59,3.91v2.72A1.48,1.48,0,0,0,129.11,20C129.11,19.31,128.82,19,127.73,18.72Z" fill="#fff"/><path d="M134.1,27.94h6.53c.25,1.76,1,2.92,3.27,2.92,2.08,0,3-1.55,3-3.55,0-2.25-1.23-3.58-3.41-3.58a5.12,5.12,0,0,0-4.15,1.79h-4.29l.53-14.79h16.94V16H140.81l-.14,5.55c1-1.37,2.74-2.67,5.87-2.67,4.6,0,7.62,3.09,7.62,8.54s-3.83,8.85-10.19,8.85C137.3,36.27,134.27,32.65,134.1,27.94Z" fill="#fff"/><path d="M155.88,28.75h6.61c.25,1.26,1,2.14,2.95,2.14,3,0,4.22-2.25,4.32-6.53a6,6,0,0,1-5.69,2.95c-4.81,0-8.5-2.78-8.5-8.11s3.93-8.86,10.33-8.86c7.48,0,11,5,11,12.3v.84c0,8.15-3.94,12.75-11.11,12.75C159.85,36.23,156.41,33.56,155.88,28.75Zm13.36-9.59c0-2.21-1.34-3.76-3.45-3.76a3.37,3.37,0,0,0-3.34,3.69,3.28,3.28,0,0,0,3.34,3.58A3.34,3.34,0,0,0,169.24,19.16Z" fill="#fff"/><path d="M179.32,20.14,182.45,17l-4.12-.45,1.2-4.32,3.87,1.86-.85-4.32h5l-.85,4.32,3.83-1.86,1.23,4.32-4.14.45,3.12,3.16L187,22.85l-2-4-1.94,4Z" fill="#fff"/><path d="M201.35,29.94V21.76h-2.22V17.47h2.22V13.65h6.29v3.82h3.62v4.29h-3.62v7.59a1.68,1.68,0,0,0,1.86,1.93,4.8,4.8,0,0,0,1.79-.32v4.78a13.21,13.21,0,0,1-3.48.53C203.67,36.27,201.35,34.26,201.35,29.94Z" fill="#fff"/><path d="M212.66,30.75c0-4.32,3.66-6,9.77-6h1.76v-.43c0-1.75-.42-2.91-2.43-2.91a2.25,2.25,0,0,0-2.49,2.18h-5.91c.29-4.43,3.76-6.61,8.79-6.61s8.29,2.08,8.29,7V35.85h-6.11V33.7c-.88,1.34-2.5,2.57-5.45,2.57C215.58,36.27,212.66,34.65,212.66,30.75Zm11.53-1.33V28.29h-1.65c-2.53,0-3.66.5-3.66,2,0,1.05.7,1.72,2.18,1.72C222.85,32,224.19,31,224.19,29.42Z" fill="#fff"/><path d="M233.5,9.4h6.29V24.75l5-7.28h6.54l-6,8.26,6.5,10.12h-7l-5-8v8.05H233.5Z" fill="#fff"/><path d="M251.31,26.89v-.28c0-5.9,4.39-9.63,9.94-9.63,5,0,9.35,2.88,9.35,9.49v1.65H257.67c.18,2.42,1.58,3.83,3.83,3.83,2.07,0,2.95-.95,3.2-2.18h5.9c-.56,4.14-3.76,6.5-9.31,6.5C255.53,36.27,251.31,32.89,251.31,26.89Zm13.18-2.32c-.11-2.21-1.2-3.44-3.24-3.44-1.89,0-3.19,1.23-3.51,3.44Z" fill="#fff"/><path d="M271.72,30h5.8c.21,1.34.81,2.08,2.6,2.08,1.55,0,2.25-.6,2.25-1.51s-.88-1.3-3.41-1.65c-4.92-.64-7-2.08-7-5.91,0-4.07,3.62-6,7.87-6,4.53,0,7.7,1.55,8.12,5.94h-5.69a2.06,2.06,0,0,0-2.36-1.83c-1.37,0-2.07.6-2.07,1.44s.84,1.23,3.09,1.51c5.1.64,7.56,2,7.56,5.9,0,4.36-3.24,6.33-8.33,6.33C274.92,36.27,271.86,34.09,271.72,30Z" fill="#fff"/><path d="M297.76,29.94V21.76h-2.22V17.47h2.22V13.65h6.29v3.82h3.62v4.29h-3.62v7.59a1.68,1.68,0,0,0,1.86,1.93A4.8,4.8,0,0,0,307.7,31v4.78a13.21,13.21,0,0,1-3.48.53C300.08,36.27,297.76,34.26,297.76,29.94Z" fill="#fff"/><path d="M309.07,30.75c0-4.32,3.66-6,9.77-6h1.76v-.43c0-1.75-.42-2.91-2.43-2.91a2.25,2.25,0,0,0-2.49,2.18h-5.91c.29-4.43,3.76-6.61,8.79-6.61s8.29,2.08,8.29,7V35.85h-6.11V33.7c-.88,1.34-2.5,2.57-5.45,2.57C312,36.27,309.07,34.65,309.07,30.75Zm11.53-1.33V28.29H319c-2.53,0-3.66.5-3.66,2,0,1.05.7,1.72,2.18,1.72C319.26,32,320.6,31,320.6,29.42Z" fill="#fff"/><path d="M334.55,26.5l-5.73-9h7.24l2.84,4.85,2.78-4.85h6.47L342.35,26l6.36,9.84h-7.24l-3.27-5.48-3.34,5.48h-6.43Z" fill="#fff"/><path d="M347.9,26.89v-.28c0-5.9,4.39-9.63,9.94-9.63,5,0,9.35,2.88,9.35,9.49v1.65H354.26c.17,2.42,1.58,3.83,3.83,3.83,2.07,0,3-.95,3.19-2.18h5.91c-.56,4.14-3.76,6.5-9.31,6.5C352.11,36.27,347.9,32.89,347.9,26.89Zm13.17-2.32c-.1-2.21-1.19-3.44-3.23-3.44s-3.2,1.23-3.51,3.44Z" fill="#fff"/><path d="M368.31,30h5.8c.21,1.34.81,2.08,2.6,2.08,1.54,0,2.25-.6,2.25-1.51s-.88-1.3-3.41-1.65c-4.92-.64-7-2.08-7-5.91,0-4.07,3.61-6,7.87-6,4.53,0,7.69,1.55,8.11,5.94h-5.69a2,2,0,0,0-2.35-1.83c-1.37,0-2.08.6-2.08,1.44s.85,1.23,3.1,1.51c5.09.64,7.55,2,7.55,5.9,0,4.36-3.23,6.33-8.33,6.33S368.45,34.09,368.31,30Z" fill="#fff"/><path d="M392.52,26.89v-.28c0-5.9,4.39-9.63,10.08-9.63s10,3.62,10,9.45v.28c0,6-4.39,9.56-10.05,9.56S392.52,32.82,392.52,26.89Zm13.7-.11V26.5c0-3.09-1.23-4.81-3.62-4.81S399,23.34,399,26.43v.28c0,3.16,1.23,4.89,3.65,4.89S406.22,29.84,406.22,26.78Z" fill="#fff"/><path d="M415.78,21.76h-2.32V17.47h2.32v-1.4c0-4.57,2.81-6.71,7.17-6.71a10.59,10.59,0,0,1,2.81.35v4.6a5.62,5.62,0,0,0-1.69-.24,1.84,1.84,0,0,0-2,2v1.4h5.35V15.86c0-4.57,2.88-6.75,7.2-6.75a11.2,11.2,0,0,1,2.88.39v4.6a5.83,5.83,0,0,0-1.72-.24,1.83,1.83,0,0,0-2.07,2v1.61h3.72v4.29h-3.72V35.85h-6.29V21.76H422V35.85h-6.25Z" fill="#fff"/><path d="M127.86,68.25l-7.34-16.5h6.82l3.79,9.8,3.52-9.8h6l-9.84,24.51h-6Z" fill="#fff"/><path d="M140.3,61.16v-.28c0-5.9,4.39-9.63,10.09-9.63s10,3.62,10,9.45V61c0,6-4.39,9.56-10.05,9.56S140.3,67.1,140.3,61.16ZM154,61.05v-.28c0-3.09-1.23-4.81-3.62-4.81s-3.66,1.65-3.66,4.74V61c0,3.16,1.23,4.89,3.66,4.89S154,64.11,154,61.05Z" fill="#fff"/><path d="M162.47,63.72v-12h6.29v11c0,2.07.81,3.09,2.6,3.09s3.13-1.13,3.13-3.48V51.75h6.29V70.12h-6.29V67.27a6,6,0,0,1-5.83,3.27C165.11,70.54,162.47,68.36,162.47,63.72Z" fill="#fff"/><path d="M184,51.75h6.29V55.4a5.79,5.79,0,0,1,5.94-3.9v5.87c-3.83-.11-5.94,1.08-5.94,4v8.71H184Z" fill="#fff"/><path d="M205.72,64.21V56h-2.21V51.75h2.21V47.92H212v3.83h3.62V56H212v7.59a1.68,1.68,0,0,0,1.87,1.93,4.84,4.84,0,0,0,1.79-.32V70a13.28,13.28,0,0,1-3.48.53C208,70.54,205.72,68.54,205.72,64.21Z" fill="#fff"/><path d="M217,61.16v-.28c0-5.9,4.39-9.63,10.08-9.63s10,3.62,10,9.45V61c0,6-4.4,9.56-10,9.56S217,67.1,217,61.16Zm13.7-.11v-.28c0-3.09-1.23-4.81-3.62-4.81s-3.65,1.65-3.65,4.74V61c0,3.16,1.23,4.89,3.65,4.89S230.74,64.11,230.74,61.05Z" fill="#fff"/><path d="M239.28,57.72h9.84v4.74h-9.84Z" fill="#fff"/><path d="M251.33,61.12v-.28c0-6.25,3.44-9.59,7.8-9.59a6,6,0,0,1,5.66,3.09V43.67h6.29V70.12h-6.29v-3a6.21,6.21,0,0,1-5.73,3.41C254.81,70.54,251.33,67.48,251.33,61.12ZM265,61v-.28c0-3.09-1.3-4.74-3.62-4.74s-3.62,1.58-3.62,4.77v.28c0,3.09,1.37,4.68,3.55,4.68S265,64.14,265,61Z" fill="#fff"/><path d="M273.29,61.16v-.28c0-5.9,4.39-9.63,10.08-9.63s10,3.62,10,9.45V61c0,6-4.39,9.56-10.05,9.56S273.29,67.1,273.29,61.16Zm13.7-.11v-.28c0-3.09-1.23-4.81-3.62-4.81s-3.65,1.65-3.65,4.74V61c0,3.16,1.23,4.89,3.65,4.89S287,64.11,287,61.05Z" fill="#fff"/><path d="M302.17,43.67h6.25V70.12h-6.25Z" fill="#fff"/><path d="M311.65,46.76A3.47,3.47,0,1,1,315.1,50,3.29,3.29,0,0,1,311.65,46.76Zm.32,5h6.29V70.12H312Z" fill="#fff"/><path d="M320.4,64.29h5.8c.21,1.33.81,2.07,2.6,2.07,1.55,0,2.25-.6,2.25-1.51s-.88-1.3-3.41-1.65c-4.92-.64-7-2.08-7-5.91,0-4.07,3.62-6,7.87-6,4.53,0,7.7,1.55,8.12,5.94h-5.7a2,2,0,0,0-2.35-1.83c-1.37,0-2.07.6-2.07,1.44s.84,1.23,3.09,1.51c5.1.64,7.56,2,7.56,5.9,0,4.36-3.24,6.33-8.33,6.33S320.54,68.36,320.4,64.29Z" fill="#fff"/><path d="M340,64.21V56h-2.21V51.75H340V47.92h6.29v3.83H350V56h-3.62v7.59a1.68,1.68,0,0,0,1.87,1.93,4.8,4.8,0,0,0,1.79-.32V70a13.21,13.21,0,0,1-3.48.53C342.36,70.54,340,68.54,340,64.21Z" fill="#fff"/><path d="M352.09,67a3.51,3.51,0,0,1,3.59-3.55,3.55,3.55,0,1,1,0,7.09A3.51,3.51,0,0,1,352.09,67Z" fill="#fff"/></g><g id="Rect"><rect width="728" height="90" fill="none"/></g></g></svg>