<svg xmlns="http://www.w3.org/2000/svg" viewBox="0 0 728 90"><title>728x90_legal</title><g id="Layer_2" data-name="Layer 2"><g id="_Starting_price_for_simple_returns." data-name="*Starting price for simple returns."><path d="M121,81.74l.74-1-1.1-.26.19-.6,1.06.43-.06-1.21h.66l-.07,1.21,1.06-.43.19.6-1.11.26.75,1-.51.37L122.1,81l-.63,1.08Z" fill="#fff"/><path d="M124.31,83.83h.75c.1.76.41,1.41,1.7,1.41A1.31,1.31,0,0,0,128.23,84c0-.73-.34-1-1.56-1.24s-2.15-.63-2.15-1.77a1.87,1.87,0,0,1,2.07-1.75,2,2,0,0,1,2.21,1.78h-.7c-.15-.81-.62-1.15-1.51-1.15s-1.34.44-1.34,1,.24,1,1.55,1.15S129,82.76,129,84a2,2,0,0,1-2.22,1.9A2.15,2.15,0,0,1,124.31,83.83Z" fill="#fff"/><path d="M130.29,84.61v-2.9h-.67v-.63h.67V80H131v1.07h1.1v.63H131v2.83c0,.46.21.68.59.68a1.39,1.39,0,0,0,.57-.1v.63a1.63,1.63,0,0,1-.64.1A1.14,1.14,0,0,1,130.29,84.61Z" fill="#fff"/><path d="M132.85,84.49c0-1.09,1.15-1.46,2.35-1.46h.68v-.34c0-.75-.29-1.07-1-1.07s-1,.27-1.08.85h-.74A1.64,1.64,0,0,1,134.91,81a1.52,1.52,0,0,1,1.71,1.69v3.1h-.74V85.2a1.7,1.7,0,0,1-1.47.67C133.54,85.87,132.85,85.45,132.85,84.49Zm3-.35v-.58h-.65c-.94,0-1.64.23-1.64.93,0,.48.24.79.89.79S135.88,84.87,135.88,84.14Z" fill="#fff"/><path d="M138,81.08h.75v.85a1.65,1.65,0,0,1,1.55-.93v.7c-.95,0-1.55.35-1.55,1.51v2.58H138Z" fill="#fff"/><path d="M141.4,84.61v-2.9h-.67v-.63h.67V80h.75v1.07h1.1v.63h-1.1v2.83c0,.46.21.68.59.68a1.39,1.39,0,0,0,.57-.1v.63a1.63,1.63,0,0,1-.64.1A1.14,1.14,0,0,1,141.4,84.61Z" fill="#fff"/><path d="M144.18,79.61a.51.51,0,0,1,.5-.5.5.5,0,0,1,.49.5.49.49,0,0,1-.49.49A.5.5,0,0,1,144.18,79.61Zm.14,1.47h.74v4.71h-.74Z" fill="#fff"/><path d="M146.46,81.08h.74v.75a1.63,1.63,0,0,1,1.51-.83c1,0,1.66.53,1.66,1.9v2.89h-.75V82.85c0-.83-.35-1.2-1.11-1.2a1.24,1.24,0,0,0-1.31,1.29v2.85h-.74Z" fill="#fff"/><path d="M151.45,86.06h.76c.11.54.56.82,1.36.82a1.33,1.33,0,0,0,1.51-1.45v-.68a2,2,0,0,1-1.59.89,2.12,2.12,0,0,1-2.14-2.23v-.07A2.23,2.23,0,0,1,153.54,81a1.69,1.69,0,0,1,1.54.84v-.76h.74v4.4a2,2,0,0,1-2.24,2C152.18,87.51,151.57,86.85,151.45,86.06Zm3.65-2.71v-.06a1.46,1.46,0,0,0-1.49-1.67,1.5,1.5,0,0,0-1.49,1.69v.07A1.49,1.49,0,0,0,153.57,85,1.52,1.52,0,0,0,155.1,83.35Z" fill="#fff"/><path d="M159.45,81.08h.74v.8a1.94,1.94,0,0,1,1.59-.88,2.14,2.14,0,0,1,2.14,2.37v.07a2.17,2.17,0,0,1-2.14,2.43,1.78,1.78,0,0,1-1.59-.85v2.41h-.74Zm3.7,2.4v-.07c0-1.19-.66-1.79-1.45-1.79s-1.54.58-1.54,1.79v.07c0,1.2.63,1.77,1.55,1.77S163.15,84.62,163.15,83.48Z" fill="#fff"/><path d="M165,81.08h.74v.85a1.65,1.65,0,0,1,1.55-.93v.7c-1,0-1.55.35-1.55,1.51v2.58H165Z" fill="#fff"/><path d="M168.07,79.61a.51.51,0,0,1,.5-.5.5.5,0,0,1,.49.5.49.49,0,0,1-.49.49A.5.5,0,0,1,168.07,79.61Zm.14,1.47H169v4.71h-.75Z" fill="#fff"/><path d="M170,83.49v-.08A2.28,2.28,0,0,1,172.28,81a1.84,1.84,0,0,1,2,1.65h-.74a1.17,1.17,0,0,0-1.3-1,1.59,1.59,0,0,0-1.51,1.79v.08c0,1.15.63,1.76,1.54,1.76a1.28,1.28,0,0,0,1.35-1.15h.69a2,2,0,0,1-2,1.77A2.24,2.24,0,0,1,170,83.49Z" fill="#fff"/><path d="M175,83.49v-.08a2.21,2.21,0,0,1,2.2-2.41,2.06,2.06,0,0,1,2.11,2.34v.24h-3.54c0,1.08.55,1.67,1.51,1.67.73,0,1.15-.27,1.25-.82h.75a1.82,1.82,0,0,1-2,1.44A2.2,2.2,0,0,1,175,83.49Zm3.55-.51c-.08-1-.58-1.36-1.35-1.36a1.4,1.4,0,0,0-1.4,1.36Z" fill="#fff"/><path d="M182.72,81.71H182v-.63h.68v-.76c0-1,.46-1.52,1.4-1.52a1.6,1.6,0,0,1,.56.09v.64a1.39,1.39,0,0,0-.53-.1c-.49,0-.69.33-.69.81v.84h1.15v.63h-1.15v4.08h-.74Z" fill="#fff"/><path d="M185,83.48v-.07a2.31,2.31,0,1,1,4.61,0v.07a2.31,2.31,0,1,1-4.61,0Zm3.84,0v-.07c0-1.08-.6-1.79-1.53-1.79s-1.54.71-1.54,1.79v.07c0,1.07.58,1.77,1.54,1.77A1.56,1.56,0,0,0,188.8,83.48Z" fill="#fff"/><path d="M190.6,81.08h.75v.85a1.64,1.64,0,0,1,1.54-.93v.7c-.94,0-1.54.35-1.54,1.51v2.58h-.75Z" fill="#fff"/><path d="M195.71,84.34h.72c.06.56.35.91,1.11.91s1-.24,1-.75-.36-.65-1.09-.79c-1.22-.22-1.64-.57-1.64-1.38A1.47,1.47,0,0,1,197.42,81a1.5,1.5,0,0,1,1.7,1.36h-.72a.86.86,0,0,0-1-.74c-.54,0-.89.27-.89.68s.24.59,1.1.74,1.65.4,1.65,1.4-.58,1.43-1.72,1.43S195.75,85.3,195.71,84.34Z" fill="#fff"/><path d="M200.16,79.61a.49.49,0,1,1,1,0,.49.49,0,0,1-1,0Zm.13,1.47H201v4.71h-.75Z" fill="#fff"/><path d="M202.43,81.08h.75v.72a1.51,1.51,0,0,1,1.4-.8,1.36,1.36,0,0,1,1.37.88,1.83,1.83,0,0,1,1.61-.88c.85,0,1.58.51,1.58,1.87v2.92h-.74v-3c0-.83-.35-1.17-1-1.17a1.2,1.2,0,0,0-1.24,1.26v2.88h-.75v-3c0-.83-.35-1.17-1-1.17a1.19,1.19,0,0,0-1.24,1.26v2.88h-.75Z" fill="#fff"/><path d="M210.47,81.08h.75v.8a1.94,1.94,0,0,1,1.59-.88A2.14,2.14,0,0,1,215,83.37v.07a2.18,2.18,0,0,1-2.14,2.43,1.78,1.78,0,0,1-1.59-.85v2.41h-.75Zm3.71,2.4v-.07c0-1.19-.66-1.79-1.45-1.79s-1.54.58-1.54,1.79v.07c0,1.2.63,1.77,1.55,1.77S214.18,84.62,214.18,83.48Z" fill="#fff"/><path d="M216,78.83h.76v7H216Z" fill="#fff"/><path d="M217.79,83.49v-.08A2.21,2.21,0,0,1,220,81a2.06,2.06,0,0,1,2.11,2.34v.24h-3.54c0,1.08.55,1.67,1.51,1.67.73,0,1.15-.27,1.25-.82h.75a1.81,1.81,0,0,1-2,1.44A2.2,2.2,0,0,1,217.79,83.49Zm3.55-.51c-.07-1-.57-1.36-1.35-1.36a1.41,1.41,0,0,0-1.4,1.36Z" fill="#fff"/><path d="M225.36,81.08h.75v.85a1.64,1.64,0,0,1,1.54-.93v.7c-.94,0-1.54.35-1.54,1.51v2.58h-.75Z" fill="#fff"/><path d="M228.12,83.49v-.08a2.21,2.21,0,0,1,2.2-2.41,2.06,2.06,0,0,1,2.11,2.34v.24h-3.54c0,1.08.55,1.67,1.51,1.67.73,0,1.15-.27,1.25-.82h.75a1.81,1.81,0,0,1-2,1.44A2.2,2.2,0,0,1,228.12,83.49Zm3.55-.51c-.07-1-.58-1.36-1.35-1.36a1.41,1.41,0,0,0-1.4,1.36Z" fill="#fff"/><path d="M233.6,84.61v-2.9h-.67v-.63h.67V80h.75v1.07h1.09v.63h-1.09v2.83c0,.46.2.68.58.68a1.4,1.4,0,0,0,.58-.1v.63a1.67,1.67,0,0,1-.64.1A1.14,1.14,0,0,1,233.6,84.61Z" fill="#fff"/><path d="M236.45,84.06v-3h.75v3c0,.82.35,1.19,1.09,1.19a1.23,1.23,0,0,0,1.29-1.28V81.08h.75v4.71h-.75V85a1.6,1.6,0,0,1-1.49.83C237.15,85.87,236.45,85.36,236.45,84.06Z" fill="#fff"/><path d="M241.7,81.08h.75v.85A1.64,1.64,0,0,1,244,81v.7c-.94,0-1.54.35-1.54,1.51v2.58h-.75Z" fill="#fff"/><path d="M245,81.08h.74v.75A1.63,1.63,0,0,1,247.2,81c1,0,1.66.53,1.66,1.9v2.89h-.75V82.85c0-.83-.35-1.2-1.11-1.2a1.24,1.24,0,0,0-1.31,1.29v2.85H245Z" fill="#fff"/><path d="M249.8,84.34h.73c.05.56.35.91,1.1.91s1-.24,1-.75-.37-.65-1.1-.79c-1.22-.22-1.63-.57-1.63-1.38A1.46,1.46,0,0,1,251.52,81a1.51,1.51,0,0,1,1.7,1.36h-.72a.86.86,0,0,0-1-.74c-.54,0-.89.27-.89.68s.23.59,1.09.74,1.66.4,1.66,1.4-.59,1.43-1.73,1.43S249.85,85.3,249.8,84.34Z" fill="#fff"/><path d="M254.3,85.26a.58.58,0,1,1,.58.58A.58.58,0,0,1,254.3,85.26Z" fill="#fff"/></g><g id="Rect"><rect width="728" height="90" fill="none"/></g></g></svg>