<svg xmlns="http://www.w3.org/2000/svg" viewBox="0 0 154.25 35"><title>cta_txt</title><g id="Layer_2" data-name="Layer 2"><g id="CTA_copy_6" data-name="CTA copy 6"><g id="Rectangle_1" data-name="Rectangle 1"><rect width="154.25" height="35" fill="none"/></g><g id="Try_Tax_Pro_Go" data-name="Try Tax Pro Go"><path d="M26.68,12.55H23.57v-2h8.86v2H29.31V22H26.68Z" transform="translate(0)" fill="#262626"/><path d="M33.05,13.61h2.34v1.6a2.79,2.79,0,0,1,2.73-1.73v2.16c-1.73,0-2.73.55-2.73,2.15V22H33.05Z" transform="translate(0)" fill="#262626"/><path d="M42.07,21.13l-3.35-7.52h2.51l2.05,5,1.89-5h2.24L42.84,24.83H40.59Z" transform="translate(0)" fill="#262626"/><path d="M54.23,12.55H51.12v-2H60v2H56.86V22H54.23Z" transform="translate(0)" fill="#262626"/><path d="M59.55,19.66c0-1.95,1.81-2.69,4.39-2.69h1v-.34c0-1-.3-1.53-1.37-1.53a1.26,1.26,0,0,0-1.43,1.18H59.88c.14-2,1.72-2.86,3.79-2.86s3.53.83,3.53,3.1V22H64.92V21a2.87,2.87,0,0,1-2.54,1.19C60.84,22.16,59.55,21.42,59.55,19.66Zm5.34-.61v-.7H64c-1.36,0-2.15.28-2.15,1.18,0,.61.38,1,1.23,1C64.1,20.54,64.89,20,64.89,19.05Z" transform="translate(0)" fill="#262626"/><path d="M71.09,17.71l-2.7-4.1h2.68l1.58,2.51,1.55-2.51h2.42l-2.7,3.92,3,4.45H74.2l-1.78-2.82L70.6,22H68.2Z" transform="translate(0)" fill="#262626"/><path d="M81.52,10.54h4c2.81,0,4.41,1.23,4.41,3.64v.07c0,2.42-1.7,3.57-4.32,3.57H84.12V22h-2.6ZM85.44,16c1.27,0,2-.61,2-1.75V14.2c0-1.22-.71-1.7-2-1.7H84.12V16Z" transform="translate(0)" fill="#262626"/><path d="M91.17,13.61H93.5v1.6a2.79,2.79,0,0,1,2.73-1.73v2.16c-1.73,0-2.73.55-2.73,2.15V22H91.17Z" transform="translate(0)" fill="#262626"/><path d="M96.86,17.88v-.13a4.45,4.45,0,0,1,8.89,0v.12a4.45,4.45,0,0,1-8.89.05Zm6.52,0v-.11c0-1.6-.76-2.56-2.07-2.56s-2.06.93-2.06,2.53v.12c0,1.6.74,2.56,2.06,2.56S103.38,19.43,103.38,17.85Z" transform="translate(0)" fill="#262626"/><path d="M110,16.33V16.2a5.63,5.63,0,0,1,5.87-5.84c2.57,0,4.86,1.17,5.13,4h-2.6a2.22,2.22,0,0,0-2.5-1.95c-2,0-3.17,1.49-3.17,3.82v.13c0,2.21,1,3.79,3.21,3.79,1.93,0,2.72-1.1,2.77-2.41h-2.6V15.85h5.18v1.22c0,3.05-2,5.09-5.42,5.09A5.45,5.45,0,0,1,110,16.33Z" transform="translate(0)" fill="#262626"/><path d="M122.23,17.88v-.13a4.45,4.45,0,0,1,8.89,0v.12a4.45,4.45,0,0,1-8.89.05Zm6.52,0v-.11c0-1.6-.76-2.56-2.07-2.56s-2.06.93-2.06,2.53v.12c0,1.6.74,2.56,2.06,2.56S128.75,19.43,128.75,17.85Z" transform="translate(0)" fill="#262626"/></g></g></g></svg>