<svg xmlns="http://www.w3.org/2000/svg" viewBox="0 0 300 600"><title>txt2</title><g id="Layer_2" data-name="Layer 2"><g id="Rect"><rect width="300" height="600" fill="none"/></g><g id="Expert_tax_prep_without_the_office_visit." data-name="Expert tax prep without the office visit."><path d="M20.45,148.21H31.31v3.47H24.94v2.71H30v3.21H24.94v2.86h6.72v3.48H20.45Z" fill="#fff"/><path d="M36.17,158.09l-3.58-5.66h4.53l1.78,3,1.74-3h4l-3.63,5.35,4,6.16H40.5l-2-3.43-2.09,3.43h-4Z" fill="#fff"/><path d="M46.13,152.43h3.94v1.72a4.06,4.06,0,0,1,3.58-2c2.69,0,4.86,2,4.86,6v.17c0,4-2.17,5.94-4.88,5.94a3.79,3.79,0,0,1-3.56-1.95v5.54H46.13Zm8.38,5.83v-.17c0-2-.88-3-2.26-3s-2.29,1-2.29,3v.18c0,2,.86,2.95,2.29,2.95S54.51,160.15,54.51,158.26Z" fill="#fff"/><path d="M59.33,158.33v-.18a5.89,5.89,0,0,1,6.22-6c3.14,0,5.85,1.81,5.85,5.94v1H63.31a2.3,2.3,0,0,0,2.39,2.4c1.3,0,1.85-.6,2-1.37h3.7c-.35,2.6-2.35,4.07-5.83,4.07S59.33,162.09,59.33,158.33Zm8.24-1.45c-.06-1.39-.75-2.16-2-2.16a2.19,2.19,0,0,0-2.2,2.16Z" fill="#fff"/><path d="M72.76,152.43H76.7v2.29a3.61,3.61,0,0,1,3.71-2.44V156c-2.39-.06-3.71.68-3.71,2.53v5.46H72.76Z" fill="#fff"/><path d="M82.55,160.24v-5.12H81.16v-2.69h1.39V150h3.93v2.4h2.27v2.69H86.48v4.75a1.05,1.05,0,0,0,1.17,1.21,3,3,0,0,0,1.12-.2v3a7.94,7.94,0,0,1-2.18.33C84,164.2,82.55,163,82.55,160.24Z" fill="#fff"/><path d="M94.77,160.24v-5.12H93.39v-2.69h1.38V150h3.94v2.4H101v2.69H98.71v4.75c0,.84.42,1.21,1.16,1.21a3,3,0,0,0,1.12-.2v3a7.86,7.86,0,0,1-2.17.33C96.22,164.2,94.77,163,94.77,160.24Z" fill="#fff"/><path d="M101.85,160.75c0-2.71,2.29-3.76,6.12-3.76h1.09v-.27c0-1.1-.26-1.82-1.51-1.82a1.4,1.4,0,0,0-1.56,1.36h-3.7c.18-2.77,2.36-4.14,5.5-4.14s5.19,1.3,5.19,4.36v7.46h-3.83V162.6a3.79,3.79,0,0,1-3.41,1.6C103.68,164.2,101.85,163.19,101.85,160.75Zm7.21-.84v-.7h-1c-1.58,0-2.29.31-2.29,1.25,0,.66.44,1.08,1.37,1.08A1.73,1.73,0,0,0,109.06,159.91Z" fill="#fff"/><path d="M117.79,158.09l-3.58-5.66h4.53l1.78,3,1.74-3h4l-3.62,5.35,4,6.16h-4.53l-2-3.43L118,163.94h-4Z" fill="#fff"/><path d="M20.1,175.43H24v1.72a4.07,4.07,0,0,1,3.59-2c2.68,0,4.86,2,4.86,6v.17c0,4-2.18,5.94-4.88,5.94A3.81,3.81,0,0,1,24,185.25v5.54H20.1Zm8.38,5.83v-.17c0-2-.88-3-2.27-3s-2.29,1-2.29,3v.18c0,2,.86,2.95,2.29,2.95S28.48,183.15,28.48,181.26Z" fill="#fff"/><path d="M33.91,175.43h3.93v2.29a3.63,3.63,0,0,1,3.72-2.44V179c-2.4-.06-3.72.68-3.72,2.53v5.46H33.91Z" fill="#fff"/><path d="M42.26,181.33v-.18a5.89,5.89,0,0,1,6.23-6c3.14,0,5.84,1.81,5.84,5.94v1H46.24a2.3,2.3,0,0,0,2.4,2.4c1.3,0,1.85-.6,2-1.37h3.69c-.35,2.6-2.35,4.07-5.82,4.07S42.26,185.09,42.26,181.33Zm8.25-1.45c-.07-1.39-.75-2.16-2-2.16a2.19,2.19,0,0,0-2.2,2.16Z" fill="#fff"/><path d="M55.7,175.43h3.93v1.72a4.07,4.07,0,0,1,3.59-2c2.68,0,4.86,2,4.86,6v.17c0,4-2.18,5.94-4.88,5.94a3.81,3.81,0,0,1-3.57-1.95v5.54H55.7Zm8.38,5.83v-.17c0-2-.88-3-2.27-3s-2.29,1-2.29,3v.18c0,2,.86,2.95,2.29,2.95S64.08,183.15,64.08,181.26Z" fill="#fff"/><path d="M72.54,175.43h4.11l1.67,6.89,1.94-6.89h3.17l1.71,6.89L87,175.43h3.74L87.1,186.94H83.34l-1.72-6.43-1.78,6.43H76Z" fill="#fff"/><path d="M91.67,172.31a2.17,2.17,0,1,1,2.16,2A2.06,2.06,0,0,1,91.67,172.31Zm.2,3.12h3.94v11.51H91.87Z" fill="#fff"/><path d="M98.44,183.24v-5.12H97.06v-2.69h1.38V173h3.94v2.4h2.27v2.69h-2.27v4.75a1.05,1.05,0,0,0,1.17,1.21,3,3,0,0,0,1.12-.2v3a8,8,0,0,1-2.18.33C99.9,187.2,98.44,186,98.44,183.24Z" fill="#fff"/><path d="M106.14,170.37h3.94v6.91a4.05,4.05,0,0,1,3.78-2.16c2.22,0,3.76,1.39,3.76,4.34v7.48h-3.94v-6.69c0-1.3-.5-1.94-1.65-1.94s-2,.71-2,2.18v6.45h-3.94Z" fill="#fff"/><path d="M118.92,181.33v-.18c0-3.69,2.75-6,6.31-6s6.26,2.27,6.26,5.92v.18c0,3.74-2.74,6-6.28,6S118.92,185.05,118.92,181.33Zm8.57-.07v-.17c0-1.94-.77-3-2.26-3s-2.29,1-2.29,3v.18c0,2,.77,3.06,2.29,3.06S127.49,183.18,127.49,181.26Z" fill="#fff"/><path d="M132.79,182.94v-7.51h3.94v6.87c0,1.29.5,1.93,1.62,1.93s2-.7,2-2.18v-6.62h3.94v11.51h-3.94v-1.78a3.77,3.77,0,0,1-3.65,2C134.44,187.2,132.79,185.84,132.79,182.94Z" fill="#fff"/><path d="M146.78,183.24v-5.12h-1.39v-2.69h1.39V173h3.93v2.4H153v2.69h-2.27v4.75a1.05,1.05,0,0,0,1.17,1.21,3,3,0,0,0,1.12-.2v3a7.94,7.94,0,0,1-2.18.33C148.23,187.2,146.78,186,146.78,183.24Z" fill="#fff"/><path d="M20.63,206.24v-5.12H19.24v-2.69h1.39V196h3.93v2.4h2.27v2.69H24.56v4.75a1.05,1.05,0,0,0,1.17,1.21,3,3,0,0,0,1.12-.2v3a7.94,7.94,0,0,1-2.18.33C22.08,210.2,20.63,209,20.63,206.24Z" fill="#fff"/><path d="M28.32,193.37h3.94v6.91A4.05,4.05,0,0,1,36,198.12c2.22,0,3.76,1.39,3.76,4.34v7.48H35.86v-6.69c0-1.3-.5-1.94-1.64-1.94s-2,.71-2,2.18v6.45H28.32Z" fill="#fff"/><path d="M41.1,204.33v-.18a5.89,5.89,0,0,1,6.22-6c3.15,0,5.85,1.81,5.85,5.94v1H45.08a2.3,2.3,0,0,0,2.4,2.4c1.29,0,1.84-.6,2-1.37h3.69c-.35,2.6-2.35,4.07-5.83,4.07S41.1,208.09,41.1,204.33Zm8.24-1.45c-.06-1.39-.74-2.16-2-2.16a2.19,2.19,0,0,0-2.2,2.16Z" fill="#fff"/><path d="M57.92,204.33v-.18c0-3.69,2.75-6,6.31-6s6.27,2.27,6.27,5.92v.18c0,3.74-2.75,6-6.29,6S57.92,208.05,57.92,204.33Zm8.58-.07v-.17c0-1.94-.77-3-2.27-3s-2.29,1-2.29,3v.18c0,2,.77,3.06,2.29,3.06S66.5,206.18,66.5,204.26Z" fill="#fff"/><path d="M72.48,201.12H71v-2.69h1.46v-.88c0-2.86,1.76-4.2,4.48-4.2a6.63,6.63,0,0,1,1.76.22v2.88a3.34,3.34,0,0,0-1-.15,1.15,1.15,0,0,0-1.28,1.25v.88h3.34v-1c0-2.86,1.81-4.23,4.51-4.23a7,7,0,0,1,1.8.25v2.88a3.48,3.48,0,0,0-1.07-.15,1.14,1.14,0,0,0-1.3,1.25v1H86v2.69H83.67v8.82H79.73v-8.82H76.39v8.82H72.48Z" fill="#fff"/><path d="M87.21,195.31a2.05,2.05,0,0,1,2.15-2.05,2,2,0,1,1,0,4.07A2,2,0,0,1,87.21,195.31Zm.2,3.12h3.93v11.51H87.41Z" fill="#fff"/><path d="M92.84,204.33v-.18a5.79,5.79,0,0,1,6.13-6c2.82,0,5.41,1.24,5.63,4.73h-3.69a1.71,1.71,0,0,0-1.85-1.67c-1.38,0-2.2,1-2.2,2.93v.17c0,2,.77,3,2.27,3a1.91,1.91,0,0,0,2-1.91h3.54c-.11,2.9-2.07,4.79-5.79,4.79C95.45,210.2,92.84,208.2,92.84,204.33Z" fill="#fff"/><path d="M105.33,204.33v-.18a5.89,5.89,0,0,1,6.22-6c3.14,0,5.85,1.81,5.85,5.94v1h-8.09a2.3,2.3,0,0,0,2.39,2.4c1.3,0,1.85-.6,2-1.37h3.69c-.35,2.6-2.35,4.07-5.83,4.07S105.33,208.09,105.33,204.33Zm8.24-1.45c-.06-1.39-.74-2.16-2-2.16a2.19,2.19,0,0,0-2.2,2.16Z" fill="#fff"/><path d="M19.11,221.43h4.2l2.4,7.42,2.35-7.42h3.76l-4.2,11.51H23.33Z" fill="#fff"/><path d="M32.72,218.31a2.17,2.17,0,1,1,2.16,2A2.06,2.06,0,0,1,32.72,218.31Zm.2,3.12h3.93v11.51H32.92Z" fill="#fff"/><path d="M38.2,229.29h3.62c.14.83.51,1.29,1.63,1.29,1,0,1.41-.37,1.41-.94s-.55-.82-2.13-1c-3.08-.39-4.38-1.29-4.38-3.69s2.26-3.79,4.92-3.79c2.84,0,4.82,1,5.08,3.72H44.79a1.28,1.28,0,0,0-1.47-1.14c-.86,0-1.3.37-1.3.9s.53.77,1.94,1c3.18.39,4.72,1.23,4.72,3.69,0,2.73-2,4-5.21,4S38.28,231.84,38.2,229.29Z" fill="#fff"/><path d="M49.87,218.31a2.17,2.17,0,1,1,2.16,2A2.06,2.06,0,0,1,49.87,218.31Zm.2,3.12H54v11.51H50.07Z" fill="#fff"/><path d="M56.64,229.24v-5.12H55.26v-2.69h1.38V219h3.94v2.4h2.26v2.69H60.58v4.75a1.05,1.05,0,0,0,1.17,1.21,3,3,0,0,0,1.12-.2v3a8,8,0,0,1-2.18.33C58.1,233.2,56.64,232,56.64,229.24Z" fill="#fff"/><path d="M64.19,231a2.19,2.19,0,0,1,2.24-2.22,2.22,2.22,0,1,1,0,4.44A2.19,2.19,0,0,1,64.19,231Z" fill="#fff"/></g></g></svg>