<svg xmlns="http://www.w3.org/2000/svg" viewBox="0 0 300 250"><title>txt2</title><g id="Layer_2" data-name="Layer 2"><g id="Rect"><rect width="300" height="250" fill="none"/></g><g id="EXPERT"><path d="M23.24,75.19h8.89V78H26.91v2.21h4.16v2.63H26.91v2.34h5.51v2.84H23.24Z" fill="#fff"/><path d="M36.37,83.27l-2.93-4.62h3.71l1.46,2.48L40,78.65h3.31l-3,4.37,3.25,5h-3.7l-1.67-2.8-1.71,2.8h-3.3Z" fill="#fff"/><path d="M44.79,78.65H48v1.4A3.33,3.33,0,0,1,51,78.4c2.19,0,4,1.65,4,4.87v.15c0,3.24-1.78,4.86-4,4.86A3.12,3.12,0,0,1,48,86.68v4.54H44.79Zm6.86,4.77v-.15c0-1.65-.72-2.44-1.85-2.44s-1.88.84-1.88,2.43v.14c0,1.6.71,2.41,1.88,2.41S51.65,85,51.65,83.42Z" fill="#fff"/><path d="M55.86,83.47v-.14A4.81,4.81,0,0,1,61,78.4c2.57,0,4.78,1.47,4.78,4.86v.84H59.11a1.88,1.88,0,0,0,2,2c1.06,0,1.51-.49,1.63-1.12h3c-.28,2.12-1.92,3.33-4.76,3.33S55.86,86.55,55.86,83.47Zm6.74-1.19c-.05-1.13-.61-1.76-1.65-1.76a1.79,1.79,0,0,0-1.8,1.76Z" fill="#fff"/><path d="M67.12,78.65h3.22v1.87a3,3,0,0,1,3-2v3c-2-.06-3,.56-3,2.07v4.46H67.12Z" fill="#fff"/><path d="M75.4,85v-4.2H74.26V78.65H75.4v-2h3.22v2h1.85v2.19H78.62v3.89c0,.69.34,1,.95,1a2.43,2.43,0,0,0,.92-.16V88a6.74,6.74,0,0,1-1.78.27C76.58,88.28,75.4,87.25,75.4,85Z" fill="#fff"/><path d="M85.94,85v-4.2H84.81V78.65h1.13v-2h3.22v2H91v2.19H89.16v3.89c0,.69.34,1,1,1a2.43,2.43,0,0,0,.92-.16V88a6.67,6.67,0,0,1-1.78.27C87.13,88.28,85.94,87.25,85.94,85Z" fill="#fff"/><path d="M92,85.45c0-2.21,1.87-3.07,5-3.07h.9v-.22c0-.9-.21-1.5-1.24-1.5a1.17,1.17,0,0,0-1.28,1.12h-3c.15-2.27,1.93-3.38,4.5-3.38s4.24,1.06,4.24,3.56v6.1H98V87a3.08,3.08,0,0,1-2.78,1.31C93.49,88.28,92,87.45,92,85.45Zm5.9-.68v-.58h-.84c-1.3,0-1.87.26-1.87,1,0,.54.36.88,1.11.88C97.22,86.1,97.9,85.58,97.9,84.77Z" fill="#fff"/><path d="M105.31,83.27l-2.93-4.62h3.71l1.46,2.48L109,78.65h3.31l-3,4.37,3.25,5h-3.7l-1.67-2.8-1.71,2.8h-3.3Z" fill="#fff"/><path d="M23,98.65h3.22v1.4a3.33,3.33,0,0,1,2.94-1.65c2.19,0,4,1.65,4,4.87v.15c0,3.24-1.78,4.86-4,4.86a3.12,3.12,0,0,1-2.92-1.6v4.54H23Zm6.86,4.77v-.15c0-1.65-.72-2.44-1.86-2.44s-1.87.84-1.87,2.43v.14c0,1.6.71,2.41,1.87,2.41S29.81,105,29.81,103.42Z" fill="#fff"/><path d="M34.52,98.65h3.22v1.87a3,3,0,0,1,3-2v3c-2-.06-3,.56-3,2.07v4.46H34.52Z" fill="#fff"/><path d="M41.63,103.47v-.14a4.81,4.81,0,0,1,5.09-4.93c2.57,0,4.78,1.47,4.78,4.86v.84H44.88a1.88,1.88,0,0,0,2,2c1.06,0,1.51-.49,1.63-1.12h3c-.28,2.12-1.92,3.33-4.76,3.33S41.63,106.55,41.63,103.47Zm6.74-1.19c0-1.13-.61-1.76-1.65-1.76a1.79,1.79,0,0,0-1.8,1.76Z" fill="#fff"/><path d="M52.89,98.65h3.22v1.4A3.31,3.31,0,0,1,59,98.4c2.2,0,4,1.65,4,4.87v.15c0,3.24-1.78,4.86-4,4.86a3.11,3.11,0,0,1-2.91-1.6v4.54H52.89Zm6.85,4.77v-.15c0-1.65-.72-2.44-1.85-2.44s-1.87.84-1.87,2.43v.14c0,1.6.7,2.41,1.87,2.41S59.74,105,59.74,103.42Z" fill="#fff"/><path d="M67.21,98.65h3.36l1.37,5.63,1.58-5.63h2.6l1.4,5.63,1.53-5.63h3.06l-3,9.41H76l-1.4-5.25-1.46,5.25H70.05Z" fill="#fff"/><path d="M83.13,96.09a1.78,1.78,0,1,1,1.77,1.66A1.69,1.69,0,0,1,83.13,96.09Zm.16,2.56h3.22v9.41H83.29Z" fill="#fff"/><path d="M88.94,105v-4.2H87.81V98.65h1.13v-2h3.22v2H94v2.19H92.16v3.89c0,.69.34,1,1,1a2.35,2.35,0,0,0,.91-.16V108a6.61,6.61,0,0,1-1.78.27C90.13,108.28,88.94,107.25,88.94,105Z" fill="#fff"/><path d="M95.51,94.51h3.22v5.65a3.32,3.32,0,0,1,3.09-1.76c1.82,0,3.08,1.13,3.08,3.54v6.12h-3.22v-5.47c0-1.06-.41-1.58-1.35-1.58s-1.6.57-1.6,1.78v5.27H95.51Z" fill="#fff"/><path d="M106.23,103.47v-.14a4.83,4.83,0,0,1,5.17-4.93c2.89,0,5.12,1.85,5.12,4.84v.14c0,3.06-2.25,4.9-5.14,4.9S106.23,106.52,106.23,103.47Zm7,0v-.15c0-1.58-.63-2.46-1.85-2.46s-1.88.84-1.88,2.43v.14c0,1.62.63,2.51,1.88,2.51S113.25,105,113.25,103.42Z" fill="#fff"/><path d="M117.85,104.79V98.65h3.22v5.62c0,1.06.42,1.58,1.34,1.58s1.6-.58,1.6-1.78V98.65h3.22v9.41H124v-1.45a3.1,3.1,0,0,1-3,1.67C119.2,108.28,117.85,107.16,117.85,104.79Z" fill="#fff"/><path d="M129.57,105v-4.2h-1.14V98.65h1.14v-2h3.22v2h1.85v2.19h-1.85v3.89c0,.69.34,1,1,1a2.43,2.43,0,0,0,.92-.16V108a6.74,6.74,0,0,1-1.78.27C130.75,108.28,129.57,107.25,129.57,105Z" fill="#fff"/><path d="M23.39,125v-4.2H22.25v-2.19h1.14v-2h3.22v2h1.85v2.19H26.61v3.89c0,.69.34,1,.95,1a2.43,2.43,0,0,0,.92-.16V128a6.74,6.74,0,0,1-1.78.27C24.57,128.28,23.39,127.25,23.39,125Z" fill="#fff"/><path d="M30,114.51h3.22v5.65a3.33,3.33,0,0,1,3.1-1.76c1.81,0,3.07,1.13,3.07,3.54v6.12H36.12v-5.47c0-1.06-.41-1.58-1.35-1.58s-1.6.57-1.6,1.78v5.27H30Z" fill="#fff"/><path d="M40.67,123.47v-.14a4.81,4.81,0,0,1,5.1-4.93c2.57,0,4.78,1.47,4.78,4.86v.84H43.93a1.88,1.88,0,0,0,2,2c1.06,0,1.51-.49,1.64-1.12h3c-.29,2.12-1.92,3.33-4.77,3.33S40.67,126.55,40.67,123.47Zm6.75-1.19c-.05-1.13-.61-1.76-1.65-1.76a1.78,1.78,0,0,0-1.8,1.76Z" fill="#fff"/><path d="M55,123.47v-.14a4.83,4.83,0,0,1,5.16-4.93c2.9,0,5.13,1.85,5.13,4.84v.14c0,3.06-2.25,4.9-5.15,4.9S55,126.52,55,123.47Zm7,0v-.15c0-1.58-.63-2.46-1.85-2.46s-1.87.84-1.87,2.43v.14c0,1.62.63,2.51,1.87,2.51S62,125,62,123.42Z" fill="#fff"/><path d="M67.16,120.84H66v-2.19h1.19v-.72c0-2.34,1.44-3.44,3.67-3.44a5.38,5.38,0,0,1,1.44.18V117a3,3,0,0,0-.87-.13.94.94,0,0,0-1,1v.72h2.73v-.83c0-2.34,1.48-3.46,3.69-3.46a5.69,5.69,0,0,1,1.48.2v2.36a3.09,3.09,0,0,0-.88-.13,1,1,0,0,0-1.07,1v.83h1.91v2.19H76.31v7.22H73.09v-7.22H70.36v7.22h-3.2Z" fill="#fff"/><path d="M79.48,116.09a1.77,1.77,0,1,1,1.76,1.66A1.68,1.68,0,0,1,79.48,116.09Zm.16,2.56h3.22v9.41H79.64Z" fill="#fff"/><path d="M84.36,123.47v-.14a4.73,4.73,0,0,1,5-4.93c2.3,0,4.42,1,4.6,3.87H91a1.39,1.39,0,0,0-1.51-1.37c-1.14,0-1.8.81-1.8,2.39v.15c0,1.64.63,2.48,1.85,2.48a1.57,1.57,0,0,0,1.64-1.56H94c-.09,2.37-1.69,3.92-4.73,3.92C86.5,128.28,84.36,126.64,84.36,123.47Z" fill="#fff"/><path d="M94.84,123.47v-.14a4.81,4.81,0,0,1,5.1-4.93c2.57,0,4.78,1.47,4.78,4.86v.84H98.1a1.88,1.88,0,0,0,2,2c1.06,0,1.51-.49,1.64-1.12h3c-.29,2.12-1.92,3.33-4.77,3.33S94.84,126.55,94.84,123.47Zm6.75-1.19c0-1.13-.61-1.76-1.65-1.76a1.78,1.78,0,0,0-1.8,1.76Z" fill="#fff"/><path d="M108.84,118.65h3.44l2,6.07,1.92-6.07h3.08l-3.44,9.41h-3.51Z" fill="#fff"/><path d="M120.25,116.09a1.68,1.68,0,0,1,1.76-1.67,1.67,1.67,0,1,1,0,3.33A1.67,1.67,0,0,1,120.25,116.09Zm.16,2.56h3.22v9.41h-3.22Z" fill="#fff"/><path d="M125,125.08h3c.11.68.42,1.06,1.34,1.06s1.15-.31,1.15-.78-.45-.66-1.75-.84c-2.52-.33-3.58-1.06-3.58-3s1.86-3.09,4-3.09c2.32,0,3.94.79,4.16,3h-2.92a1,1,0,0,0-1.2-.94c-.7,0-1.06.31-1.06.74s.43.63,1.58.77c2.61.33,3.87,1,3.87,3,0,2.23-1.66,3.24-4.27,3.24S125.07,127.16,125,125.08Z" fill="#fff"/><path d="M134.82,116.09a1.68,1.68,0,0,1,1.76-1.67,1.67,1.67,0,1,1,0,3.33A1.67,1.67,0,0,1,134.82,116.09Zm.16,2.56h3.22v9.41H135Z" fill="#fff"/><path d="M140.63,125v-4.2H139.5v-2.19h1.13v-2h3.22v2h1.85v2.19h-1.85v3.89c0,.69.34,1,1,1a2.43,2.43,0,0,0,.92-.16V128a6.61,6.61,0,0,1-1.78.27C141.82,128.28,140.63,127.25,140.63,125Z" fill="#fff"/><path d="M147.07,126.44a1.79,1.79,0,0,1,1.84-1.81,1.82,1.82,0,1,1,0,3.63A1.79,1.79,0,0,1,147.07,126.44Z" fill="#fff"/></g></g></svg>