<svg xmlns="http://www.w3.org/2000/svg" viewBox="0 0 300 600"><title>txt3</title><g id="Layer_2" data-name="Layer 2"><g id="Rect"><rect width="300" height="600" fill="none"/></g><g id="Tax_Pro_GoSM" data-name="Tax Pro GoSM"><path d="M29.34,52.49H20.47V44.9H48.1v7.59H39.22V79.22H29.34Z" fill="#fff"/><path d="M46.37,72.26c0-5.9,5-8.21,13.34-8.21h2.4v-.57c0-2.4-.58-4-3.31-4a3.1,3.1,0,0,0-3.41,3H47.33c.39-6,5.14-9,12-9S70.65,56.28,70.65,63V79.22H62.3V76.3c-1.2,1.82-3.4,3.5-7.43,3.5C50.36,79.8,46.37,77.59,46.37,72.26Zm15.74-1.82V68.9H59.85c-3.45,0-5,.67-5,2.74,0,1.44,1,2.35,3,2.35C60.29,74,62.11,72.6,62.11,70.44Z" fill="#fff"/><path d="M81.16,66.45,73.34,54.12h9.88l3.88,6.62,3.79-6.62h8.83L91.81,65.78l8.68,13.44H90.61l-4.46-7.49-4.56,7.49H72.81Z" fill="#fff"/><path d="M22.77,92.9H35.82c9.4,0,13.77,4.18,13.77,11.47v.2c0,7.2-4.85,11.08-13.34,11.08H32.56v11.57H22.77Zm12.62,16c3.16,0,4.84-1.48,4.84-4.32v-.19c0-2.93-1.73-4.13-4.8-4.13H32.56v8.64Z" fill="#fff"/><path d="M52.56,102.12h8.59v5a7.91,7.91,0,0,1,8.11-5.33v8c-5.23-.15-8.11,1.49-8.11,5.52v11.9H52.56Z" fill="#fff"/><path d="M70.79,115v-.38c0-8.07,6-13.15,13.77-13.15s13.67,4.94,13.67,12.91v.38c0,8.16-6,13.06-13.72,13.06S70.79,123.1,70.79,115Zm18.71-.14v-.39c0-4.22-1.68-6.57-4.94-6.57s-5,2.25-5,6.48v.38c0,4.32,1.68,6.68,5,6.68S89.5,119,89.5,114.84Z" fill="#fff"/><path d="M108.93,110.28v-.39c0-10.46,7.68-17.52,18-17.52,8.11,0,15.31,3.7,16,12.63h-9.74c-.48-3.22-2.54-4.9-6.19-4.9-4.84,0-7.77,3.75-7.77,9.94v.38c0,5.57,2.06,9.89,8,9.89,4.8,0,6.62-2.45,6.81-5.18H127.6v-6.87h16.11v4.23c0,8.73-5.7,15.31-16.79,15.31C115.27,127.8,108.93,120.55,108.93,110.28Z" fill="#fff"/><path d="M145.68,115v-.38c0-8.07,6-13.15,13.77-13.15s13.67,4.94,13.67,12.91v.38c0,8.16-6,13.06-13.72,13.06S145.68,123.1,145.68,115Zm18.71-.14v-.39c0-4.22-1.68-6.57-4.94-6.57s-5,2.25-5,6.48v.38c0,4.32,1.68,6.68,5,6.68S164.39,119,164.39,114.84Z" fill="#fff"/><path d="M173.83,104.07h1.93c.05.5.28.92,1.12.92.58,0,.91-.29.91-.71s-.27-.55-1.12-.68c-2-.23-2.67-.83-2.67-2.25s1.05-2.21,2.74-2.21,2.66.71,2.79,2.21h-1.88a.8.8,0,0,0-.91-.76c-.54,0-.82.24-.82.6s.22.57,1.1.69c1.79.2,2.7.66,2.7,2.2,0,1.29-1,2.35-2.84,2.35C174.9,106.43,173.89,105.6,173.83,104.07Z" fill="#fff"/><path d="M180.53,99.24h2.64l1.36,3.77,1.35-3.77h2.59v7.07h-2v-4.4l-1.73,4.4h-.68l-1.71-4.4v4.4h-1.81Z" fill="#fff"/></g></g></svg>