<svg xmlns="http://www.w3.org/2000/svg" viewBox="0 0 728 90"><title>Asset 1</title><rect width="728" height="90" fill="none"/><path d="M126.91,18.72H120.7v-5.3H140v5.3h-6.21V37.41h-6.91Z" fill="#fff"/><path d="M142,12.15h6V22.68a6.2,6.2,0,0,1,5.77-3.29c3.39,0,5.74,2.12,5.74,6.61V37.41h-6V27.21c0-2-.78-2.95-2.52-2.95s-3,1.07-3,3.32v9.83h-6Z" fill="#fff"/><path d="M161.5,28.86v-.27c0-5.64,4.19-9.2,9.49-9.2,4.8,0,8.93,2.76,8.93,9.06V30H167.57c.17,2.32,1.51,3.66,3.66,3.66,2,0,2.82-.91,3.05-2.08h5.64c-.54,4-3.59,6.21-8.89,6.21C165.52,37.82,161.5,34.59,161.5,28.86Zm12.58-2.22c-.1-2.11-1.14-3.29-3.09-3.29s-3.05,1.18-3.35,3.29Z" fill="#fff"/><path d="M187.16,28.86v-.27c0-5.64,4.2-9.2,9.5-9.2,4.8,0,8.92,2.76,8.92,9.06V30H193.23c.17,2.32,1.51,3.66,3.66,3.66,2,0,2.82-.91,3.06-2.08h5.63c-.53,4-3.59,6.21-8.89,6.21C191.19,37.82,187.16,34.59,187.16,28.86Zm12.58-2.22c-.1-2.11-1.14-3.29-3.08-3.29s-3.06,1.18-3.36,3.29Z" fill="#fff"/><path d="M206.82,32.55c0-4.13,3.49-5.74,9.33-5.74h1.68v-.4c0-1.68-.41-2.79-2.32-2.79a2.16,2.16,0,0,0-2.38,2.08h-5.64c.27-4.22,3.59-6.31,8.39-6.31s7.92,2,7.92,6.65V37.41H218v-2a5.77,5.77,0,0,1-5.2,2.45C209.6,37.82,206.82,36.27,206.82,32.55Zm11-1.28V30.2h-1.58c-2.42,0-3.49.47-3.49,1.91,0,1,.67,1.65,2.08,1.65C216.55,33.76,217.83,32.78,217.83,31.27Z" fill="#fff"/><path d="M225.54,31.84h5.54c.2,1.28.77,2,2.48,2,1.48,0,2.15-.57,2.15-1.44s-.84-1.24-3.26-1.58c-4.7-.6-6.68-2-6.68-5.63,0-3.9,3.46-5.78,7.52-5.78,4.33,0,7.35,1.48,7.75,5.68h-5.43a2,2,0,0,0-2.25-1.75c-1.31,0-2,.57-2,1.38s.8,1.17,3,1.44c4.87.6,7.21,1.88,7.21,5.64,0,4.16-3.08,6-7.95,6S225.67,35.74,225.54,31.84Z" fill="#fff"/><path d="M243.35,15.1a3.31,3.31,0,1,1,3.29,3.09A3.13,3.13,0,0,1,243.35,15.1Zm.31,4.76h6V37.41h-6Z" fill="#fff"/><path d="M251.94,28.86v-.27c0-5.64,4.2-9.2,9.5-9.2,4.8,0,8.92,2.76,8.92,9.06V30H258c.16,2.32,1.5,3.66,3.65,3.66,2,0,2.82-.91,3.06-2.08h5.63c-.53,4-3.59,6.21-8.89,6.21C256,37.82,251.94,34.59,251.94,28.86Zm12.58-2.22c-.1-2.11-1.14-3.29-3.08-3.29s-3.06,1.18-3.36,3.29Z" fill="#fff"/><path d="M271.43,31.84H277c.2,1.28.77,2,2.48,2,1.48,0,2.15-.57,2.15-1.44s-.84-1.24-3.25-1.58c-4.7-.6-6.68-2-6.68-5.63,0-3.9,3.45-5.78,7.51-5.78,4.33,0,7.35,1.48,7.76,5.68H281.5a2,2,0,0,0-2.25-1.75c-1.31,0-2,.57-2,1.38s.81,1.17,3,1.44c4.87.6,7.22,1.88,7.22,5.64,0,4.16-3.09,6-7.95,6S271.57,35.74,271.43,31.84Z" fill="#fff"/><path d="M290.19,31.78V24h-2.12v-4.1h2.12V16.21h6v3.65h3.46V24h-3.46v7.25A1.6,1.6,0,0,0,298,33.05a4.57,4.57,0,0,0,1.71-.3v4.56a12.58,12.58,0,0,1-3.32.51C292.4,37.82,290.19,35.9,290.19,31.78Z" fill="#fff"/><path d="M306.56,19.86h6.27l2.55,10.51,2.95-10.51h4.84l2.61,10.51,2.86-10.51h5.7l-5.57,17.55H323l-2.61-9.79-2.72,9.79h-5.84Z" fill="#fff"/><path d="M334.2,32.55c0-4.13,3.49-5.74,9.33-5.74h1.68v-.4c0-1.68-.41-2.79-2.32-2.79a2.16,2.16,0,0,0-2.38,2.08h-5.64c.27-4.22,3.59-6.31,8.39-6.31s7.92,2,7.92,6.65V37.41h-5.84v-2a5.77,5.77,0,0,1-5.2,2.45C337,37.82,334.2,36.27,334.2,32.55Zm11-1.28V30.2h-1.58c-2.42,0-3.49.47-3.49,1.91,0,1,.67,1.65,2.08,1.65C343.93,33.76,345.21,32.78,345.21,31.27Z" fill="#fff"/><path d="M359,35.63l-7-15.77h6.51l3.62,9.37,3.36-9.37h5.74l-9.4,23.43h-5.74Z" fill="#fff"/><path d="M379.66,31.78V24h-2.12v-4.1h2.12V16.21h6v3.65h3.46V24h-3.46v7.25a1.6,1.6,0,0,0,1.78,1.84,4.57,4.57,0,0,0,1.71-.3v4.56a12.58,12.58,0,0,1-3.32.51C381.87,37.82,379.66,35.9,379.66,31.78Z" fill="#fff"/><path d="M390.46,28.86v-.27c0-5.64,4.19-9.2,9.63-9.2s9.56,3.46,9.56,9v.27c0,5.7-4.19,9.13-9.59,9.13S390.46,34.53,390.46,28.86Zm13.09-.1v-.27c0-2.95-1.18-4.6-3.46-4.6s-3.49,1.58-3.49,4.53v.27c0,3,1.17,4.66,3.49,4.66S403.55,31.68,403.55,28.76Z" fill="#fff"/><path d="M416.9,37.41h6c.27,1.28,1,2.28,3.22,2.28,2.65,0,3.72-1.5,3.72-3.69V33.32a6.13,6.13,0,0,1-5.43,3.22c-4.1,0-7.45-3-7.45-8.42v-.27c0-5.17,3.32-8.46,7.45-8.46a5.7,5.7,0,0,1,5.43,3V19.86h6V35.94c0,5.23-3.46,8-9.73,8C420.12,43.92,417.37,41.41,416.9,37.41ZM430,28.08v-.23c0-2.42-1.24-4-3.45-4s-3.46,1.58-3.46,4v.27c0,2.42,1.27,4,3.42,4S430,30.57,430,28.08Z" fill="#fff"/><path d="M437.93,28.86v-.27c0-5.64,4.19-9.2,9.5-9.2,4.79,0,8.92,2.76,8.92,9.06V30H444c.17,2.32,1.51,3.66,3.66,3.66,2,0,2.82-.91,3-2.08h5.64c-.54,4-3.59,6.21-8.89,6.21C442,37.82,437.93,34.59,437.93,28.86Zm12.58-2.22c-.1-2.11-1.14-3.29-3.08-3.29s-3.06,1.18-3.36,3.29Z" fill="#fff"/><path d="M459.23,31.78V24h-2.11v-4.1h2.11V16.21h6v3.65h3.46V24h-3.46v7.25A1.6,1.6,0,0,0,467,33.05a4.61,4.61,0,0,0,1.71-.3v4.56a12.58,12.58,0,0,1-3.32.51C461.45,37.82,459.23,35.9,459.23,31.78Z" fill="#fff"/><path d="M122.58,67.47V59.65h-2.11V55.56h2.11V51.9h6v3.66H132v4.09h-3.45V66.9c0,1.28.64,1.85,1.78,1.85a4.42,4.42,0,0,0,1.71-.31V73a12.64,12.64,0,0,1-3.32.5C124.8,73.51,122.58,71.6,122.58,67.47Z" fill="#fff"/><path d="M133.38,68.24c0-4.12,3.49-5.74,9.33-5.74h1.68v-.4c0-1.68-.4-2.78-2.32-2.78a2.16,2.16,0,0,0-2.38,2.08h-5.64c.27-4.23,3.59-6.31,8.39-6.31s7.92,2,7.92,6.64V73.11h-5.84v-2c-.84,1.28-2.38,2.45-5.2,2.45C136.17,73.51,133.38,72,133.38,68.24Zm11-1.27V65.89h-1.58c-2.41,0-3.49.47-3.49,1.92,0,1,.67,1.64,2.08,1.64C143.11,69.45,144.39,68.48,144.39,67Z" fill="#fff"/><path d="M157.71,64.18l-5.47-8.62h6.91l2.72,4.63,2.65-4.63h6.17l-5.53,8.15,6.07,9.4h-6.91l-3.12-5.24L158,73.11h-6.14Z" fill="#fff"/><path d="M170.45,64.55v-.27c0-5.63,4.2-9.19,9.5-9.19,4.8,0,8.93,2.75,8.93,9.06v1.58H176.53c.16,2.31,1.51,3.65,3.65,3.65,2,0,2.82-.9,3.06-2.08h5.64c-.54,4-3.6,6.21-8.9,6.21C174.48,73.51,170.45,70.29,170.45,64.55ZM183,62.34c-.1-2.12-1.14-3.29-3.09-3.29s-3,1.17-3.36,3.29Z" fill="#fff"/><path d="M189.94,67.54h5.54c.2,1.27.77,2,2.48,2,1.48,0,2.15-.57,2.15-1.44s-.84-1.25-3.25-1.58c-4.7-.61-6.68-2-6.68-5.64,0-3.89,3.46-5.77,7.52-5.77,4.32,0,7.34,1.48,7.75,5.67H200A2,2,0,0,0,197.76,59c-1.31,0-2,.57-2,1.37s.81,1.18,3,1.44c4.86.61,7.21,1.88,7.21,5.64,0,4.16-3.09,6-7.95,6S190.08,71.43,189.94,67.54Z" fill="#fff"/><path d="M213.13,64.52v-.27c0-6,3.28-9.16,7.44-9.16A5.69,5.69,0,0,1,226,58V47.84h6V73.11h-6V70.26a5.92,5.92,0,0,1-5.47,3.25C216.45,73.51,213.13,70.59,213.13,64.52Zm13-.1v-.27c0-3-1.24-4.53-3.45-4.53s-3.46,1.51-3.46,4.56v.27c0,3,1.31,4.46,3.39,4.46S226.14,67.4,226.14,64.42Z" fill="#fff"/><path d="M234.09,64.55v-.27c0-5.63,4.2-9.19,9.63-9.19s9.57,3.46,9.57,9v.26c0,5.71-4.2,9.13-9.6,9.13S234.09,70.22,234.09,64.55Zm13.09-.1v-.27c0-3-1.17-4.59-3.46-4.59s-3.49,1.57-3.49,4.53v.26c0,3,1.18,4.67,3.49,4.67S247.18,67.37,247.18,64.45Z" fill="#fff"/><path d="M255.4,55.56h6v2.82a6.2,6.2,0,0,1,5.77-3.29c3.39,0,5.74,2.11,5.74,6.61V73.11h-6V62.91c0-2-.78-2.95-2.52-2.95s-3,1.07-3,3.32v9.83h-6Z" fill="#fff"/><path d="M274.89,64.55v-.27c0-5.63,4.19-9.19,9.49-9.19,4.8,0,8.93,2.75,8.93,9.06v1.58H281c.17,2.31,1.51,3.65,3.66,3.65,2,0,2.82-.9,3.05-2.08h5.64c-.54,4-3.59,6.21-8.89,6.21C278.91,73.51,274.89,70.29,274.89,64.55Zm12.58-2.21c-.1-2.12-1.14-3.29-3.09-3.29s-3.05,1.17-3.35,3.29Z" fill="#fff"/><path d="M302.4,59.65h-2.22V55.56h2.22V54c0-4.37,2.72-6.45,6.88-6.45a10.83,10.83,0,0,1,2.75.37v4.4a5.38,5.38,0,0,0-1.65-.24,1.77,1.77,0,0,0-2,1.92v1.54h3.56v4.09h-3.56V73.11h-6Z" fill="#fff"/><path d="M312.39,64.55v-.27c0-5.63,4.2-9.19,9.63-9.19s9.57,3.46,9.57,9v.26c0,5.71-4.2,9.13-9.6,9.13S312.39,70.22,312.39,64.55Zm13.09-.1v-.27c0-3-1.17-4.59-3.46-4.59s-3.48,1.57-3.48,4.53v.26c0,3,1.17,4.67,3.48,4.67S325.48,67.37,325.48,64.45Z" fill="#fff"/><path d="M333.7,55.56h6v3.49a5.52,5.52,0,0,1,5.67-3.72v5.6c-3.65-.1-5.67,1-5.67,3.86v8.32h-6Z" fill="#fff"/><path d="M359.16,71.33l-7-15.77h6.51l3.62,9.36,3.36-9.36h5.74L362,79h-5.74Z" fill="#fff"/><path d="M371,64.55v-.27c0-5.63,4.19-9.19,9.63-9.19s9.56,3.46,9.56,9v.26c0,5.71-4.2,9.13-9.6,9.13S371,70.22,371,64.55Zm13.08-.1v-.27c0-3-1.17-4.59-3.45-4.59s-3.49,1.57-3.49,4.53v.26c0,3,1.17,4.67,3.49,4.67S384.12,67.37,384.12,64.45Z" fill="#fff"/><path d="M392.21,67V55.56h6V66c0,2,.77,3,2.48,3s3-1.07,3-3.32V55.56h6V73.11h-6V70.39a5.77,5.77,0,0,1-5.57,3.12C394.72,73.51,392.21,71.43,392.21,67Z" fill="#fff"/><path d="M412.5,70.09a3.34,3.34,0,0,1,3.42-3.39,3.39,3.39,0,1,1,0,6.78A3.34,3.34,0,0,1,412.5,70.09Z" fill="#fff"/></svg>