<svg xmlns="http://www.w3.org/2000/svg" viewBox="0 0 129 35"><title>file_online_now</title><g id="Layer_2" data-name="Layer 2"><g id="File_online_now" data-name="File online now"><path d="M13.59,10.73H20.5v1.94H16v2.89h3.54v1.87H16v4.23H13.59Z" fill="#262626"/><path d="M21.46,11.37a1.24,1.24,0,1,1,1.23,1.21A1.2,1.2,0,0,1,21.46,11.37Zm.16,2.3h2.17v8H21.62Z" fill="#262626"/><path d="M25.63,10H27.8V21.66H25.63Z" fill="#262626"/><path d="M29.08,17.76v-.12a3.94,3.94,0,0,1,4.05-4.16c2,0,3.84,1.21,3.84,4.07v.61H31.29c.06,1.33.77,2.09,2,2.09,1,0,1.51-.44,1.64-1.11H37c-.25,1.73-1.61,2.69-3.76,2.69A3.85,3.85,0,0,1,29.08,17.76Zm5.77-1c-.08-1.21-.68-1.79-1.72-1.79a1.83,1.83,0,0,0-1.81,1.79Z" fill="#262626"/><path d="M40.81,17.75v-.13a4.15,4.15,0,0,1,8.3,0v.12a4.15,4.15,0,0,1-8.3.05Zm6.09,0v-.11c0-1.53-.71-2.45-1.93-2.45S43,16.05,43,17.58v.12c0,1.53.69,2.45,1.93,2.45S46.9,19.23,46.9,17.72Z" fill="#262626"/><path d="M50.35,13.67h2.18v1.26a2.72,2.72,0,0,1,2.56-1.45c1.55,0,2.65.95,2.65,3.09v5.09H55.56V16.89c0-1.08-.42-1.6-1.39-1.6A1.57,1.57,0,0,0,52.53,17v4.62H50.35Z" fill="#262626"/><path d="M59.45,10h2.17V21.66H59.45Z" fill="#262626"/><path d="M63.27,11.37a1.25,1.25,0,1,1,1.24,1.21A1.2,1.2,0,0,1,63.27,11.37Zm.17,2.3h2.17v8H63.44Z" fill="#262626"/><path d="M67.38,13.67h2.19v1.26a2.72,2.72,0,0,1,2.56-1.45c1.55,0,2.65.95,2.65,3.09v5.09H72.6V16.89c0-1.08-.43-1.6-1.39-1.6A1.57,1.57,0,0,0,69.57,17v4.62H67.38Z" fill="#262626"/><path d="M75.94,17.76v-.12a3.94,3.94,0,0,1,4-4.16c2,0,3.84,1.21,3.84,4.07v.61H78.16c.06,1.33.76,2.09,2,2.09,1,0,1.51-.44,1.64-1.11h2.07c-.26,1.73-1.61,2.69-3.77,2.69A3.85,3.85,0,0,1,75.94,17.76Zm5.77-1C81.63,15.59,81,15,80,15a1.81,1.81,0,0,0-1.8,1.79Z" fill="#262626"/><path d="M88.16,13.67h2.18v1.26a2.72,2.72,0,0,1,2.56-1.45c1.55,0,2.65.95,2.65,3.09v5.09H93.37V16.89c0-1.08-.42-1.6-1.39-1.6A1.57,1.57,0,0,0,90.34,17v4.62H88.16Z" fill="#262626"/><path d="M96.71,17.75v-.13a4,4,0,0,1,4.16-4.14,3.94,3.94,0,0,1,4.14,4.1v.12a4.15,4.15,0,0,1-8.3.05Zm6.09,0v-.11c0-1.53-.71-2.45-1.93-2.45s-1.93.89-1.93,2.42v.12c0,1.53.7,2.45,1.93,2.45S102.8,19.23,102.8,17.72Z" fill="#262626"/><path d="M105.32,13.67h2.29l1.4,5.38,1.52-5.38h1.79l1.39,5.38,1.49-5.38h2.09l-2.49,8h-2.13l-1.34-5-1.45,5h-2.17Z" fill="#262626"/></g><g id="Rect"><rect width="129" height="35" fill="none"/></g></g></svg>