<svg xmlns="http://www.w3.org/2000/svg" viewBox="0 0 600 100"><title>txt</title><g id="Layer_2" data-name="Layer 2"><g id="H_R_Block_Free_Online_includes_student_loan_interest_deduction_" data-name="H&amp;R Block Free Online includes student loan interest deduction;"><path d="M124.63,21.19h4.25v5.64h4.85V21.19H138V36h-4.23V30.14h-4.85V36h-4.25Z" fill="#fff"/><path d="M152.11,33l2.45,3h-4.8l-.87-1.08a5.83,5.83,0,0,1-4,1.32c-3.14,0-5.18-1.65-5.18-4.46,0-1.9,1.16-3.3,3.24-4.3a4.72,4.72,0,0,1-.91-2.58c0-2.52,2.15-3.86,4.75-3.86,2.35,0,4.47,1.18,4.47,3.45,0,1.61-.94,2.79-2.95,3.66l1.86,2.27,1.07-2.11h3.22ZM147,32.52l-2.33-2.81a1.75,1.75,0,0,0-1,1.59,1.72,1.72,0,0,0,1.88,1.84A1.93,1.93,0,0,0,147,32.52Zm-.45-6c1-.48,1.46-1,1.46-1.8a1.06,1.06,0,0,0-1.09-1.14,1.18,1.18,0,0,0-1.22,1.28A2.71,2.71,0,0,0,146.54,26.57Z" fill="#fff"/><path d="M155.91,21.19h5.77c3.86,0,6,1.57,6,4.69V26A3.87,3.87,0,0,1,165,29.85L168.55,36H164.1l-3-5.29h-1V36h-4.21Zm5.57,6.74c1.42,0,2.12-.6,2.12-1.8v-.08c0-1.2-.74-1.67-2.1-1.67h-1.38v3.55Z" fill="#fff"/><path d="M173.73,21.19h6.58c3.49,0,5,1.57,5,3.87v.08a3,3,0,0,1-2.5,3.18,3.21,3.21,0,0,1,3,3.45v.08c0,2.65-1.71,4.12-5.36,4.12h-6.65Zm5.74,5.87c1.32,0,1.81-.45,1.81-1.51v-.08c0-1-.53-1.47-1.81-1.47h-1.61v3.06Zm.14,6.08c1.34,0,2-.62,2-1.72v-.08c0-1.12-.6-1.7-2.08-1.7h-1.63v3.5Z" fill="#fff"/><path d="M187.21,20.41h3.67V36h-3.67Z" fill="#fff"/><path d="M192.28,30.7v-.17c0-3.47,2.58-5.66,5.92-5.66s5.88,2.13,5.88,5.56v.16c0,3.52-2.58,5.62-5.9,5.62S192.28,34.19,192.28,30.7Zm8.05-.06v-.17c0-1.82-.73-2.83-2.13-2.83s-2.14,1-2.14,2.79v.16c0,1.86.72,2.88,2.14,2.88S200.33,32.43,200.33,30.64Z" fill="#fff"/><path d="M204.8,30.7v-.17a5.44,5.44,0,0,1,5.76-5.66c2.64,0,5.08,1.16,5.28,4.44h-3.46a1.6,1.6,0,0,0-1.74-1.57c-1.3,0-2.06.93-2.06,2.75v.17c0,1.88.72,2.85,2.13,2.85a1.79,1.79,0,0,0,1.87-1.8h3.32c-.1,2.73-1.94,4.5-5.42,4.5C207.26,36.21,204.8,34.33,204.8,30.7Z" fill="#fff"/><path d="M217.1,20.41h3.69v9l2.91-4.28h3.84L224,30,227.83,36H223.7l-2.91-4.74V36H217.1Z" fill="#fff"/><path d="M232.78,21.19h10v3.29H237v3.14h4.56v3.12H237V36h-4.25Z" fill="#fff"/><path d="M243.74,25.16h3.69v2.15A3.4,3.4,0,0,1,250.92,25v3.45c-2.25-.07-3.49.64-3.49,2.37V36h-3.69Z" fill="#fff"/><path d="M251.58,30.7v-.17a5.52,5.52,0,0,1,5.84-5.66c2.95,0,5.48,1.7,5.48,5.58v1h-7.59a2.16,2.16,0,0,0,2.25,2.25c1.22,0,1.73-.55,1.88-1.28h3.46c-.33,2.44-2.2,3.82-5.46,3.82S251.58,34.23,251.58,30.7Zm7.73-1.37c-.06-1.3-.7-2-1.89-2a2.06,2.06,0,0,0-2.07,2Z" fill="#fff"/><path d="M263.61,30.7v-.17a5.52,5.52,0,0,1,5.83-5.66c2.95,0,5.49,1.7,5.49,5.58v1h-7.59a2.15,2.15,0,0,0,2.25,2.25c1.22,0,1.73-.55,1.88-1.28h3.46c-.33,2.44-2.21,3.82-5.47,3.82S263.61,34.23,263.61,30.7Zm7.73-1.37c-.06-1.3-.7-2-1.9-2a2.05,2.05,0,0,0-2.06,2Z" fill="#fff"/><path d="M279.51,28.67v-.16c0-4.51,3.39-7.52,7.8-7.52s7.82,2.83,7.82,7.41v.17c0,4.55-3.11,7.64-7.88,7.64S279.51,33.12,279.51,28.67Zm11.21,0v-.16c0-2.63-1.32-4.18-3.41-4.18s-3.38,1.51-3.38,4.2v.16c0,2.69,1.36,4.24,3.4,4.24S290.72,31.28,290.72,28.63Z" fill="#fff"/><path d="M296.55,25.16h3.7V26.9a3.8,3.8,0,0,1,3.55-2c2.08,0,3.52,1.3,3.52,4.07v7h-3.69V29.69c0-1.22-.47-1.82-1.55-1.82s-1.83.66-1.83,2V36h-3.7Z" fill="#fff"/><path d="M309.22,20.41h3.67V36h-3.67Z" fill="#fff"/><path d="M314.79,22.23a1.93,1.93,0,0,1,2-1.92,1.91,1.91,0,1,1,0,3.82A1.92,1.92,0,0,1,314.79,22.23Zm.19,2.93h3.69V36H315Z" fill="#fff"/><path d="M320.65,25.16h3.7V26.9a3.79,3.79,0,0,1,3.54-2c2.09,0,3.53,1.3,3.53,4.07v7h-3.69V29.69c0-1.22-.48-1.82-1.55-1.82s-1.83.66-1.83,2V36h-3.7Z" fill="#fff"/><path d="M332.64,30.7v-.17a5.52,5.52,0,0,1,5.84-5.66c2.95,0,5.49,1.7,5.49,5.58v1h-7.6a2.16,2.16,0,0,0,2.25,2.25c1.22,0,1.74-.55,1.88-1.28H344c-.33,2.44-2.21,3.82-5.47,3.82S332.64,34.23,332.64,30.7Zm7.74-1.37c-.07-1.3-.71-2-1.9-2a2,2,0,0,0-2.06,2Z" fill="#fff"/><path d="M348.92,22.23a1.92,1.92,0,0,1,2-1.92,1.91,1.91,0,1,1,0,3.82A1.91,1.91,0,0,1,348.92,22.23Zm.18,2.93h3.7V36h-3.7Z" fill="#fff"/><path d="M354.78,25.16h3.69V26.9a3.8,3.8,0,0,1,3.55-2c2.08,0,3.53,1.3,3.53,4.07v7h-3.7V29.69c0-1.22-.47-1.82-1.54-1.82s-1.84.66-1.84,2V36h-3.69Z" fill="#fff"/><path d="M366.76,30.7v-.17a5.44,5.44,0,0,1,5.76-5.66c2.64,0,5.08,1.16,5.28,4.44h-3.46a1.6,1.6,0,0,0-1.74-1.57c-1.3,0-2.06.93-2.06,2.75v.17c0,1.88.72,2.85,2.13,2.85a1.79,1.79,0,0,0,1.87-1.8h3.32c-.1,2.73-1.94,4.5-5.42,4.5C369.22,36.21,366.76,34.33,366.76,30.7Z" fill="#fff"/><path d="M379.16,20.41h3.68V36h-3.68Z" fill="#fff"/><path d="M384.73,32.21v-7h3.7v6.45c0,1.22.47,1.82,1.52,1.82s1.84-.67,1.84-2.05V25.16h3.69V36h-3.69V34.29a3.54,3.54,0,0,1-3.42,1.92C386.28,36.21,384.73,34.93,384.73,32.21Z" fill="#fff"/><path d="M396.82,30.68v-.17c0-3.68,2-5.64,4.58-5.64a3.5,3.5,0,0,1,3.33,1.82V20.41h3.69V36h-3.69V34.21a3.64,3.64,0,0,1-3.37,2C398.87,36.21,396.82,34.42,396.82,30.68Zm8-.06v-.17c0-1.82-.76-2.79-2.13-2.79s-2.12.93-2.12,2.81v.17c0,1.81.8,2.74,2.08,2.74S404.83,32.45,404.83,30.62Z" fill="#fff"/><path d="M409.72,30.7v-.17a5.52,5.52,0,0,1,5.84-5.66c2.95,0,5.49,1.7,5.49,5.58v1h-7.6a2.16,2.16,0,0,0,2.25,2.25c1.22,0,1.74-.55,1.88-1.28h3.47c-.33,2.44-2.21,3.82-5.47,3.82S409.72,34.23,409.72,30.7Zm7.74-1.37c-.07-1.3-.71-2-1.9-2a2,2,0,0,0-2.06,2Z" fill="#fff"/><path d="M421.71,32.54h3.4c.13.78.48,1.22,1.53,1.22s1.32-.36,1.32-.89-.52-.77-2-1c-2.89-.38-4.11-1.22-4.11-3.47s2.13-3.56,4.62-3.56c2.66,0,4.52.91,4.77,3.49H427.9a1.21,1.21,0,0,0-1.39-1.07c-.8,0-1.21.35-1.21.85s.49.72,1.81.88c3,.38,4.44,1.16,4.44,3.48,0,2.56-1.9,3.71-4.89,3.71S421.79,34.93,421.71,32.54Z" fill="#fff"/><path d="M123.58,54.42H127c.12.78.48,1.22,1.53,1.22s1.32-.35,1.32-.89-.52-.77-2-1c-2.89-.37-4.11-1.22-4.11-3.47,0-2.4,2.13-3.56,4.62-3.56,2.66,0,4.52.91,4.77,3.49h-3.34a1.21,1.21,0,0,0-1.39-1.07c-.8,0-1.21.35-1.21.85s.49.72,1.81.89c3,.37,4.44,1.15,4.44,3.47,0,2.56-1.9,3.72-4.89,3.72S123.66,56.81,123.58,54.42Z" fill="#fff"/><path d="M135.11,54.38V49.56h-1.3V47h1.3V44.79h3.69V47h2.13v2.52H138.8V54a1,1,0,0,0,1.1,1.13,2.89,2.89,0,0,0,1-.18v2.81a8,8,0,0,1-2,.31C136.47,58.1,135.11,56.92,135.11,54.38Z" fill="#fff"/><path d="M142.25,54.09V47h3.69v6.45c0,1.22.48,1.82,1.53,1.82s1.83-.66,1.83-2.05V47H153V57.85h-3.7V56.17a3.53,3.53,0,0,1-3.42,1.93C143.8,58.1,142.25,56.81,142.25,54.09Z" fill="#fff"/><path d="M154.34,52.56v-.17c0-3.67,2-5.64,4.58-5.64a3.51,3.51,0,0,1,3.32,1.82V42.29h3.69V57.85h-3.69V56.09a3.63,3.63,0,0,1-3.36,2C156.38,58.1,154.34,56.3,154.34,52.56Zm8-.06v-.17c0-1.82-.76-2.79-2.12-2.79s-2.13.93-2.13,2.81v.17c0,1.81.81,2.74,2.09,2.74S162.34,54.33,162.34,52.5Z" fill="#fff"/><path d="M167.23,52.58v-.17a5.52,5.52,0,0,1,5.84-5.66c3,0,5.49,1.7,5.49,5.58v1H171a2.15,2.15,0,0,0,2.25,2.25c1.21,0,1.73-.55,1.87-1.28h3.47c-.33,2.44-2.21,3.83-5.47,3.83S167.23,56.11,167.23,52.58ZM175,51.22c-.06-1.31-.7-2-1.9-2a2,2,0,0,0-2.06,2Z" fill="#fff"/><path d="M179.84,47h3.69v1.74a3.81,3.81,0,0,1,3.55-2c2.08,0,3.53,1.3,3.53,4.07v7h-3.69V51.57c0-1.22-.48-1.82-1.55-1.82s-1.84.66-1.84,2v6.06h-3.69Z" fill="#fff"/><path d="M192.9,54.38V49.56h-1.3V47h1.3V44.79h3.69V47h2.13v2.52h-2.13V54a1,1,0,0,0,1.1,1.13,2.89,2.89,0,0,0,1.05-.18v2.81a8,8,0,0,1-2,.31C194.26,58.1,192.9,56.92,192.9,54.38Z" fill="#fff"/><path d="M204,42.29h3.67V57.85H204Z" fill="#fff"/><path d="M209.06,52.58v-.17c0-3.47,2.57-5.66,5.92-5.66s5.88,2.13,5.88,5.56v.17c0,3.51-2.58,5.62-5.9,5.62S209.06,56.07,209.06,52.58Zm8-.06v-.17c0-1.82-.72-2.83-2.12-2.83s-2.15,1-2.15,2.79v.17c0,1.85.72,2.87,2.15,2.87S217.1,54.31,217.1,52.52Z" fill="#fff"/><path d="M221.54,54.85c0-2.54,2.14-3.53,5.73-3.53h1v-.25c0-1-.24-1.71-1.42-1.71a1.32,1.32,0,0,0-1.46,1.28H222c.17-2.61,2.21-3.89,5.16-3.89S232,48,232,50.84v7h-3.59V56.59a3.57,3.57,0,0,1-3.2,1.51C223.25,58.1,221.54,57.15,221.54,54.85Zm6.76-.78v-.66h-1c-1.48,0-2.14.29-2.14,1.17,0,.62.41,1,1.28,1A1.62,1.62,0,0,0,228.3,54.07Z" fill="#fff"/><path d="M233.77,47h3.69v1.74a3.81,3.81,0,0,1,3.55-2c2.09,0,3.53,1.3,3.53,4.07v7h-3.69V51.57c0-1.22-.48-1.82-1.55-1.82s-1.84.66-1.84,2v6.06h-3.69Z" fill="#fff"/><path d="M250,44.11a2,2,0,1,1,2,1.9A1.93,1.93,0,0,1,250,44.11ZM250.2,47h3.69V57.85H250.2Z" fill="#fff"/><path d="M255.87,47h3.69v1.74a3.8,3.8,0,0,1,3.55-2c2.08,0,3.53,1.3,3.53,4.07v7h-3.7V51.57c0-1.22-.47-1.82-1.54-1.82s-1.84.66-1.84,2v6.06h-3.69Z" fill="#fff"/><path d="M268.93,54.38V49.56h-1.3V47h1.3V44.79h3.69V47h2.13v2.52h-2.13V54a1,1,0,0,0,1.1,1.13,2.89,2.89,0,0,0,1-.18v2.81a8,8,0,0,1-2,.31C270.29,58.1,268.93,56.92,268.93,54.38Z" fill="#fff"/><path d="M275.57,52.58v-.17a5.52,5.52,0,0,1,5.84-5.66c2.95,0,5.49,1.7,5.49,5.58v1h-7.59a2.15,2.15,0,0,0,2.25,2.25c1.21,0,1.73-.55,1.87-1.28h3.47c-.33,2.44-2.21,3.83-5.47,3.83S275.57,56.11,275.57,52.58Zm7.74-1.36c-.06-1.31-.7-2-1.9-2a2,2,0,0,0-2.06,2Z" fill="#fff"/><path d="M288.18,47h3.69v2.15a3.4,3.4,0,0,1,3.49-2.29v3.45c-2.25-.06-3.49.64-3.49,2.37v5.13h-3.69Z" fill="#fff"/><path d="M296,52.58v-.17a5.52,5.52,0,0,1,5.84-5.66c2.95,0,5.48,1.7,5.48,5.58v1h-7.59A2.16,2.16,0,0,0,302,55.55c1.22,0,1.73-.55,1.88-1.28h3.46c-.33,2.44-2.2,3.83-5.46,3.83S296,56.11,296,52.58Zm7.74-1.36c-.07-1.31-.71-2-1.9-2a2.06,2.06,0,0,0-2.07,2Z" fill="#fff"/><path d="M308,54.42h3.4c.12.78.47,1.22,1.53,1.22.9,0,1.32-.35,1.32-.89s-.52-.77-2-1c-2.89-.37-4.11-1.22-4.11-3.47,0-2.4,2.13-3.56,4.62-3.56,2.66,0,4.52.91,4.77,3.49H314.2a1.21,1.21,0,0,0-1.39-1.07c-.8,0-1.21.35-1.21.85s.49.72,1.81.89c3,.37,4.44,1.15,4.44,3.47,0,2.56-1.9,3.72-4.89,3.72S308.09,56.81,308,54.42Z" fill="#fff"/><path d="M319.54,54.38V49.56h-1.3V47h1.3V44.79h3.69V47h2.13v2.52h-2.13V54a1,1,0,0,0,1.1,1.13,2.89,2.89,0,0,0,1.05-.18v2.81a8,8,0,0,1-2,.31C320.9,58.1,319.54,56.92,319.54,54.38Z" fill="#fff"/><path d="M330,52.56v-.17c0-3.67,2-5.64,4.58-5.64a3.51,3.51,0,0,1,3.32,1.82V42.29h3.69V57.85h-3.69V56.09a3.63,3.63,0,0,1-3.36,2C332,58.1,330,56.3,330,52.56Zm8-.06v-.17c0-1.82-.76-2.79-2.12-2.79s-2.13.93-2.13,2.81v.17c0,1.81.81,2.74,2.09,2.74S338,54.33,338,52.5Z" fill="#fff"/><path d="M342.87,52.58v-.17a5.52,5.52,0,0,1,5.84-5.66c3,0,5.49,1.7,5.49,5.58v1h-7.59a2.15,2.15,0,0,0,2.25,2.25c1.21,0,1.73-.55,1.87-1.28h3.47c-.33,2.44-2.21,3.83-5.47,3.83S342.87,56.11,342.87,52.58Zm7.74-1.36c-.06-1.31-.7-2-1.9-2a2,2,0,0,0-2.06,2Z" fill="#fff"/><path d="M354.94,52.56v-.17c0-3.67,2-5.64,4.58-5.64a3.5,3.5,0,0,1,3.32,1.82V42.29h3.7V57.85h-3.7V56.09a3.62,3.62,0,0,1-3.36,2C357,58.1,354.94,56.3,354.94,52.56Zm8-.06v-.17c0-1.82-.77-2.79-2.13-2.79s-2.12.93-2.12,2.81v.17c0,1.81.8,2.74,2.08,2.74S363,54.33,363,52.5Z" fill="#fff"/><path d="M368.33,54.09V47H372v6.45c0,1.22.47,1.82,1.52,1.82s1.84-.66,1.84-2.05V47h3.69V57.85h-3.69V56.17A3.55,3.55,0,0,1,372,58.1C369.88,58.1,368.33,56.81,368.33,54.09Z" fill="#fff"/><path d="M380.38,52.58v-.17a5.44,5.44,0,0,1,5.76-5.66c2.64,0,5.07,1.16,5.28,4.45H388a1.59,1.59,0,0,0-1.73-1.58c-1.3,0-2.06.93-2.06,2.75v.17c0,1.88.72,2.85,2.12,2.85a1.8,1.8,0,0,0,1.88-1.8h3.32c-.1,2.73-1.94,4.51-5.42,4.51C382.84,58.1,380.38,56.22,380.38,52.58Z" fill="#fff"/><path d="M393.17,54.38V49.56h-1.29V47h1.29V44.79h3.7V47H399v2.52h-2.12V54A1,1,0,0,0,398,55.16,2.89,2.89,0,0,0,399,55v2.81a7.83,7.83,0,0,1-2,.31C394.54,58.1,393.17,56.92,393.17,54.38Z" fill="#fff"/><path d="M400.31,44.11a1.93,1.93,0,0,1,2-1.92,1.91,1.91,0,1,1,0,3.82A1.92,1.92,0,0,1,400.31,44.11ZM400.5,47h3.69V57.85H400.5Z" fill="#fff"/><path d="M405.6,52.58v-.17c0-3.47,2.57-5.66,5.92-5.66s5.88,2.13,5.88,5.56v.17c0,3.51-2.58,5.62-5.9,5.62S405.6,56.07,405.6,52.58Zm8-.06v-.17c0-1.82-.72-2.83-2.12-2.83s-2.15,1-2.15,2.79v.17c0,1.85.72,2.87,2.15,2.87S413.64,54.31,413.64,52.52Z" fill="#fff"/><path d="M418.7,47h3.69v1.74a3.8,3.8,0,0,1,3.55-2c2.08,0,3.53,1.3,3.53,4.07v7h-3.7V51.57c0-1.22-.47-1.82-1.54-1.82s-1.84.66-1.84,2v6.06H418.7Z" fill="#fff"/><path d="M430.37,59.52l1.72-5.43,3.42,1.22-2.95,5.06Zm1.28-9.44A2.06,2.06,0,0,1,433.76,48a2.09,2.09,0,1,1,0,4.18A2.05,2.05,0,0,1,431.65,50.08Z" fill="#fff"/><path d="M127.46,68.22h-3.82V65h11.88v3.26h-3.81V79.73h-4.25Z" fill="#fff"/><path d="M135.85,76v-7h3.7v6.45c0,1.22.47,1.82,1.52,1.82s1.84-.66,1.84-2V68.92h3.69V79.73h-3.69V78.06A3.56,3.56,0,0,1,139.48,80C137.4,80,135.85,78.7,135.85,76Z" fill="#fff"/><path d="M148.48,68.92h3.69v2.15a3.4,3.4,0,0,1,3.49-2.29v3.45c-2.25-.06-3.49.64-3.49,2.38v5.12h-3.69Z" fill="#fff"/><path d="M160.69,78.06v1.67H157V64.17h3.69v6.37a3.81,3.81,0,0,1,3.37-1.91c2.51,0,4.56,1.91,4.56,5.6v.17c0,3.72-2.05,5.58-4.58,5.58A3.52,3.52,0,0,1,160.69,78.06Zm4.17-3.66v-.17c0-1.9-.82-2.81-2.12-2.81s-2.15,1-2.15,2.79v.17c0,1.84.81,2.77,2.15,2.77S164.86,76.18,164.86,74.4Z" fill="#fff"/><path d="M169.38,74.46V74.3c0-3.47,2.58-5.67,5.92-5.67s5.88,2.13,5.88,5.56v.17c0,3.51-2.58,5.62-5.9,5.62S169.38,78,169.38,74.46Zm8.05-.06v-.17c0-1.81-.73-2.83-2.13-2.83s-2.14,1-2.14,2.79v.17c0,1.86.72,2.87,2.14,2.87S177.43,76.2,177.43,74.4Z" fill="#fff"/><path d="M185.64,68.22h-3.82V65H193.7v3.26h-3.81V79.73h-4.25Z" fill="#fff"/><path d="M193,76.73c0-2.54,2.15-3.53,5.74-3.53h1V73c0-1-.25-1.71-1.42-1.71a1.32,1.32,0,0,0-1.47,1.28h-3.46c.16-2.6,2.2-3.89,5.15-3.89s4.87,1.22,4.87,4.1v7h-3.59V78.47a3.54,3.54,0,0,1-3.2,1.51C194.67,80,193,79,193,76.73Zm6.77-.78v-.66h-1c-1.49,0-2.15.29-2.15,1.17,0,.62.42,1,1.28,1A1.63,1.63,0,0,0,199.73,76Z" fill="#fff"/><path d="M207.92,74.23l-3.36-5.31h4.25l1.67,2.86,1.63-2.86h3.79l-3.4,5,3.73,5.79H212l-1.91-3.22-2,3.22h-3.78Z" fill="#fff"/><path d="M220.49,74.44v-.16c0-3.68,2-5.65,4.57-5.65a3.51,3.51,0,0,1,3.33,1.82V64.17h3.69V79.73h-3.69V78A3.65,3.65,0,0,1,225,80C222.53,80,220.49,78.18,220.49,74.44Zm8-.06v-.17c0-1.81-.76-2.79-2.13-2.79s-2.12.93-2.12,2.81v.17c0,1.82.8,2.75,2.08,2.75S228.49,76.22,228.49,74.38Z" fill="#fff"/><path d="M233.38,74.46V74.3c0-3.47,2.58-5.67,5.92-5.67s5.88,2.13,5.88,5.56v.17c0,3.51-2.58,5.62-5.9,5.62S233.38,78,233.38,74.46Zm8.05-.06v-.17c0-1.81-.73-2.83-2.13-2.83s-2.14,1-2.14,2.79v.17c0,1.86.72,2.87,2.14,2.87S241.43,76.2,241.43,74.4Z" fill="#fff"/><path d="M245.9,74.46V74.3a5.53,5.53,0,0,1,5.84-5.67c2.95,0,5.49,1.7,5.49,5.58v1h-7.59a2.16,2.16,0,0,0,2.25,2.26c1.21,0,1.73-.56,1.87-1.28h3.47C256.9,78.59,255,80,251.76,80S245.9,78,245.9,74.46Zm7.74-1.36c-.06-1.3-.7-2-1.9-2a2.06,2.06,0,0,0-2.06,2Z" fill="#fff"/><path d="M257.89,76.3h3.4c.13.78.48,1.22,1.53,1.22s1.32-.35,1.32-.89-.51-.76-2-1c-2.89-.37-4.11-1.22-4.11-3.47s2.13-3.56,4.63-3.56c2.66,0,4.51.91,4.76,3.5h-3.34a1.2,1.2,0,0,0-1.38-1.08c-.81,0-1.22.35-1.22.85s.5.72,1.82.89c3,.37,4.43,1.15,4.43,3.47,0,2.56-1.9,3.72-4.89,3.72S258,78.7,257.89,76.3Z" fill="#fff"/><path d="M268.93,68.92h3.69v1.74a3.8,3.8,0,0,1,3.55-2c2.08,0,3.53,1.31,3.53,4.08v7H276V73.45c0-1.22-.47-1.82-1.54-1.82s-1.84.66-1.84,2.05v6h-3.69Z" fill="#fff"/><path d="M280.85,70.08l1.65-5.39,3.26,1.09-2.82,5.11Z" fill="#fff"/><path d="M287.21,76.26V71.44h-1.3V68.92h1.3V66.67h3.69v2.25H293v2.52H290.9v4.47A1,1,0,0,0,292,77a2.89,2.89,0,0,0,1.05-.18v2.81a8,8,0,0,1-2,.31C288.57,80,287.21,78.8,287.21,76.26Z" fill="#fff"/><path d="M294.29,77.87a2.05,2.05,0,0,1,2.1-2.09,2.09,2.09,0,1,1,0,4.18A2.05,2.05,0,0,1,294.29,77.87Z" fill="#fff"/></g><g id="Rect"><rect width="600" height="100" fill="none"/></g></g></svg>