<svg xmlns="http://www.w3.org/2000/svg" viewBox="0 0 300 250"><title>Asset 2</title><rect width="300" height="250" fill="none"/><path d="M21.93,16.06H35.76v4.43H27.64v3.44h6.47V28H27.64v3.64h8.57v4.42H21.93Z" fill="#14aa40"/><path d="M37.36,32c0-3.44,2.91-4.78,7.78-4.78h1.4V26.9c0-1.4-.33-2.32-1.93-2.32a1.8,1.8,0,0,0-2,1.73h-4.7c.22-3.53,3-5.26,7-5.26s6.61,1.65,6.61,5.54v9.49H46.66v-1.7a4.82,4.82,0,0,1-4.34,2C39.68,36.42,37.36,35.13,37.36,32ZM46.54,31v-.9H45.23c-2,0-2.91.4-2.91,1.6,0,.84.56,1.37,1.73,1.37C45.48,33,46.54,32.22,46.54,31Z" fill="#14aa40"/><path d="M53,31.44H57.6c.17,1.06.65,1.65,2.08,1.65,1.23,0,1.79-.48,1.79-1.21s-.7-1-2.72-1.31c-3.92-.51-5.57-1.65-5.57-4.71,0-3.24,2.88-4.81,6.27-4.81,3.61,0,6.13,1.23,6.47,4.73H61.38a1.63,1.63,0,0,0-1.87-1.46c-1.09,0-1.65.48-1.65,1.15s.67,1,2.46,1.21c4.06.5,6,1.56,6,4.7,0,3.47-2.58,5-6.64,5S53.1,34.68,53,31.44Z" fill="#14aa40"/><path d="M72.08,34.6,66.23,21.44h5.43l3,7.81,2.8-7.81h4.79L74.43,41H69.64Z" fill="#14aa40"/><path d="M89.33,31.38V24.86H87.56V21.44h1.77V18.39h5v3.05h2.88v3.42H94.34v6c0,1.07.53,1.54,1.48,1.54a3.8,3.8,0,0,0,1.43-.25V36a10.36,10.36,0,0,1-2.77.42C91.18,36.42,89.33,34.82,89.33,31.38Z" fill="#14aa40"/><path d="M98.34,28.94v-.22c0-4.7,3.5-7.67,8-7.67s8,2.88,8,7.53v.22c0,4.76-3.5,7.62-8,7.62S98.34,33.68,98.34,28.94Zm10.92-.08v-.22c0-2.47-1-3.84-2.88-3.84s-2.91,1.32-2.91,3.78v.22c0,2.52,1,3.9,2.91,3.9S109.26,31.3,109.26,28.86Z" fill="#14aa40"/><path d="M20.5,61.44h4.62c.17,1.06.65,1.65,2.08,1.65,1.23,0,1.79-.48,1.79-1.21s-.7-1-2.72-1.31c-3.92-.51-5.57-1.65-5.57-4.71,0-3.24,2.88-4.81,6.27-4.81,3.61,0,6.13,1.23,6.47,4.73H28.9A1.63,1.63,0,0,0,27,54.32c-1.09,0-1.65.48-1.65,1.15s.67,1,2.46,1.21c4.06.5,6,1.56,6,4.7,0,3.47-2.58,5-6.64,5S20.62,64.68,20.5,61.44Z" fill="#14aa40"/><path d="M33.92,51.44h5.23l2.13,8.76,2.46-8.76h4L50,60.2l2.38-8.76H57.1L52.45,66.08H47.66l-2.18-8.17-2.27,8.17H38.34Z" fill="#14aa40"/><path d="M58.28,47.46A2.76,2.76,0,1,1,61,50,2.61,2.61,0,0,1,58.28,47.46Zm.25,4h5V66.08h-5Z" fill="#14aa40"/><path d="M66.9,61.38V54.86H65.14V51.44H66.9v-3h5v3H74.8v3.42H71.91v6c0,1.07.53,1.54,1.49,1.54a3.71,3.71,0,0,0,1.42-.25V66a10.36,10.36,0,0,1-2.77.42C68.75,66.42,66.9,64.82,66.9,61.38Z" fill="#14aa40"/><path d="M75.92,58.94v-.22c0-4.87,3.5-7.67,7.81-7.67,3.58,0,6.89,1.57,7.17,6H86.19a2.16,2.16,0,0,0-2.35-2.13c-1.76,0-2.8,1.26-2.8,3.72v.23c0,2.55,1,3.86,2.88,3.86a2.44,2.44,0,0,0,2.55-2.43H91c-.14,3.69-2.63,6.1-7.36,6.1C79.25,66.42,75.92,63.87,75.92,58.94Z" fill="#14aa40"/><path d="M92.6,45h5v8.79a5.16,5.16,0,0,1,4.81-2.74c2.83,0,4.79,1.76,4.79,5.51v9.52h-5V57.57c0-1.65-.65-2.46-2.1-2.46s-2.49.89-2.49,2.77v8.2h-5Z" fill="#14aa40"/><path d="M109.46,63.56a2.79,2.79,0,0,1,2.85-2.82,2.83,2.83,0,1,1,0,5.65A2.79,2.79,0,0,1,109.46,63.56Z" fill="#14aa40"/><path d="M21.93,76.06H35.76v4.43H27.64v3.44h6.47V88H27.64v3.64h8.57v4.42H21.93Z" fill="#14aa40"/><path d="M37.36,92c0-3.44,2.91-4.78,7.78-4.78h1.4V86.9c0-1.4-.33-2.32-1.93-2.32a1.8,1.8,0,0,0-2,1.73h-4.7c.22-3.53,3-5.26,7-5.26s6.61,1.65,6.61,5.54v9.49H46.66v-1.7a4.82,4.82,0,0,1-4.34,2C39.68,96.42,37.36,95.13,37.36,92ZM46.54,91v-.9H45.23c-2,0-2.91.4-2.91,1.6,0,.84.56,1.37,1.73,1.37C45.48,93,46.54,92.22,46.54,91Z" fill="#14aa40"/><path d="M53,91.44H57.6c.17,1.06.65,1.65,2.08,1.65,1.23,0,1.79-.48,1.79-1.21s-.7-1-2.72-1.31c-3.92-.51-5.57-1.65-5.57-4.71,0-3.24,2.88-4.81,6.27-4.81,3.61,0,6.13,1.23,6.47,4.73H61.38a1.63,1.63,0,0,0-1.87-1.46c-1.09,0-1.65.48-1.65,1.15s.67,1,2.46,1.21c4.06.5,6,1.56,6,4.7,0,3.47-2.58,5-6.64,5S53.1,94.68,53,91.44Z" fill="#14aa40"/><path d="M72.08,94.6,66.23,81.44h5.43l3,7.81,2.8-7.81h4.79L74.43,101H69.64Z" fill="#14aa40"/><path d="M89.33,91.38V84.86H87.56V81.44h1.77v-3h5v3h2.88v3.42H94.34v6c0,1.07.53,1.54,1.48,1.54a3.8,3.8,0,0,0,1.43-.25V96a10.36,10.36,0,0,1-2.77.42C91.18,96.42,89.33,94.82,89.33,91.38Z" fill="#14aa40"/><path d="M98.34,88.94v-.22c0-4.7,3.5-7.67,8-7.67s8,2.88,8,7.53v.22c0,4.76-3.5,7.62-8,7.62S98.34,93.68,98.34,88.94Zm10.92-.08v-.22c0-2.47-1-3.84-2.88-3.84s-2.91,1.32-2.91,3.78v.22c0,2.52,1,3.9,2.91,3.9S109.26,91.3,109.26,88.86Z" fill="#14aa40"/><path d="M20.5,121.44h4.62c.17,1.06.65,1.65,2.08,1.65,1.23,0,1.79-.48,1.79-1.21s-.7-1-2.72-1.31c-3.92-.51-5.57-1.65-5.57-4.71,0-3.24,2.88-4.81,6.27-4.81,3.61,0,6.13,1.23,6.47,4.73H28.9A1.63,1.63,0,0,0,27,114.32c-1.09,0-1.65.48-1.65,1.15s.67,1,2.46,1.21c4.06.5,6,1.56,6,4.7,0,3.47-2.58,5-6.64,5S20.62,124.68,20.5,121.44Z" fill="#14aa40"/><path d="M34.64,122c0-3.44,2.92-4.78,7.79-4.78h1.4v-.34c0-1.4-.34-2.32-1.93-2.32a1.79,1.79,0,0,0-2,1.73H35.2c.23-3.53,3-5.26,7-5.26s6.61,1.65,6.61,5.54v9.49H43.94v-1.7a4.82,4.82,0,0,1-4.34,2C37,126.42,34.64,125.13,34.64,122ZM43.83,121v-.9H42.51c-2,0-2.91.4-2.91,1.6,0,.84.56,1.37,1.74,1.37A2.21,2.21,0,0,0,43.83,121Z" fill="#14aa40"/><path d="M49.57,111.44h5.35l3,9.44,3-9.44h4.79L60.4,126.08H54.94Z" fill="#14aa40"/><path d="M65.44,118.94v-.22c0-4.7,3.5-7.67,7.93-7.67,4,0,7.45,2.29,7.45,7.56v1.31H70.51a2.93,2.93,0,0,0,3,3.06c1.66,0,2.36-.76,2.55-1.74h4.71c-.45,3.3-3,5.18-7.42,5.18C68.8,126.42,65.44,123.73,65.44,118.94Zm10.5-1.84c-.08-1.77-1-2.75-2.57-2.75s-2.55,1-2.8,2.75Z" fill="#14aa40"/><path d="M82.22,123.56a2.79,2.79,0,0,1,2.85-2.82,2.83,2.83,0,1,1,0,5.65A2.79,2.79,0,0,1,82.22,123.56Z" fill="#14aa40"/></svg>