<svg xmlns="http://www.w3.org/2000/svg" viewBox="0 0 300 250"><title>Asset 6</title><rect width="300" height="250" fill="none"/><path d="M21.59,27.78h6.87c6.7,0,10.11,3.32,10.11,9.14v.21c0,5.83-3.49,9.37-10.14,9.37H21.59Zm6.68,14.58c3.22,0,4.65-1.67,4.65-5.16V37c0-3.56-1.43-5.07-4.7-5.07H27V42.36Z" fill="#fff"/><path d="M39.65,39.82v-.21c0-4.4,3.3-7.17,7.58-7.17s7.52,2.7,7.52,7v.21c0,4.45-3.3,7.12-7.55,7.12S39.65,44.25,39.65,39.82ZM50,39.74v-.21C50,37.23,49,36,47.23,36s-2.75,1.23-2.75,3.53v.21c0,2.36.93,3.64,2.75,3.64S50,42,50,39.74Z" fill="#fff"/><path d="M56.41,32.81h4.73V35a4.88,4.88,0,0,1,4.54-2.56c2.67,0,4.51,1.65,4.51,5.16v8.9H65.47v-8c0-1.55-.61-2.3-2-2.3s-2.35.83-2.35,2.59V46.5H56.41Z" fill="#fff"/><path d="M71.57,27.78h4.62L75.63,35H72.1Z" fill="#fff"/><path d="M79.14,42.1V36H77.48V32.81h1.66V30h4.73v2.86h2.72V36H83.87v5.66a1.26,1.26,0,0,0,1.4,1.44,3.52,3.52,0,0,0,1.34-.24v3.56a9.8,9.8,0,0,1-2.61.39C80.89,46.81,79.14,45.32,79.14,42.1Z" fill="#fff"/><path d="M92.5,39.8v-.21c0-4.66,2.59-7.15,5.86-7.15a4.47,4.47,0,0,1,4.25,2.3v-8h4.73V46.5h-4.73V44.27a4.64,4.64,0,0,1-4.3,2.54C95.11,46.81,92.5,44.54,92.5,39.8Zm10.24-.08v-.21c0-2.31-1-3.54-2.72-3.54s-2.71,1.18-2.71,3.56v.21c0,2.31,1,3.49,2.66,3.49S102.74,42.05,102.74,39.72Z" fill="#fff"/><path d="M109,39.82v-.21c0-4.4,3.3-7.17,7.58-7.17s7.52,2.7,7.52,7v.21c0,4.45-3.3,7.12-7.55,7.12S109,44.25,109,39.82Zm10.3-.08v-.21c0-2.3-.93-3.58-2.72-3.58s-2.75,1.23-2.75,3.53v.21c0,2.36.93,3.64,2.75,3.64S119.3,42,119.3,39.74Z" fill="#fff"/><path d="M131.2,42.1V36h-1.66V32.81h1.66V30h4.73v2.86h2.72V36h-2.72v5.66a1.26,1.26,0,0,0,1.4,1.44,3.56,3.56,0,0,0,1.34-.24v3.56a9.87,9.87,0,0,1-2.61.39C132.94,46.81,131.2,45.32,131.2,42.1Z" fill="#fff"/><path d="M139.7,42.7c0-3.22,2.75-4.47,7.34-4.47h1.32v-.32c0-1.31-.32-2.17-1.82-2.17a1.7,1.7,0,0,0-1.88,1.62h-4.43c.21-3.3,2.82-4.92,6.6-4.92s6.23,1.54,6.23,5.18V46.5h-4.59V44.9a4.55,4.55,0,0,1-4.1,1.91C141.89,46.81,139.7,45.61,139.7,42.7Zm8.66-1v-.84h-1.24c-1.9,0-2.75.37-2.75,1.49,0,.79.53,1.29,1.64,1.29C147.36,43.65,148.36,42.89,148.36,41.71Z" fill="#fff"/><path d="M158.84,39.53l-4.3-6.72H160l2.14,3.61,2.08-3.61h4.86l-4.36,6.36,4.78,7.33H164l-2.45-4.08-2.51,4.08h-4.83Z" fill="#fff"/><path d="M168.87,39.82v-.21c0-4.4,3.3-7.17,7.47-7.17,3.78,0,7,2.15,7,7.07v1.23h-9.71a2.74,2.74,0,0,0,2.88,2.85c1.55,0,2.21-.7,2.4-1.62h4.43c-.42,3.09-2.82,4.84-7,4.84C172,46.81,168.87,44.3,168.87,39.82Zm9.9-1.73c-.08-1.65-.9-2.56-2.43-2.56a2.62,2.62,0,0,0-2.64,2.56Z" fill="#fff"/><path d="M184.21,42.15h4.36c.15,1,.6,1.55,2,1.55,1.16,0,1.69-.45,1.69-1.13s-.66-1-2.56-1.23c-3.7-.47-5.26-1.54-5.26-4.4,0-3,2.72-4.5,5.92-4.5,3.4,0,5.78,1.15,6.1,4.42h-4.28a1.55,1.55,0,0,0-1.77-1.36c-1,0-1.56.45-1.56,1.08s.64.91,2.33,1.12c3.82.47,5.67,1.47,5.67,4.4,0,3.25-2.43,4.71-6.26,4.71S184.32,45.19,184.21,42.15Z" fill="#fff"/><path d="M198.15,44.14a2.62,2.62,0,0,1,2.69-2.64,2.65,2.65,0,1,1,0,5.29A2.62,2.62,0,0,1,198.15,44.14Z" fill="#fff"/><path d="M211.06,27.78h5.44V42.34h7.12V46.5H211.06Z" fill="#fff"/><path d="M224.42,39.82v-.21c0-4.4,3.3-7.17,7.47-7.17,3.77,0,7,2.15,7,7.07v1.23h-9.72a2.75,2.75,0,0,0,2.88,2.85c1.56,0,2.22-.7,2.4-1.62h4.44c-.42,3.09-2.83,4.84-7,4.84C227.58,46.81,224.42,44.3,224.42,39.82Zm9.89-1.73c-.07-1.65-.89-2.56-2.42-2.56a2.6,2.6,0,0,0-2.64,2.56Z" fill="#fff"/><path d="M241.18,42.1V36h-1.67V32.81h1.67V30h4.72v2.86h2.72V36H245.9v5.66a1.26,1.26,0,0,0,1.4,1.44,3.57,3.57,0,0,0,1.35-.24v3.56a9.94,9.94,0,0,1-2.61.39C242.92,46.81,241.18,45.32,241.18,42.1Z" fill="#fff"/><path d="M254.43,42.7c0-3.22,2.75-4.47,7.34-4.47h1.32v-.32c0-1.31-.32-2.17-1.82-2.17a1.69,1.69,0,0,0-1.88,1.62H255c.21-3.3,2.82-4.92,6.6-4.92s6.23,1.54,6.23,5.18V46.5h-4.6V44.9a4.53,4.53,0,0,1-4.09,1.91C256.62,46.81,254.43,45.61,254.43,42.7Zm8.66-1v-.84h-1.24c-1.9,0-2.75.37-2.75,1.49,0,.79.53,1.29,1.64,1.29C262.09,43.65,263.09,42.89,263.09,41.71Z" fill="#fff"/><path d="M21.81,71.44v-6.1H20.14v-3.2h1.67V59.29h4.72v2.85h2.72v3.2H26.53V71a1.25,1.25,0,0,0,1.4,1.44,3.82,3.82,0,0,0,1.35-.23v3.56a10.39,10.39,0,0,1-2.62.39C23.55,76.15,21.81,74.66,21.81,71.44Z" fill="#fff"/><path d="M30.31,72c0-3.22,2.74-4.48,7.33-4.48H39v-.31c0-1.31-.31-2.18-1.82-2.18a1.69,1.69,0,0,0-1.87,1.63H30.83c.21-3.3,2.83-4.93,6.6-4.93s6.23,1.55,6.23,5.19v8.88H39.07v-1.6A4.55,4.55,0,0,1,35,76.15C32.5,76.15,30.31,75,30.31,72ZM39,71v-.83H37.72c-1.9,0-2.74.36-2.74,1.49,0,.78.53,1.28,1.63,1.28C38,73,39,72.22,39,71Z" fill="#fff"/><path d="M49.44,68.87l-4.3-6.73h5.44l2.14,3.61,2.08-3.61h4.86L55.3,68.5l4.78,7.34H54.65l-2.46-4.09-2.51,4.09H44.85Z" fill="#fff"/><path d="M66.21,62.14h4.72v2a4.9,4.9,0,0,1,4.31-2.41c3.22,0,5.83,2.41,5.83,7.1v.21c0,4.71-2.61,7.07-5.86,7.07a4.57,4.57,0,0,1-4.28-2.33v6.6H66.21Zm10.06,6.94v-.21c0-2.41-1.06-3.56-2.72-3.56s-2.75,1.23-2.75,3.53v.21c0,2.33,1,3.51,2.75,3.51S76.27,71.33,76.27,69.08Z" fill="#fff"/><path d="M82.79,62.14h4.72v2.72A4.34,4.34,0,0,1,92,62v4.37c-2.87-.08-4.46.81-4.46,3v6.5H82.79Z" fill="#fff"/><path d="M92.82,69.16V69c0-4.4,3.3-7.18,7.57-7.18s7.53,2.7,7.53,7V69c0,4.45-3.3,7.12-7.55,7.12S92.82,73.58,92.82,69.16Zm10.29-.08v-.21c0-2.3-.92-3.59-2.72-3.59s-2.74,1.23-2.74,3.54V69c0,2.35.92,3.64,2.74,3.64S103.11,71.36,103.11,69.08Z" fill="#fff"/><path d="M113.7,69.13v-.21c0-4.66,2.59-7.15,5.86-7.15a4.49,4.49,0,0,1,4.25,2.31v-8h4.72V75.84h-4.72V73.61a4.67,4.67,0,0,1-4.3,2.54C116.31,76.15,113.7,73.87,113.7,69.13Zm10.24-.08v-.21c0-2.3-1-3.53-2.72-3.53s-2.72,1.18-2.72,3.56v.21c0,2.3,1,3.48,2.67,3.48S123.94,71.38,123.94,69.05Z" fill="#fff"/><path d="M130.2,69.16V69c0-4.4,3.3-7.18,7.57-7.18s7.53,2.7,7.53,7V69c0,4.45-3.3,7.12-7.55,7.12S130.2,73.58,130.2,69.16Zm10.29-.08v-.21c0-2.3-.92-3.59-2.72-3.59S135,66.51,135,68.82V69c0,2.35.92,3.64,2.74,3.64S140.49,71.36,140.49,69.08Z" fill="#fff"/><path d="M152.4,71.44v-6.1h-1.66v-3.2h1.66V59.29h4.72v2.85h2.72v3.2h-2.72V71a1.26,1.26,0,0,0,1.4,1.44,3.78,3.78,0,0,0,1.35-.23v3.56a10.3,10.3,0,0,1-2.61.39C154.14,76.15,152.4,74.66,152.4,71.44Z" fill="#fff"/><path d="M161.64,56.12h4.72v8.22a4.9,4.9,0,0,1,4.55-2.57c2.66,0,4.51,1.65,4.51,5.16v8.91h-4.73v-8c0-1.55-.6-2.31-2-2.31s-2.35.84-2.35,2.59v7.68h-4.72Z" fill="#fff"/><path d="M177,69.16V69c0-4.4,3.3-7.18,7.47-7.18,3.77,0,7,2.15,7,7.07v1.24h-9.72a2.75,2.75,0,0,0,2.88,2.85c1.56,0,2.22-.71,2.41-1.62h4.43c-.42,3.09-2.82,4.84-7,4.84S177,73.64,177,69.16Zm9.9-1.73c-.08-1.65-.9-2.57-2.43-2.57a2.62,2.62,0,0,0-2.64,2.57Z" fill="#fff"/><path d="M193.11,62.14h4.72v2.1a4.84,4.84,0,0,1,4.33-2.47,3.77,3.77,0,0,1,3.75,2.28,5.51,5.51,0,0,1,4.57-2.28c2.61,0,4.51,1.68,4.51,5.11v9h-4.73V67.67c0-1.39-.68-2.07-1.76-2.07a2,2,0,0,0-2.12,2.3v7.94h-4.67V67.67c0-1.39-.68-2.07-1.77-2.07a2,2,0,0,0-2.11,2.3v7.94h-4.72Z" fill="#fff"/><path d="M222.8,65.34h-1.74v-3.2h1.74v-1.2c0-3.41,2.14-5,5.42-5a8.3,8.3,0,0,1,2.16.29v3.43a4.14,4.14,0,0,0-1.29-.19,1.39,1.39,0,0,0-1.59,1.5v1.2h2.8v3.2h-2.8v10.5h-4.7Z" fill="#fff"/><path d="M230.67,69.16V69c0-4.4,3.3-7.18,7.58-7.18s7.52,2.7,7.52,7V69c0,4.45-3.3,7.12-7.55,7.12S230.67,73.58,230.67,69.16Zm10.3-.08v-.21c0-2.3-.93-3.59-2.72-3.59s-2.75,1.23-2.75,3.54V69c0,2.35.93,3.64,2.75,3.64S241,71.36,241,69.08Z" fill="#fff"/><path d="M247.43,62.14h4.73v2.72a4.34,4.34,0,0,1,4.46-2.9v4.37c-2.88-.08-4.46.81-4.46,3v6.5h-4.73Z" fill="#fff"/><path d="M25.5,103.78,20,91.48h5.13L28,98.78l2.64-7.3h4.51l-7.39,18.27H23.2Z" fill="#fff"/><path d="M34.85,98.5v-.21c0-4.4,3.3-7.18,7.57-7.18s7.53,2.7,7.53,7v.2c0,4.46-3.3,7.13-7.55,7.13S34.85,102.92,34.85,98.5Zm10.29-.08v-.21c0-2.31-.92-3.59-2.72-3.59s-2.74,1.23-2.74,3.54v.2c0,2.36.92,3.64,2.74,3.64S45.14,100.69,45.14,98.42Z" fill="#fff"/><path d="M51.5,100.41V91.48h4.73v8.17c0,1.54.61,2.3,2,2.3s2.35-.84,2.35-2.59V91.48h4.73v13.69H60.53v-2.12a4.53,4.53,0,0,1-4.38,2.44C53.48,105.49,51.5,103.86,51.5,100.41Z" fill="#fff"/><path d="M71.3,91.48h4.94l2,8.19,2.32-8.19h3.8l2.06,8.19,2.24-8.19h4.49l-4.38,13.69H84.26L82.2,97.53l-2.13,7.64h-4.6Z" fill="#fff"/><path d="M94.27,87.76a2.61,2.61,0,1,1,2.59,2.41A2.46,2.46,0,0,1,94.27,87.76Zm.24,3.72h4.72v13.69H94.51Z" fill="#fff"/><path d="M102.4,100.77v-6.1h-1.66V91.48h1.66V88.62h4.73v2.86h2.71v3.19h-2.71v5.66a1.25,1.25,0,0,0,1.39,1.44,3.57,3.57,0,0,0,1.35-.24v3.56a9.8,9.8,0,0,1-2.61.4C104.14,105.49,102.4,104,102.4,100.77Z" fill="#fff"/><path d="M111.64,85.46h4.73v8.22a4.86,4.86,0,0,1,4.54-2.57c2.66,0,4.51,1.65,4.51,5.16v8.9h-4.73v-8c0-1.54-.6-2.3-2-2.3s-2.34.84-2.34,2.59v7.67h-4.73Z" fill="#fff"/><path d="M127,98.5v-.21c0-4.4,3.3-7.18,7.57-7.18s7.53,2.7,7.53,7v.2c0,4.46-3.3,7.13-7.55,7.13S127,102.92,127,98.5Zm10.29-.08v-.21c0-2.31-.92-3.59-2.72-3.59s-2.74,1.23-2.74,3.54v.2c0,2.36.92,3.64,2.74,3.64S137.27,100.69,137.27,98.42Z" fill="#fff"/><path d="M143.63,100.41V91.48h4.73v8.17c0,1.54.61,2.3,1.95,2.3s2.35-.84,2.35-2.59V91.48h4.73v13.69h-4.73v-2.12a4.53,4.53,0,0,1-4.38,2.44C145.61,105.49,143.63,103.86,143.63,100.41Z" fill="#fff"/><path d="M160.42,100.77v-6.1h-1.66V91.48h1.66V88.62h4.73v2.86h2.72v3.19h-2.72v5.66a1.26,1.26,0,0,0,1.4,1.44,3.52,3.52,0,0,0,1.34-.24v3.56a9.73,9.73,0,0,1-2.61.4C162.17,105.49,160.42,104,160.42,100.77Z" fill="#fff"/><path d="M174.6,85.46h4.7v19.71h-4.7Z" fill="#fff"/><path d="M181.09,98.5v-.21c0-4.4,3.3-7.18,7.48-7.18,3.77,0,7,2.15,7,7.07v1.23h-9.72a2.75,2.75,0,0,0,2.88,2.86c1.56,0,2.22-.71,2.4-1.63h4.44c-.43,3.09-2.83,4.85-7,4.85C184.26,105.49,181.09,103,181.09,98.5Zm9.9-1.73c-.08-1.65-.89-2.57-2.42-2.57a2.61,2.61,0,0,0-2.64,2.57Z" fill="#fff"/><path d="M196.56,101.38c0-3.22,2.75-4.48,7.34-4.48h1.32v-.32c0-1.31-.31-2.17-1.82-2.17A1.69,1.69,0,0,0,201.53,96h-4.44c.21-3.3,2.83-4.92,6.6-4.92s6.23,1.55,6.23,5.19v8.87h-4.59v-1.59a4.56,4.56,0,0,1-4.09,1.91C198.75,105.49,196.56,104.28,196.56,101.38Zm8.66-1v-.84H204c-1.9,0-2.74.37-2.74,1.5,0,.78.52,1.28,1.63,1.28C204.22,102.32,205.22,101.56,205.22,100.38Z" fill="#fff"/><path d="M210.63,91.48h5.05l2.87,8.82,2.83-8.82h4.51l-5,13.69H215.7Z" fill="#fff"/><path d="M227,87.76a2.45,2.45,0,0,1,2.58-2.44,2.43,2.43,0,1,1,0,4.85A2.43,2.43,0,0,1,227,87.76Zm.23,3.72h4.73v13.69h-4.73Z" fill="#fff"/><path d="M234.47,91.48h4.73v2.2a4.87,4.87,0,0,1,4.54-2.57c2.66,0,4.51,1.65,4.51,5.16v8.9h-4.72v-8c0-1.54-.61-2.3-2-2.3s-2.35.84-2.35,2.59v7.67h-4.73Z" fill="#fff"/><path d="M249.78,105.17h4.7c.21,1,.82,1.78,2.54,1.78a2.6,2.6,0,0,0,2.93-2.88V102a4.86,4.86,0,0,1-4.28,2.51c-3.22,0-5.86-2.36-5.86-6.57v-.21c0-4,2.61-6.6,5.86-6.6A4.51,4.51,0,0,1,260,93.42V91.48h4.72V104c0,4.08-2.72,6.23-7.65,6.23C252.32,110.25,250.15,108.29,249.78,105.17Zm10.3-7.28v-.18c0-1.89-1-3.09-2.72-3.09s-2.72,1.23-2.72,3.12V98c0,1.88,1,3.09,2.69,3.09S260.08,99.83,260.08,97.89Z" fill="#fff"/><path d="M21.17,114.79H25.9V123a4.88,4.88,0,0,1,4.54-2.56c2.66,0,4.51,1.65,4.51,5.16v8.9H30.23v-8c0-1.55-.61-2.31-2-2.31s-2.35.84-2.35,2.6v7.67H21.17Z" fill="#fff"/><path d="M36.51,127.83v-.21c0-4.4,3.3-7.17,7.58-7.17s7.52,2.7,7.52,7v.21c0,4.45-3.3,7.12-7.55,7.12S36.51,132.26,36.51,127.83Zm10.3-.08v-.21c0-2.3-.93-3.58-2.72-3.58s-2.75,1.23-2.75,3.53v.21c0,2.36.92,3.64,2.75,3.64S46.81,130,46.81,127.75Z" fill="#fff"/><path d="M53.27,120.81H58v2.1a4.83,4.83,0,0,1,4.33-2.46,3.76,3.76,0,0,1,3.75,2.28,5.46,5.46,0,0,1,4.56-2.28c2.62,0,4.52,1.67,4.52,5.1v9H70.43v-8.17c0-1.39-.68-2.07-1.77-2.07a2,2,0,0,0-2.11,2.31v7.93H61.88v-8.17c0-1.39-.69-2.07-1.77-2.07A2,2,0,0,0,58,126.58v7.93H53.27Z" fill="#fff"/><path d="M76.72,127.83v-.21c0-4.4,3.3-7.17,7.47-7.17,3.77,0,7,2.15,7,7.07v1.23H81.49a2.75,2.75,0,0,0,2.88,2.85c1.56,0,2.22-.7,2.4-1.62h4.44c-.42,3.09-2.83,4.84-7,4.84C79.88,134.82,76.72,132.31,76.72,127.83Zm9.89-1.73c-.07-1.65-.89-2.56-2.42-2.56a2.6,2.6,0,0,0-2.64,2.56Z" fill="#fff"/><path d="M92.53,132.15a2.62,2.62,0,0,1,2.69-2.64,2.65,2.65,0,1,1,0,5.29A2.62,2.62,0,0,1,92.53,132.15Z" fill="#fff"/></svg>