<svg xmlns="http://www.w3.org/2000/svg" viewBox="0 0 160 600"><title>Asset 3</title><rect width="160" height="600" fill="none"/><path d="M25,93h7c6.85,0,10.33,3.43,10.33,9.42v.22c0,6-3.56,9.66-10.36,9.66H25Zm6.82,15c3.29,0,4.75-1.73,4.75-5.32v-.22c0-3.67-1.46-5.24-4.8-5.24H30.53V108Z" fill="#fff"/><path d="M43.43,105.37v-.22c0-4.53,3.37-7.4,7.74-7.4s7.69,2.79,7.69,7.27v.21c0,4.59-3.37,7.34-7.71,7.34S43.43,109.93,43.43,105.37ZM54,105.29v-.22c0-2.38-.94-3.7-2.78-3.7s-2.8,1.27-2.8,3.65v.21c0,2.43.94,3.75,2.8,3.75S54,107.63,54,105.29Z" fill="#fff"/><path d="M60.56,98.13h4.83v2.27A5,5,0,0,1,70,97.75c2.72,0,4.61,1.71,4.61,5.32v9.18H69.81V104c0-1.59-.62-2.37-2-2.37s-2.4.86-2.4,2.67v7.91H60.56Z" fill="#fff"/><path d="M76.15,99.64l2.16-7L82.58,94l-3.7,6.67Z" fill="#fff"/><path d="M84.46,107.72v-6.29h-1.7v-3.3h1.7V95.19h4.83v2.94h2.78v3.3H89.29v5.83a1.29,1.29,0,0,0,1.43,1.48,3.73,3.73,0,0,0,1.38-.24v3.67a10.25,10.25,0,0,1-2.67.4C86.24,112.57,84.46,111,84.46,107.72Z" fill="#fff"/><path d="M24.68,126.34h4.8v20.32h-4.8Z" fill="#fff"/><path d="M31.32,139.78v-.22c0-4.53,3.37-7.39,7.63-7.39,3.86,0,7.18,2.21,7.18,7.28v1.27H36.2a2.81,2.81,0,0,0,2.94,2.95c1.59,0,2.27-.73,2.45-1.68h4.54c-.43,3.19-2.89,5-7.15,5C34.55,147,31.32,144.39,31.32,139.78ZM41.43,138c-.08-1.7-.91-2.65-2.48-2.65s-2.45,1-2.7,2.65Z" fill="#fff"/><path d="M47.12,142.75c0-3.32,2.81-4.62,7.5-4.62H56v-.32c0-1.35-.32-2.24-1.86-2.24a1.72,1.72,0,0,0-1.91,1.67H47.66c.22-3.4,2.89-5.07,6.75-5.07s6.37,1.59,6.37,5.34v9.15h-4.7V145a4.63,4.63,0,0,1-4.18,2C49.36,147,47.12,145.74,47.12,142.75Zm8.85-1v-.86H54.71c-2,0-2.81.38-2.81,1.54,0,.81.54,1.32,1.67,1.32C55,143.72,56,142.94,56,141.72Z" fill="#fff"/><path d="M61.5,132.54h5.16l2.94,9.1,2.88-9.1H77.1l-5.16,14.12H66.68Z" fill="#fff"/><path d="M76.8,139.78v-.22c0-4.53,3.37-7.39,7.63-7.39,3.86,0,7.18,2.21,7.18,7.28v1.27H81.68a2.83,2.83,0,0,0,2.94,2.95c1.59,0,2.27-.73,2.46-1.68h4.53c-.43,3.19-2.89,5-7.15,5C80,147,76.8,144.39,76.8,139.78ZM86.92,138c-.08-1.7-.92-2.65-2.49-2.65s-2.45,1-2.69,2.65Z" fill="#fff"/><path d="M24.55,160.75h4.82v8.47A5,5,0,0,1,34,166.58c2.73,0,4.62,1.7,4.62,5.32v9.17H33.8v-8.2c0-1.6-.62-2.38-2-2.38s-2.41.87-2.41,2.67v7.91H24.55Z" fill="#fff"/><path d="M40.22,174.19V174c0-4.53,3.37-7.39,7.74-7.39s7.69,2.78,7.69,7.26v.22c0,4.58-3.37,7.34-7.71,7.34S40.22,178.75,40.22,174.19Zm10.52-.08v-.22c0-2.37-.94-3.69-2.78-3.69s-2.8,1.26-2.8,3.64v.22c0,2.42.94,3.75,2.8,3.75S50.74,176.46,50.74,174.11Z" fill="#fff"/><path d="M57.35,167h4.83v2.16a4.93,4.93,0,0,1,4.42-2.54,3.84,3.84,0,0,1,3.83,2.35,5.6,5.6,0,0,1,4.67-2.35c2.67,0,4.61,1.73,4.61,5.26v9.23H74.89v-8.42c0-1.43-.71-2.13-1.81-2.13a2.09,2.09,0,0,0-2.16,2.37v8.18H66.15v-8.42c0-1.43-.71-2.13-1.81-2.13a2.09,2.09,0,0,0-2.16,2.37v8.18H57.35Z" fill="#fff"/><path d="M81.31,174.19V174c0-4.53,3.37-7.39,7.63-7.39,3.86,0,7.18,2.21,7.18,7.29v1.26H86.19a2.82,2.82,0,0,0,2.94,3c1.59,0,2.27-.73,2.46-1.68h4.53c-.43,3.19-2.89,5-7.15,5C84.54,181.4,81.31,178.81,81.31,174.19Zm10.11-1.78c-.08-1.7-.91-2.65-2.48-2.65s-2.45,1-2.7,2.65Z" fill="#fff"/><path d="M103.43,170.25h-1.78V167h1.78v-1.25c0-3.5,2.18-5.18,5.53-5.18a8.68,8.68,0,0,1,2.21.3v3.53a4.72,4.72,0,0,0-1.32-.18,1.42,1.42,0,0,0-1.62,1.53V167h2.86v3.29h-2.86v10.82h-4.8Z" fill="#fff"/><path d="M111.47,174.19V174c0-4.53,3.37-7.39,7.74-7.39s7.69,2.78,7.69,7.26v.22c0,4.58-3.37,7.34-7.72,7.34S111.47,178.75,111.47,174.19Zm10.52-.08v-.22c0-2.37-.95-3.69-2.78-3.69s-2.8,1.26-2.8,3.64v.22c0,2.42.94,3.75,2.8,3.75S122,176.46,122,174.11Z" fill="#fff"/><path d="M128.6,167h4.83v2.8a4.44,4.44,0,0,1,4.56-3v4.5c-2.94-.08-4.56.84-4.56,3.11v6.69H128.6Z" fill="#fff"/><path d="M25.19,211v-6.29h-1.7v-3.29h1.7v-2.94H30v2.94H32.8v3.29H30v5.83c0,1,.51,1.49,1.43,1.49a3.54,3.54,0,0,0,1.38-.25v3.67a9.78,9.78,0,0,1-2.67.41C27,215.81,25.19,214.27,25.19,211Z" fill="#fff"/><path d="M33.88,211.57c0-3.32,2.81-4.61,7.5-4.61h1.35v-.33c0-1.35-.33-2.24-1.86-2.24A1.73,1.73,0,0,0,39,206.06H34.42c.21-3.4,2.89-5.07,6.74-5.07s6.37,1.59,6.37,5.34v9.16H42.84v-1.65a4.66,4.66,0,0,1-4.19,2C36.12,215.81,33.88,214.57,33.88,211.57Zm8.85-1v-.87H41.46c-1.94,0-2.81.38-2.81,1.54,0,.81.54,1.32,1.68,1.32A2.13,2.13,0,0,0,42.73,210.55Z" fill="#fff"/><path d="M53.44,208.31,49,201.37H54.6l2.18,3.72,2.13-3.72h5l-4.45,6.56,4.88,7.56H58.75l-2.51-4.22-2.56,4.22H48.74Z" fill="#fff"/><path d="M70.57,201.37H75.4v2.1A5,5,0,0,1,79.79,201c3.3,0,6,2.48,6,7.32v.21c0,4.86-2.67,7.29-6,7.29a4.66,4.66,0,0,1-4.37-2.4v6.8H70.57Zm10.28,7.15v-.21c0-2.49-1.08-3.68-2.78-3.68s-2.81,1.27-2.81,3.65v.21c0,2.41,1,3.62,2.81,3.62S80.85,210.84,80.85,208.52Z" fill="#fff"/><path d="M87.51,201.37h4.83v2.81a4.44,4.44,0,0,1,4.56-3v4.51c-2.94-.08-4.56.83-4.56,3.1v6.7H87.51Z" fill="#fff"/><path d="M97.76,208.6v-.21c0-4.54,3.37-7.4,7.64-7.4,3.85,0,7.17,2.21,7.17,7.29v1.27h-9.93a2.82,2.82,0,0,0,2.94,2.94c1.6,0,2.27-.73,2.46-1.67h4.53c-.43,3.18-2.88,5-7.15,5C101,215.81,97.76,213.22,97.76,208.6Zm10.12-1.78c-.08-1.7-.92-2.64-2.48-2.64a2.68,2.68,0,0,0-2.7,2.64Z" fill="#fff"/><path d="M114.24,201.37h4.83v2.1a5,5,0,0,1,4.4-2.48c3.29,0,6,2.48,6,7.32v.21c0,4.86-2.67,7.29-6,7.29a4.66,4.66,0,0,1-4.37-2.4v6.8h-4.83Zm10.28,7.15v-.21c0-2.49-1.08-3.68-2.78-3.68s-2.8,1.27-2.8,3.65v.21c0,2.41,1,3.62,2.8,3.62S124.52,210.84,124.52,208.52Z" fill="#fff"/><path d="M130.65,213.06a2.69,2.69,0,0,1,2.75-2.73,2.73,2.73,0,1,1,0,5.45A2.69,2.69,0,0,1,130.65,213.06Z" fill="#fff"/><path d="M24.84,242.07V230.6h5.53v11.23c0,2.72.68,4,3,4s3-1.25,3-4.13V230.6H42V242c0,5.61-3.29,8.23-8.61,8.23S24.84,247.47,24.84,242.07Z" fill="#fff"/><path d="M44.62,235.78h4.83v2.27a5,5,0,0,1,4.64-2.65c2.72,0,4.61,1.7,4.61,5.32v9.18H53.87v-8.21c0-1.59-.62-2.37-2-2.37s-2.4.86-2.4,2.67v7.91H44.62Z" fill="#fff"/><path d="M61.18,229.57H66V249.9h-4.8Z" fill="#fff"/><path d="M67.82,243v-.21c0-4.54,3.37-7.4,7.63-7.4,3.86,0,7.18,2.22,7.18,7.29V244H72.7a2.82,2.82,0,0,0,2.94,2.94c1.59,0,2.27-.73,2.46-1.67h4.53c-.43,3.18-2.89,5-7.15,5C71.05,250.22,67.82,247.63,67.82,243Zm10.11-1.78c-.08-1.7-.91-2.64-2.48-2.64a2.69,2.69,0,0,0-2.7,2.64Z" fill="#fff"/><path d="M83.49,245.42h4.45c.16,1,.62,1.59,2,1.59,1.18,0,1.73-.46,1.73-1.16s-.68-1-2.62-1.27c-3.78-.49-5.37-1.59-5.37-4.54,0-3.13,2.78-4.64,6-4.64,3.48,0,5.91,1.19,6.23,4.56H91.58a1.57,1.57,0,0,0-1.8-1.4c-1.06,0-1.6.46-1.6,1.11s.65.94,2.38,1.16c3.91.48,5.8,1.51,5.8,4.53,0,3.35-2.48,4.86-6.4,4.86S83.6,248.55,83.49,245.42Z" fill="#fff"/><path d="M97.06,245.42h4.45c.16,1,.62,1.59,2,1.59,1.19,0,1.73-.46,1.73-1.16s-.68-1-2.62-1.27c-3.78-.49-5.37-1.59-5.37-4.54,0-3.13,2.78-4.64,6-4.64,3.48,0,5.91,1.19,6.23,4.56h-4.37a1.57,1.57,0,0,0-1.8-1.4c-1.06,0-1.6.46-1.6,1.11s.65.94,2.38,1.16c3.91.48,5.8,1.51,5.8,4.53,0,3.35-2.48,4.86-6.39,4.86S97.17,248.55,97.06,245.42Z" fill="#fff"/><path d="M29,282.88l-5.64-12.69h5.24l2.91,7.53,2.7-7.53h4.61L31.24,289H26.62Z" fill="#fff"/><path d="M38.52,277.43v-.22c0-4.54,3.37-7.4,7.74-7.4S54,272.59,54,277.07v.22c0,4.59-3.37,7.34-7.71,7.34S38.52,282,38.52,277.43ZM49,277.34v-.21c0-2.38-.94-3.7-2.78-3.7s-2.8,1.27-2.8,3.64v.22c0,2.43.94,3.75,2.8,3.75S49,279.69,49,277.34Z" fill="#fff"/><path d="M55.54,279.4v-9.21h4.83v8.42c0,1.6.62,2.38,2,2.38s2.4-.87,2.4-2.67v-8.13H69.6v14.12H64.77v-2.19a4.64,4.64,0,0,1-4.48,2.51C57.57,284.63,55.54,283,55.54,279.4Z" fill="#fff"/><path d="M75.78,270.19h5l2.05,8.45,2.37-8.45h3.89l2.1,8.45,2.3-8.45h4.58l-4.48,14.12H89l-2.1-7.88-2.19,7.88H80Z" fill="#fff"/><path d="M98,280.39c0-3.32,2.81-4.61,7.5-4.61h1.35v-.32c0-1.35-.32-2.25-1.86-2.25a1.73,1.73,0,0,0-1.91,1.68H98.54c.22-3.4,2.89-5.08,6.75-5.08s6.37,1.6,6.37,5.35v9.15H107v-1.65a4.61,4.61,0,0,1-4.18,2C100.24,284.63,98,283.39,98,280.39Zm8.85-1v-.86h-1.26c-2,0-2.81.37-2.81,1.53,0,.81.54,1.33,1.67,1.33A2.13,2.13,0,0,0,106.85,279.37Z" fill="#fff"/><path d="M114,270.19h4.83v2.27a5,5,0,0,1,4.64-2.65c2.73,0,4.61,1.7,4.61,5.32v9.18h-4.82V276.1c0-1.59-.62-2.37-2-2.37s-2.4.86-2.4,2.67v7.91H114Z" fill="#fff"/><path d="M131.08,279.77v-6.29h-1.7v-3.29h1.7v-2.94h4.83v2.94h2.78v3.29h-2.78v5.83c0,1,.51,1.49,1.43,1.49a3.68,3.68,0,0,0,1.37-.24v3.67a10.18,10.18,0,0,1-2.67.4C132.86,284.63,131.08,283.09,131.08,279.77Z" fill="#fff"/><path d="M25.19,314.18V307.9h-1.7v-3.3h1.7v-2.94H30v2.94H32.8v3.3H30v5.83a1.29,1.29,0,0,0,1.43,1.48,3.73,3.73,0,0,0,1.38-.24v3.67a10.25,10.25,0,0,1-2.67.4C27,319,25.19,317.5,25.19,314.18Z" fill="#fff"/><path d="M33.88,311.84v-.22c0-4.53,3.37-7.4,7.74-7.4s7.69,2.78,7.69,7.27v.21c0,4.59-3.37,7.34-7.71,7.34S33.88,316.4,33.88,311.84Zm10.52-.08v-.22c0-2.38-.94-3.7-2.78-3.7s-2.8,1.27-2.8,3.65v.21c0,2.43.94,3.75,2.8,3.75S44.4,314.1,44.4,311.76Z" fill="#fff"/><path d="M50.23,316.29A2.69,2.69,0,0,1,53,313.56,2.73,2.73,0,1,1,53,319,2.69,2.69,0,0,1,50.23,316.29Z" fill="#fff"/><rect y="580" width="20" height="20" fill="none"/></svg>