<svg xmlns="http://www.w3.org/2000/svg" viewBox="0 0 160 600"><title>txt3</title><g id="Layer_2" data-name="Layer 2"><g id="Rect"><rect width="160" height="600" fill="none"/></g><g id="Tax_Pro_GoSM" data-name="Tax Pro GoSM"><path d="M25.71,28.22H19.6V23h19v5.22H32.5V46.6H25.71Z" fill="#fff"/><path d="M37.41,41.81c0-4.06,3.44-5.64,9.18-5.64h1.64v-.4c0-1.65-.39-2.74-2.27-2.74a2.12,2.12,0,0,0-2.34,2H38.07c.27-4.16,3.53-6.2,8.25-6.2s7.79,1.94,7.79,6.53V46.6H48.37v-2A5.7,5.7,0,0,1,43.25,47C40.15,47,37.41,45.48,37.41,41.81Zm10.82-1.25V39.5H46.68c-2.37,0-3.43.47-3.43,1.88,0,1,.66,1.62,2,1.62C47,43,48.23,42,48.23,40.56Z" fill="#fff"/><path d="M61.33,37.82,56,29.34h6.8l2.67,4.55L68,29.34h6.07l-5.44,8,6,9.24H67.83l-3.07-5.15L61.62,46.6h-6Z" fill="#fff"/><path d="M21.19,56h9c6.47,0,9.47,2.87,9.47,7.89V64c0,5-3.33,7.63-9.17,7.63H27.92V79.6H21.19Zm8.67,11c2.18,0,3.33-1,3.33-3v-.13c0-2-1.18-2.84-3.29-2.84h-2V67Z" fill="#fff"/><path d="M41.67,62.34h5.9v3.43a5.44,5.44,0,0,1,5.58-3.66v5.51c-3.6-.1-5.58,1-5.58,3.79V79.6h-5.9Z" fill="#fff"/><path d="M54.2,71.18v-.26c0-5.55,4.13-9,9.47-9s9.4,3.4,9.4,8.87V71c0,5.61-4.12,9-9.43,9S54.2,76.76,54.2,71.18Zm12.87-.1v-.26c0-2.9-1.16-4.52-3.4-4.52s-3.43,1.55-3.43,4.45V71c0,3,1.15,4.59,3.43,4.59S67.07,74,67.07,71.08Z" fill="#fff"/><path d="M80.42,68v-.26c0-7.2,5.28-12,12.37-12,5.58,0,10.53,2.54,11,8.68h-6.7C96.75,62.11,95.33,61,92.83,61c-3.33,0-5.35,2.58-5.35,6.83v.27c0,3.83,1.42,6.8,5.51,6.8,3.3,0,4.55-1.69,4.69-3.57H93.26V66.56h11.08v2.91c0,6-3.92,10.53-11.55,10.53C84.78,80,80.42,75,80.42,68Z" fill="#fff"/><path d="M105.69,71.18v-.26c0-5.55,4.12-9,9.47-9s9.4,3.4,9.4,8.87V71c0,5.61-4.12,9-9.44,9S105.69,76.76,105.69,71.18Zm12.86-.1v-.26c0-2.9-1.15-4.52-3.39-4.52s-3.43,1.55-3.43,4.45V71c0,3,1.15,4.59,3.43,4.59S118.55,74,118.55,71.08Z" fill="#fff"/><path d="M125,66h1.14c0,.29.16.54.65.54s.54-.17.54-.42-.16-.32-.66-.4c-1.18-.14-1.57-.49-1.57-1.33s.62-1.3,1.61-1.3,1.57.42,1.65,1.3h-1.11a.48.48,0,0,0-.54-.45c-.32,0-.48.15-.48.36s.13.34.65.41c1,.11,1.59.39,1.59,1.29s-.6,1.39-1.68,1.39S125.05,66.85,125,66Z" fill="#fff"/><path d="M129,63.1h1.56l.79,2.22.8-2.22h1.53v4.17h-1.19V64.68l-1,2.59H131l-1-2.59v2.59H129Z" fill="#fff"/></g></g></svg>