<svg xmlns="http://www.w3.org/2000/svg" viewBox="0 0 160 600"><title>Asset 5</title><rect width="160" height="600" fill="none"/><path d="M22.18,100.81H39.26v5.47h-10v4.25h8v5h-8v4.5H39.81v5.46H22.18Z" fill="#fff"/><path d="M41.23,120.53c0-4.26,3.59-5.92,9.6-5.92h1.73v-.41c0-1.73-.41-2.87-2.38-2.87a2.22,2.22,0,0,0-2.46,2.14h-5.8c.27-4.36,3.69-6.5,8.64-6.5s8.15,2,8.15,6.85v11.72h-6v-2.11c-.86,1.32-2.45,2.53-5.36,2.53C44.09,126,41.23,124.37,41.23,120.53Zm11.33-1.32v-1.1H50.94c-2.49,0-3.6.48-3.6,2,0,1,.69,1.69,2.15,1.69C51.25,121.77,52.56,120.77,52.56,119.21Z" fill="#fff"/><path d="M60.51,119.8h5.7c.21,1.32.8,2,2.56,2,1.52,0,2.21-.59,2.21-1.48s-.86-1.28-3.35-1.63c-4.84-.62-6.88-2-6.88-5.81,0-4,3.56-6,7.74-6,4.46,0,7.57,1.52,8,5.84h-5.6A2,2,0,0,0,68.56,111c-1.34,0-2,.58-2,1.41s.83,1.22,3,1.49c5,.62,7.43,1.94,7.43,5.81C77,124,73.82,126,68.81,126S60.65,123.81,60.51,119.8Z" fill="#fff"/><path d="M84.08,123.71l-7.22-16.26h6.7l3.73,9.65,3.46-9.65h5.91L87,131.6H81.07Z" fill="#fff"/><path d="M94.31,128.35l2.9-9.1,5.74,2-5,8.47Z" fill="#fff"/><path d="M21.63,149.71h6.19v2.7a6.37,6.37,0,0,1,5.63-3.19c4.22,0,7.64,3.19,7.64,9.38v.28c0,6.22-3.42,9.33-7.67,9.33a5.94,5.94,0,0,1-5.6-3.07v8.71H21.63Zm13.17,9.17v-.28c0-3.18-1.38-4.71-3.56-4.71s-3.6,1.63-3.6,4.67v.28c0,3.08,1.35,4.64,3.6,4.64S34.8,161.85,34.8,158.88Z" fill="#fff"/><path d="M42.37,159v-.28c0-5.81,4.32-9.48,9.78-9.48,4.94,0,9.19,2.84,9.19,9.34v1.63H48.62c.17,2.39,1.56,3.77,3.77,3.77,2,0,2.9-.93,3.14-2.14h5.81c-.55,4.08-3.7,6.39-9.16,6.39C46.51,168.21,42.37,164.89,42.37,159Zm13-2.28c-.11-2.18-1.18-3.39-3.18-3.39s-3.15,1.21-3.46,3.39Z" fill="#fff"/><path d="M62.62,162.78c0-4.25,3.59-5.91,9.61-5.91H74v-.42c0-1.73-.41-2.87-2.38-2.87a2.22,2.22,0,0,0-2.45,2.15H63.31c.28-4.36,3.7-6.51,8.64-6.51s8.16,2.05,8.16,6.85V167.8h-6v-2.11c-.86,1.31-2.45,2.52-5.36,2.52C65.49,168.21,62.62,166.62,62.62,162.78ZM74,161.47v-1.11H72.33c-2.49,0-3.6.49-3.6,2,0,1,.7,1.7,2.15,1.7C72.64,164,74,163,74,161.47Z" fill="#fff"/><path d="M81.9,162.06h5.7c.21,1.31.8,2,2.56,2,1.52,0,2.21-.59,2.21-1.49S91.51,161.33,89,161c-4.84-.63-6.88-2.05-6.88-5.82,0-4,3.56-5.95,7.75-5.95,4.45,0,7.57,1.53,8,5.85h-5.6a2,2,0,0,0-2.31-1.8c-1.35,0-2,.59-2,1.42s.83,1.21,3,1.49c5,.62,7.43,1.93,7.43,5.81,0,4.29-3.18,6.22-8.19,6.22S82,166.07,81.9,162.06Z" fill="#fff"/><path d="M105.47,166l-7.22-16.26H105l3.73,9.65,3.45-9.65h5.91l-9.67,24.14h-5.91Z" fill="#fff"/><path d="M115.7,170.6l2.91-9.1,5.73,2-5,8.48Z" fill="#fff"/><path d="M22.46,204.24v-8.06H20.28V192h2.18v-3.77h6.19V192h3.56v4.22H28.65v7.48c0,1.31.65,1.9,1.83,1.9a4.64,4.64,0,0,0,1.76-.31V210a12.89,12.89,0,0,1-3.42.52C24.74,210.47,22.46,208.5,22.46,204.24Z" fill="#fff"/><path d="M33.59,205c0-4.25,3.59-5.92,9.6-5.92h1.73v-.41c0-1.73-.41-2.87-2.38-2.87A2.22,2.22,0,0,0,40.08,198h-5.8c.27-4.36,3.7-6.5,8.64-6.5s8.15,2,8.15,6.85v11.73h-6V208c-.86,1.31-2.45,2.52-5.36,2.52C36.46,210.47,33.59,208.88,33.59,205Zm11.33-1.31v-1.11H43.3c-2.49,0-3.6.48-3.6,2,0,1,.7,1.7,2.15,1.7C43.61,206.29,44.92,205.28,44.92,203.73Z" fill="#fff"/><path d="M58.64,200.85,53,192h7.12l2.8,4.78L65.66,192H72l-5.7,8.41,6.25,9.69H65.45l-3.21-5.4L59,210.06H52.63Z" fill="#fff"/><path d="M71.78,201.23V201c0-5.81,4.32-9.48,9.78-9.48,4.94,0,9.19,2.84,9.19,9.34v1.63H78c.18,2.38,1.56,3.77,3.77,3.77,2,0,2.9-.94,3.14-2.15h5.81c-.55,4.08-3.7,6.4-9.16,6.4C75.92,210.47,71.78,207.15,71.78,201.23Zm13-2.28c-.11-2.18-1.18-3.39-3.18-3.39s-3.15,1.21-3.46,3.39Z" fill="#fff"/><path d="M91.86,204.31h5.7c.21,1.32.79,2,2.56,2,1.52,0,2.21-.58,2.21-1.48s-.87-1.28-3.35-1.63c-4.84-.62-6.88-2-6.88-5.81,0-4,3.56-6,7.74-6,4.46,0,7.57,1.52,8,5.85h-5.6a2,2,0,0,0-2.31-1.8c-1.35,0-2,.59-2,1.42s.83,1.21,3,1.48c5,.63,7.43,1.94,7.43,5.81,0,4.29-3.18,6.23-8.19,6.23S92,208.33,91.86,204.31Z" fill="#fff"/><path d="M21.63,234.22h6.19V237a6.29,6.29,0,0,1,5.66-3.25,4.91,4.91,0,0,1,4.91,3,7.16,7.16,0,0,1,6-3c3.42,0,5.91,2.21,5.91,6.74v11.83H44.09V241.52c0-1.83-.89-2.73-2.31-2.73-1.66,0-2.77,1.07-2.77,3v10.48H32.9V241.52c0-1.83-.9-2.73-2.32-2.73-1.66,0-2.76,1.07-2.76,3v10.48H21.63Z" fill="#fff"/><path d="M52.25,247.3c0-4.26,3.59-5.92,9.61-5.92h1.73V241c0-1.72-.42-2.87-2.39-2.87a2.23,2.23,0,0,0-2.45,2.15H52.94c.28-4.36,3.7-6.5,8.64-6.5s8.16,2,8.16,6.84v11.73h-6V250.2c-.86,1.32-2.45,2.53-5.35,2.53C55.12,252.73,52.25,251.13,52.25,247.3ZM63.59,246v-1.11H62c-2.49,0-3.59.49-3.59,2,0,1,.69,1.69,2.14,1.69C62.27,248.54,63.59,247.54,63.59,246Z" fill="#fff"/><path d="M71.85,243.46v-.28c0-6.16,3.38-9.44,7.67-9.44a5.85,5.85,0,0,1,5.56,3V226.26h6.19v26.05H85.08v-2.94a6.08,6.08,0,0,1-5.63,3.36C75.27,252.73,71.85,249.72,71.85,243.46Zm13.41-.11v-.27c0-3.05-1.28-4.67-3.56-4.67s-3.56,1.55-3.56,4.7v.28c0,3,1.34,4.6,3.49,4.6S85.26,246.43,85.26,243.35Z" fill="#fff"/><path d="M93.45,243.49v-.28c0-5.81,4.32-9.47,9.78-9.47,4.94,0,9.19,2.83,9.19,9.34v1.62H99.7c.18,2.39,1.56,3.77,3.77,3.77,2,0,2.9-.93,3.15-2.14h5.8c-.55,4.08-3.7,6.4-9.16,6.4C97.59,252.73,93.45,249.41,93.45,243.49Zm13-2.28c-.11-2.18-1.18-3.39-3.18-3.39s-3.15,1.21-3.46,3.39Z" fill="#fff"/><path d="M27.82,291.76v2.81H21.63V268.52h6.19v10.65A6.36,6.36,0,0,1,33.45,276c4.22,0,7.64,3.18,7.64,9.38v.27c0,6.23-3.42,9.34-7.67,9.34A5.85,5.85,0,0,1,27.82,291.76Zm7-6.12v-.27c0-3.19-1.38-4.71-3.56-4.71s-3.6,1.63-3.6,4.67v.28c0,3.08,1.35,4.63,3.6,4.63S34.8,288.62,34.8,285.64Z" fill="#fff"/><path d="M43.33,276.48h6.19v3.59a5.7,5.7,0,0,1,5.84-3.84V282c-3.77-.1-5.84,1.07-5.84,4v8.58H43.33Z" fill="#fff"/><path d="M56.47,285.75v-.28c0-5.81,4.32-9.48,9.78-9.48,4.94,0,9.19,2.84,9.19,9.34V287H62.72c.18,2.38,1.56,3.77,3.77,3.77,2,0,2.9-.94,3.14-2.15h5.81c-.55,4.08-3.7,6.4-9.16,6.4C60.61,295,56.47,291.66,56.47,285.75Zm13-2.29c-.11-2.18-1.18-3.39-3.18-3.39s-3.15,1.21-3.46,3.39Z" fill="#fff"/><path d="M76.62,285.75v-.28c0-5.81,4.32-9.48,9.78-9.48,4.94,0,9.19,2.84,9.19,9.34V287H82.87c.17,2.38,1.56,3.77,3.77,3.77,2,0,2.9-.94,3.14-2.15h5.81c-.55,4.08-3.7,6.4-9.16,6.4C80.76,295,76.62,291.66,76.62,285.75Zm13-2.29c-.11-2.18-1.18-3.39-3.18-3.39s-3.15,1.21-3.46,3.39Z" fill="#fff"/><path d="M96.07,293.94,104,281.15H96.9v-4.67h15.94v.65l-8.13,12.77h7.71v4.67H96.07Z" fill="#fff"/><path d="M120.44,292.73l-7.23-16.25h6.71l3.73,9.65,3.46-9.65H133l-9.68,24.14h-5.91Z" fill="#fff"/><path d="M131.71,291.45a3.44,3.44,0,0,1,3.52-3.49,3.5,3.5,0,1,1,0,7A3.45,3.45,0,0,1,131.71,291.45Z" fill="#fff"/></svg>