<svg xmlns="http://www.w3.org/2000/svg" viewBox="0 0 300 250"><title>Asset 9</title><rect width="300" height="250" fill="none"/><path d="M28.77,57,22.26,45.7h6.23l3.38,6.68,3.38-6.68h5.47L34.52,57v8.48H28.77Z" fill="#fff"/><path d="M38.63,58.45v-.22c0-4.66,3.49-7.6,8-7.6s8,2.86,8,7.46v.22c0,4.71-3.5,7.54-8,7.54S38.63,63.13,38.63,58.45Zm10.89-.09v-.22c0-2.44-1-3.79-2.88-3.79s-2.9,1.3-2.9,3.74v.22c0,2.49,1,3.85,2.9,3.85S49.52,60.77,49.52,58.36Z" fill="#fff"/><path d="M56.25,60.47V51h5v8.65c0,1.63.65,2.43,2.07,2.43s2.49-.88,2.49-2.74V51h5V65.51h-5V63.27a4.81,4.81,0,0,1-4.64,2.58C58.35,65.85,56.25,64.13,56.25,60.47Z" fill="#fff"/><path d="M73.35,51h5V53.9a4.6,4.6,0,0,1,4.72-3.07v4.62c-3-.08-4.72.86-4.72,3.19v6.87h-5Z" fill="#fff"/><path d="M90.64,60.86V54.4H88.88V51h1.76V48h5v3h2.88V54.4H95.64v6a1.33,1.33,0,0,0,1.48,1.52,3.8,3.8,0,0,0,1.43-.25v3.77a10.5,10.5,0,0,1-2.77.42C92.48,65.85,90.64,64.27,90.64,60.86Z" fill="#fff"/><path d="M99.64,61.5c0-3.41,2.9-4.74,7.76-4.74h1.4v-.34c0-1.38-.34-2.3-1.93-2.3a1.79,1.79,0,0,0-2,1.72h-4.7c.23-3.49,3-5.21,7-5.21s6.59,1.64,6.59,5.49v9.39h-4.86V63.82a4.8,4.8,0,0,1-4.33,2C102,65.85,99.64,64.57,99.64,61.5Zm9.16-1.06v-.88h-1.31c-2,0-2.91.38-2.91,1.57,0,.84.56,1.36,1.73,1.36C107.74,62.49,108.8,61.69,108.8,60.44Z" fill="#fff"/><path d="M119.89,58.14,115.33,51h5.76l2.26,3.82L125.56,51h5.14l-4.61,6.73,5.06,7.76h-5.76l-2.6-4.32-2.65,4.32H115Z" fill="#fff"/><path d="M137.63,51h5v2.16a5.16,5.16,0,0,1,4.55-2.55c3.41,0,6.18,2.55,6.18,7.51v.22c0,5-2.77,7.49-6.21,7.49a4.82,4.82,0,0,1-4.52-2.47v7h-5Zm10.64,7.34v-.22c0-2.55-1.12-3.77-2.88-3.77s-2.9,1.31-2.9,3.74v.23c0,2.46,1.09,3.71,2.9,3.71S148.27,60.75,148.27,58.36Z" fill="#fff"/><path d="M155.17,51h5V53.9a4.6,4.6,0,0,1,4.72-3.07v4.62c-3-.08-4.72.86-4.72,3.19v6.87h-5Z" fill="#fff"/><path d="M165.78,58.45v-.22c0-4.66,3.5-7.6,8-7.6s8,2.86,8,7.46v.22c0,4.71-3.5,7.54-8,7.54S165.78,63.13,165.78,58.45Zm10.9-.09v-.22c0-2.44-1-3.79-2.88-3.79s-2.9,1.3-2.9,3.74v.22c0,2.49,1,3.85,2.9,3.85S176.68,60.77,176.68,58.36Z" fill="#fff"/><path d="M187.38,51h5.22l2.13,8.67L197.18,51h4l2.18,8.67L205.76,51h4.75l-4.64,14.49H201.1l-2.18-8.09-2.27,8.09h-4.86Z" fill="#fff"/><path d="M210.37,58.45v-.22c0-4.66,3.49-7.6,8-7.6s8,2.86,8,7.46v.22c0,4.71-3.49,7.54-8,7.54S210.37,63.13,210.37,58.45Zm10.9-.09v-.22c0-2.44-1-3.79-2.88-3.79s-2.91,1.3-2.91,3.74v.22c0,2.49,1,3.85,2.91,3.85S221.27,60.77,221.27,58.36Z" fill="#fff"/><path d="M228.11,51h5v2.33a5.16,5.16,0,0,1,4.81-2.72c2.82,0,4.77,1.75,4.77,5.46v9.42h-5V57.09c0-1.64-.64-2.44-2.09-2.44s-2.49.89-2.49,2.74v8.12h-5Z" fill="#fff"/><path d="M244.14,45.7H249l-.58,7.62H244.7Z" fill="#fff"/><path d="M252.16,60.86V54.4H250.4V51h1.76V48h5v3H260V54.4h-2.88v6a1.33,1.33,0,0,0,1.48,1.52,3.8,3.8,0,0,0,1.43-.25v3.77a10.43,10.43,0,0,1-2.77.42C254,65.85,252.16,64.27,252.16,60.86Z" fill="#fff"/><path d="M23.51,75.78h5V87.89l3.94-5.74h5.2l-4.78,6.52,5.17,8H32.45L28.51,90.3v6.35h-5Z" fill="#fff"/><path d="M39.21,82.15h5v2.33A5.19,5.19,0,0,1,49,81.77c2.82,0,4.78,1.74,4.78,5.46v9.42h-5V88.22c0-1.63-.65-2.44-2.1-2.44s-2.49.89-2.49,2.75v8.12h-5Z" fill="#fff"/><path d="M55.44,89.58v-.22c0-4.66,3.5-7.59,8-7.59s8,2.85,8,7.45v.22c0,4.71-3.49,7.54-8,7.54S55.44,94.26,55.44,89.58Zm10.9-.08v-.22c0-2.44-1-3.8-2.88-3.8s-2.9,1.3-2.9,3.74v.22c0,2.5,1,3.85,2.9,3.85S66.34,91.91,66.34,89.5Z" fill="#fff"/><path d="M71.48,82.15H76.7l2.13,8.68,2.45-8.68h4l2.18,8.68,2.37-8.68h4.75L90,96.65H85.2L83,88.56l-2.27,8.09H75.89Z" fill="#fff"/><path d="M105.56,95.18l-5.84-13h5.42l3,7.74L111,82.15h4.78l-7.82,19.35h-4.78Z" fill="#fff"/><path d="M115.45,89.58v-.22c0-4.66,3.49-7.59,8-7.59s8,2.85,8,7.45v.22c0,4.71-3.49,7.54-8,7.54S115.45,94.26,115.45,89.58Zm10.89-.08v-.22c0-2.44-1-3.8-2.87-3.8s-2.91,1.3-2.91,3.74v.22c0,2.5,1,3.85,2.91,3.85S126.34,91.91,126.34,89.5Z" fill="#fff"/><path d="M133.07,91.6V82.15h5V90.8c0,1.64.64,2.44,2.06,2.44s2.49-.89,2.49-2.74V82.15h5v14.5h-5V94.4A4.81,4.81,0,0,1,138,97C135.17,97,133.07,95.26,133.07,91.6Z" fill="#fff"/><path d="M149.83,76.83h4.89l-.58,7.62h-3.75Z" fill="#fff"/><path d="M156.9,82.15h5V85A4.61,4.61,0,0,1,166.62,82v4.63c-3-.09-4.72.86-4.72,3.18v6.88h-5Z" fill="#fff"/><path d="M167.52,89.58v-.22c0-4.66,3.49-7.59,7.9-7.59,4,0,7.44,2.27,7.44,7.48v1.3H172.57a2.91,2.91,0,0,0,3.05,3c1.65,0,2.35-.75,2.54-1.72h4.7c-.45,3.27-3,5.13-7.41,5.13C170.87,97,167.52,94.32,167.52,89.58ZM178,87.75C177.91,86,177,85,175.42,85a2.77,2.77,0,0,0-2.79,2.71Z" fill="#fff"/><path d="M189.56,78.22a2.76,2.76,0,1,1,2.74,2.55A2.6,2.6,0,0,1,189.56,78.22Zm.25,3.93h5v14.5h-5Z" fill="#fff"/><path d="M197.49,82.15h5v2.33a5.18,5.18,0,0,1,4.81-2.71c2.82,0,4.78,1.74,4.78,5.46v9.42h-5V88.22c0-1.63-.64-2.44-2.09-2.44s-2.49.89-2.49,2.75v8.12h-5Z" fill="#fff"/><path d="M224.17,95.18l-5.84-13h5.42l3,7.74,2.79-7.74h4.78l-7.82,19.35h-4.78Z" fill="#fff"/><path d="M234.06,89.58v-.22c0-4.66,3.49-7.59,8-7.59s8,2.85,8,7.45v.22c0,4.71-3.49,7.54-8,7.54S234.06,94.26,234.06,89.58ZM245,89.5v-.22c0-2.44-1-3.8-2.87-3.8s-2.91,1.3-2.91,3.74v.22c0,2.5,1,3.85,2.91,3.85S245,91.91,245,89.5Z" fill="#fff"/><path d="M251.69,91.6V82.15h5V90.8c0,1.64.64,2.44,2.06,2.44s2.49-.89,2.49-2.74V82.15h5v14.5h-5V94.4A4.81,4.81,0,0,1,256.6,97C253.78,97,251.69,95.26,251.69,91.6Z" fill="#fff"/><path d="M268.78,82.15h5V85A4.61,4.61,0,0,1,278.5,82v4.63c-3-.09-4.72.86-4.72,3.18v6.88h-5Z" fill="#fff"/><path d="M23.51,113.29h5v2.16a5.16,5.16,0,0,1,4.56-2.55c3.41,0,6.17,2.55,6.17,7.51v.22c0,5-2.76,7.48-6.2,7.48a4.83,4.83,0,0,1-4.53-2.46v7h-5Zm10.65,7.34v-.22c0-2.55-1.12-3.77-2.88-3.77s-2.9,1.3-2.9,3.74v.22c0,2.47,1.08,3.72,2.9,3.72S34.16,123,34.16,120.63Z" fill="#fff"/><path d="M40.22,123.76c0-3.41,2.9-4.74,7.77-4.74h1.39v-.33c0-1.38-.33-2.3-1.93-2.3a1.79,1.79,0,0,0-2,1.72H40.78c.22-3.49,3-5.21,7-5.21s6.6,1.64,6.6,5.49v9.39H49.49v-1.69a4.8,4.8,0,0,1-4.33,2C42.54,128.11,40.22,126.84,40.22,123.76Zm9.16-1.05v-.89H48.07c-2,0-2.91.39-2.91,1.58,0,.83.56,1.36,1.74,1.36C48.32,124.76,49.38,124,49.38,122.71Z" fill="#fff"/><path d="M55.14,129.28c1.22-.09,1.78-.59,1.78-1.72V113.29h5v14.38c0,3.13-1.48,5.21-6.76,5.21Zm1.53-19.93a2.6,2.6,0,0,1,2.74-2.57,2.57,2.57,0,1,1,0,5.12A2.58,2.58,0,0,1,56.67,109.35Z" fill="#fff"/><path d="M63.77,123.76c0-3.41,2.9-4.74,7.76-4.74h1.4v-.33c0-1.38-.33-2.3-1.93-2.3a1.79,1.79,0,0,0-2,1.72H64.33c.22-3.49,3-5.21,7-5.21s6.59,1.64,6.59,5.49v9.39H73v-1.69a4.81,4.81,0,0,1-4.33,2C66.09,128.11,63.77,126.84,63.77,123.76Zm9.16-1.05v-.89H71.62c-2,0-2.91.39-2.91,1.58,0,.83.56,1.36,1.73,1.36C71.87,124.76,72.93,124,72.93,122.71Z" fill="#fff"/><path d="M80.33,113.29h5v2.21a5.14,5.14,0,0,1,4.59-2.6,4,4,0,0,1,4,2.41,5.82,5.82,0,0,1,4.84-2.41c2.76,0,4.77,1.77,4.77,5.4v9.48h-5v-8.65c0-1.46-.72-2.18-1.87-2.18a2.15,2.15,0,0,0-2.23,2.43v8.4h-5v-8.65c0-1.46-.73-2.18-1.87-2.18a2.15,2.15,0,0,0-2.24,2.43v8.4h-5Z" fill="#fff"/><path d="M105.08,123.76c0-3.41,2.91-4.74,7.77-4.74h1.4v-.33c0-1.38-.34-2.3-1.93-2.3a1.8,1.8,0,0,0-2,1.72h-4.69c.22-3.49,3-5.21,7-5.21s6.59,1.64,6.59,5.49v9.39h-4.86v-1.69a4.83,4.83,0,0,1-4.33,2C107.4,128.11,105.08,126.84,105.08,123.76Zm9.17-1.05v-.89h-1.32c-2,0-2.9.39-2.9,1.58,0,.83.56,1.36,1.73,1.36C113.18,124.76,114.25,124,114.25,122.71Z" fill="#fff"/><path d="M120.67,123.18h4.61c.17,1,.64,1.64,2.07,1.64,1.23,0,1.79-.48,1.79-1.2s-.7-1-2.71-1.3c-3.92-.5-5.56-1.63-5.56-4.65,0-3.22,2.87-4.77,6.25-4.77,3.61,0,6.12,1.22,6.46,4.68h-4.53a1.62,1.62,0,0,0-1.87-1.44c-1.09,0-1.65.47-1.65,1.14s.67,1,2.46,1.19c4,.5,6,1.55,6,4.65,0,3.44-2.57,5-6.62,5S120.78,126.39,120.67,123.18Z" fill="#fff"/><path d="M135.42,125.29a2.77,2.77,0,0,1,2.85-2.8,2.8,2.8,0,1,1,0,5.59A2.77,2.77,0,0,1,135.42,125.29Z" fill="#fff"/></svg>