<svg xmlns="http://www.w3.org/2000/svg" viewBox="0 0 300 600"><title>txt3</title><g id="Layer_2" data-name="Layer 2"><g id="Expert_tax_prep_without_the_office_visit." data-name="Expert  tax prep  without  the office  visit."><path d="M20.45,148.21H31.31v3.47H24.94v2.71H30v3.21H24.94v2.86h6.72v3.48H20.45Z" fill="#fff"/><path d="M36.17,158.09l-3.58-5.66h4.53l1.78,3,1.74-3h4l-3.63,5.35,4,6.16H40.5l-2-3.43-2.09,3.43h-4Z" fill="#fff"/><path d="M46.13,152.43h3.94v1.72a4.06,4.06,0,0,1,3.58-2c2.69,0,4.86,2,4.86,6v.17c0,4-2.17,5.94-4.88,5.94a3.79,3.79,0,0,1-3.56-1.95v5.54H46.13Zm8.38,5.83v-.17c0-2-.88-3-2.26-3s-2.29,1-2.29,3v.18c0,2,.86,2.95,2.29,2.95S54.51,160.15,54.51,158.26Z" fill="#fff"/><path d="M59.33,158.33v-.18a5.89,5.89,0,0,1,6.22-6c3.14,0,5.85,1.81,5.85,5.94v1H63.31a2.3,2.3,0,0,0,2.39,2.4c1.3,0,1.85-.6,2-1.37h3.7c-.35,2.6-2.35,4.07-5.83,4.07S59.33,162.09,59.33,158.33Zm8.24-1.45c-.06-1.39-.75-2.16-2-2.16a2.19,2.19,0,0,0-2.2,2.16Z" fill="#fff"/><path d="M72.76,152.43H76.7v2.29a3.61,3.61,0,0,1,3.71-2.44V156c-2.39-.06-3.71.68-3.71,2.53v5.46H72.76Z" fill="#fff"/><path d="M82.55,160.24v-5.12H81.16v-2.69h1.39V150h3.93v2.4h2.27v2.69H86.48v4.75a1.05,1.05,0,0,0,1.17,1.21,3,3,0,0,0,1.12-.2v3a7.94,7.94,0,0,1-2.18.33C84,164.2,82.55,163,82.55,160.24Z" fill="#fff"/><path d="M20.63,183.24v-5.12H19.24v-2.69h1.39V173h3.93v2.4h2.27v2.69H24.56v4.75a1.05,1.05,0,0,0,1.17,1.21,3,3,0,0,0,1.12-.2v3a7.94,7.94,0,0,1-2.18.33C22.08,187.2,20.63,186,20.63,183.24Z" fill="#fff"/><path d="M27.71,183.75C27.71,181,30,180,33.82,180h1.1v-.27c0-1.1-.26-1.82-1.52-1.82a1.41,1.41,0,0,0-1.56,1.36H28.15c.17-2.77,2.35-4.14,5.49-4.14s5.19,1.3,5.19,4.36v7.46H35V185.6a3.79,3.79,0,0,1-3.41,1.6C29.53,187.2,27.71,186.19,27.71,183.75Zm7.21-.84v-.7h-1c-1.59,0-2.29.31-2.29,1.25,0,.66.44,1.08,1.36,1.08A1.74,1.74,0,0,0,34.92,182.91Z" fill="#fff"/><path d="M43.65,181.09l-3.59-5.66h4.53l1.79,3,1.73-3h4l-3.63,5.35,4,6.16H48l-2-3.43-2.09,3.43h-4Z" fill="#fff"/><path d="M57.61,175.43h3.94v1.72a4.05,4.05,0,0,1,3.58-2c2.68,0,4.86,2,4.86,6v.17c0,4-2.18,5.94-4.88,5.94a3.79,3.79,0,0,1-3.56-1.95v5.54H57.61ZM66,181.26v-.17c0-2-.88-3-2.27-3s-2.28,1-2.28,3v.18c0,2,.85,2.95,2.28,2.95S66,183.15,66,181.26Z" fill="#fff"/><path d="M71.42,175.43h3.94v2.29a3.61,3.61,0,0,1,3.71-2.44V179c-2.39-.06-3.71.68-3.71,2.53v5.46H71.42Z" fill="#fff"/><path d="M79.78,181.33v-.18a5.88,5.88,0,0,1,6.22-6c3.14,0,5.85,1.81,5.85,5.94v1H83.76a2.3,2.3,0,0,0,2.39,2.4c1.3,0,1.85-.6,2-1.37h3.7c-.35,2.6-2.35,4.07-5.83,4.07S79.78,185.09,79.78,181.33ZM88,179.88c-.06-1.39-.75-2.16-2-2.16a2.19,2.19,0,0,0-2.2,2.16Z" fill="#fff"/><path d="M93.21,175.43h3.94v1.72a4.05,4.05,0,0,1,3.58-2c2.68,0,4.86,2,4.86,6v.17c0,4-2.18,5.94-4.88,5.94a3.79,3.79,0,0,1-3.56-1.95v5.54H93.21Zm8.38,5.83v-.17c0-2-.88-3-2.27-3s-2.28,1-2.28,3v.18c0,2,.85,2.95,2.28,2.95S101.59,183.15,101.59,181.26Z" fill="#fff"/><path d="M19.13,198.43h4.11l1.67,6.89,1.94-6.89H30l1.71,6.89,1.87-6.89h3.74l-3.65,11.51H29.93l-1.72-6.43-1.78,6.43H22.61Z" fill="#fff"/><path d="M38.26,195.31a2.17,2.17,0,1,1,2.16,2A2.06,2.06,0,0,1,38.26,195.31Zm.2,3.12H42.4v11.51H38.46Z" fill="#fff"/><path d="M45,206.24v-5.12H43.65v-2.69H45V196H49v2.4h2.26v2.69H49v4.75a1.05,1.05,0,0,0,1.17,1.21,3,3,0,0,0,1.12-.2v3a8,8,0,0,1-2.18.33C46.49,210.2,45,209,45,206.24Z" fill="#fff"/><path d="M52.73,193.37h3.94v6.91a4.05,4.05,0,0,1,3.78-2.16c2.22,0,3.76,1.39,3.76,4.34v7.48H60.27v-6.69c0-1.3-.5-1.94-1.65-1.94s-1.95.71-1.95,2.18v6.45H52.73Z" fill="#fff"/><path d="M65.51,204.33v-.18c0-3.69,2.74-6,6.31-6s6.26,2.27,6.26,5.92v.18c0,3.74-2.75,6-6.29,6S65.51,208.05,65.51,204.33Zm8.57-.07v-.17c0-1.94-.77-3-2.26-3s-2.29,1-2.29,3v.18c0,2,.77,3.06,2.29,3.06S74.08,206.18,74.08,204.26Z" fill="#fff"/><path d="M79.38,205.94v-7.51h3.94v6.87c0,1.29.5,1.93,1.62,1.93s2-.7,2-2.18v-6.62h3.94v11.51H86.9v-1.78a3.77,3.77,0,0,1-3.65,2C81,210.2,79.38,208.84,79.38,205.94Z" fill="#fff"/><path d="M93.37,206.24v-5.12H92v-2.69h1.39V196H97.3v2.4h2.27v2.69H97.3v4.75a1.05,1.05,0,0,0,1.17,1.21,3,3,0,0,0,1.12-.2v3a8,8,0,0,1-2.18.33C94.82,210.2,93.37,209,93.37,206.24Z" fill="#fff"/><path d="M20.63,229.24v-5.12H19.24v-2.69h1.39V219h3.93v2.4h2.27v2.69H24.56v4.75a1.05,1.05,0,0,0,1.17,1.21,3,3,0,0,0,1.12-.2v3a7.94,7.94,0,0,1-2.18.33C22.08,233.2,20.63,232,20.63,229.24Z" fill="#fff"/><path d="M28.32,216.37h3.94v6.91A4.05,4.05,0,0,1,36,221.12c2.22,0,3.76,1.39,3.76,4.34v7.48H35.86v-6.69c0-1.3-.5-1.94-1.64-1.94s-2,.71-2,2.18v6.45H28.32Z" fill="#fff"/><path d="M41.1,227.33v-.18a5.89,5.89,0,0,1,6.22-6c3.15,0,5.85,1.81,5.85,5.94v1H45.08a2.3,2.3,0,0,0,2.4,2.4c1.29,0,1.84-.6,2-1.37h3.69c-.35,2.6-2.35,4.07-5.83,4.07S41.1,231.09,41.1,227.33Zm8.24-1.45c-.06-1.39-.74-2.16-2-2.16a2.19,2.19,0,0,0-2.2,2.16Z" fill="#fff"/><path d="M57.92,227.33v-.18c0-3.69,2.75-6,6.31-6s6.27,2.27,6.27,5.92v.18c0,3.74-2.75,6-6.29,6S57.92,231.05,57.92,227.33Zm8.58-.07v-.17c0-1.94-.77-3-2.27-3s-2.29,1-2.29,3v.18c0,2,.77,3.06,2.29,3.06S66.5,229.18,66.5,227.26Z" fill="#fff"/><path d="M72.48,224.12H71v-2.69h1.46v-.88c0-2.86,1.76-4.2,4.48-4.2a6.63,6.63,0,0,1,1.76.22v2.88a3.34,3.34,0,0,0-1-.15,1.15,1.15,0,0,0-1.28,1.25v.88h3.34v-1c0-2.86,1.81-4.23,4.51-4.23a7,7,0,0,1,1.8.25v2.88a3.48,3.48,0,0,0-1.07-.15,1.14,1.14,0,0,0-1.3,1.25v1H86v2.69H83.67v8.82H79.73v-8.82H76.39v8.82H72.48Z" fill="#fff"/><path d="M87.21,218.31a2.05,2.05,0,0,1,2.15-2.05,2,2,0,1,1,0,4.07A2,2,0,0,1,87.21,218.31Zm.2,3.12h3.93v11.51H87.41Z" fill="#fff"/><path d="M92.84,227.33v-.18a5.79,5.79,0,0,1,6.13-6c2.82,0,5.41,1.24,5.63,4.73h-3.69a1.71,1.71,0,0,0-1.85-1.67c-1.38,0-2.2,1-2.2,2.93v.17c0,2,.77,3,2.27,3a1.91,1.91,0,0,0,2-1.91h3.54c-.11,2.9-2.07,4.79-5.79,4.79C95.45,233.2,92.84,231.2,92.84,227.33Z" fill="#fff"/><path d="M105.33,227.33v-.18a5.89,5.89,0,0,1,6.22-6c3.14,0,5.85,1.81,5.85,5.94v1h-8.09a2.3,2.3,0,0,0,2.39,2.4c1.3,0,1.85-.6,2-1.37h3.69c-.35,2.6-2.35,4.07-5.83,4.07S105.33,231.09,105.33,227.33Zm8.24-1.45c-.06-1.39-.74-2.16-2-2.16a2.19,2.19,0,0,0-2.2,2.16Z" fill="#fff"/><path d="M19.11,244.43h4.2l2.4,7.42,2.35-7.42h3.76l-4.2,11.51H23.33Z" fill="#fff"/><path d="M32.72,241.31a2.17,2.17,0,1,1,2.16,2A2.06,2.06,0,0,1,32.72,241.31Zm.2,3.12h3.93v11.51H32.92Z" fill="#fff"/><path d="M38.2,252.29h3.62c.14.83.51,1.29,1.63,1.29,1,0,1.41-.37,1.41-.94s-.55-.82-2.13-1c-3.08-.39-4.38-1.29-4.38-3.69s2.26-3.79,4.92-3.79c2.84,0,4.82,1,5.08,3.72H44.79a1.28,1.28,0,0,0-1.47-1.14c-.86,0-1.3.37-1.3.9s.53.77,1.94,1c3.18.39,4.72,1.23,4.72,3.69,0,2.73-2,4-5.21,4S38.28,254.84,38.2,252.29Z" fill="#fff"/><path d="M49.87,241.31a2.17,2.17,0,1,1,2.16,2A2.06,2.06,0,0,1,49.87,241.31Zm.2,3.12H54v11.51H50.07Z" fill="#fff"/><path d="M56.64,252.24v-5.12H55.26v-2.69h1.38V242h3.94v2.4h2.26v2.69H60.58v4.75a1.05,1.05,0,0,0,1.17,1.21,3,3,0,0,0,1.12-.2v3a8,8,0,0,1-2.18.33C58.1,256.2,56.64,255,56.64,252.24Z" fill="#fff"/><path d="M64.19,254a2.19,2.19,0,0,1,2.24-2.22,2.22,2.22,0,1,1,0,4.44A2.19,2.19,0,0,1,64.19,254Z" fill="#fff"/><rect width="300" height="600" fill="none"/></g></g></svg>