<svg xmlns="http://www.w3.org/2000/svg" viewBox="0 0 728 90"><title>Asset 4</title><rect width="728" height="90" fill="none"/><path d="M121.93,18.66h6.73c6.57,0,9.91,3.28,9.91,9v.2c0,5.78-3.42,9.27-9.94,9.27h-6.7Zm6.55,14.41c3.15,0,4.55-1.66,4.55-5.1v-.2c0-3.52-1.4-5-4.61-5h-1.16V33.07Z" fill="#fff"/><path d="M139.63,30.56v-.21c0-4.34,3.23-7.09,7.43-7.09s7.37,2.67,7.37,7v.21c0,4.4-3.23,7-7.4,7S139.63,34.93,139.63,30.56Zm10.09-.08v-.2c0-2.28-.91-3.55-2.66-3.55s-2.7,1.22-2.7,3.49v.21c0,2.33.91,3.6,2.7,3.6S149.72,32.73,149.72,30.48Z" fill="#fff"/><path d="M156.06,23.62h4.63V25.8a4.78,4.78,0,0,1,4.45-2.54c2.62,0,4.43,1.63,4.43,5.1v8.8h-4.63V29.29c0-1.52-.6-2.28-1.94-2.28s-2.31.83-2.31,2.57v7.58h-4.63Z" fill="#fff"/><path d="M170.91,18.66h4.53l-.54,7.11h-3.47Z" fill="#fff"/><path d="M178.34,32.81v-6h-1.63V23.62h1.63V20.8H183v2.82h2.67v3.16H183v5.59a1.23,1.23,0,0,0,1.37,1.42,3.42,3.42,0,0,0,1.32-.23v3.52a9.44,9.44,0,0,1-2.56.39C180.05,37.47,178.34,36,178.34,32.81Z" fill="#fff"/><path d="M191.43,30.53v-.2c0-4.61,2.54-7.07,5.75-7.07a4.4,4.4,0,0,1,4.17,2.28V17.67H206V37.16h-4.63V35a4.57,4.57,0,0,1-4.22,2.51C194,37.47,191.43,35.22,191.43,30.53Zm10-.07v-.21c0-2.28-1-3.49-2.67-3.49s-2.67,1.16-2.67,3.52v.2c0,2.28,1,3.44,2.62,3.44S201.48,32.76,201.48,30.46Z" fill="#fff"/><path d="M207.61,30.56v-.21c0-4.34,3.23-7.09,7.42-7.09s7.38,2.67,7.38,7v.21c0,4.4-3.23,7-7.4,7S207.61,34.93,207.61,30.56Zm10.09-.08v-.2c0-2.28-.91-3.55-2.67-3.55s-2.69,1.22-2.69,3.49v.21c0,2.33.91,3.6,2.69,3.6S217.7,32.73,217.7,30.48Z" fill="#fff"/><path d="M229.37,32.81v-6h-1.63V23.62h1.63V20.8H234v2.82h2.67v3.16H234v5.59a1.23,1.23,0,0,0,1.37,1.42,3.42,3.42,0,0,0,1.32-.23v3.52a9.44,9.44,0,0,1-2.56.39C231.08,37.47,229.37,36,229.37,32.81Z" fill="#fff"/><path d="M237.7,33.41c0-3.19,2.69-4.43,7.2-4.43h1.29v-.31c0-1.29-.31-2.15-1.78-2.15a1.66,1.66,0,0,0-1.84,1.61h-4.35c.21-3.26,2.77-4.87,6.47-4.87s6.11,1.53,6.11,5.13v8.77h-4.51V35.58a4.43,4.43,0,0,1-4,1.89C239.85,37.47,237.7,36.28,237.7,33.41Zm8.49-1V31.6H245c-1.86,0-2.69.36-2.69,1.47,0,.78.52,1.27,1.61,1.27A2,2,0,0,0,246.19,32.42Z" fill="#fff"/><path d="M256.46,30.28l-4.21-6.66h5.33l2.09,3.58,2.05-3.58h4.76l-4.27,6.29,4.68,7.25h-5.33l-2.4-4-2.46,4H252Z" fill="#fff"/><path d="M266.3,30.56v-.21c0-4.34,3.23-7.09,7.32-7.09,3.7,0,6.88,2.12,6.88,7v1.22H271a2.71,2.71,0,0,0,2.82,2.82c1.53,0,2.18-.7,2.36-1.61h4.34c-.41,3.06-2.76,4.79-6.85,4.79C269.4,37.47,266.3,35,266.3,30.56Zm9.7-1.71c-.08-1.63-.88-2.53-2.38-2.53A2.57,2.57,0,0,0,271,28.85Z" fill="#fff"/><path d="M281.33,32.86h4.27c.16,1,.6,1.53,1.92,1.53,1.14,0,1.65-.44,1.65-1.11s-.64-1-2.51-1.22c-3.62-.46-5.15-1.53-5.15-4.35,0-3,2.67-4.45,5.8-4.45,3.34,0,5.67,1.14,6,4.38H289.1a1.52,1.52,0,0,0-1.74-1.35c-1,0-1.53.44-1.53,1.06s.63.91,2.28,1.11c3.75.47,5.57,1.45,5.57,4.35,0,3.21-2.39,4.66-6.14,4.66S281.44,35.87,281.33,32.86Z" fill="#fff"/><path d="M295,34.83a2.57,2.57,0,0,1,2.63-2.61,2.61,2.61,0,1,1,0,5.22A2.57,2.57,0,0,1,295,34.83Z" fill="#fff"/><path d="M307.65,18.66H313V33h7v4.12H307.65Z" fill="#fff"/><path d="M320.74,30.56v-.21c0-4.34,3.24-7.09,7.33-7.09,3.7,0,6.88,2.12,6.88,7v1.22h-9.52a2.7,2.7,0,0,0,2.82,2.82c1.53,0,2.17-.7,2.35-1.61H335c-.41,3.06-2.77,4.79-6.86,4.79S320.74,35,320.74,30.56Zm9.71-1.71c-.08-1.63-.88-2.53-2.38-2.53a2.57,2.57,0,0,0-2.59,2.53Z" fill="#fff"/><path d="M337.18,32.81v-6h-1.63V23.62h1.63V20.8h4.63v2.82h2.66v3.16h-2.66v5.59a1.23,1.23,0,0,0,1.37,1.42,3.42,3.42,0,0,0,1.32-.23v3.52a9.58,9.58,0,0,1-2.56.39C338.88,37.47,337.18,36,337.18,32.81Z" fill="#fff"/><path d="M350.17,33.41c0-3.19,2.69-4.43,7.19-4.43h1.29v-.31c0-1.29-.31-2.15-1.78-2.15A1.66,1.66,0,0,0,355,28.13h-4.35c.21-3.26,2.77-4.87,6.47-4.87s6.11,1.53,6.11,5.13v8.77h-4.5V35.58a4.46,4.46,0,0,1-4,1.89C352.31,37.47,350.17,36.28,350.17,33.41Zm8.48-1V31.6h-1.21c-1.87,0-2.69.36-2.69,1.47,0,.78.51,1.27,1.6,1.27A2,2,0,0,0,358.65,32.42Z" fill="#fff"/><path d="M370.84,32.81v-6h-1.63V23.62h1.63V20.8h4.63v2.82h2.67v3.16h-2.67v5.59a1.24,1.24,0,0,0,1.38,1.42,3.49,3.49,0,0,0,1.32-.23v3.52a9.59,9.59,0,0,1-2.57.39C372.55,37.47,370.84,36,370.84,32.81Z" fill="#fff"/><path d="M379.17,33.41c0-3.19,2.7-4.43,7.2-4.43h1.29v-.31c0-1.29-.31-2.15-1.78-2.15A1.66,1.66,0,0,0,384,28.13h-4.35c.21-3.26,2.77-4.87,6.47-4.87s6.11,1.53,6.11,5.13v8.77h-4.5V35.58a4.47,4.47,0,0,1-4,1.89C381.32,37.47,379.17,36.28,379.17,33.41Zm8.49-1V31.6h-1.21c-1.87,0-2.7.36-2.7,1.47,0,.78.52,1.27,1.61,1.27A2,2,0,0,0,387.66,32.42Z" fill="#fff"/><path d="M397.94,30.28l-4.22-6.66h5.33l2.09,3.58,2.05-3.58H408l-4.27,6.29,4.68,7.25H403l-2.4-4-2.46,4h-4.74Z" fill="#fff"/><path d="M414.37,23.62H419v2a4.78,4.78,0,0,1,4.22-2.38c3.16,0,5.72,2.38,5.72,7v.2c0,4.66-2.56,7-5.75,7a4.47,4.47,0,0,1-4.19-2.3v6.52h-4.63Zm9.86,6.86v-.2c0-2.39-1-3.52-2.67-3.52s-2.69,1.21-2.69,3.49v.21c0,2.3,1,3.46,2.69,3.46S424.23,32.71,424.23,30.48Z" fill="#fff"/><path d="M430.62,23.62h4.63v2.7a4.28,4.28,0,0,1,4.37-2.88v4.33c-2.82-.08-4.37.8-4.37,3v6.42h-4.63Z" fill="#fff"/><path d="M440.45,30.56v-.21c0-4.34,3.24-7.09,7.43-7.09s7.37,2.67,7.37,7v.21c0,4.4-3.23,7-7.4,7S440.45,34.93,440.45,30.56Zm10.09-.08v-.2c0-2.28-.9-3.55-2.66-3.55s-2.69,1.22-2.69,3.49v.21c0,2.33.9,3.6,2.69,3.6S450.54,32.73,450.54,30.48Z" fill="#fff"/><path d="M460.92,30.53v-.2c0-4.61,2.54-7.07,5.75-7.07a4.38,4.38,0,0,1,4.16,2.28V17.67h4.63V37.16h-4.63V35a4.55,4.55,0,0,1-4.21,2.51C463.48,37.47,460.92,35.22,460.92,30.53Zm10-.07v-.21c0-2.28-1-3.49-2.66-3.49s-2.67,1.16-2.67,3.52v.2c0,2.28,1,3.44,2.62,3.44S471,32.76,471,30.46Z" fill="#fff"/><path d="M477.09,30.56v-.21c0-4.34,3.24-7.09,7.43-7.09s7.38,2.67,7.38,7v.21c0,4.4-3.24,7-7.4,7S477.09,34.93,477.09,30.56Zm10.1-.08v-.2c0-2.28-.91-3.55-2.67-3.55s-2.69,1.22-2.69,3.49v.21c0,2.33.91,3.6,2.69,3.6S487.19,32.73,487.19,30.48Z" fill="#fff"/><path d="M498.86,32.81v-6h-1.63V23.62h1.63V20.8h4.63v2.82h2.66v3.16h-2.66v5.59a1.23,1.23,0,0,0,1.37,1.42,3.42,3.42,0,0,0,1.32-.23v3.52a9.44,9.44,0,0,1-2.56.39C500.56,37.47,498.86,36,498.86,32.81Z" fill="#fff"/><path d="M507.91,17.67h4.64V25.8A4.77,4.77,0,0,1,517,23.26c2.61,0,4.42,1.63,4.42,5.1v8.8h-4.63V29.29c0-1.52-.59-2.28-1.94-2.28s-2.3.83-2.3,2.57v7.58h-4.64Z" fill="#fff"/><path d="M523,30.56v-.21c0-4.34,3.23-7.09,7.32-7.09,3.7,0,6.89,2.12,6.89,7v1.22h-9.53a2.71,2.71,0,0,0,2.82,2.82c1.53,0,2.18-.7,2.36-1.61h4.35c-.42,3.06-2.77,4.79-6.86,4.79C526.05,37.47,523,35,523,30.56Zm9.7-1.71c-.07-1.63-.88-2.53-2.38-2.53a2.58,2.58,0,0,0-2.59,2.53Z" fill="#fff"/><path d="M538.76,23.62h4.63v2.07a4.75,4.75,0,0,1,4.25-2.43,3.69,3.69,0,0,1,3.67,2.25,5.4,5.4,0,0,1,4.48-2.25c2.56,0,4.42,1.66,4.42,5v8.85h-4.63V29.08c0-1.37-.67-2-1.73-2a2,2,0,0,0-2.07,2.28v7.84H547.2V29.08c0-1.37-.68-2-1.74-2a2,2,0,0,0-2.07,2.28v7.84h-4.63Z" fill="#fff"/><path d="M122.21,58.4H120.5V55.24h1.71V54.05c0-3.36,2.1-5,5.31-5a8.07,8.07,0,0,1,2.12.28v3.39a4.4,4.4,0,0,0-1.27-.18,1.35,1.35,0,0,0-1.55,1.47v1.19h2.74V58.4h-2.74V68.78h-4.61Z" fill="#fff"/><path d="M129.92,62.18V62c0-4.35,3.24-7.09,7.43-7.09s7.38,2.67,7.38,7v.21c0,4.4-3.24,7-7.4,7S129.92,66.55,129.92,62.18ZM140,62.1v-.2c0-2.28-.91-3.55-2.67-3.55s-2.69,1.22-2.69,3.49v.21c0,2.33.91,3.6,2.69,3.6S140,64.35,140,62.1Z" fill="#fff"/><path d="M146.36,55.24H151v2.7a4.27,4.27,0,0,1,4.37-2.88v4.32c-2.82-.07-4.37.81-4.37,3v6.42h-4.63Z" fill="#fff"/><path d="M166,67.41l-5.41-12.17h5l2.79,7.22L171,55.24h4.43l-7.25,18.07h-4.42Z" fill="#fff"/><path d="M175.16,62.18V62c0-4.35,3.23-7.09,7.42-7.09s7.38,2.67,7.38,7v.21c0,4.4-3.23,7-7.4,7S175.16,66.55,175.16,62.18Zm10.09-.08v-.2c0-2.28-.91-3.55-2.67-3.55s-2.69,1.22-2.69,3.49v.21c0,2.33.91,3.6,2.69,3.6S185.25,64.35,185.25,62.1Z" fill="#fff"/><path d="M191.49,64.07V55.24h4.63v8.08c0,1.53.59,2.28,1.91,2.28s2.31-.83,2.31-2.57V55.24H205V68.78h-4.63v-2.1a4.46,4.46,0,0,1-4.3,2.41C193.43,69.09,191.49,67.49,191.49,64.07Z" fill="#fff"/><path d="M210.89,55.24h4.84l2,8.1,2.28-8.1h3.72l2,8.1,2.2-8.1h4.4L228,68.78H223.6l-2-7.56-2.09,7.56H215Z" fill="#fff"/><path d="M233.41,51.57a2.42,2.42,0,0,1,2.53-2.41,2.4,2.4,0,1,1,0,4.79A2.39,2.39,0,0,1,233.41,51.57Zm.23,3.67h4.63V68.78h-4.63Z" fill="#fff"/><path d="M241.38,64.43v-6h-1.63V55.24h1.63V52.42H246v2.82h2.66V58.4H246V64c0,1,.49,1.43,1.37,1.43a3.41,3.41,0,0,0,1.32-.24V68.7a9.44,9.44,0,0,1-2.56.39C243.08,69.09,241.38,67.62,241.38,64.43Z" fill="#fff"/><path d="M250.43,49.29h4.64v8.13a4.77,4.77,0,0,1,4.45-2.54c2.61,0,4.42,1.63,4.42,5.1v8.8h-4.63V60.91c0-1.53-.59-2.28-1.94-2.28s-2.3.83-2.3,2.57v7.58h-4.64Z" fill="#fff"/><path d="M265.47,62.18V62c0-4.35,3.23-7.09,7.43-7.09s7.37,2.67,7.37,7v.21c0,4.4-3.23,7-7.4,7S265.47,66.55,265.47,62.18Zm10.09-.08v-.2c0-2.28-.9-3.55-2.66-3.55s-2.7,1.22-2.7,3.49v.21c0,2.33.91,3.6,2.7,3.6S275.56,64.35,275.56,62.1Z" fill="#fff"/><path d="M281.8,64.07V55.24h4.63v8.08c0,1.53.59,2.28,1.91,2.28s2.31-.83,2.31-2.57V55.24h4.63V68.78h-4.63v-2.1a4.46,4.46,0,0,1-4.3,2.41C283.74,69.09,281.8,67.49,281.8,64.07Z" fill="#fff"/><path d="M298.26,64.43v-6h-1.64V55.24h1.64V52.42h4.63v2.82h2.66V58.4h-2.66V64c0,1,.49,1.43,1.37,1.43a3.41,3.41,0,0,0,1.32-.24V68.7a9.58,9.58,0,0,1-2.56.39C300,69.09,298.26,67.62,298.26,64.43Z" fill="#fff"/><path d="M312.15,49.29h4.61V68.78h-4.61Z" fill="#fff"/><path d="M318.52,62.18V62c0-4.35,3.23-7.09,7.32-7.09,3.7,0,6.89,2.12,6.89,7v1.22H323.2A2.71,2.71,0,0,0,326,65.91c1.53,0,2.18-.7,2.36-1.61h4.35c-.42,3.06-2.77,4.79-6.86,4.79C321.62,69.09,318.52,66.61,318.52,62.18Zm9.7-1.71c-.08-1.63-.88-2.53-2.38-2.53a2.57,2.57,0,0,0-2.59,2.53Z" fill="#fff"/><path d="M333.68,65c0-3.19,2.69-4.43,7.2-4.43h1.29v-.31c0-1.29-.31-2.15-1.79-2.15a1.66,1.66,0,0,0-1.83,1.61H334.2c.21-3.26,2.77-4.87,6.47-4.87s6.11,1.53,6.11,5.13v8.77h-4.51V67.2a4.43,4.43,0,0,1-4,1.89C335.83,69.09,333.68,67.9,333.68,65Zm8.49-1v-.83H341c-1.86,0-2.69.37-2.69,1.48,0,.78.52,1.27,1.61,1.27A2,2,0,0,0,342.17,64Z" fill="#fff"/><path d="M347.47,55.24h4.95L355.24,64,358,55.24h4.42l-4.94,13.54h-5.05Z" fill="#fff"/><path d="M363.49,51.57A2.56,2.56,0,1,1,366,54,2.42,2.42,0,0,1,363.49,51.57Zm.23,3.67h4.64V68.78h-4.64Z" fill="#fff"/><path d="M370.84,55.24h4.63v2.18a4.78,4.78,0,0,1,4.45-2.54c2.62,0,4.43,1.63,4.43,5.1v8.8h-4.63V60.91c0-1.53-.6-2.28-1.94-2.28s-2.31.83-2.31,2.57v7.58h-4.63Z" fill="#fff"/><path d="M385.85,68.78h4.61c.2,1,.8,1.76,2.48,1.76a2.56,2.56,0,0,0,2.87-2.85V65.62a4.74,4.74,0,0,1-4.19,2.49c-3.16,0-5.74-2.33-5.74-6.5V61.4c0-4,2.56-6.52,5.74-6.52a4.39,4.39,0,0,1,4.19,2.28V55.24h4.63v12.4c0,4-2.66,6.16-7.5,6.16C388.33,73.8,386.21,71.86,385.85,68.78Zm10.09-7.2V61.4c0-1.86-1-3-2.66-3s-2.67,1.22-2.67,3.08v.21c0,1.86,1,3,2.64,3S395.94,63.5,395.94,61.58Z" fill="#fff"/><path d="M407.51,49.29h4.63v8.13a4.78,4.78,0,0,1,4.45-2.54c2.62,0,4.43,1.63,4.43,5.1v8.8h-4.64V60.91c0-1.53-.59-2.28-1.94-2.28s-2.3.83-2.3,2.57v7.58h-4.63Z" fill="#fff"/><path d="M422.54,62.18V62c0-4.35,3.24-7.09,7.43-7.09s7.38,2.67,7.38,7v.21c0,4.4-3.24,7-7.4,7S422.54,66.55,422.54,62.18Zm10.1-.08v-.2c0-2.28-.91-3.55-2.67-3.55s-2.69,1.22-2.69,3.49v.21c0,2.33.91,3.6,2.69,3.6S432.64,64.35,432.64,62.1Z" fill="#fff"/><path d="M439,55.24h4.64v2.07a4.73,4.73,0,0,1,4.24-2.43,3.7,3.7,0,0,1,3.68,2.25A5.34,5.34,0,0,1,456,54.88c2.57,0,4.43,1.66,4.43,5v8.85H455.8V60.71c0-1.38-.68-2.05-1.74-2.05A2,2,0,0,0,452,60.94v7.84h-4.58V60.71c0-1.38-.67-2.05-1.73-2.05a2,2,0,0,0-2.07,2.28v7.84H439Z" fill="#fff"/><path d="M462,62.18V62c0-4.35,3.23-7.09,7.32-7.09,3.7,0,6.88,2.12,6.88,7v1.22h-9.52a2.7,2.7,0,0,0,2.82,2.82c1.53,0,2.17-.7,2.35-1.61h4.35c-.41,3.06-2.77,4.79-6.86,4.79C465.06,69.09,462,66.61,462,62.18Zm9.7-1.71c-.08-1.63-.88-2.53-2.38-2.53a2.57,2.57,0,0,0-2.59,2.53Z" fill="#fff"/><path d="M477.46,66.45a2.57,2.57,0,0,1,2.63-2.61,2.61,2.61,0,1,1,0,5.22A2.57,2.57,0,0,1,477.46,66.45Z" fill="#fff"/></svg>