<svg xmlns="http://www.w3.org/2000/svg" viewBox="0 0 728 90"><title>Asset 5</title><rect width="728" height="90" fill="none"/><path d="M122.71,11.41h18.38v5.88H130.3v4.58h8.59V27.3H130.3v4.84h11.38V38h-19Z" fill="#fff"/><path d="M143.21,32.62c0-4.57,3.87-6.36,10.34-6.36h1.86v-.45c0-1.86-.45-3.09-2.57-3.09A2.39,2.39,0,0,0,150.2,25H144c.3-4.69,4-7,9.3-7S162,20.23,162,25.4V38h-6.47V35.75c-.93,1.41-2.64,2.72-5.77,2.72C146.3,38.47,143.21,36.75,143.21,32.62Zm12.2-1.41V30h-1.75c-2.68,0-3.87.52-3.87,2.12,0,1.12.75,1.82,2.31,1.82C154,34,155.41,32.88,155.41,31.21Z" fill="#fff"/><path d="M164,31.84h6.13c.23,1.42.86,2.2,2.76,2.2,1.63,0,2.38-.64,2.38-1.6s-.93-1.38-3.61-1.75c-5.21-.67-7.4-2.2-7.4-6.25,0-4.32,3.83-6.41,8.33-6.41,4.8,0,8.15,1.64,8.59,6.29h-6a2.18,2.18,0,0,0-2.5-1.93c-1.45,0-2.19.63-2.19,1.52s.89,1.31,3.27,1.6c5.4.67,8,2.09,8,6.26,0,4.61-3.42,6.7-8.81,6.7C167.35,38.47,164.12,36.16,164,31.84Z" fill="#fff"/><path d="M189.34,36.05l-7.78-17.49h7.22l4,10.38,3.72-10.38h6.36l-10.42,26H186.1Z" fill="#fff"/><path d="M200.35,41l3.13-9.78,6.17,2.19-5.36,9.12Z" fill="#fff"/><path d="M219.32,18.56H226v2.9A6.89,6.89,0,0,1,232.05,18c4.54,0,8.22,3.43,8.22,10.09v.3c0,6.7-3.68,10-8.26,10a6.42,6.42,0,0,1-6-3.32v9.38h-6.66Zm14.18,9.86v-.3c0-3.42-1.49-5.06-3.83-5.06s-3.87,1.75-3.87,5v.3c0,3.31,1.45,5,3.87,5S233.5,31.62,233.5,28.42Z" fill="#fff"/><path d="M241.65,28.53v-.3c0-6.25,4.65-10.2,10.52-10.2,5.32,0,9.9,3.06,9.9,10v1.75H248.38c.19,2.57,1.67,4.06,4.05,4.06,2.2,0,3.13-1,3.39-2.31h6.25c-.6,4.39-4,6.89-9.86,6.89C246.11,38.47,241.65,34.89,241.65,28.53Zm13.95-2.46c-.12-2.34-1.27-3.64-3.43-3.64-2,0-3.38,1.3-3.72,3.64Z" fill="#fff"/><path d="M263.45,32.62c0-4.57,3.87-6.36,10.34-6.36h1.86v-.45c0-1.86-.45-3.09-2.57-3.09A2.39,2.39,0,0,0,270.44,25h-6.25c.3-4.69,4-7,9.3-7s8.78,2.2,8.78,7.37V38H275.8V35.75c-.93,1.41-2.64,2.72-5.77,2.72C266.53,38.47,263.45,36.75,263.45,32.62Zm12.2-1.41V30H273.9c-2.68,0-3.87.52-3.87,2.12,0,1.12.75,1.82,2.31,1.82C274.24,34,275.65,32.88,275.65,31.21Z" fill="#fff"/><path d="M284.21,31.84h6.13c.23,1.42.86,2.2,2.76,2.2,1.63,0,2.38-.64,2.38-1.6s-.93-1.38-3.61-1.75c-5.21-.67-7.4-2.2-7.4-6.25,0-4.32,3.83-6.41,8.33-6.41,4.8,0,8.15,1.64,8.59,6.29h-6a2.18,2.18,0,0,0-2.5-1.93c-1.45,0-2.19.63-2.19,1.52s.89,1.31,3.27,1.6c5.4.67,8,2.09,8,6.26,0,4.61-3.42,6.7-8.82,6.7S284.35,36.16,284.21,31.84Z" fill="#fff"/><path d="M309.58,36.05,301.8,18.56H309l4,10.38,3.72-10.38h6.36l-10.42,26h-6.36Z" fill="#fff"/><path d="M320.59,41l3.12-9.78,6.18,2.19-5.36,9.12Z" fill="#fff"/><path d="M340.46,31.77V23.1h-2.35V18.56h2.35V14.5h6.66v4.06H351V23.1h-3.83v8c0,1.42.7,2.05,2,2.05a5.1,5.1,0,0,0,1.89-.33v5.06a14,14,0,0,1-3.68.56C342.91,38.47,340.46,36.34,340.46,31.77Z" fill="#fff"/><path d="M352.44,32.62c0-4.57,3.86-6.36,10.34-6.36h1.86v-.45c0-1.86-.45-3.09-2.57-3.09A2.39,2.39,0,0,0,359.43,25h-6.25c.3-4.69,4-7,9.3-7s8.78,2.2,8.78,7.37V38h-6.47V35.75c-.93,1.41-2.65,2.72-5.77,2.72C355.52,38.47,352.44,36.75,352.44,32.62Zm12.2-1.41V30h-1.75c-2.68,0-3.87.52-3.87,2.12,0,1.12.74,1.82,2.31,1.82C363.22,34,364.64,32.88,364.64,31.21Z" fill="#fff"/><path d="M379.41,28.12l-6.07-9.56H381l3,5.13L387,18.56h6.84l-6.13,9L394.4,38h-7.66l-3.46-5.81L379.74,38h-6.81Z" fill="#fff"/><path d="M393.54,28.53v-.3c0-6.25,4.65-10.2,10.53-10.2,5.32,0,9.9,3.06,9.9,10v1.75H400.28c.18,2.57,1.67,4.06,4.05,4.06,2.2,0,3.13-1,3.39-2.31H414c-.6,4.39-4,6.89-9.86,6.89C398,38.47,393.54,34.89,393.54,28.53Zm13.95-2.46c-.11-2.34-1.26-3.64-3.42-3.64-2,0-3.38,1.3-3.72,3.64Z" fill="#fff"/><path d="M415.16,31.84h6.13c.23,1.42.86,2.2,2.76,2.2,1.63,0,2.38-.64,2.38-1.6s-.93-1.38-3.61-1.75c-5.21-.67-7.4-2.2-7.4-6.25,0-4.32,3.83-6.41,8.33-6.41,4.8,0,8.15,1.64,8.59,6.29h-6a2.17,2.17,0,0,0-2.49-1.93c-1.46,0-2.2.63-2.2,1.52s.89,1.31,3.27,1.6c5.4.67,8,2.09,8,6.26,0,4.61-3.42,6.7-8.82,6.7S415.31,36.16,415.16,31.84Z" fill="#fff"/><path d="M122.11,57.5h6.66v3a6.8,6.8,0,0,1,6.1-3.5,5.31,5.31,0,0,1,5.29,3.24A7.7,7.7,0,0,1,146.59,57c3.68,0,6.36,2.38,6.36,7.26V77h-6.66V65.36c0-2-1-2.94-2.49-2.94-1.78,0-3,1.15-3,3.27V77h-6.59V65.36c0-2-1-2.94-2.49-2.94-1.79,0-3,1.15-3,3.27V77h-6.66Z" fill="#fff"/><path d="M155.08,71.57c0-4.58,3.86-6.36,10.34-6.36h1.86v-.45c0-1.86-.45-3.09-2.57-3.09A2.39,2.39,0,0,0,162.07,64h-6.25c.3-4.69,4-7,9.3-7s8.78,2.2,8.78,7.37V77h-6.47V74.7c-.93,1.41-2.64,2.71-5.77,2.71C158.16,77.41,155.08,75.7,155.08,71.57Zm12.2-1.41V69h-1.75c-2.68,0-3.87.52-3.87,2.12,0,1.11.74,1.82,2.31,1.82C165.86,72.91,167.28,71.83,167.28,70.16Z" fill="#fff"/><path d="M176.17,67.44v-.3c0-6.62,3.64-10.16,8.26-10.16a6.32,6.32,0,0,1,6,3.28V48.94h6.66V77h-6.66V73.8a6.57,6.57,0,0,1-6.07,3.61C179.85,77.41,176.17,74.18,176.17,67.44Zm14.43-.11V67c0-3.27-1.37-5-3.83-5s-3.83,1.67-3.83,5.06v.3c0,3.27,1.45,4.95,3.76,4.95S190.6,70.64,190.6,67.33Z" fill="#fff"/><path d="M199.42,67.48v-.3c0-6.25,4.65-10.2,10.53-10.2,5.32,0,9.89,3.05,9.89,10.05v1.75H206.15c.19,2.57,1.68,4.06,4.06,4.06,2.19,0,3.12-1,3.38-2.31h6.25c-.59,4.39-4,6.88-9.85,6.88C203.89,77.41,199.42,73.84,199.42,67.48Zm14-2.46c-.11-2.34-1.26-3.65-3.42-3.65-2,0-3.39,1.31-3.72,3.65Z" fill="#fff"/><path d="M235.58,74v3h-6.66v-28h6.66V60.41A6.89,6.89,0,0,1,241.65,57c4.53,0,8.22,3.43,8.22,10.09v.3c0,6.69-3.69,10-8.26,10A6.31,6.31,0,0,1,235.58,74Zm7.52-6.58v-.3c0-3.43-1.49-5.06-3.84-5.06s-3.86,1.75-3.86,5v.3c0,3.31,1.45,5,3.86,5S243.1,70.57,243.1,67.37Z" fill="#fff"/><path d="M252.29,57.5H259v3.87a6.13,6.13,0,0,1,6.28-4.13v6.22c-4.05-.11-6.28,1.15-6.28,4.28V77h-6.66Z" fill="#fff"/><path d="M266.42,67.48v-.3c0-6.25,4.65-10.2,10.53-10.2,5.32,0,9.9,3.05,9.9,10.05v1.75H273.16c.18,2.57,1.67,4.06,4,4.06,2.2,0,3.13-1,3.39-2.31h6.25c-.6,4.39-4,6.88-9.86,6.88C270.89,77.41,266.42,73.84,266.42,67.48ZM280.37,65c-.11-2.34-1.26-3.65-3.42-3.65-2,0-3.38,1.31-3.72,3.65Z" fill="#fff"/><path d="M288.11,67.48v-.3c0-6.25,4.65-10.2,10.53-10.2,5.32,0,9.9,3.05,9.9,10.05v1.75H294.85c.18,2.57,1.67,4.06,4,4.06,2.2,0,3.13-1,3.39-2.31h6.25c-.6,4.39-4,6.88-9.86,6.88C292.58,77.41,288.11,73.84,288.11,67.48ZM302.06,65c-.11-2.34-1.26-3.65-3.42-3.65-2,0-3.38,1.31-3.72,3.65Z" fill="#fff"/><path d="M309.06,76.3l8.52-13.77H310v-5H327.1v.71l-8.74,13.73h8.29v5H309.06Z" fill="#fff"/><path d="M335.29,75l-7.78-17.5h7.22l4,10.39,3.72-10.39h6.37l-10.42,26h-6.36Z" fill="#fff"/><path d="M347.41,73.62a3.71,3.71,0,0,1,3.8-3.76,3.76,3.76,0,1,1,0,7.52A3.72,3.72,0,0,1,347.41,73.62Z" fill="#fff"/></svg>