<svg xmlns="http://www.w3.org/2000/svg" viewBox="0 0 164 37.5"><title>cta_txt</title><g id="Layer_2" data-name="Layer 2"><g id="Rect"><rect width="164" height="37.5" fill="none"/></g><g id="Try_Tax_Pro_Go" data-name="Try Tax Pro Go"><path d="M28.64,14.12H25.35V12h9.37v2.14h-3.3v10H28.64Z" fill="#262626"/><path d="M35.38,15.23h2.48v1.7a2.92,2.92,0,0,1,2.88-1.83v2.28c-1.82,0-2.88.58-2.88,2.27v4.44H35.38Z" fill="#262626"/><path d="M44.92,23.19l-3.55-8H44l2.17,5.32,2-5.32h2.37L45.74,27.1H43.35Z" fill="#262626"/><path d="M57.79,14.12H54.5V12h9.37v2.14h-3.3v10H57.79Z" fill="#262626"/><path d="M63.42,21.63c0-2.06,1.91-2.84,4.64-2.84h1v-.36c0-1.05-.32-1.62-1.45-1.62a1.34,1.34,0,0,0-1.52,1.25H63.76c.16-2.1,1.83-3,4-3s3.74.88,3.74,3.29v5.77H69.1V23a3,3,0,0,1-2.69,1.25C64.79,24.27,63.42,23.5,63.42,21.63ZM69.07,21v-.74h-1c-1.43,0-2.27.3-2.27,1.25,0,.64.4,1.06,1.3,1.06C68.23,22.56,69.07,22,69.07,21Z" fill="#262626"/><path d="M75.62,19.57l-2.85-4.34h2.84l1.67,2.66,1.64-2.66h2.56l-2.85,4.15,3.14,4.71H78.92l-1.88-3-1.93,3H72.57Z" fill="#262626"/><path d="M86.67,12h4.21c3,0,4.66,1.31,4.66,3.86v.07c0,2.56-1.79,3.78-4.57,3.78H89.41v4.4H86.67Zm4.14,5.79c1.35,0,2.07-.64,2.07-1.84v-.07c0-1.29-.75-1.79-2.07-1.79h-1.4v3.7Z" fill="#262626"/><path d="M96.87,15.23h2.48v1.7a2.92,2.92,0,0,1,2.88-1.83v2.28c-1.83,0-2.88.58-2.88,2.27v4.44H96.87Z" fill="#262626"/><path d="M102.9,19.75v-.13A4.46,4.46,0,0,1,107.61,15a4.41,4.41,0,0,1,4.69,4.54v.13a4.7,4.7,0,0,1-9.4.05Zm6.89,0V19.6c0-1.69-.8-2.71-2.18-2.71s-2.19,1-2.19,2.68v.13c0,1.7.79,2.71,2.19,2.71S109.79,21.4,109.79,19.72Z" fill="#262626"/><path d="M116.82,18.11V18A6,6,0,0,1,123,11.8c2.72,0,5.14,1.23,5.43,4.23h-2.75A2.35,2.35,0,0,0,123.07,14c-2.12,0-3.36,1.58-3.36,4.05v.14c0,2.33,1,4,3.39,4,2.05,0,2.89-1.17,2.94-2.56h-2.75v-2h5.48v1.29c0,3.23-2.08,5.38-5.74,5.38C119,24.27,116.82,21.7,116.82,18.11Z" fill="#262626"/><path d="M129.74,19.75v-.13A4.46,4.46,0,0,1,134.45,15a4.41,4.41,0,0,1,4.69,4.54v.13a4.7,4.7,0,0,1-9.4.05Zm6.9,0V19.6c0-1.69-.81-2.71-2.19-2.71s-2.18,1-2.18,2.68v.13c0,1.7.78,2.71,2.18,2.71S136.64,21.4,136.64,19.72Z" fill="#262626"/></g></g></svg>