<svg xmlns="http://www.w3.org/2000/svg" viewBox="0 0 600 500"><title>legal</title><g id="Layer_2" data-name="Layer 2"><g id="Rect"><rect width="600" height="500" fill="none"/></g><g id="Please_drink_responsibly." data-name="Please drink responsibly."><path d="M435.44,373.67h2.64c1.84,0,3.05.82,3.05,2.54v.05c0,1.73-1.25,2.5-3,2.5H437v3.13h-1.53Zm2.64,4c1,0,1.55-.49,1.55-1.4v-.05c0-1-.57-1.36-1.55-1.36H437v2.81Z" fill="#fff"/><path d="M442.36,373.1h1.39v8.79h-1.39Z" fill="#fff"/><path d="M445,379v-.09a2.93,2.93,0,0,1,3-3.11,2.72,2.72,0,0,1,2.84,3v.4h-4.4c0,1.14.62,1.78,1.65,1.78.84,0,1.28-.33,1.38-.92h1.35c-.2,1.27-1.22,2-2.76,2A2.89,2.89,0,0,1,445,379Zm4.45-.69c-.07-1-.6-1.5-1.46-1.5a1.55,1.55,0,0,0-1.54,1.5Z" fill="#fff"/><path d="M451.73,380.22c0-1.4,1.36-1.9,3.08-1.9h.75V378c0-.8-.27-1.2-1.09-1.2a1,1,0,0,0-1.15.94H452c.11-1.4,1.23-2,2.57-2s2.4.55,2.4,2.2v3.94h-1.37v-.73a2.09,2.09,0,0,1-1.83.85C452.64,382,451.73,381.48,451.73,380.22Zm3.83-.43v-.6h-.71c-1.06,0-1.74.24-1.74,1,0,.5.28.84,1,.84C454.93,381,455.56,380.56,455.56,379.79Z" fill="#fff"/><path d="M458.09,380h1.31c.07.61.38,1,1.2,1s1.08-.26,1.08-.77-.4-.68-1.29-.83c-1.58-.25-2.17-.7-2.17-1.82s1.13-1.81,2.25-1.81,2.21.46,2.36,1.82h-1.29a.93.93,0,0,0-1.07-.81c-.59,0-1,.29-1,.72s.29.61,1.24.77c1.41.21,2.25.56,2.25,1.84s-.86,1.92-2.4,1.92S458.15,381.29,458.09,380Z" fill="#fff"/><path d="M463.84,379v-.09a2.93,2.93,0,0,1,3-3.11,2.72,2.72,0,0,1,2.84,3v.4h-4.4c0,1.14.62,1.78,1.65,1.78.84,0,1.28-.33,1.38-.92h1.35c-.2,1.27-1.22,2-2.76,2A2.89,2.89,0,0,1,463.84,379Zm4.45-.69c-.07-1-.6-1.5-1.46-1.5a1.55,1.55,0,0,0-1.54,1.5Z" fill="#fff"/><path d="M473.26,379v-.09c0-1.92,1.14-3.14,2.7-3.14a2,2,0,0,1,1.92,1.05v-3.7h1.39v8.79h-1.39v-1a2.29,2.29,0,0,1-2,1.13C474.4,382,473.26,380.94,473.26,379Zm4.67-.07v-.09c0-1.32-.61-2-1.62-2s-1.62.72-1.62,2V379c0,1.32.66,1.95,1.56,1.95S477.93,380.26,477.93,378.91Z" fill="#fff"/><path d="M480.93,375.88h1.39V377a2,2,0,0,1,2-1.21v1.29c-1.22,0-2,.41-2,1.68v3.13h-1.39Z" fill="#fff"/><path d="M485.38,374.1a.83.83,0,1,1,.83.79A.81.81,0,0,1,485.38,374.1Zm.15,1.78h1.39v6h-1.39Z" fill="#fff"/><path d="M488.61,375.88H490v.95a2.09,2.09,0,0,1,1.95-1.08c1.2,0,2.06.7,2.06,2.36v3.78h-1.4v-3.66c0-.9-.36-1.32-1.19-1.32a1.34,1.34,0,0,0-1.42,1.44v3.54h-1.39Z" fill="#fff"/><path d="M495.6,373.1H497v5.42l2.15-2.64h1.51l-2.33,2.76,2.53,3.25h-1.61L497,378.94v2.95h-1.4Z" fill="#fff"/><path d="M504.55,375.88h1.39V377a2,2,0,0,1,2-1.21v1.29c-1.22,0-2,.41-2,1.68v3.13h-1.39Z" fill="#fff"/><path d="M508.59,379v-.09a2.92,2.92,0,0,1,3-3.11,2.72,2.72,0,0,1,2.84,3v.4H510c.05,1.14.62,1.78,1.66,1.78.84,0,1.28-.33,1.38-.92h1.34c-.19,1.27-1.21,2-2.75,2A2.88,2.88,0,0,1,508.59,379Zm4.45-.69c-.07-1-.6-1.5-1.46-1.5a1.54,1.54,0,0,0-1.54,1.5Z" fill="#fff"/><path d="M515.26,380h1.31c.07.61.38,1,1.19,1s1.09-.26,1.09-.77-.41-.68-1.29-.83c-1.59-.25-2.18-.7-2.18-1.82s1.13-1.81,2.26-1.81,2.21.46,2.36,1.82h-1.29a.94.94,0,0,0-1.07-.81c-.6,0-1,.29-1,.72s.29.61,1.25.77c1.41.21,2.25.56,2.25,1.84s-.86,1.92-2.4,1.92S515.32,381.29,515.26,380Z" fill="#fff"/><path d="M521.4,375.88h1.39v1a2.33,2.33,0,0,1,2-1.09c1.5,0,2.66,1.12,2.66,3.06v.09c0,1.93-1.11,3.11-2.66,3.11a2.19,2.19,0,0,1-2-1.06v3H521.4Zm4.6,3v-.09c0-1.33-.69-2-1.6-2s-1.66.66-1.66,2v.09c0,1.35.66,2,1.67,2S526,380.21,526,378.92Z" fill="#fff"/><path d="M528.28,379v-.09a3.09,3.09,0,1,1,6.17,0v.09a3.09,3.09,0,0,1-6.17,0Zm4.74,0v-.08c0-1.24-.62-2-1.65-2s-1.67.75-1.67,2v.09c0,1.23.61,2,1.67,2S533,380.15,533,378.92Z" fill="#fff"/><path d="M535.7,375.88h1.4v.95a2.07,2.07,0,0,1,1.94-1.08c1.21,0,2.06.7,2.06,2.36v3.78h-1.39v-3.66c0-.9-.37-1.32-1.2-1.32a1.34,1.34,0,0,0-1.41,1.44v3.54h-1.4Z" fill="#fff"/><path d="M542.24,380h1.31c.07.61.38,1,1.19,1s1.08-.26,1.08-.77-.4-.68-1.28-.83c-1.59-.25-2.18-.7-2.18-1.82s1.13-1.81,2.26-1.81,2.2.46,2.35,1.82h-1.28a.94.94,0,0,0-1.07-.81c-.6,0-1,.29-1,.72s.29.61,1.24.77c1.42.21,2.26.56,2.26,1.84s-.86,1.92-2.41,1.92S542.29,381.29,542.24,380Z" fill="#fff"/><path d="M548.26,374.1a.83.83,0,1,1,.83.79A.81.81,0,0,1,548.26,374.1Zm.15,1.78h1.39v6h-1.39Z" fill="#fff"/><path d="M552.89,380.93v1h-1.4V373.1h1.4v3.74a2.32,2.32,0,0,1,2-1.09c1.51,0,2.67,1.12,2.67,3.06v.09c0,1.93-1.12,3.11-2.67,3.11A2.15,2.15,0,0,1,552.89,380.93Zm3.2-2v-.09c0-1.33-.69-2-1.6-2s-1.65.66-1.65,2v.09c0,1.35.65,2,1.67,2S556.09,380.21,556.09,378.92Z" fill="#fff"/><path d="M558.81,373.1h1.39v8.79h-1.39Z" fill="#fff"/><path d="M563.65,381.28l-2.38-5.4h1.5l1.6,3.87,1.47-3.87h1.36L563.92,384h-1.36Z" fill="#fff"/><path d="M567.33,381.07a.92.92,0,1,1,.91.9A.9.9,0,0,1,567.33,381.07Z" fill="#fff"/></g></g></svg>