<svg xmlns="http://www.w3.org/2000/svg" viewBox="0 0 600 500"><title>txt1</title><g id="Layer_2" data-name="Layer 2"><g id="Rect"><rect width="600" height="500" fill="none"/></g><g id="Right_now_he_s_doing_his_taxes." data-name="Right now,  he’s doing  his taxes."><path d="M41.81,30H51.88c6.72,0,10.46,2.73,10.46,8.16v.15A6.73,6.73,0,0,1,57.7,45l6.15,10.65H56.09l-5.22-9.21H49.15v9.21H41.81Zm9.71,11.72c2.48,0,3.7-1,3.7-3.13v-.14c0-2.09-1.29-2.91-3.67-2.91h-2.4v6.18Z" fill="#fff"/><path d="M65.61,31.75a3.55,3.55,0,1,1,3.53,3.31A3.36,3.36,0,0,1,65.61,31.75Zm.33,5.11h6.43V55.68H65.94Z" fill="#fff"/><path d="M74.78,55.68h6.4c.29,1.36,1.12,2.44,3.46,2.44,2.84,0,4-1.62,4-3.95V51.29a6.59,6.59,0,0,1-5.83,3.45c-4.38,0-8-3.24-8-9v-.29c0-5.54,3.56-9.06,8-9.06a6.13,6.13,0,0,1,5.83,3.16V36.86h6.43V54.09c0,5.61-3.7,8.56-10.42,8.56C78.24,62.65,75.29,60,74.78,55.68Zm14-10v-.26c0-2.59-1.33-4.24-3.71-4.24s-3.7,1.69-3.7,4.28v.29c0,2.59,1.37,4.24,3.67,4.24S88.81,48.34,88.81,45.68Z" fill="#fff"/><path d="M98.34,28.59h6.43V39.88A6.65,6.65,0,0,1,111,36.36c3.63,0,6.15,2.26,6.15,7.09V55.68h-6.44V44.74c0-2.12-.83-3.17-2.7-3.17s-3.2,1.16-3.2,3.57V55.68H98.34Z" fill="#fff"/><path d="M121.1,49.63V41.25h-2.27V36.86h2.27V32.94h6.43v3.92h3.71v4.39h-3.71V49a1.72,1.72,0,0,0,1.91,2,5,5,0,0,0,1.83-.32v4.89a13.7,13.7,0,0,1-3.56.54C123.47,56.11,121.1,54.06,121.1,49.63Z" fill="#fff"/><path d="M140.23,36.86h6.43v3a6.65,6.65,0,0,1,6.19-3.52c3.63,0,6.15,2.26,6.15,7.09V55.68h-6.44V44.74c0-2.12-.83-3.17-2.7-3.17s-3.2,1.16-3.2,3.57V55.68h-6.43Z" fill="#fff"/><path d="M161.12,46.5v-.28c0-6,4.49-9.86,10.32-9.86s10.25,3.7,10.25,9.68v.28c0,6.12-4.5,9.79-10.29,9.79S161.12,52.58,161.12,46.5Zm14-.11v-.28c0-3.17-1.26-4.93-3.7-4.93S167.7,42.87,167.7,46v.28c0,3.24,1.26,5,3.74,5S175.14,49.52,175.14,46.39Z" fill="#fff"/><path d="M181.76,36.86h6.72l2.73,11.26,3.17-11.26h5.18l2.8,11.26,3.06-11.26h6.11l-6,18.82h-6.15l-2.8-10.51L193.7,55.68h-6.26Z" fill="#fff"/><path d="M209.23,58.59l3-9.46,6,2.12L213,60.06Z" fill="#fff"/><path d="M41.23,64.56h6.44v11.3a6.66,6.66,0,0,1,6.19-3.53c3.63,0,6.14,2.27,6.14,7.09V91.65H53.57V80.72c0-2.13-.83-3.17-2.7-3.17s-3.2,1.15-3.2,3.56V91.65H41.23Z" fill="#fff"/><path d="M62.13,82.48v-.29c0-6,4.49-9.86,10.17-9.86,5.14,0,9.57,3,9.57,9.72v1.69H68.63c.18,2.48,1.62,3.92,3.92,3.92,2.13,0,3-1,3.28-2.23h6c-.58,4.24-3.85,6.65-9.53,6.65C66.44,92.08,62.13,88.63,62.13,82.48ZM75.61,80.1c-.11-2.26-1.22-3.52-3.31-3.52-1.94,0-3.27,1.26-3.59,3.52Z" fill="#fff"/><path d="M82.51,74.85l2.88-9.39,5.68,1.91-4.92,8.89Z" fill="#fff"/><path d="M88.92,85.68h5.93c.21,1.37.83,2.12,2.66,2.12,1.58,0,2.3-.61,2.3-1.54s-.9-1.33-3.49-1.69c-5-.65-7.15-2.13-7.15-6,0-4.17,3.7-6.19,8-6.19,4.64,0,7.88,1.59,8.31,6.08H99.7a2.1,2.1,0,0,0-2.41-1.87c-1.4,0-2.12.61-2.12,1.48s.87,1.26,3.17,1.54c5.21.65,7.73,2,7.73,6,0,4.46-3.31,6.47-8.52,6.47S89.06,89.85,88.92,85.68Z" fill="#fff"/><path d="M113.76,82.44v-.28c0-6.41,3.53-9.83,8-9.83a6.08,6.08,0,0,1,5.79,3.17V64.56H134V91.65h-6.44V88.59a6.32,6.32,0,0,1-5.86,3.49C117.32,92.08,113.76,89,113.76,82.44Zm13.95-.11v-.28c0-3.17-1.33-4.86-3.7-4.86s-3.7,1.62-3.7,4.89v.29c0,3.17,1.4,4.79,3.63,4.79S127.71,85.54,127.71,82.33Z" fill="#fff"/><path d="M136.24,82.48v-.29c0-6,4.49-9.86,10.32-9.86S156.8,76,156.8,82v.29c0,6.11-4.49,9.78-10.28,9.78S136.24,88.56,136.24,82.48Zm14-.11v-.29c0-3.16-1.26-4.93-3.7-4.93s-3.74,1.7-3.74,4.86v.29c0,3.24,1.25,5,3.74,5S150.26,85.5,150.26,82.37Z" fill="#fff"/><path d="M158.93,67.73a3.36,3.36,0,0,1,3.52-3.35,3.34,3.34,0,1,1,0,6.66A3.33,3.33,0,0,1,158.93,67.73Zm.32,5.11h6.44V91.65h-6.44Z" fill="#fff"/><path d="M169.14,72.84h6.43v3a6.66,6.66,0,0,1,6.19-3.53c3.63,0,6.15,2.27,6.15,7.09V91.65h-6.44V80.72c0-2.13-.83-3.17-2.7-3.17s-3.2,1.15-3.2,3.56V91.65h-6.43Z" fill="#fff"/><path d="M190,91.65h6.4c.29,1.37,1.12,2.45,3.46,2.45,2.84,0,4-1.62,4-4V87.26A6.6,6.6,0,0,1,198,90.72c-4.39,0-8-3.24-8-9V81.4c0-5.54,3.56-9.07,8-9.07a6.12,6.12,0,0,1,5.83,3.17V72.84h6.43V90.07c0,5.61-3.7,8.56-10.42,8.56C193.44,98.63,190.5,95.93,190,91.65Zm14-10V81.4c0-2.59-1.33-4.25-3.71-4.25s-3.7,1.7-3.7,4.29v.28c0,2.59,1.37,4.25,3.67,4.25S204,84.31,204,81.65Z" fill="#fff"/><path d="M41.23,100.54h6.44v11.3a6.64,6.64,0,0,1,6.19-3.53c3.63,0,6.14,2.27,6.14,7.09v12.23H53.57V116.69c0-2.12-.83-3.16-2.7-3.16s-3.2,1.15-3.2,3.56v10.54H41.23Z" fill="#fff"/><path d="M63,103.71A3.55,3.55,0,1,1,66.51,107,3.36,3.36,0,0,1,63,103.71Zm.32,5.1h6.44v18.82H63.31Z" fill="#fff"/><path d="M71.94,121.66h5.94c.21,1.36.82,2.12,2.66,2.12,1.58,0,2.3-.61,2.3-1.55s-.9-1.33-3.49-1.69c-5-.65-7.16-2.12-7.16-6,0-4.17,3.71-6.19,8.06-6.19,4.64,0,7.87,1.58,8.31,6.08H82.73a2.1,2.1,0,0,0-2.41-1.87c-1.4,0-2.12.61-2.12,1.47s.86,1.26,3.16,1.55c5.22.65,7.73,2,7.73,6,0,4.47-3.3,6.48-8.52,6.48S72.09,125.83,71.94,121.66Z" fill="#fff"/><path d="M98.59,121.58V113.2H96.32v-4.39h2.27v-3.92H105v3.92h3.71v4.39H105V121a1.72,1.72,0,0,0,1.91,2,5,5,0,0,0,1.83-.32v4.89a13.28,13.28,0,0,1-3.56.54C101,128.06,98.59,126,98.59,121.58Z" fill="#fff"/><path d="M110.17,122.41c0-4.42,3.74-6.15,10-6.15H122v-.43c0-1.8-.43-3-2.48-3a2.31,2.31,0,0,0-2.55,2.23h-6.05c.29-4.53,3.85-6.76,9-6.76s8.49,2.12,8.49,7.12v12.2H122.1v-2.2c-.9,1.37-2.55,2.63-5.57,2.63C113.15,128.06,110.17,126.4,110.17,122.41ZM122,121v-1.15h-1.69c-2.59,0-3.74.51-3.74,2,0,1.08.72,1.77,2.23,1.77C120.59,123.71,122,122.66,122,121Z" fill="#fff"/><path d="M136.23,118.06l-5.86-9.25h7.41l2.91,5,2.84-5h6.62l-5.93,8.75,6.51,10.07h-7.41L140,122l-3.41,5.61H130Z" fill="#fff"/><path d="M149.9,118.45v-.28c0-6,4.49-9.86,10.17-9.86,5.15,0,9.57,3,9.57,9.71v1.69H156.41c.18,2.49,1.62,3.93,3.92,3.93,2.12,0,3-1,3.27-2.24h6c-.58,4.25-3.85,6.66-9.53,6.66C154.21,128.06,149.9,124.61,149.9,118.45Zm13.48-2.37c-.11-2.27-1.22-3.52-3.31-3.52-1.94,0-3.27,1.25-3.59,3.52Z" fill="#fff"/><path d="M170.79,121.66h5.93c.22,1.36.83,2.12,2.66,2.12,1.59,0,2.3-.61,2.3-1.55s-.89-1.33-3.48-1.69c-5-.65-7.16-2.12-7.16-6,0-4.17,3.7-6.19,8.06-6.19,4.63,0,7.87,1.58,8.3,6.08h-5.82a2.11,2.11,0,0,0-2.41-1.87c-1.4,0-2.12.61-2.12,1.47s.86,1.26,3.16,1.55c5.21.65,7.73,2,7.73,6,0,4.47-3.31,6.48-8.52,6.48S170.93,125.83,170.79,121.66Z" fill="#fff"/><path d="M189.78,124.39a3.58,3.58,0,0,1,3.66-3.63,3.63,3.63,0,1,1,0,7.26A3.58,3.58,0,0,1,189.78,124.39Z" fill="#fff"/></g></g></svg>