<svg xmlns="http://www.w3.org/2000/svg" viewBox="0 0 600 500"><title>txt2</title><g id="Layer_2" data-name="Layer 2"><g id="Rect"><rect width="600" height="500" fill="none"/></g><g id="Tax_Pro_GoSM" data-name="Tax ProGoSM"><path d="M47.29,40.06H37.36V31.58H68.27v8.48H58.34V70H47.29Z" fill="#fff"/><path d="M66.34,62.19c0-6.6,5.58-9.18,14.92-9.18H84v-.65c0-2.68-.65-4.45-3.71-4.45a3.45,3.45,0,0,0-3.81,3.33h-9c.43-6.77,5.74-10.1,13.41-10.1S93.5,44.31,93.5,51.77V70H84.16V66.7c-1.34,2-3.81,3.92-8.32,3.92C70.8,70.62,66.34,68.15,66.34,62.19Zm17.61-2V58.43H81.42c-3.86,0-5.58.75-5.58,3.06,0,1.61,1.08,2.63,3.33,2.63C81.91,64.12,84,62.57,84,60.15Z" fill="#fff"/><path d="M105.26,55.69l-8.75-13.8h11l4.35,7.41,4.24-7.41H126l-8.86,13,9.72,15H115.83l-5-8.38L105.74,70H95.92Z" fill="#fff"/><path d="M140.2,31.58h14.6c10.52,0,15.4,4.67,15.4,12.84v.21c0,8.06-5.42,12.41-14.92,12.41h-4.13V70h-11Zm14.11,17.94c3.55,0,5.43-1.67,5.43-4.84v-.21c0-3.28-1.94-4.62-5.37-4.62h-3.22v9.67Z" fill="#fff"/><path d="M173.53,41.89h9.61v5.59c1.77-4.19,4.72-6,9.07-6v9c-5.85-.16-9.07,1.67-9.07,6.18V70h-9.61Z" fill="#fff"/><path d="M193.93,56.28v-.43c0-9,6.71-14.71,15.4-14.71s15.3,5.53,15.3,14.45V56c0,9.13-6.71,14.61-15.35,14.61S193.93,65.36,193.93,56.28Zm20.93-.16v-.43c0-4.72-1.88-7.35-5.53-7.35s-5.58,2.52-5.58,7.25V56c0,4.84,1.88,7.47,5.58,7.47S214.86,60.79,214.86,56.12Z" fill="#fff"/><path d="M37.89,104.72v-.43c0-11.7,8.59-19.6,20.13-19.6,9.07,0,17.12,4.14,17.87,14.13H65c-.54-3.6-2.85-5.48-6.93-5.48-5.42,0-8.69,4.19-8.69,11.11v.43c0,6.23,2.31,11.07,9,11.07,5.37,0,7.41-2.74,7.62-5.8H58.77v-7.68h18v4.72c0,9.78-6.39,17.14-18.79,17.14C45,124.33,37.89,116.22,37.89,104.72Z" fill="#fff"/><path d="M79,110v-.43c0-9,6.71-14.72,15.4-14.72s15.3,5.53,15.3,14.45v.43c0,9.13-6.71,14.61-15.35,14.61S79,119.06,79,110Zm20.93-.16v-.43c0-4.73-1.88-7.36-5.53-7.36s-5.58,2.52-5.58,7.25v.43c0,4.83,1.88,7.46,5.58,7.46S99.94,114.5,99.94,109.83Z" fill="#fff"/><path d="M110.5,97.77h2.16c0,.57.31,1,1.25,1,.65,0,1-.32,1-.78s-.29-.62-1.24-.77c-2.24-.26-3-.93-3-2.52,0-1.43,1.17-2.47,3.06-2.47s3,.8,3.12,2.47h-2.1a.9.9,0,0,0-1-.85c-.61,0-.92.28-.92.67s.25.64,1.23.78c2,.22,3,.74,3,2.45,0,1.45-1.15,2.64-3.18,2.64C111.7,100.42,110.57,99.49,110.5,97.77Z" fill="#fff"/><path d="M118,92.37h3l1.52,4.22L124,92.37h2.9v7.91h-2.26V95.36l-1.93,4.92h-.76L120,95.36v4.92h-2Z" fill="#fff"/></g></g></svg>