<svg xmlns="http://www.w3.org/2000/svg" viewBox="0 0 300 250"><title>txt1</title><g id="Layer_2" data-name="Layer 2"><g id="Rect"><rect width="300" height="250" fill="none"/></g><g id="Right_now_he_s_doing_his_taxes." data-name="Right now, he’s doing  his taxes."><path d="M22.84,16.52h5.6c3.73,0,5.81,1.52,5.81,4.54v.08a3.74,3.74,0,0,1-2.58,3.76l3.42,5.92H30.77L27.88,25.7h-1v5.12H22.84ZM28.24,23c1.38,0,2.05-.58,2.05-1.74v-.08c0-1.16-.71-1.62-2-1.62H26.92V23Z" fill="#fff"/><path d="M36.07,17.52a2,2,0,1,1,2,1.84A1.87,1.87,0,0,1,36.07,17.52Zm.18,2.84h3.58V30.82H36.25Z" fill="#fff"/><path d="M41.17,30.82h3.56c.16.76.62,1.36,1.92,1.36A2,2,0,0,0,48.86,30v-1.6a3.64,3.64,0,0,1-3.23,1.92c-2.44,0-4.44-1.8-4.44-5v-.16c0-3.08,2-5,4.44-5a3.38,3.38,0,0,1,3.23,1.76V20.36h3.58v9.58c0,3.12-2.06,4.76-5.79,4.76C43.09,34.7,41.45,33.2,41.17,30.82ZM49,25.26v-.14c0-1.44-.73-2.36-2.05-2.36s-2.06.94-2.06,2.38v.16c0,1.44.76,2.36,2,2.36S49,26.74,49,25.26Z" fill="#fff"/><path d="M54.26,15.76h3.58V22a3.69,3.69,0,0,1,3.44-2c2,0,3.42,1.26,3.42,3.94v6.8H61.12V24.74c0-1.18-.46-1.76-1.5-1.76s-1.78.64-1.78,2v5.86H54.26Z" fill="#fff"/><path d="M66.92,27.46V22.8H65.66V20.36h1.26V18.18h3.57v2.18h2.06V22.8H70.49v4.32a1,1,0,0,0,1.06,1.1,2.73,2.73,0,0,0,1-.18v2.72a7.51,7.51,0,0,1-2,.3C68.24,31.06,66.92,29.92,66.92,27.46Z" fill="#fff"/><path d="M77.55,20.36h3.58V22a3.69,3.69,0,0,1,3.44-2c2,0,3.41,1.26,3.41,3.94v6.8H84.41V24.74c0-1.18-.46-1.76-1.5-1.76s-1.78.64-1.78,2v5.86H77.55Z" fill="#fff"/><path d="M89.16,25.72v-.16c0-3.36,2.5-5.48,5.74-5.48s5.7,2.06,5.7,5.38v.16c0,3.4-2.5,5.44-5.72,5.44S89.16,29.1,89.16,25.72Zm7.8-.06V25.5c0-1.76-.7-2.74-2.06-2.74s-2.08.94-2.08,2.7v.16c0,1.8.7,2.78,2.08,2.78S97,27.4,97,25.66Z" fill="#fff"/><path d="M100.64,20.36h3.74l1.52,6.26,1.75-6.26h2.88l1.56,6.26,1.7-6.26h3.4l-3.32,10.46h-3.42L108.89,25l-1.62,5.84H103.8Z" fill="#fff"/><path d="M115.91,32.44l1.68-5.26,3.32,1.18L118,33.26Z" fill="#fff"/><path d="M22.52,37.76H26.1V44a3.69,3.69,0,0,1,3.44-2c2,0,3.41,1.26,3.41,3.94v6.8H29.38V46.74c0-1.18-.46-1.76-1.5-1.76s-1.78.64-1.78,2v5.86H22.52Z" fill="#fff"/><path d="M34.13,47.72v-.16a5.35,5.35,0,0,1,5.66-5.48c2.86,0,5.32,1.64,5.32,5.4v.94H37.75a2.09,2.09,0,0,0,2.18,2.18c1.18,0,1.68-.54,1.82-1.24h3.36c-.32,2.36-2.14,3.7-5.3,3.7S34.13,51.14,34.13,47.72Zm7.5-1.32c-.06-1.26-.68-2-1.84-2a2,2,0,0,0-2,2Z" fill="#fff"/><path d="M45.47,43.48l1.6-5.22,3.15,1.06-2.73,4.94Z" fill="#fff"/><path d="M49,49.5h3.29c.12.76.46,1.18,1.48,1.18s1.28-.34,1.28-.86-.5-.74-1.94-.94c-2.79-.36-4-1.18-4-3.36s2-3.44,4.47-3.44c2.58,0,4.38.88,4.62,3.38H55a1.17,1.17,0,0,0-1.34-1c-.78,0-1.18.34-1.18.82s.48.7,1.76.86c2.9.36,4.3,1.12,4.3,3.36,0,2.48-1.84,3.6-4.74,3.6S49.11,51.82,49,49.5Z" fill="#fff"/><path d="M62.84,47.7v-.16c0-3.56,2-5.46,4.44-5.46a3.37,3.37,0,0,1,3.21,1.76V37.76h3.58V52.82H70.49v-1.7a3.5,3.5,0,0,1-3.25,1.94C64.82,53.06,62.84,51.32,62.84,47.7Zm7.75-.06v-.16c0-1.76-.74-2.7-2-2.7s-2.06.9-2.06,2.72v.16c0,1.76.78,2.66,2,2.66S70.59,49.42,70.59,47.64Z" fill="#fff"/><path d="M75.33,47.72v-.16c0-3.36,2.5-5.48,5.74-5.48s5.7,2.06,5.7,5.38v.16c0,3.4-2.5,5.44-5.72,5.44S75.33,51.1,75.33,47.72Zm7.8-.06V47.5c0-1.76-.7-2.74-2.06-2.74S79,45.7,79,47.46v.16c0,1.8.7,2.78,2.08,2.78S83.13,49.4,83.13,47.66Z" fill="#fff"/><path d="M88,39.52a1.87,1.87,0,0,1,2-1.86,1.85,1.85,0,1,1,0,3.7A1.85,1.85,0,0,1,88,39.52Zm.18,2.84H91.7V52.82H88.13Z" fill="#fff"/><path d="M93.62,42.36H97.2V44a3.69,3.69,0,0,1,3.44-2c2,0,3.42,1.26,3.42,3.94v6.8h-3.58V46.74c0-1.18-.46-1.76-1.5-1.76s-1.78.64-1.78,2v5.86H93.62Z" fill="#fff"/><path d="M105.22,52.82h3.55c.17.76.62,1.36,1.92,1.36a2,2,0,0,0,2.22-2.2v-1.6a3.67,3.67,0,0,1-3.24,1.92c-2.43,0-4.43-1.8-4.43-5v-.16c0-3.08,2-5,4.43-5a3.4,3.4,0,0,1,3.24,1.76V42.36h3.58v9.58c0,3.12-2.06,4.76-5.8,4.76C107.14,56.7,105.5,55.2,105.22,52.82ZM113,47.26v-.14c0-1.44-.74-2.36-2.06-2.36s-2,.94-2,2.38v.16c0,1.44.75,2.36,2,2.36S113,48.74,113,47.26Z" fill="#fff"/><path d="M22.52,59.76H26.1V66a3.69,3.69,0,0,1,3.44-2c2,0,3.41,1.26,3.41,3.94v6.8H29.38V68.74c0-1.18-.46-1.76-1.5-1.76s-1.78.64-1.78,2v5.86H22.52Z" fill="#fff"/><path d="M34.61,61.52a2,2,0,1,1,2,1.84A1.87,1.87,0,0,1,34.61,61.52Zm.18,2.84h3.58V74.82H34.79Z" fill="#fff"/><path d="M39.59,71.5h3.3c.12.76.46,1.18,1.48,1.18s1.28-.34,1.28-.86-.5-.74-1.94-.94c-2.8-.36-4-1.18-4-3.36s2.06-3.44,4.48-3.44c2.58,0,4.38.88,4.62,3.38H45.59a1.17,1.17,0,0,0-1.34-1c-.78,0-1.18.34-1.18.82s.48.7,1.76.86c2.9.36,4.29,1.12,4.29,3.36,0,2.48-1.83,3.6-4.73,3.6S39.67,73.82,39.59,71.5Z" fill="#fff"/><path d="M54.4,71.46V66.8H53.14V64.36H54.4V62.18H58v2.18H60V66.8H58v4.32A1,1,0,0,0,59,72.22a2.73,2.73,0,0,0,1-.18v2.72a7.51,7.51,0,0,1-2,.3C55.72,75.06,54.4,73.92,54.4,71.46Z" fill="#fff"/><path d="M60.84,71.92c0-2.46,2.08-3.42,5.56-3.42h1v-.24c0-1-.24-1.66-1.38-1.66a1.28,1.28,0,0,0-1.42,1.24H61.24c.16-2.52,2.14-3.76,5-3.76S71,65.26,71,68v6.78H67.48V73.6a3.44,3.44,0,0,1-3.1,1.46C62.5,75.06,60.84,74.14,60.84,71.92Zm6.56-.76v-.64h-.94c-1.44,0-2.08.28-2.08,1.14,0,.6.4,1,1.24,1A1.58,1.58,0,0,0,67.4,71.16Z" fill="#fff"/><path d="M75.33,69.5l-3.26-5.14h4.12l1.62,2.76,1.58-2.76h3.68l-3.3,4.86,3.62,5.6H79.27L77.41,71.7l-1.9,3.12H71.85Z" fill="#fff"/><path d="M82.93,69.72v-.16a5.35,5.35,0,0,1,5.65-5.48c2.86,0,5.32,1.64,5.32,5.4v.94H86.55a2.09,2.09,0,0,0,2.17,2.18c1.18,0,1.68-.54,1.82-1.24H93.9c-.32,2.36-2.14,3.7-5.3,3.7S82.93,73.14,82.93,69.72Zm7.49-1.32c-.06-1.26-.68-2-1.84-2a2,2,0,0,0-2,2Z" fill="#fff"/><path d="M94.54,71.5h3.3c.12.76.46,1.18,1.48,1.18s1.28-.34,1.28-.86-.5-.74-1.94-.94c-2.8-.36-4-1.18-4-3.36s2.06-3.44,4.48-3.44c2.58,0,4.38.88,4.62,3.38h-3.24a1.17,1.17,0,0,0-1.34-1c-.78,0-1.18.34-1.18.82s.48.7,1.76.86c2.9.36,4.3,1.12,4.3,3.36,0,2.48-1.84,3.6-4.74,3.6S94.62,73.82,94.54,71.5Z" fill="#fff"/><path d="M105.1,73a2,2,0,0,1,2-2,2,2,0,1,1,0,4A2,2,0,0,1,105.1,73Z" fill="#fff"/></g></g></svg>