<svg xmlns="http://www.w3.org/2000/svg" viewBox="0 0 300 600"><title>Asset 7</title><rect width="300" height="600" fill="none"/><path d="M24.38,90.94h33v10.48H38v8.15H53.43v9.68H38v8.61H58.44v10.48H24.38Z" fill="#fff"/><path d="M61.18,128.73c0-8.16,6.95-11.34,18.57-11.34h3.34v-.79c0-3.32-.8-5.51-4.61-5.51-3.27,0-4.47,1.93-4.74,4.11H62.52c.53-8.35,7.15-12.46,16.7-12.46S95,106.65,95,115.87v22.47H83.36v-4.05c-1.67,2.52-4.74,4.84-10.36,4.84C66.73,139.13,61.18,136.08,61.18,128.73Zm21.91-2.52v-2.12H80c-4.81,0-7,.92-7,3.77,0,2,1.34,3.25,4.15,3.25C80.55,131.11,83.09,129.19,83.09,126.21Z" fill="#fff"/><path d="M98.45,127.33h11c.4,2.52,1.54,3.91,4.94,3.91,2.94,0,4.28-1.12,4.28-2.85s-1.67-2.45-6.48-3.11c-9.35-1.19-13.29-3.91-13.29-11.14,0-7.69,6.88-11.4,15-11.4,8.62,0,14.63,2.92,15.43,11.2H118.49c-.47-2.32-1.74-3.44-4.48-3.44s-3.94,1.12-3.94,2.72,1.61,2.32,5.88,2.85c9.68,1.19,14.36,3.71,14.36,11.13,0,8.22-6.14,11.93-15.83,11.93C104.53,139.13,98.72,135,98.45,127.33Z" fill="#fff"/><path d="M144,134.82l-14-31.15h13l7.21,18.49,6.68-18.49h11.42l-18.7,46.27H138.19Z" fill="#fff"/><path d="M163.77,143.71l5.61-17.44,11.09,3.91-9.62,16.24Z" fill="#fff"/><path d="M23.31,167.31h12v5.17a12.35,12.35,0,0,1,10.88-6.1c8.15,0,14.76,6.1,14.76,18v.53c0,11.93-6.61,17.89-14.82,17.89-5.28,0-9.09-2.45-10.82-5.9v16.71h-12Zm25.45,17.57v-.53c0-6.1-2.67-9-6.88-9s-7,3.12-7,8.95v.53c0,5.9,2.61,8.88,7,8.88S48.76,190.58,48.76,184.88Z" fill="#fff"/><path d="M63.39,185.08v-.54c0-11.13,8.35-18.16,18.9-18.16,9.55,0,17.76,5.44,17.76,17.9v3.12H75.48c.33,4.57,3,7.22,7.28,7.22,3.94,0,5.61-1.79,6.07-4.11h11.22c-1.07,7.82-7.14,12.26-17.7,12.26C71.4,202.77,63.39,196.41,63.39,185.08Zm25-4.38c-.2-4.18-2.27-6.5-6.14-6.5-3.61,0-6.08,2.32-6.68,6.5Z" fill="#fff"/><path d="M102.53,192.37c0-8.16,6.94-11.34,18.56-11.34h3.34v-.79c0-3.32-.8-5.51-4.61-5.51-3.27,0-4.47,1.93-4.74,4.11H103.86c.54-8.35,7.15-12.46,16.7-12.46s15.76,3.91,15.76,13.13V202H124.7v-4c-1.67,2.52-4.74,4.84-10.35,4.84C108.07,202.77,102.53,199.72,102.53,192.37Zm21.9-2.52v-2.12h-3.14c-4.81,0-6.94.92-6.94,3.77,0,2,1.33,3.25,4.14,3.25C121.89,194.75,124.43,192.83,124.43,189.85Z" fill="#fff"/><path d="M139.79,191h11c.4,2.52,1.54,3.92,4.95,3.92,2.94,0,4.27-1.13,4.27-2.85s-1.67-2.46-6.48-3.12c-9.35-1.19-13.29-3.91-13.29-11.14,0-7.69,6.88-11.4,15-11.4,8.62,0,14.63,2.92,15.43,11.2H159.83c-.47-2.31-1.74-3.44-4.47-3.44s-3.94,1.13-3.94,2.72,1.6,2.32,5.87,2.85c9.69,1.19,14.36,3.71,14.36,11.13,0,8.22-6.14,11.93-15.83,11.93C145.87,202.77,140.06,198.66,139.79,191Z" fill="#fff"/><path d="M185.35,198.46l-14-31.15h13l7.22,18.49,6.68-18.49h11.42L191,213.58H179.54Z" fill="#fff"/><path d="M205.12,207.35l5.61-17.44,11.08,3.91-9.61,16.24Z" fill="#fff"/><path d="M24.92,254.48V239H20.71V231h4.21v-7.22H36.87V231h6.88V239H36.87v14.32c0,2.51,1.27,3.64,3.54,3.64a9.13,9.13,0,0,0,3.41-.6v9a25.25,25.25,0,0,1-6.62,1C29.32,266.41,24.92,262.64,24.92,254.48Z" fill="#fff"/><path d="M46.42,256c0-8.16,6.95-11.34,18.57-11.34h3.34v-.79c0-3.32-.8-5.5-4.61-5.5-3.27,0-4.47,1.92-4.74,4.1H47.76C48.29,234.13,54.9,230,64.45,230s15.77,3.91,15.77,13.13v22.47H68.6v-4.05c-1.67,2.52-4.75,4.84-10.36,4.84C52,266.41,46.42,263.36,46.42,256Zm21.91-2.52v-2.12H65.19c-4.81,0-6.95.92-6.95,3.78,0,2,1.34,3.24,4.14,3.24C65.79,258.39,68.33,256.47,68.33,253.49Z" fill="#fff"/><path d="M94.84,248,84,231H97.72l5.41,9.15L108.4,231h12.29l-11,16.11,12.09,18.56H108l-6.21-10.34-6.34,10.34H83.22Z" fill="#fff"/><path d="M120.23,248.72v-.53c0-11.14,8.34-18.17,18.9-18.17,9.55,0,17.76,5.44,17.76,17.9V251H132.31c.34,4.57,3,7.22,7.28,7.22,3.94,0,5.61-1.79,6.08-4.11h11.22c-1.07,7.82-7.14,12.26-17.7,12.26C128.24,266.41,120.23,260.05,120.23,248.72Zm25-4.38c-.2-4.17-2.27-6.49-6.14-6.49-3.61,0-6.08,2.32-6.68,6.49Z" fill="#fff"/><path d="M159,254.62h11c.4,2.51,1.53,3.91,4.94,3.91,2.94,0,4.28-1.13,4.28-2.85s-1.67-2.46-6.48-3.12c-9.35-1.19-13.29-3.91-13.29-11.14,0-7.68,6.88-11.4,15-11.4,8.61,0,14.62,2.92,15.42,11.21H179.07c-.47-2.32-1.74-3.45-4.48-3.45s-3.94,1.13-3.94,2.72,1.6,2.32,5.88,2.85c9.68,1.19,14.36,3.71,14.36,11.13,0,8.22-6.15,11.93-15.83,11.93C165.11,266.41,159.3,262.3,159,254.62Z" fill="#fff"/><path d="M23.31,294.59h12v5.31a12.22,12.22,0,0,1,10.95-6.24c4.61,0,7.82,2,9.48,5.77a13.91,13.91,0,0,1,11.56-5.77c6.61,0,11.42,4.25,11.42,12.93v22.67h-12V308.58c0-3.51-1.73-5.24-4.47-5.24-3.21,0-5.34,2.06-5.34,5.83v20.09H45.09V308.58c0-3.51-1.74-5.24-4.48-5.24-3.21,0-5.34,2.06-5.34,5.83v20.09h-12Z" fill="#fff"/><path d="M82.49,319.65c0-8.16,7-11.34,18.57-11.34h3.34v-.79c0-3.32-.81-5.5-4.61-5.5-3.27,0-4.48,1.92-4.74,4.11H83.83c.53-8.36,7.14-12.47,16.69-12.47s15.76,3.92,15.76,13.13v22.47H104.66v-4c-1.67,2.51-4.74,4.83-10.35,4.83C88,330.05,82.49,327,82.49,319.65Zm21.91-2.52V315h-3.14c-4.81,0-7,.93-7,3.78,0,2,1.34,3.24,4.14,3.24C101.86,322,104.4,320.11,104.4,317.13Z" fill="#fff"/><path d="M120.36,312.29v-.53c0-11.8,6.54-18.1,14.83-18.1,5.47,0,8.75,2.32,10.75,5.84V279.35h11.95v49.91H145.94v-5.64a11.79,11.79,0,0,1-10.89,6.43C127,330.05,120.36,324.29,120.36,312.29Zm25.91-.2v-.53c0-5.83-2.47-8.95-6.88-8.95s-6.88,3-6.88,9v.53c0,5.83,2.61,8.81,6.75,8.81C143.6,321,146.27,318,146.27,312.09Z" fill="#fff"/><path d="M162.1,312.36v-.53c0-11.14,8.35-18.17,18.9-18.17,9.56,0,17.77,5.44,17.77,17.9v3.12H174.19c.34,4.57,3,7.22,7.28,7.22,3.94,0,5.61-1.79,6.08-4.11h11.22c-1.07,7.82-7.15,12.26-17.7,12.26C170.12,330.05,162.1,323.69,162.1,312.36ZM187.15,308c-.2-4.17-2.27-6.49-6.15-6.49-3.6,0-6.07,2.32-6.67,6.49Z" fill="#fff"/><path d="M35.27,387.53v5.37h-12V343h12V363.4a12.35,12.35,0,0,1,10.88-6.1c8.15,0,14.76,6.1,14.76,18v.53c0,11.93-6.61,17.9-14.82,17.9C40.88,393.7,37,391.24,35.27,387.53ZM48.76,375.8v-.53c0-6.1-2.67-9-6.88-9s-7,3.12-7,8.95v.53c0,5.9,2.61,8.88,7,8.88S48.76,381.5,48.76,375.8Z" fill="#fff"/><path d="M65.26,358.23H77.21v6.9c2.21-5.17,5.88-7.43,11.29-7.36v11.07c-7.28-.2-11.29,2.05-11.29,7.62V392.9H65.26Z" fill="#fff"/><path d="M90.64,376v-.53c0-11.14,8.35-18.17,18.9-18.17,9.55,0,17.76,5.44,17.76,17.9v3.12H102.73c.33,4.57,3,7.22,7.28,7.22,3.94,0,5.61-1.79,6.07-4.11H127.3c-1.06,7.82-7.14,12.27-17.69,12.27C98.65,393.7,90.64,387.33,90.64,376Zm25-4.38c-.2-4.17-2.27-6.49-6.14-6.49-3.61,0-6.08,2.32-6.68,6.49Z" fill="#fff"/><path d="M129.58,376v-.53c0-11.14,8.35-18.17,18.9-18.17,9.55,0,17.76,5.44,17.76,17.9v3.12H141.67c.33,4.57,3,7.22,7.28,7.22,3.94,0,5.61-1.79,6.07-4.11h11.22c-1.07,7.82-7.14,12.27-17.7,12.27C137.59,393.7,129.58,387.33,129.58,376Zm25-4.38c-.2-4.17-2.27-6.49-6.14-6.49-3.61,0-6.08,2.32-6.68,6.49Z" fill="#fff"/><path d="M167.18,391.71l15.29-24.53H168.78v-8.95h30.79v1.26L183.88,384h14.89v8.95H167.18Z" fill="#fff"/><path d="M214.27,389.39l-14-31.16h12.95l7.22,18.5,6.68-18.5h11.42l-18.7,46.27H208.46Z" fill="#fff"/><path d="M236,386.93a6.63,6.63,0,0,1,6.81-6.69,6.7,6.7,0,1,1,0,13.39A6.63,6.63,0,0,1,236,386.93Z" fill="#fff"/></svg>