<svg xmlns="http://www.w3.org/2000/svg" viewBox="0 0 160 600"><title>txt1</title><g id="Layer_2" data-name="Layer 2"><g id="Rect"><rect width="160" height="600" fill="none"/></g><g id="Right_now_he_s_doing_his_taxes." data-name="Right now, he’s doing his taxes."><path d="M20.29,22.51h5.6c3.73,0,5.81,1.52,5.81,4.54v.08a3.74,3.74,0,0,1-2.58,3.76l3.42,5.92H28.23l-2.9-5.12h-1v5.12H20.29ZM25.69,29c1.38,0,2.06-.58,2.06-1.74v-.08c0-1.16-.72-1.62-2-1.62H24.37V29Z" fill="#fff"/><path d="M34.26,23.51a2,2,0,1,1,2,1.84A1.87,1.87,0,0,1,34.26,23.51Zm.18,2.84H38V36.81H34.44Z" fill="#fff"/><path d="M40.1,36.81h3.56c.16.76.62,1.36,1.92,1.36A2,2,0,0,0,47.79,36v-1.6a3.65,3.65,0,0,1-3.23,1.92c-2.44,0-4.44-1.8-4.44-5v-.16c0-3.08,2-5,4.44-5a3.39,3.39,0,0,1,3.23,1.76V26.35h3.58v9.58c0,3.12-2.06,4.76-5.79,4.76C42,40.69,40.38,39.19,40.1,36.81Zm7.79-5.56v-.14c0-1.44-.74-2.36-2-2.36s-2.06.94-2.06,2.38v.16c0,1.44.76,2.36,2,2.36S47.89,32.73,47.89,31.25Z" fill="#fff"/><path d="M53.93,21.75h3.58V28a3.69,3.69,0,0,1,3.44-2c2,0,3.42,1.26,3.42,3.94v6.8H60.79V30.73c0-1.18-.46-1.76-1.5-1.76s-1.78.64-1.78,2v5.86H53.93Z" fill="#fff"/><path d="M67.33,33.45V28.79H66.07V26.35h1.26V24.17H70.9v2.18H73v2.44H70.9v4.32A1,1,0,0,0,72,34.21,2.73,2.73,0,0,0,73,34v2.72a7.51,7.51,0,0,1-2,.3C68.64,37.05,67.33,35.91,67.33,33.45Z" fill="#fff"/><path d="M79.44,26.35H83V28a3.69,3.69,0,0,1,3.44-2c2,0,3.41,1.26,3.41,3.94v6.8H86.29V30.73c0-1.18-.46-1.76-1.49-1.76S83,29.61,83,31v5.86H79.44Z" fill="#fff"/><path d="M91.79,31.71v-.16c0-3.36,2.5-5.48,5.74-5.48s5.7,2.06,5.7,5.38v.16c0,3.4-2.5,5.44-5.72,5.44S91.79,35.09,91.79,31.71Zm7.8-.06v-.16c0-1.76-.7-2.74-2.06-2.74s-2.08.94-2.08,2.7v.16c0,1.8.7,2.78,2.08,2.78S99.59,33.39,99.59,31.65Z" fill="#fff"/><path d="M104,26.35h3.73l1.52,6.26L111,26.35h2.88l1.56,6.26,1.7-6.26h3.4l-3.32,10.46h-3.42L112.26,31l-1.62,5.84h-3.48Z" fill="#fff"/><path d="M120,38.43l1.68-5.26L125,34.35l-2.88,4.9Z" fill="#fff"/><path d="M20,43.75h3.58V50a3.69,3.69,0,0,1,3.44-2c2,0,3.41,1.26,3.41,3.94v6.8H26.83V52.73c0-1.18-.46-1.76-1.5-1.76s-1.78.64-1.78,2v5.86H20Z" fill="#fff"/><path d="M32.32,53.71v-.16A5.35,5.35,0,0,1,38,48.07c2.86,0,5.32,1.64,5.32,5.4v.94H35.94a2.09,2.09,0,0,0,2.18,2.18c1.18,0,1.68-.54,1.82-1.24H43.3c-.32,2.36-2.14,3.7-5.3,3.7S32.32,57.13,32.32,53.71Zm7.5-1.32c-.06-1.26-.68-2-1.84-2a2,2,0,0,0-2,2Z" fill="#fff"/><path d="M44.4,49.47,46,44.25l3.15,1.06-2.73,4.94Z" fill="#fff"/><path d="M48.7,55.49H52c.12.76.46,1.18,1.48,1.18s1.28-.34,1.28-.86-.5-.74-1.94-.94c-2.79-.36-4-1.18-4-3.36s2-3.44,4.47-3.44c2.58,0,4.38.88,4.62,3.38H54.69a1.17,1.17,0,0,0-1.34-1c-.78,0-1.18.34-1.18.82s.48.7,1.76.86c2.9.36,4.3,1.12,4.3,3.36,0,2.48-1.84,3.6-4.74,3.6S48.78,57.81,48.7,55.49Z" fill="#fff"/><path d="M64,53.69v-.16c0-3.56,2-5.46,4.44-5.46a3.39,3.39,0,0,1,3.21,1.76V43.75h3.58V58.81H71.64v-1.7a3.52,3.52,0,0,1-3.25,1.94C66,59.05,64,57.31,64,53.69Zm7.75-.06v-.16c0-1.76-.74-2.7-2.06-2.7s-2.05.9-2.05,2.72v.16c0,1.76.78,2.66,2,2.66S71.74,55.41,71.74,53.63Z" fill="#fff"/><path d="M77.22,53.71v-.16c0-3.36,2.5-5.48,5.74-5.48s5.7,2.06,5.7,5.38v.16c0,3.4-2.5,5.44-5.72,5.44S77.22,57.09,77.22,53.71Zm7.8-.06v-.16c0-1.76-.7-2.74-2.06-2.74s-2.08.94-2.08,2.7v.16c0,1.8.7,2.78,2.08,2.78S85,55.39,85,53.65Z" fill="#fff"/><path d="M90.57,45.51a2,2,0,1,1,2,1.84A1.87,1.87,0,0,1,90.57,45.51Zm.18,2.84h3.58V58.81H90.75Z" fill="#fff"/><path d="M97,48.35h3.58V50a3.69,3.69,0,0,1,3.44-2c2,0,3.42,1.26,3.42,3.94v6.8h-3.58V52.73c0-1.18-.46-1.76-1.5-1.76s-1.78.64-1.78,2v5.86H97Z" fill="#fff"/><path d="M109.33,58.81h3.55c.16.76.62,1.36,1.92,1.36A2,2,0,0,0,117,58v-1.6a3.67,3.67,0,0,1-3.24,1.92c-2.44,0-4.43-1.8-4.43-5v-.16c0-3.08,2-5,4.43-5A3.4,3.4,0,0,1,117,49.83V48.35h3.58v9.58c0,3.12-2.06,4.76-5.8,4.76C111.24,62.69,109.61,61.19,109.33,58.81Zm7.79-5.56v-.14c0-1.44-.74-2.36-2.06-2.36s-2.06.94-2.06,2.38v.16c0,1.44.76,2.36,2,2.36S117.12,54.73,117.12,53.25Z" fill="#fff"/><path d="M20,65.75h3.58V72a3.69,3.69,0,0,1,3.44-2c2,0,3.41,1.26,3.41,3.94v6.8H26.83V74.73c0-1.18-.46-1.76-1.5-1.76s-1.78.64-1.78,2v5.86H20Z" fill="#fff"/><path d="M32.8,67.51a2,2,0,1,1,2,1.84A1.87,1.87,0,0,1,32.8,67.51ZM33,70.35h3.58V80.81H33Z" fill="#fff"/><path d="M38.52,77.49h3.3c.12.76.46,1.18,1.48,1.18s1.28-.34,1.28-.86-.5-.74-1.94-.94c-2.8-.36-4-1.18-4-3.36s2.06-3.44,4.48-3.44c2.58,0,4.38.88,4.61,3.38H44.52a1.17,1.17,0,0,0-1.34-1c-.78,0-1.18.34-1.18.82s.48.7,1.76.86c2.9.36,4.29,1.12,4.29,3.36,0,2.48-1.83,3.6-4.73,3.6S38.6,79.81,38.52,77.49Z" fill="#fff"/><path d="M54.81,77.45V72.79H53.55V70.35h1.26V68.17h3.58v2.18h2.06v2.44H58.39v4.32a1,1,0,0,0,1.06,1.1,2.73,2.73,0,0,0,1-.18v2.72a7.51,7.51,0,0,1-2,.3C56.13,81.05,54.81,79.91,54.81,77.45Z" fill="#fff"/><path d="M62,77.91c0-2.46,2.08-3.42,5.55-3.42h1v-.24c0-1-.24-1.66-1.37-1.66a1.28,1.28,0,0,0-1.42,1.24H62.39c.16-2.52,2.14-3.76,5-3.76s4.71,1.18,4.71,4v6.78H68.62V79.59a3.42,3.42,0,0,1-3.09,1.46C63.65,81.05,62,80.13,62,77.91Zm6.55-.76v-.64H67.6c-1.43,0-2.07.28-2.07,1.14,0,.6.4,1,1.24,1A1.57,1.57,0,0,0,68.54,77.15Z" fill="#fff"/><path d="M77.22,75.49,74,70.35h4.12l1.62,2.76,1.58-2.76H85l-3.3,4.86,3.62,5.6H81.16L79.3,77.69l-1.9,3.12H73.74Z" fill="#fff"/><path d="M85.56,75.71v-.16a5.34,5.34,0,0,1,5.65-5.48c2.86,0,5.32,1.64,5.32,5.4v.94H89.17a2.09,2.09,0,0,0,2.18,2.18c1.18,0,1.68-.54,1.82-1.24h3.36c-.32,2.36-2.14,3.7-5.3,3.7S85.56,79.13,85.56,75.71Zm7.49-1.32c-.06-1.26-.68-2-1.84-2a2,2,0,0,0-2,2Z" fill="#fff"/><path d="M97.91,77.49h3.3c.12.76.46,1.18,1.48,1.18s1.28-.34,1.28-.86-.5-.74-1.94-.94c-2.8-.36-4-1.18-4-3.36s2.06-3.44,4.48-3.44c2.58,0,4.38.88,4.62,3.38h-3.24a1.17,1.17,0,0,0-1.34-1c-.78,0-1.18.34-1.18.82s.48.7,1.76.86c2.9.36,4.3,1.12,4.3,3.36,0,2.48-1.84,3.6-4.74,3.6S98,79.81,97.91,77.49Z" fill="#fff"/><path d="M109.21,79a2,2,0,0,1,2-2,2,2,0,1,1,0,4A2,2,0,0,1,109.21,79Z" fill="#fff"/></g></g></svg>