<svg xmlns="http://www.w3.org/2000/svg" viewBox="0 0 160 600"><title>txt2</title><g id="Layer_2" data-name="Layer 2"><g id="Rect"><rect width="160" height="600" fill="none"/></g><g id="Expert_tax_prep_without_the_office_visit." data-name="Expert tax prep without the office  visit."><path d="M21.15,96.43H30v2.85H24.82v2.21H29v2.63H24.82v2.34h5.51v2.84H21.15Z" fill="#fff"/><path d="M34.28,104.52l-2.93-4.63h3.71l1.46,2.48,1.42-2.48h3.31l-3,4.37,3.25,5h-3.7l-1.67-2.8-1.71,2.8h-3.3Z" fill="#fff"/><path d="M42.7,99.89h3.22v1.4a3.33,3.33,0,0,1,2.94-1.65c2.19,0,4,1.65,4,4.88v.14c0,3.24-1.78,4.86-4,4.86a3.12,3.12,0,0,1-2.92-1.6v4.54H42.7Zm6.86,4.77v-.14c0-1.66-.72-2.45-1.85-2.45s-1.88.84-1.88,2.43v.14c0,1.6.71,2.41,1.88,2.41S49.56,106.21,49.56,104.66Z" fill="#fff"/><path d="M53.77,104.71v-.14a4.81,4.81,0,0,1,5.09-4.93,4.47,4.47,0,0,1,4.79,4.86v.84H57a1.88,1.88,0,0,0,2,2c1.06,0,1.51-.49,1.63-1.12h3c-.29,2.12-1.93,3.33-4.77,3.33S53.77,107.79,53.77,104.71Zm6.74-1.19c0-1.13-.61-1.76-1.65-1.76a1.79,1.79,0,0,0-1.8,1.76Z" fill="#fff"/><path d="M65,99.89h3.22v1.87a3,3,0,0,1,3-2v3c-2-.06-3,.56-3,2.07v4.46H65Z" fill="#fff"/><path d="M73.31,106.28v-4.2H72.17V99.89h1.14v-2h3.22v2h1.85v2.19H76.53V106c0,.69.34,1,1,1a2.43,2.43,0,0,0,.92-.16v2.45a6.74,6.74,0,0,1-1.78.27C74.49,109.52,73.31,108.49,73.31,106.28Z" fill="#fff"/><path d="M83.85,106.28v-4.2H82.72V99.89h1.13v-2h3.22v2h1.85v2.19H87.07V106c0,.69.34,1,1,1a2.43,2.43,0,0,0,.92-.16v2.45a6.61,6.61,0,0,1-1.78.27C85,109.52,83.85,108.49,83.85,106.28Z" fill="#fff"/><path d="M89.91,106.69c0-2.21,1.87-3.07,5-3.07h.9v-.22c0-.9-.21-1.5-1.24-1.5A1.17,1.17,0,0,0,93.29,103h-3c.15-2.27,1.93-3.38,4.5-3.38S99,100.7,99,103.2v6.1H95.88v-1.09a3.08,3.08,0,0,1-2.78,1.31C91.41,109.52,89.91,108.69,89.91,106.69Zm5.9-.68v-.58H95c-1.3,0-1.87.26-1.87,1,0,.54.36.88,1.11.88C95.13,107.34,95.81,106.82,95.81,106Z" fill="#fff"/><path d="M103.22,104.52l-2.93-4.63H104l1.46,2.48,1.42-2.48h3.31l-3,4.37,3.25,5h-3.7l-1.67-2.8-1.71,2.8h-3.3Z" fill="#fff"/><path d="M20.86,119.89h3.22v1.4A3.33,3.33,0,0,1,27,119.64c2.19,0,4,1.65,4,4.88v.14c0,3.24-1.78,4.86-4,4.86a3.12,3.12,0,0,1-2.92-1.6v4.54H20.86Zm6.86,4.77v-.14c0-1.66-.72-2.45-1.86-2.45S24,122.91,24,124.5v.14c0,1.6.71,2.41,1.87,2.41S27.72,126.21,27.72,124.66Z" fill="#fff"/><path d="M32.43,119.89h3.22v1.87a3,3,0,0,1,3-2v3c-2-.06-3,.56-3,2.07v4.46H32.43Z" fill="#fff"/><path d="M39.54,124.71v-.14a4.81,4.81,0,0,1,5.09-4.93c2.57,0,4.78,1.47,4.78,4.86v.84H42.79a1.88,1.88,0,0,0,2,2c1.06,0,1.51-.49,1.63-1.12h3c-.28,2.12-1.92,3.33-4.76,3.33S39.54,127.79,39.54,124.71Zm6.74-1.19c-.05-1.13-.61-1.76-1.65-1.76a1.79,1.79,0,0,0-1.8,1.76Z" fill="#fff"/><path d="M50.8,119.89H54v1.4A3.31,3.31,0,0,1,57,119.64c2.2,0,4,1.65,4,4.88v.14c0,3.24-1.78,4.86-4,4.86a3.11,3.11,0,0,1-2.91-1.6v4.54H50.8Zm6.85,4.77v-.14c0-1.66-.72-2.45-1.85-2.45s-1.87.84-1.87,2.43v.14c0,1.6.7,2.41,1.87,2.41S57.65,126.21,57.65,124.66Z" fill="#fff"/><path d="M65.12,119.89h3.36l1.37,5.63,1.59-5.63H74l1.4,5.63L77,119.89H80l-3,9.41H74l-1.4-5.25-1.46,5.25H68Z" fill="#fff"/><path d="M81,117.33a1.68,1.68,0,0,1,1.76-1.67,1.67,1.67,0,1,1,0,3.33A1.67,1.67,0,0,1,81,117.33Zm.16,2.56h3.22v9.41H81.2Z" fill="#fff"/><path d="M86.85,126.28v-4.2H85.72v-2.19h1.13v-2h3.22v2h1.86v2.19H90.07V126a.86.86,0,0,0,1,1,2.35,2.35,0,0,0,.91-.16v2.45a6.61,6.61,0,0,1-1.78.27C88,129.52,86.85,128.49,86.85,126.28Z" fill="#fff"/><path d="M93.42,115.75h3.22v5.65a3.32,3.32,0,0,1,3.09-1.76c1.82,0,3.08,1.13,3.08,3.54v6.12H99.59v-5.47c0-1.06-.41-1.58-1.35-1.58s-1.6.57-1.6,1.78v5.27H93.42Z" fill="#fff"/><path d="M104.14,124.71v-.14a4.83,4.83,0,0,1,5.17-4.93c2.89,0,5.12,1.85,5.12,4.84v.14c0,3.06-2.25,4.9-5.14,4.9S104.14,127.76,104.14,124.71Zm7,0v-.14c0-1.59-.63-2.47-1.85-2.47s-1.88.84-1.88,2.43v.14c0,1.62.63,2.51,1.88,2.51S111.16,126.23,111.16,124.66Z" fill="#fff"/><path d="M115.76,126v-6.14H119v5.62c0,1.06.42,1.58,1.34,1.58s1.6-.58,1.6-1.78v-5.42h3.22v9.41h-3.22v-1.45a3.1,3.1,0,0,1-3,1.67C117.11,129.52,115.76,128.4,115.76,126Z" fill="#fff"/><path d="M127.48,126.28v-4.2h-1.14v-2.19h1.14v-2h3.22v2h1.85v2.19H130.7V126c0,.69.34,1,1,1a2.43,2.43,0,0,0,.92-.16v2.45a6.74,6.74,0,0,1-1.78.27C128.66,129.52,127.48,128.49,127.48,126.28Z" fill="#fff"/><path d="M21.3,146.28v-4.2H20.16v-2.19H21.3v-2h3.22v2h1.85v2.19H24.52V146c0,.69.34,1,.95,1a2.43,2.43,0,0,0,.92-.16v2.45a6.74,6.74,0,0,1-1.78.27C22.48,149.52,21.3,148.49,21.3,146.28Z" fill="#fff"/><path d="M27.86,135.75h3.22v5.65a3.33,3.33,0,0,1,3.1-1.76c1.81,0,3.07,1.13,3.07,3.54v6.12H34v-5.47c0-1.06-.41-1.58-1.35-1.58s-1.6.57-1.6,1.78v5.27H27.86Z" fill="#fff"/><path d="M38.58,144.71v-.14a4.81,4.81,0,0,1,5.1-4.93c2.57,0,4.78,1.47,4.78,4.86v.84H41.84a1.88,1.88,0,0,0,2,2c1.06,0,1.51-.49,1.64-1.12h3c-.29,2.12-1.92,3.33-4.77,3.33S38.58,147.79,38.58,144.71Zm6.75-1.19c0-1.13-.61-1.76-1.65-1.76a1.78,1.78,0,0,0-1.8,1.76Z" fill="#fff"/><path d="M52.89,144.71v-.14a4.83,4.83,0,0,1,5.16-4.93c2.9,0,5.13,1.85,5.13,4.84v.14c0,3.06-2.25,4.9-5.15,4.9S52.89,147.76,52.89,144.71Zm7-.05v-.14c0-1.59-.63-2.47-1.85-2.47s-1.87.84-1.87,2.43v.14c0,1.62.63,2.51,1.87,2.51S59.9,146.23,59.9,144.66Z" fill="#fff"/><path d="M65.07,142.08H63.88v-2.19h1.19v-.72c0-2.34,1.44-3.44,3.67-3.44a5.38,5.38,0,0,1,1.44.18v2.36a3,3,0,0,0-.87-.13.94.94,0,0,0-1,1v.72H71v-.83c0-2.34,1.48-3.46,3.69-3.46a5.69,5.69,0,0,1,1.48.2v2.36a3,3,0,0,0-.88-.13,1,1,0,0,0-1.07,1v.83h1.91v2.19H74.22v7.22H71v-7.22H68.27v7.22h-3.2Z" fill="#fff"/><path d="M77.39,137.33A1.77,1.77,0,1,1,79.15,139,1.68,1.68,0,0,1,77.39,137.33Zm.16,2.56h3.22v9.41H77.55Z" fill="#fff"/><path d="M82.27,144.71v-.14a4.73,4.73,0,0,1,5-4.93c2.3,0,4.42,1,4.6,3.87h-3a1.39,1.39,0,0,0-1.51-1.37c-1.14,0-1.8.81-1.8,2.39v.15c0,1.64.63,2.48,1.85,2.48a1.57,1.57,0,0,0,1.64-1.56H92c-.1,2.37-1.7,3.92-4.74,3.92C84.41,149.52,82.27,147.88,82.27,144.71Z" fill="#fff"/><path d="M92.75,144.71v-.14a4.81,4.81,0,0,1,5.1-4.93c2.57,0,4.78,1.47,4.78,4.86v.84H96a1.88,1.88,0,0,0,2,2c1.06,0,1.51-.49,1.64-1.12h3c-.29,2.12-1.92,3.33-4.77,3.33S92.75,147.79,92.75,144.71Zm6.75-1.19c0-1.13-.61-1.76-1.65-1.76a1.78,1.78,0,0,0-1.8,1.76Z" fill="#fff"/><path d="M20.05,159.89h3.44l2,6.07,1.93-6.07h3.07L27,169.3H23.51Z" fill="#fff"/><path d="M31.46,157.33A1.77,1.77,0,1,1,33.22,159,1.68,1.68,0,0,1,31.46,157.33Zm.16,2.56h3.22v9.41H31.62Z" fill="#fff"/><path d="M36.21,166.32h3c.11.68.41,1.06,1.33,1.06s1.15-.31,1.15-.78-.45-.66-1.74-.84c-2.52-.33-3.58-1.06-3.58-3s1.85-3.09,4-3.09,3.94.79,4.15,3H41.61a1.06,1.06,0,0,0-1.21-.94c-.7,0-1.06.31-1.06.74s.43.63,1.58.77c2.61.33,3.87,1,3.87,3,0,2.23-1.65,3.24-4.26,3.24S36.28,168.4,36.21,166.32Z" fill="#fff"/><path d="M46,157.33A1.78,1.78,0,1,1,47.8,159,1.69,1.69,0,0,1,46,157.33Zm.16,2.56h3.22v9.41H46.19Z" fill="#fff"/><path d="M51.84,166.28v-4.2H50.71v-2.19h1.13v-2h3.22v2h1.86v2.19H55.06V166a.86.86,0,0,0,1,1,2.35,2.35,0,0,0,.91-.16v2.45a6.61,6.61,0,0,1-1.78.27C53,169.52,51.84,168.49,51.84,166.28Z" fill="#fff"/><path d="M58.28,167.68a1.8,1.8,0,0,1,1.84-1.81,1.82,1.82,0,1,1,0,3.63A1.8,1.8,0,0,1,58.28,167.68Z" fill="#fff"/></g></g></svg>