<svg xmlns="http://www.w3.org/2000/svg" viewBox="0 0 120.62 31.81"><title>Asset 1</title><rect width="120.62" height="31.81" fill="none"/><path d="M16.52,12.54H13.8V10.78h7.75v1.76H18.83v8.25H16.52Z" transform="translate(0)" fill="#262626"/><path d="M22.1,13.47h2v1.4a2.41,2.41,0,0,1,2.38-1.51v1.89c-1.51,0-2.38.47-2.38,1.87v3.67h-2Z" transform="translate(0)" fill="#262626"/><path d="M30,20.05l-2.94-6.58h2.2l1.8,4.4,1.65-4.4h2l-4,9.82h-2Z" transform="translate(0)" fill="#262626"/><path d="M40.63,12.54H37.91V10.78h7.74v1.76H42.93v8.25h-2.3Z" transform="translate(0)" fill="#262626"/><path d="M45.29,18.76c0-1.71,1.58-2.35,3.84-2.35H50v-.29c0-.87-.27-1.35-1.2-1.35a1.12,1.12,0,0,0-1.26,1H45.57c.13-1.74,1.51-2.51,3.32-2.51S52,14,52,16v4.77H50v-.88a2.53,2.53,0,0,1-2.23,1C46.42,21,45.29,20.3,45.29,18.76ZM50,18.23v-.62h-.79c-1.19,0-1.88.26-1.88,1,0,.53.32.88,1.07.88C49.27,19.53,50,19,50,18.23Z" transform="translate(0)" fill="#262626"/><path d="M55.38,17.05,53,13.47h2.34l1.39,2.2,1.35-2.2h2.12L57.86,16.9l2.6,3.89H58.1l-1.55-2.46L55,20.79h-2.1Z" transform="translate(0)" fill="#262626"/><path d="M64.51,10.78H68c2.46,0,3.86,1.08,3.86,3.19V14c0,2.11-1.49,3.12-3.79,3.12H66.78v3.64H64.51Zm3.43,4.79c1.11,0,1.7-.53,1.7-1.53v0c0-1.07-.62-1.49-1.7-1.49H66.78v3.07Z" transform="translate(0)" fill="#262626"/><path d="M73,13.47h2v1.4a2.43,2.43,0,0,1,2.39-1.51v1.89c-1.51,0-2.39.47-2.39,1.87v3.67H73Z" transform="translate(0)" fill="#262626"/><path d="M77.93,17.21V17.1a3.89,3.89,0,0,1,7.78-.05v.12a3.89,3.89,0,0,1-7.78,0Zm5.7,0v-.1c0-1.4-.66-2.24-1.81-2.24s-1.8.81-1.8,2.21v.12c0,1.4.65,2.24,1.8,2.24S83.63,18.57,83.63,17.18Z" transform="translate(0)" fill="#262626"/><path d="M89.44,15.85v-.11a4.94,4.94,0,0,1,5.14-5.12c2.25,0,4.25,1,4.49,3.51H96.8a2,2,0,0,0-2.19-1.71c-1.75,0-2.78,1.3-2.78,3.35v.11c0,1.93.83,3.32,2.81,3.32a2.13,2.13,0,0,0,2.43-2.12H94.79V15.43h4.53v1.06c0,2.68-1.72,4.46-4.74,4.46A4.77,4.77,0,0,1,89.44,15.85Z" transform="translate(0)" fill="#262626"/><path d="M100.13,17.21V17.1A3.69,3.69,0,0,1,104,13.3a3.65,3.65,0,0,1,3.88,3.75v.12a3.89,3.89,0,0,1-7.77,0Zm5.7,0v-.1c0-1.4-.66-2.24-1.81-2.24s-1.8.81-1.8,2.21v.12c0,1.4.65,2.24,1.8,2.24S105.83,18.57,105.83,17.18Z" transform="translate(0)" fill="#262626"/></svg>