<svg xmlns="http://www.w3.org/2000/svg" viewBox="0 0 300 250"><title>Asset 5</title><rect width="300" height="250" fill="none"/><path d="M24,45.7h7.26c7.1,0,10.71,3.52,10.71,9.67v.22c0,6.18-3.69,9.92-10.73,9.92H24ZM31,61.13c3.41,0,4.92-1.77,4.92-5.45v-.23c0-3.76-1.51-5.37-5-5.37H29.72V61.13Z" fill="#fff"/><path d="M43.07,58.45v-.22c0-4.66,3.49-7.6,8-7.6s8,2.86,8,7.46v.22c0,4.71-3.49,7.54-8,7.54S43.07,63.13,43.07,58.45ZM54,58.36v-.22c0-2.44-1-3.79-2.87-3.79s-2.91,1.3-2.91,3.74v.22c0,2.49,1,3.85,2.91,3.85S54,60.77,54,58.36Z" fill="#fff"/><path d="M60.81,51h5v2.33a5.15,5.15,0,0,1,4.8-2.72c2.83,0,4.78,1.75,4.78,5.46v9.42h-5V57.09c0-1.64-.64-2.44-2.1-2.44s-2.48.89-2.48,2.74v8.12h-5Z" fill="#fff"/><path d="M77,52.57l2.24-7.23,4.41,1.47-3.83,6.84Z" fill="#fff"/><path d="M85.56,60.86V54.4H83.8V51h1.76V48h5v3h2.88V54.4H90.56v6A1.33,1.33,0,0,0,92,61.91a3.71,3.71,0,0,0,1.42-.25v3.77a10.34,10.34,0,0,1-2.76.42C87.4,65.85,85.56,64.27,85.56,60.86Z" fill="#fff"/><path d="M100.56,44.65h5V65.51h-5Z" fill="#fff"/><path d="M107.43,58.45v-.22c0-4.66,3.49-7.6,7.91-7.6,4,0,7.43,2.28,7.43,7.48v1.31H112.49a2.9,2.9,0,0,0,3,3c1.65,0,2.35-.75,2.54-1.72h4.7c-.45,3.27-3,5.13-7.41,5.13C110.78,65.85,107.43,63.19,107.43,58.45Zm10.48-1.83c-.09-1.75-1-2.72-2.57-2.72a2.77,2.77,0,0,0-2.8,2.72Z" fill="#fff"/><path d="M123.8,61.5c0-3.41,2.91-4.74,7.77-4.74H133v-.34c0-1.38-.33-2.3-1.92-2.3a1.8,1.8,0,0,0-2,1.72h-4.69c.22-3.49,3-5.21,7-5.21s6.6,1.64,6.6,5.49v9.39h-4.86V63.82a4.81,4.81,0,0,1-4.33,2C126.12,65.85,123.8,64.57,123.8,61.5ZM133,60.44v-.88h-1.31c-2,0-2.9.38-2.9,1.57,0,.84.55,1.36,1.73,1.36C131.9,62.49,133,61.69,133,60.44Z" fill="#fff"/><path d="M138.69,51H144l3,9.34,3-9.34h4.78L149.5,65.51h-5.45Z" fill="#fff"/><path d="M154.53,58.45v-.22c0-4.66,3.49-7.6,7.9-7.6,4,0,7.44,2.28,7.44,7.48v1.31H159.58a2.91,2.91,0,0,0,3,3c1.65,0,2.35-.75,2.54-1.72h4.7c-.45,3.27-3,5.13-7.41,5.13C157.88,65.85,154.53,63.19,154.53,58.45ZM165,56.62c-.08-1.75-.95-2.72-2.57-2.72a2.77,2.77,0,0,0-2.79,2.72Z" fill="#fff"/><path d="M176.68,44.65h5v8.7a5.17,5.17,0,0,1,4.81-2.72c2.82,0,4.77,1.75,4.77,5.46v9.42h-5V57.09c0-1.64-.64-2.44-2.09-2.44s-2.49.89-2.49,2.74v8.12h-5Z" fill="#fff"/><path d="M192.91,58.45v-.22c0-4.66,3.49-7.6,8-7.6s8,2.86,8,7.46v.22c0,4.71-3.49,7.54-8,7.54S192.91,63.13,192.91,58.45Zm10.9-.09v-.22c0-2.44-1-3.79-2.88-3.79S198,55.65,198,58.09v.22c0,2.49,1,3.85,2.91,3.85S203.81,60.77,203.81,58.36Z" fill="#fff"/><path d="M210.65,51h5v2.22a5.11,5.11,0,0,1,4.58-2.61,4,4,0,0,1,4,2.41A5.81,5.81,0,0,1,229,50.63c2.77,0,4.78,1.78,4.78,5.41v9.47h-5V56.87c0-1.47-.73-2.19-1.87-2.19a2.16,2.16,0,0,0-2.24,2.44v8.39h-4.94V56.87c0-1.47-.73-2.19-1.87-2.19a2.16,2.16,0,0,0-2.24,2.44v8.39h-5Z" fill="#fff"/><path d="M235.46,58.45v-.22c0-4.66,3.49-7.6,7.9-7.6,4,0,7.43,2.28,7.43,7.48v1.31H240.51a2.91,2.91,0,0,0,3.05,3c1.65,0,2.35-.75,2.54-1.72h4.69c-.44,3.27-3,5.13-7.4,5.13C238.81,65.85,235.46,63.19,235.46,58.45Zm10.47-1.83c-.08-1.75-1-2.72-2.57-2.72s-2.54,1-2.79,2.72Z" fill="#fff"/><path d="M24.27,85.54H22.42V82.15h1.85V80.88c0-3.6,2.26-5.32,5.73-5.32a9.29,9.29,0,0,1,2.29.3v3.63a4.71,4.71,0,0,0-1.37-.19,1.46,1.46,0,0,0-1.68,1.58v1.27h3v3.39h-3V96.65h-5Z" fill="#fff"/><path d="M32.59,89.58v-.22c0-4.66,3.49-7.59,8-7.59s8,2.85,8,7.45v.22c0,4.71-3.49,7.54-8,7.54S32.59,94.26,32.59,89.58Zm10.9-.08v-.22c0-2.44-1-3.8-2.88-3.8s-2.9,1.3-2.9,3.74v.22c0,2.5,1,3.85,2.9,3.85S43.49,91.91,43.49,89.5Z" fill="#fff"/><path d="M50.33,82.15h5V85A4.61,4.61,0,0,1,60.05,82v4.63c-3-.09-4.72.86-4.72,3.18v6.88h-5Z" fill="#fff"/><path d="M67.62,92V85.54H65.86V82.15h1.76v-3h5v3H75.5v3.39H72.62v6A1.33,1.33,0,0,0,74.1,93a4,4,0,0,0,1.43-.24v3.76a10.36,10.36,0,0,1-2.77.42C69.47,97,67.62,95.4,67.62,92Z" fill="#fff"/><path d="M76.62,92.63c0-3.41,2.9-4.74,7.76-4.74h1.4v-.33c0-1.39-.33-2.3-1.93-2.3a1.78,1.78,0,0,0-2,1.72H77.18c.22-3.5,3-5.21,7-5.21s6.59,1.63,6.59,5.48v9.4H85.89V95a4.81,4.81,0,0,1-4.33,2C78.94,97,76.62,95.71,76.62,92.63Zm9.16-1v-.89H84.47c-2,0-2.91.39-2.91,1.58,0,.83.56,1.36,1.73,1.36C84.72,93.63,85.78,92.82,85.78,91.58Z" fill="#fff"/><path d="M96.87,89.28l-4.55-7.13h5.75L100.33,86l2.21-3.83h5.14l-4.61,6.74,5.06,7.76h-5.76l-2.59-4.33-2.66,4.33H92Z" fill="#fff"/><path d="M114.61,82.15h5v2.17a5.16,5.16,0,0,1,4.55-2.55c3.41,0,6.18,2.55,6.18,7.51v.22c0,5-2.77,7.48-6.2,7.48a4.84,4.84,0,0,1-4.53-2.47v7h-5Zm10.64,7.35v-.22c0-2.55-1.11-3.77-2.87-3.77s-2.91,1.3-2.91,3.74v.22c0,2.47,1.09,3.71,2.91,3.71S125.25,91.88,125.25,89.5Z" fill="#fff"/><path d="M132.15,82.15h5V85A4.61,4.61,0,0,1,141.87,82v4.63c-3-.09-4.72.86-4.72,3.18v6.88h-5Z" fill="#fff"/><path d="M142.77,89.58v-.22c0-4.66,3.49-7.59,7.9-7.59,4,0,7.43,2.27,7.43,7.48v1.3H147.82a2.91,2.91,0,0,0,3.05,3c1.65,0,2.35-.75,2.54-1.72h4.69c-.44,3.27-3,5.13-7.4,5.13C146.12,97,142.77,94.32,142.77,89.58Zm10.47-1.83c-.08-1.74-1-2.71-2.57-2.71a2.76,2.76,0,0,0-2.79,2.71Z" fill="#fff"/><path d="M159.83,82.15h5v2.17a5.16,5.16,0,0,1,4.56-2.55c3.41,0,6.17,2.55,6.17,7.51v.22c0,5-2.76,7.48-6.2,7.48a4.84,4.84,0,0,1-4.53-2.47v7h-5Zm10.65,7.35v-.22c0-2.55-1.12-3.77-2.88-3.77s-2.9,1.3-2.9,3.74v.22c0,2.47,1.09,3.71,2.9,3.71S170.48,91.88,170.48,89.5Z" fill="#fff"/><path d="M176.82,94.15a2.78,2.78,0,0,1,2.85-2.8,2.8,2.8,0,1,1,0,5.6A2.77,2.77,0,0,1,176.82,94.15Z" fill="#fff"/><path d="M190.34,88.61V76.83h5.73V88.36c0,2.8.69,4.16,3.13,4.16s3.12-1.28,3.12-4.24V76.83h5.79v11.7c0,5.76-3.41,8.45-8.91,8.45S190.34,94.15,190.34,88.61Z" fill="#fff"/><path d="M210.82,82.15h5v2.33a5.16,5.16,0,0,1,4.8-2.71c2.82,0,4.78,1.74,4.78,5.46v9.42h-5V88.22c0-1.63-.64-2.44-2.1-2.44s-2.48.89-2.48,2.75v8.12h-5Z" fill="#fff"/><path d="M228,75.78h5V96.65h-5Z" fill="#fff"/><path d="M234.84,89.58v-.22c0-4.66,3.49-7.59,7.91-7.59,4,0,7.43,2.27,7.43,7.48v1.3H239.9a2.9,2.9,0,0,0,3,3c1.65,0,2.35-.75,2.54-1.72h4.7c-.45,3.27-3,5.13-7.41,5.13C238.19,97,234.84,94.32,234.84,89.58Zm10.48-1.83c-.09-1.74-.95-2.71-2.57-2.71a2.77,2.77,0,0,0-2.8,2.71Z" fill="#fff"/><path d="M251.07,92.05h4.61c.17,1,.64,1.63,2.07,1.63,1.22,0,1.78-.47,1.78-1.19s-.7-1-2.71-1.3c-3.91-.5-5.56-1.64-5.56-4.66,0-3.21,2.88-4.76,6.26-4.76,3.61,0,6.12,1.22,6.46,4.68h-4.53A1.63,1.63,0,0,0,257.58,85c-1.09,0-1.65.47-1.65,1.14s.67,1,2.46,1.19c4.05.49,6,1.55,6,4.65,0,3.44-2.57,5-6.63,5S251.18,95.26,251.07,92.05Z" fill="#fff"/><path d="M265.12,92.05h4.61c.17,1,.64,1.63,2.07,1.63,1.23,0,1.79-.47,1.79-1.19s-.7-1-2.71-1.3c-3.92-.5-5.56-1.64-5.56-4.66,0-3.21,2.87-4.76,6.25-4.76,3.61,0,6.12,1.22,6.46,4.68H273.5A1.62,1.62,0,0,0,271.63,85c-1.09,0-1.65.47-1.65,1.14s.67,1,2.46,1.19c4.05.49,6,1.55,6,4.65,0,3.44-2.57,5-6.62,5S265.23,95.26,265.12,92.05Z" fill="#fff"/><path d="M28.1,126.31l-5.84-13h5.42l3,7.73,2.8-7.73h4.78l-7.83,19.34H25.66Z" fill="#fff"/><path d="M38,120.71v-.22c0-4.65,3.5-7.59,8-7.59s8,2.85,8,7.45v.23c0,4.71-3.49,7.53-8,7.53S38,125.4,38,120.71Zm10.9-.08v-.22c0-2.44-1-3.8-2.88-3.8s-2.9,1.31-2.9,3.74v.23c0,2.49,1,3.85,2.9,3.85S48.88,123,48.88,120.63Z" fill="#fff"/><path d="M55.61,122.74v-9.45h5v8.64c0,1.64.64,2.44,2.07,2.44s2.49-.88,2.49-2.74v-8.34h5v14.49h-5v-2.24a4.83,4.83,0,0,1-4.64,2.57C57.71,128.11,55.61,126.39,55.61,122.74Z" fill="#fff"/><path d="M76.56,113.29h5.23L83.91,122l2.46-8.67h4L92.57,122l2.37-8.67h4.75l-4.63,14.49H90.28l-2.18-8.09-2.26,8.09H81Z" fill="#fff"/><path d="M99.58,123.76c0-3.41,2.91-4.74,7.77-4.74h1.39v-.33c0-1.38-.33-2.3-1.92-2.3a1.8,1.8,0,0,0-2,1.72h-4.69c.22-3.49,3-5.21,7-5.21s6.6,1.64,6.6,5.49v9.39h-4.86v-1.69a4.83,4.83,0,0,1-4.34,2C101.9,128.11,99.58,126.84,99.58,123.76Zm9.16-1.05v-.89h-1.31c-2,0-2.91.39-2.91,1.58,0,.83.56,1.36,1.74,1.36C107.68,124.76,108.74,124,108.74,122.71Z" fill="#fff"/><path d="M116.15,113.29h5v2.33a5.15,5.15,0,0,1,4.8-2.72c2.82,0,4.78,1.75,4.78,5.46v9.42h-5v-8.42c0-1.64-.64-2.44-2.1-2.44s-2.48.88-2.48,2.74v8.12h-5Z" fill="#fff"/><path d="M133.83,123.12v-6.45h-1.76v-3.38h1.76v-3h5v3h2.88v3.38h-2.88v6a1.33,1.33,0,0,0,1.48,1.53,3.91,3.91,0,0,0,1.42-.25v3.77a10.84,10.84,0,0,1-2.76.41C135.67,128.11,133.83,126.53,133.83,123.12Z" fill="#fff"/><path d="M149.36,123.12v-6.45H147.6v-3.38h1.76v-3h5v3h2.88v3.38h-2.88v6a1.33,1.33,0,0,0,1.48,1.53,4,4,0,0,0,1.43-.25v3.77a11,11,0,0,1-2.77.41C151.2,128.11,149.36,126.53,149.36,123.12Z" fill="#fff"/><path d="M158.35,120.71v-.22c0-4.65,3.5-7.59,8-7.59s8,2.85,8,7.45v.23c0,4.71-3.49,7.53-8,7.53S158.35,125.4,158.35,120.71Zm10.9-.08v-.22c0-2.44-1-3.8-2.88-3.8s-2.9,1.31-2.9,3.74v.23c0,2.49,1,3.85,2.9,3.85S169.25,123,169.25,120.63Z" fill="#fff"/><path d="M175.28,125.29a2.77,2.77,0,0,1,2.85-2.8,2.8,2.8,0,1,1,0,5.59A2.77,2.77,0,0,1,175.28,125.29Z" fill="#fff"/></svg>