<svg xmlns="http://www.w3.org/2000/svg" viewBox="0 0 160 600"><title>160x600_legal</title><g id="Layer_2" data-name="Layer 2"><g id="_Starting_price_for_simple_returns." data-name="*Starting price for simple returns."><path d="M20.57,410.43l.67-.89-1-.24.18-.54.95.39-.06-1.08h.59l-.05,1.08.94-.39.18.54-1,.24.67.89-.46.33-.59-1-.57,1Z" fill="#fff"/><path d="M23.58,412.31h.68c.09.68.36,1.26,1.53,1.26a1.17,1.17,0,0,0,1.31-1.09c0-.65-.3-.93-1.39-1.1s-1.93-.57-1.93-1.59a1.67,1.67,0,0,1,1.85-1.57,1.76,1.76,0,0,1,2,1.59H27c-.14-.73-.56-1-1.36-1s-1.2.39-1.2.93.21.86,1.39,1,2,.58,2,1.67a1.82,1.82,0,0,1-2,1.71A1.94,1.94,0,0,1,23.58,412.31Z" fill="#fff"/><path d="M29,413v-2.6h-.61v-.57H29v-1h.67v1h1v.57h-1v2.53c0,.42.18.62.52.62a1.56,1.56,0,0,0,.52-.09V414a1.57,1.57,0,0,1-.57.09A1,1,0,0,1,29,413Z" fill="#fff"/><path d="M31.25,412.89c0-1,1-1.3,2.11-1.3H34v-.31c0-.67-.26-.95-.9-.95s-.91.24-1,.76h-.67a1.48,1.48,0,0,1,1.67-1.32,1.36,1.36,0,0,1,1.54,1.51v2.79H34v-.54a1.51,1.51,0,0,1-1.32.61C31.87,414.14,31.25,413.76,31.25,412.89Zm2.72-.3v-.53h-.58c-.85,0-1.47.21-1.47.83,0,.44.21.72.8.72S34,413.24,34,412.59Z" fill="#fff"/><path d="M35.83,409.84h.67v.76a1.48,1.48,0,0,1,1.39-.83v.63c-.85,0-1.39.31-1.39,1.35v2.32h-.67Z" fill="#fff"/><path d="M38.93,413v-2.6h-.6v-.57h.6v-1h.67v1h1v.57h-1v2.53c0,.42.19.62.53.62a1.46,1.46,0,0,0,.51-.09V414a1.49,1.49,0,0,1-.57.09A1,1,0,0,1,38.93,413Z" fill="#fff"/><path d="M41.43,408.52a.44.44,0,1,1,.44.44A.44.44,0,0,1,41.43,408.52Zm.12,1.32h.67v4.23h-.67Z" fill="#fff"/><path d="M43.47,409.84h.67v.67a1.45,1.45,0,0,1,1.36-.74c.87,0,1.48.48,1.48,1.7v2.6h-.67v-2.64c0-.75-.31-1.08-1-1.08a1.12,1.12,0,0,0-1.18,1.16v2.56h-.67Z" fill="#fff"/><path d="M48,414.31h.68c.1.48.5.73,1.22.73a1.19,1.19,0,0,0,1.36-1.3v-.61a1.76,1.76,0,0,1-1.43.8,1.9,1.9,0,0,1-1.92-2v-.06a2,2,0,0,1,2-2.1,1.51,1.51,0,0,1,1.38.75v-.68h.67v3.94a1.78,1.78,0,0,1-2,1.83C48.61,415.61,48.06,415,48,414.31Zm3.28-2.43v-.06a1.31,1.31,0,0,0-1.34-1.49,1.34,1.34,0,0,0-1.34,1.51v.06a1.33,1.33,0,0,0,1.3,1.47A1.35,1.35,0,0,0,51.23,411.88Z" fill="#fff"/><path d="M55.13,409.84h.67v.71a1.74,1.74,0,0,1,1.43-.78,1.92,1.92,0,0,1,1.92,2.12V412a2,2,0,0,1-1.92,2.18,1.61,1.61,0,0,1-1.43-.77v2.16h-.67ZM58.46,412v-.06c0-1.07-.59-1.6-1.3-1.6s-1.38.51-1.38,1.6V412c0,1.08.56,1.59,1.39,1.59S58.46,413,58.46,412Z" fill="#fff"/><path d="M60.07,409.84h.67v.76a1.48,1.48,0,0,1,1.39-.83v.63c-.85,0-1.39.31-1.39,1.35v2.32h-.67Z" fill="#fff"/><path d="M62.88,408.52a.45.45,0,1,1,.44.44A.44.44,0,0,1,62.88,408.52Zm.12,1.32h.67v4.23H63Z" fill="#fff"/><path d="M64.61,412v-.07a2,2,0,0,1,2-2.16,1.65,1.65,0,0,1,1.83,1.48h-.66a1.06,1.06,0,0,0-1.17-.92,1.42,1.42,0,0,0-1.36,1.6V412c0,1,.57,1.58,1.38,1.58a1.14,1.14,0,0,0,1.21-1h.62a1.76,1.76,0,0,1-1.84,1.59A2,2,0,0,1,64.61,412Z" fill="#fff"/><path d="M69.09,412v-.07a2,2,0,0,1,2-2.16,1.85,1.85,0,0,1,1.9,2.1v.22H69.78c0,1,.49,1.49,1.36,1.49.65,0,1-.24,1.12-.73h.67a1.64,1.64,0,0,1-1.8,1.29A2,2,0,0,1,69.09,412Zm3.18-.45c-.06-.88-.51-1.22-1.21-1.22a1.28,1.28,0,0,0-1.26,1.22Z" fill="#fff"/><path d="M76,410.41h-.61v-.57H76v-.68c0-.86.42-1.36,1.26-1.36a1.54,1.54,0,0,1,.5.08v.57a1.28,1.28,0,0,0-.48-.09c-.44,0-.61.3-.61.72v.76h1v.57h-1v3.66H76Z" fill="#fff"/><path d="M78,412v-.06a2.08,2.08,0,1,1,4.15,0V412A2.08,2.08,0,1,1,78,412Zm3.45,0v-.06c0-1-.54-1.6-1.38-1.6s-1.38.63-1.38,1.6V412a1.39,1.39,0,1,0,2.76,0Z" fill="#fff"/><path d="M83.1,409.84h.67v.76a1.48,1.48,0,0,1,1.39-.83v.63c-.84,0-1.39.31-1.39,1.35v2.32H83.1Z" fill="#fff"/><path d="M87.69,412.77h.65c0,.5.32.81,1,.81s.92-.22.92-.67-.34-.59-1-.71c-1.1-.2-1.47-.51-1.47-1.24a1.31,1.31,0,0,1,1.43-1.19A1.36,1.36,0,0,1,90.76,411h-.65c-.1-.46-.35-.66-.89-.66s-.8.24-.8.6.21.54,1,.67,1.48.36,1.48,1.25-.52,1.29-1.55,1.29S87.73,413.63,87.69,412.77Z" fill="#fff"/><path d="M91.68,408.52a.45.45,0,0,1,.45-.44.44.44,0,0,1,0,.88A.45.45,0,0,1,91.68,408.52Zm.13,1.32h.67v4.23h-.67Z" fill="#fff"/><path d="M93.73,409.84h.67v.65a1.36,1.36,0,0,1,1.26-.72,1.23,1.23,0,0,1,1.23.79,1.63,1.63,0,0,1,1.45-.79c.75,0,1.42.45,1.42,1.68v2.62h-.67V411.4c0-.74-.32-1-.9-1a1.07,1.07,0,0,0-1.11,1.13v2.59h-.67V411.4c0-.74-.32-1-.9-1a1.07,1.07,0,0,0-1.11,1.13v2.59h-.67Z" fill="#fff"/><path d="M101,409.84h.67v.71a1.73,1.73,0,0,1,1.43-.78,1.92,1.92,0,0,1,1.92,2.12V412a2,2,0,0,1-1.92,2.18,1.59,1.59,0,0,1-1.43-.77v2.16H101Zm3.33,2.15v-.06c0-1.07-.59-1.6-1.3-1.6s-1.38.51-1.38,1.6V412c0,1.08.56,1.59,1.38,1.59S104.28,413,104.28,412Z" fill="#fff"/><path d="M105.91,407.83h.67v6.24h-.67Z" fill="#fff"/><path d="M107.52,412v-.07a2,2,0,0,1,2-2.16,1.85,1.85,0,0,1,1.89,2.1v.22h-3.18c0,1,.5,1.49,1.36,1.49.65,0,1-.24,1.12-.73h.67a1.63,1.63,0,0,1-1.8,1.29A2,2,0,0,1,107.52,412Zm3.19-.45c-.07-.88-.52-1.22-1.21-1.22a1.26,1.26,0,0,0-1.26,1.22Z" fill="#fff"/><path d="M114.32,409.84H115v.76a1.47,1.47,0,0,1,1.38-.83v.63c-.84,0-1.38.31-1.38,1.35v2.32h-.67Z" fill="#fff"/><path d="M116.79,412v-.07a2,2,0,0,1,2-2.16,1.85,1.85,0,0,1,1.9,2.1v.22h-3.18c0,1,.49,1.49,1.35,1.49.66,0,1-.24,1.12-.73h.67a1.62,1.62,0,0,1-1.8,1.29A2,2,0,0,1,116.79,412Zm3.19-.45c-.06-.88-.52-1.22-1.21-1.22a1.26,1.26,0,0,0-1.26,1.22Z" fill="#fff"/><path d="M121.72,413v-2.6h-.61v-.57h.61v-1h.67v1h1v.57h-1v2.53c0,.42.18.62.52.62a1.56,1.56,0,0,0,.52-.09V414a1.59,1.59,0,0,1-.58.09A1,1,0,0,1,121.72,413Z" fill="#fff"/><path d="M124.27,412.52v-2.68h.67v2.64c0,.75.32,1.08,1,1.08a1.11,1.11,0,0,0,1.16-1.16v-2.56h.67v4.23h-.67v-.67a1.44,1.44,0,0,1-1.34.74C124.9,414.14,124.27,413.68,124.27,412.52Z" fill="#fff"/><path d="M129,409.84h.67v.76a1.47,1.47,0,0,1,1.39-.83v.63c-.85,0-1.39.31-1.39,1.35v2.32H129Z" fill="#fff"/><path d="M131.9,409.84h.67v.67a1.47,1.47,0,0,1,1.36-.74c.87,0,1.48.48,1.48,1.7v2.6h-.67v-2.64c0-.75-.31-1.08-1-1.08a1.12,1.12,0,0,0-1.18,1.16v2.56h-.67Z" fill="#fff"/><path d="M136.26,412.77h.65c.05.5.32.81,1,.81s.92-.22.92-.67-.33-.59-1-.71c-1.1-.2-1.47-.51-1.47-1.24a1.31,1.31,0,0,1,1.43-1.19,1.36,1.36,0,0,1,1.53,1.22h-.65c-.1-.46-.35-.66-.89-.66s-.8.24-.8.6.21.54,1,.67,1.48.36,1.48,1.25-.52,1.29-1.55,1.29S136.3,413.63,136.26,412.77Z" fill="#fff"/><path d="M140.3,413.59a.52.52,0,1,1,.52.52A.52.52,0,0,1,140.3,413.59Z" fill="#fff"/></g><g id="Rect"><rect width="160" height="600" fill="none"/></g></g></svg>