<svg xmlns="http://www.w3.org/2000/svg" viewBox="0 0 160 600"><title>160x600</title><g id="Layer_2" data-name="Layer 2"><g id="_59_takes_taxes_off_your_to-do_list." data-name="$59* takes taxes  off your to-do list."><path d="M25.39,116.85c-3.29-.23-4.89-2-5-4.5h3.52a1.79,1.79,0,0,0,1.5,1.79v-2.78c-3.31-.47-4.72-1.67-4.72-4.32,0-2.3,1.81-4,4.72-4.17v-1.7h1.48v1.72c2.76.23,4.4,1.5,4.63,4.11H28.05a1.52,1.52,0,0,0-1.18-1.43v2.63c2.92.42,4.82,1.41,4.82,4.17,0,2.32-1.5,4.27-4.82,4.48v2.38H25.39Zm0-8.88v-2.43c-.86.15-1.29.6-1.29,1.21S24.36,107.76,25.39,108Zm1.48,3.64v2.53c.84-.17,1.28-.66,1.28-1.35S27.88,111.84,26.87,111.61Z" fill="#fff"/><path d="M32.78,120.18h6.08c.22,1.64.88,2.71,3,2.71,1.93,0,2.81-1.43,2.81-3.29,0-2.09-1.14-3.33-3.17-3.33a4.78,4.78,0,0,0-3.85,1.66h-4l.49-13.75H49.92v4.9H39l-.13,5.16a6.22,6.22,0,0,1,5.45-2.48c4.27,0,7.08,2.87,7.08,7.93s-3.56,8.23-9.46,8.23C35.75,127.92,33,124.56,32.78,120.18Z" fill="#fff"/><path d="M53,120.94h6.14c.23,1.17.94,2,2.74,2,2.77,0,3.92-2.09,4-6.08a5.55,5.55,0,0,1-5.28,2.75c-4.48,0-7.9-2.58-7.9-7.55s3.65-8.23,9.59-8.23c7,0,10.22,4.67,10.22,11.43V116c0,7.57-3.66,11.85-10.31,11.85C56.71,127.89,53.51,125.41,53,120.94ZM65.42,112a3.16,3.16,0,1,0-6.3-.06,3.05,3.05,0,0,0,3.11,3.33A3.1,3.1,0,0,0,65.42,112Z" fill="#fff"/><path d="M74.79,112.94,77.7,110l-3.82-.43,1.11-4,3.59,1.73-.78-4h4.66l-.78,4,3.56-1.73,1.14,4-3.85.43,2.9,2.94-3.49,2.51-1.83-3.76-1.79,3.76Z" fill="#fff"/><path d="M22.42,161.71v-7.6H20.37v-4h2.05v-3.56h5.85v3.56h3.36v4H28.27v7c0,1.24.62,1.8,1.73,1.8a4.35,4.35,0,0,0,1.66-.3v4.44a12.07,12.07,0,0,1-3.23.49C24.58,167.59,22.42,165.73,22.42,161.71Z" fill="#fff"/><path d="M32.93,162.47c0-4,3.4-5.59,9.08-5.59h1.63v-.39c0-1.63-.39-2.71-2.25-2.71a2.1,2.1,0,0,0-2.32,2H33.59c.26-4.11,3.49-6.13,8.16-6.13s7.7,1.92,7.7,6.46V167.2H43.77v-2a5.62,5.62,0,0,1-5.06,2.38C35.64,167.59,32.93,166.09,32.93,162.47Zm10.71-1.24v-1H42.1c-2.35,0-3.39.46-3.39,1.86,0,1,.65,1.6,2,1.6C42.4,163.64,43.64,162.69,43.64,161.23Z" fill="#fff"/><path d="M52.29,142.61h5.84v14.27l4.6-6.76H68.8l-5.58,7.68,6,9.4H62.73l-4.6-7.48v7.48H52.29Z" fill="#fff"/><path d="M68.84,158.87v-.26c0-5.48,4.08-8.94,9.23-8.94,4.67,0,8.69,2.67,8.69,8.81V160h-12c.16,2.25,1.46,3.56,3.55,3.56,1.93,0,2.74-.89,3-2h5.49c-.53,3.85-3.5,6-8.65,6C72.75,167.59,68.84,164.46,68.84,158.87Zm12.24-2.15c-.1-2.06-1.11-3.2-3-3.2s-3,1.14-3.26,3.2Z" fill="#fff"/><path d="M87.8,161.78h5.39c.19,1.24.75,1.93,2.41,1.93,1.44,0,2.09-.56,2.09-1.41s-.81-1.21-3.16-1.53c-4.57-.59-6.5-1.93-6.5-5.49,0-3.79,3.36-5.61,7.31-5.61,4.21,0,7.15,1.43,7.54,5.51H97.59a1.9,1.9,0,0,0-2.18-1.69c-1.28,0-1.93.55-1.93,1.33s.78,1.15,2.87,1.41c4.73.59,7,1.83,7,5.48,0,4-3,5.88-7.74,5.88S87.93,165.57,87.8,161.78Z" fill="#fff"/><path d="M22.42,201.38v-7.6H20.37v-4h2.05v-3.56h5.85v3.56h3.36v4H28.27v7.05c0,1.24.62,1.8,1.73,1.8a4.35,4.35,0,0,0,1.66-.3v4.44a12.07,12.07,0,0,1-3.23.49C24.58,207.26,22.42,205.4,22.42,201.38Z" fill="#fff"/><path d="M32.93,202.14c0-4,3.4-5.59,9.08-5.59h1.63v-.39c0-1.63-.39-2.71-2.25-2.71a2.1,2.1,0,0,0-2.32,2H33.59c.26-4.11,3.49-6.13,8.16-6.13s7.7,1.92,7.7,6.46v11.07H43.77v-2a5.62,5.62,0,0,1-5.06,2.38C35.64,207.26,32.93,205.76,32.93,202.14Zm10.71-1.24v-1.05H42.1c-2.35,0-3.39.46-3.39,1.86,0,1,.65,1.6,2,1.6C42.4,203.31,43.64,202.36,43.64,200.9Z" fill="#fff"/><path d="M56.6,198.18l-5.32-8.39H58l2.64,4.51,2.58-4.51h6l-5.39,7.94,5.91,9.14H63l-3-5.09-3.1,5.09h-6Z" fill="#fff"/><path d="M69,198.54v-.26c0-5.48,4.08-8.94,9.24-8.94,4.66,0,8.68,2.67,8.68,8.81v1.54h-12c.16,2.25,1.47,3.56,3.56,3.56,1.92,0,2.74-.89,3-2h5.48c-.52,3.85-3.49,6-8.65,6C72.92,207.26,69,204.13,69,198.54Zm12.24-2.15c-.1-2.06-1.11-3.2-3-3.2s-3,1.14-3.27,3.2Z" fill="#fff"/><path d="M88,201.45h5.39c.2,1.24.75,1.93,2.41,1.93,1.44,0,2.09-.56,2.09-1.41s-.81-1.21-3.16-1.53c-4.57-.59-6.5-1.93-6.5-5.49,0-3.79,3.36-5.61,7.31-5.61,4.21,0,7.15,1.43,7.54,5.51H97.76a1.91,1.91,0,0,0-2.19-1.69c-1.27,0-1.93.55-1.93,1.33s.79,1.15,2.88,1.41c4.73.59,7,1.83,7,5.48,0,4.05-3,5.88-7.73,5.88S88.09,205.24,88,201.45Z" fill="#fff"/><path d="M20.73,238.21V238c0-5.48,4.08-8.95,9.36-8.95s9.31,3.37,9.31,8.79v.26c0,5.55-4.08,8.88-9.34,8.88S20.73,243.73,20.73,238.21Zm12.73-.09v-.27c0-2.87-1.15-4.47-3.37-4.47s-3.39,1.54-3.39,4.41v.26c0,2.94,1.14,4.54,3.39,4.54S33.46,241,33.46,238.12Z" fill="#fff"/><path d="M42.33,233.45H40.18v-4h2.15v-1.3c0-4.25,2.61-6.24,6.66-6.24a9.59,9.59,0,0,1,2.61.33v4.27a5.09,5.09,0,0,0-1.56-.23,1.72,1.72,0,0,0-1.9,1.87v1.3h5V228c0-4.25,2.68-6.27,6.7-6.27a10.2,10.2,0,0,1,2.67.36v4.28a5.32,5.32,0,0,0-1.6-.23A1.7,1.7,0,0,0,59,228v1.5h3.46v4H59v13.09H53.1V233.45h-5v13.09H42.33Z" fill="#fff"/><path d="M75.63,244.81,68.8,229.46h6.34l3.52,9.11,3.26-9.11h5.59l-9.14,22.79H72.79Z" fill="#fff"/><path d="M87.18,238.21V238c0-5.48,4.08-8.95,9.37-8.95s9.3,3.37,9.3,8.79v.26c0,5.55-4.08,8.88-9.33,8.88S87.18,243.73,87.18,238.21Zm12.73-.09v-.27c0-2.87-1.14-4.47-3.36-4.47s-3.4,1.54-3.4,4.41v.26c0,2.94,1.15,4.54,3.4,4.54S99.91,241,99.91,238.12Z" fill="#fff"/><path d="M107.78,240.6V229.46h5.84v10.19c0,1.93.75,2.87,2.41,2.87s2.91-1,2.91-3.23v-9.83h5.84v17.08h-5.84V243.9a5.62,5.62,0,0,1-5.42,3C110.22,246.93,107.78,244.91,107.78,240.6Z" fill="#fff"/><path d="M127.75,229.46h5.84v3.4a5.39,5.39,0,0,1,5.52-3.63v5.46c-3.56-.1-5.52,1-5.52,3.75v8.1h-5.84Z" fill="#fff"/><path d="M22.42,280.72v-7.6H20.37v-4h2.05v-3.56h5.85v3.56h3.36v4H28.27v7.05A1.55,1.55,0,0,0,30,282a4.35,4.35,0,0,0,1.66-.29v4.44a12.07,12.07,0,0,1-3.23.49C24.58,286.6,22.42,284.74,22.42,280.72Z" fill="#fff"/><path d="M32.93,277.88v-.26c0-5.48,4.08-8.95,9.37-8.95s9.3,3.37,9.3,8.79v.26c0,5.55-4.08,8.88-9.33,8.88S32.93,283.4,32.93,277.88Zm12.73-.09v-.27c0-2.87-1.14-4.47-3.36-4.47s-3.39,1.53-3.39,4.41v.26c0,2.94,1.14,4.54,3.39,4.54S45.66,280.63,45.66,277.79Z" fill="#fff"/><path d="M53.59,274.68h9.14v4.41H53.59Z" fill="#fff"/><path d="M64.79,277.85v-.26c0-5.81,3.2-8.92,7.25-8.92a5.54,5.54,0,0,1,5.25,2.88v-9.93h5.84v24.59H77.29v-2.78A5.74,5.74,0,0,1,72,286.6C68,286.6,64.79,283.76,64.79,277.85Zm12.66-.1v-.26c0-2.87-1.2-4.41-3.36-4.41s-3.36,1.47-3.36,4.44v.27c0,2.87,1.27,4.34,3.3,4.34S77.45,280.66,77.45,277.75Z" fill="#fff"/><path d="M85.19,277.88v-.26c0-5.48,4.08-8.95,9.37-8.95s9.3,3.37,9.3,8.79v.26c0,5.55-4.08,8.88-9.34,8.88S85.19,283.4,85.19,277.88Zm12.73-.09v-.27c0-2.87-1.14-4.47-3.36-4.47s-3.4,1.53-3.4,4.41v.26c0,2.94,1.15,4.54,3.4,4.54S97.92,280.63,97.92,277.79Z" fill="#fff"/><path d="M21.8,301.29h5.81v24.59H21.8Z" fill="#fff"/><path d="M30.62,304.17a3,3,0,0,1,3.19-3,3,3,0,1,1,0,6A3,3,0,0,1,30.62,304.17Zm.29,4.63h5.84v17.08H30.91Z" fill="#fff"/><path d="M38.74,320.46h5.39c.19,1.24.75,1.93,2.41,1.93,1.44,0,2.09-.56,2.09-1.41s-.81-1.21-3.16-1.53c-4.57-.59-6.5-1.93-6.5-5.49,0-3.79,3.36-5.62,7.31-5.62,4.21,0,7.15,1.44,7.54,5.52H48.53a1.89,1.89,0,0,0-2.18-1.69c-1.27,0-1.93.55-1.93,1.33s.79,1.15,2.87,1.41c4.74.59,7,1.83,7,5.48,0,4.05-3,5.88-7.73,5.88S38.87,324.25,38.74,320.46Z" fill="#fff"/><path d="M57,320.39v-7.6H54.93v-4H57v-3.56h5.84v3.56h3.36v4H62.83v7a1.55,1.55,0,0,0,1.73,1.79,4.44,4.44,0,0,0,1.67-.29v4.44a12.16,12.16,0,0,1-3.24.49C59.14,326.27,57,324.41,57,320.39Z" fill="#fff"/><path d="M68.18,322.94a3.26,3.26,0,0,1,3.33-3.3,3.3,3.3,0,1,1,0,6.6A3.26,3.26,0,0,1,68.18,322.94Z" fill="#fff"/></g><g id="Rect"><rect width="160" height="600" fill="none"/></g></g></svg>