<svg xmlns="http://www.w3.org/2000/svg" viewBox="0 0 300 600"><title>Asset 6</title><rect width="300" height="600" fill="none"/><path d="M23.76,78.32h15c14.67,0,22.11,7.27,22.11,20v.46c0,12.78-7.62,20.51-22.17,20.51H23.76Zm14.61,31.91c7,0,10.16-3.67,10.16-11.29v-.46c0-7.79-3.12-11.11-10.28-11.11h-2.6v22.86Z" fill="#fff"/><path d="M63.26,104.67v-.46c0-9.62,7.21-15.7,16.57-15.7s16.45,5.91,16.45,15.42v.46c0,9.74-7.22,15.58-16.51,15.58S63.26,114.36,63.26,104.67Zm22.51-.17V104c0-5-2-7.85-5.94-7.85s-6,2.7-6,7.74v.46c0,5.15,2,8,6,8S85.77,109.49,85.77,104.5Z" fill="#fff"/><path d="M99.92,89.32h10.34v4.81c1.62-3.09,4.91-5.62,9.93-5.62,5.83,0,9.87,3.61,9.87,11.29v19.48H119.73V101.87c0-3.39-1.33-5.05-4.33-5.05s-5.14,1.84-5.14,5.68v16.78H99.92Z" fill="#fff"/><path d="M133.07,78.32h10.1L142,94.07h-7.74Z" fill="#fff"/><path d="M149.64,109.66V96.31H146v-7h3.64V83.07H160v6.25h5.94v7H160v12.37c0,2.18,1.09,3.15,3.06,3.15a8,8,0,0,0,2.94-.51v7.79a21.57,21.57,0,0,1-5.71.86C153.45,120,149.64,116.71,149.64,109.66Z" fill="#fff"/><path d="M178.86,104.62v-.46c0-10.2,5.66-15.65,12.82-15.65,4.73,0,7.56,2,9.29,5V76.14h10.34v43.14H201v-4.87a10.17,10.17,0,0,1-9.41,5.56C184.58,120,178.86,115,178.86,104.62Zm22.4-.18V104c0-5-2.13-7.73-5.94-7.73s-5.95,2.58-5.95,7.79v.46c0,5,2.25,7.62,5.83,7.62C199,112.12,201.26,109.54,201.26,104.44Z" fill="#fff"/><path d="M215,104.67v-.46c0-9.62,7.22-15.7,16.57-15.7S248,94.42,248,103.93v.46c0,9.74-7.22,15.58-16.52,15.58S215,114.36,215,104.67Zm22.52-.17V104c0-5-2-7.85-5.95-7.85s-6,2.7-6,7.74v.46c0,5.15,2,8,6,8S237.47,109.49,237.47,104.5Z" fill="#fff"/><path d="M24.22,163.34V150H20.58v-7h3.64v-6.25H34.55V143h6v7h-6v12.38c0,2.17,1.1,3.15,3.06,3.15a7.8,7.8,0,0,0,3-.52v7.79a21.59,21.59,0,0,1-5.72.86C28,173.65,24.22,170.39,24.22,163.34Z" fill="#fff"/><path d="M42.81,164.66c0-7,6-9.8,16-9.8h2.89v-.69c0-2.86-.69-4.75-4-4.75a3.7,3.7,0,0,0-4.1,3.55H44c.46-7.22,6.18-10.77,14.43-10.77S72,145.58,72,153.54V173H62v-3.5c-1.44,2.18-4.1,4.18-8.95,4.18C47.61,173.65,42.81,171,42.81,164.66Zm18.94-2.18v-1.83H59c-4.16,0-6,.8-6,3.26,0,1.72,1.16,2.81,3.58,2.81C59.56,166.72,61.75,165.06,61.75,162.48Z" fill="#fff"/><path d="M84.68,157.73,75.27,143H87.16l4.68,7.91L96.4,143H107L97.5,156.92,108,173H96.05L90.68,164,85.2,173H74.63Z" fill="#fff"/><path d="M106.62,158.35v-.45c0-9.63,7.22-15.7,16.34-15.7,8.26,0,15.36,4.7,15.36,15.47v2.69H117.07c.29,3.95,2.6,6.25,6.3,6.25,3.4,0,4.85-1.55,5.25-3.56h9.7c-.92,6.76-6.18,10.6-15.3,10.6C113.55,173.65,106.62,168.15,106.62,158.35Zm21.65-3.78c-.17-3.61-2-5.61-5.31-5.61-3.12,0-5.25,2-5.77,5.61Z" fill="#fff"/><path d="M140.17,163.45h9.53c.34,2.18,1.33,3.38,4.27,3.38,2.54,0,3.7-1,3.7-2.46s-1.45-2.12-5.61-2.69c-8.08-1-11.49-3.38-11.49-9.63,0-6.64,6-9.85,12.94-9.85,7.45,0,12.64,2.52,13.34,9.68h-9.36c-.4-2-1.5-3-3.87-3s-3.4,1-3.4,2.35,1.38,2,5.08,2.46c8.37,1,12.41,3.21,12.41,9.63,0,7.1-5.31,10.31-13.68,10.31C145.42,173.65,140.4,170.1,140.17,163.45Z" fill="#fff"/><path d="M170.66,167.81a5.74,5.74,0,0,1,5.89-5.79,5.8,5.8,0,1,1,0,11.58A5.74,5.74,0,0,1,170.66,167.81Z" fill="#fff"/><path d="M23.76,185.68H35.65v31.86H51.24v9.11H23.76Z" fill="#fff"/><path d="M53,212v-.46c0-9.63,7.21-15.7,16.34-15.7,8.25,0,15.36,4.7,15.36,15.47V214H63.43c.29,4,2.6,6.25,6.29,6.25,3.41,0,4.85-1.55,5.26-3.55h9.7c-.93,6.76-6.18,10.6-15.31,10.6C59.91,227.34,53,221.83,53,212Zm21.65-3.78c-.17-3.61-2-5.62-5.31-5.62-3.12,0-5.26,2-5.78,5.62Z" fill="#fff"/><path d="M89.64,217V203.67H86v-7h3.63v-6.24H100v6.24h6v7h-6v12.38c0,2.18,1.1,3.15,3.06,3.15a7.78,7.78,0,0,0,2.94-.52v7.8a21.92,21.92,0,0,1-5.71.86C93.46,227.34,89.64,224.07,89.64,217Z" fill="#fff"/><path d="M118.63,218.34c0-7.05,6-9.8,16.05-9.8h2.89v-.69c0-2.86-.69-4.75-4-4.75a3.7,3.7,0,0,0-4.1,3.55h-9.7c.46-7.22,6.18-10.77,14.43-10.77s13.63,3.38,13.63,11.34v19.43h-10v-3.5c-1.44,2.18-4.1,4.19-9,4.19C123.42,227.34,118.63,224.7,118.63,218.34Zm18.94-2.18v-1.83h-2.71c-4.16,0-6,.8-6,3.27,0,1.71,1.16,2.8,3.58,2.8C135.38,220.4,137.57,218.74,137.57,216.16Z" fill="#fff"/><path d="M164.77,217V203.67h-3.64v-7h3.64v-6.24H175.1v6.24h6v7h-6v12.38c0,2.18,1.1,3.15,3.07,3.15a7.78,7.78,0,0,0,2.94-.52v7.8a22,22,0,0,1-5.72.86C168.58,227.34,164.77,224.07,164.77,217Z" fill="#fff"/><path d="M183.36,218.34c0-7.05,6-9.8,16.06-9.8h2.88v-.69c0-2.86-.69-4.75-4-4.75a3.7,3.7,0,0,0-4.1,3.55h-9.7c.46-7.22,6.18-10.77,14.43-10.77s13.63,3.38,13.63,11.34v19.43H202.53v-3.5c-1.44,2.18-4.1,4.19-8.95,4.19C188.16,227.34,183.36,224.7,183.36,218.34Zm18.94-2.18v-1.83h-2.71c-4.16,0-6,.8-6,3.27,0,1.71,1.16,2.8,3.58,2.8C200.11,220.4,202.3,218.74,202.3,216.16Z" fill="#fff"/><path d="M225.23,211.41l-9.41-14.73h11.89l4.68,7.91,4.56-7.91h10.62l-9.52,13.92,10.45,16.05H236.6l-5.37-8.94-5.48,8.94H215.18Z" fill="#fff"/><path d="M22.83,250.36H33.17v4.47a10.68,10.68,0,0,1,9.41-5.27c7,0,12.76,5.27,12.76,15.53v.46c0,10.31-5.72,15.47-12.82,15.47-4.56,0-7.85-2.12-9.35-5.1v14.44H22.83Zm22,15.19v-.46c0-5.27-2.31-7.79-5.95-7.79s-6,2.69-6,7.73v.46c0,5.1,2.25,7.68,6,7.68S44.83,270.48,44.83,265.55Z" fill="#fff"/><path d="M59.1,250.36H69.43v6c1.91-4.47,5.08-6.41,9.76-6.36v9.57c-6.29-.17-9.76,1.78-9.76,6.59v14.21H59.1Z" fill="#fff"/><path d="M81,265.72v-.46c0-9.62,7.22-15.7,16.57-15.7s16.46,5.9,16.46,15.42v.45c0,9.74-7.22,15.59-16.52,15.59S81,275.4,81,265.72Zm22.52-.17v-.46c0-5-2-7.85-6-7.85s-6,2.69-6,7.74v.45c0,5.16,2,8,6,8S103.56,270.53,103.56,265.55Z" fill="#fff"/><path d="M126.72,265.66v-.46c0-10.19,5.66-15.64,12.81-15.64,4.74,0,7.57,2,9.3,5V237.19h10.34v43.14H148.83v-4.87a10.19,10.19,0,0,1-9.41,5.56C132.43,281,126.72,276,126.72,265.66Zm22.4-.17V265c0-5-2.14-7.73-6-7.73s-5.94,2.58-5.94,7.79v.46c0,5,2.25,7.62,5.83,7.62C146.81,273.17,149.12,270.59,149.12,265.49Z" fill="#fff"/><path d="M162.81,265.72v-.46c0-9.62,7.22-15.7,16.57-15.7s16.45,5.9,16.45,15.42v.45c0,9.74-7.21,15.59-16.51,15.59S162.81,275.4,162.81,265.72Zm22.52-.17v-.46c0-5-2-7.85-6-7.85s-6,2.69-6,7.74v.45c0,5.16,2,8,6,8S185.33,270.53,185.33,265.55Z" fill="#fff"/><path d="M24.22,324.39V311H20.58v-7h3.64V297.8H34.55v6.25h6v7h-6v12.37c0,2.18,1.1,3.15,3.06,3.15a8,8,0,0,0,3-.51v7.79a22,22,0,0,1-5.72.86C28,334.7,24.22,331.43,24.22,324.39Z" fill="#fff"/><path d="M44.43,290.87H54.77v18c1.61-3.09,4.9-5.62,9.93-5.62,5.83,0,9.87,3.61,9.87,11.29V334H64.23V316.59c0-3.38-1.32-5-4.33-5s-5.13,1.84-5.13,5.67V334H44.43Z" fill="#fff"/><path d="M78,319.4v-.46c0-9.62,7.22-15.7,16.34-15.7,8.26,0,15.36,4.7,15.36,15.47v2.7H88.43c.29,3.95,2.6,6.24,6.29,6.24,3.41,0,4.85-1.54,5.26-3.55h9.7c-.93,6.76-6.18,10.6-15.3,10.6C84.91,334.7,78,329.2,78,319.4Zm21.65-3.78c-.17-3.61-2-5.62-5.31-5.62-3.12,0-5.25,2-5.77,5.62Z" fill="#fff"/><path d="M113.26,304.05H123.6v4.58a10.57,10.57,0,0,1,9.47-5.39c4,0,6.75,1.72,8.2,5a12,12,0,0,1,10-5c5.72,0,9.88,3.67,9.88,11.18V334H150.79V316.14c0-3-1.5-4.53-3.87-4.53-2.77,0-4.61,1.78-4.61,5V334H132.09V316.14c0-3-1.51-4.53-3.87-4.53-2.77,0-4.62,1.78-4.62,5V334H113.26Z" fill="#fff"/><path d="M178.23,311h-3.81v-7h3.81v-2.64c0-7.45,4.67-11,11.83-11a18.77,18.77,0,0,1,4.74.63v7.51a9.56,9.56,0,0,0-2.83-.4c-2.43,0-3.47,1.31-3.47,3.26v2.64h6.12v7H188.5v23H178.23Z" fill="#fff"/><path d="M195.43,319.4v-.46c0-9.62,7.22-15.7,16.57-15.7s16.46,5.91,16.46,15.42v.46c0,9.74-7.22,15.58-16.51,15.58S195.43,329.08,195.43,319.4Zm22.52-.17v-.46c0-5-2-7.85-5.95-7.85s-6,2.7-6,7.74v.46c0,5.15,2,8,6,8S218,324.21,218,319.23Z" fill="#fff"/><path d="M232.1,304.05h10.34V310c1.9-4.46,5.08-6.41,9.76-6.35v9.56c-6.3-.17-9.76,1.78-9.76,6.59V334H232.1Z" fill="#fff"/><path d="M32.3,384.66,20.23,357.73H31.44l6.23,16,5.78-16h9.87l-16.17,40H27.28Z" fill="#fff"/><path d="M52.75,373.08v-.45c0-9.63,7.21-15.7,16.57-15.7s16.45,5.9,16.45,15.41v.46c0,9.74-7.22,15.58-16.51,15.58S52.75,382.77,52.75,373.08Zm22.51-.17v-.46c0-5-2-7.85-5.94-7.85s-6,2.7-6,7.74v.46c0,5.16,2,8,6,8S75.26,377.9,75.26,372.91Z" fill="#fff"/><path d="M89.18,377.27V357.73H99.52v17.88c0,3.38,1.33,5,4.27,5,3.12,0,5.14-1.84,5.14-5.67V357.73h10.33v30H108.93v-4.65c-1.62,3.1-4.56,5.33-9.59,5.33C93.51,388.38,89.18,384.83,89.18,377.27Z" fill="#fff"/><path d="M124.12,382.54a5.74,5.74,0,0,1,5.89-5.79,5.8,5.8,0,1,1,0,11.58A5.74,5.74,0,0,1,124.12,382.54Z" fill="#fff"/></svg>