<svg xmlns="http://www.w3.org/2000/svg" viewBox="0 0 300 250"><title>Asset 8</title><rect width="300" height="250" fill="none"/><path d="M21.86,55.7H36.79v4.74H28v3.69h7v4.38H28V72.4h9.25v4.74H21.86Z" fill="#fff"/><path d="M38.52,72.79c0-3.68,3.14-5.12,8.4-5.12h1.51v-.36c0-1.5-.36-2.49-2.08-2.49a1.93,1.93,0,0,0-2.15,1.86H39.12C39.36,62.9,42.36,61,46.68,61s7.13,1.77,7.13,5.94V77.14H48.55V75.31a5.19,5.19,0,0,1-4.68,2.19C41,77.5,38.52,76.12,38.52,72.79Zm9.91-1.14v-1H47c-2.18,0-3.14.41-3.14,1.7,0,.9.6,1.47,1.87,1.47C47.28,73.87,48.43,73,48.43,71.65Z" fill="#fff"/><path d="M55.39,72.16h5c.19,1.14.7,1.77,2.24,1.77,1.33,0,1.94-.51,1.94-1.29s-.76-1.11-2.94-1.41c-4.23-.53-6-1.76-6-5,0-3.48,3.11-5.16,6.77-5.16,3.9,0,6.62,1.32,7,5.07h-4.9a1.76,1.76,0,0,0-2-1.56c-1.18,0-1.78.51-1.78,1.23s.72,1,2.66,1.29c4.38.54,6.5,1.68,6.5,5,0,3.72-2.79,5.4-7.17,5.4S55.51,75.64,55.39,72.16Z" fill="#fff"/><path d="M76,75.55,69.69,61.46h5.86l3.27,8.37,3-8.37H87L78.54,82.39H73.37Z" fill="#fff"/><path d="M85,79.57l2.54-7.89,5,1.77L88.16,80.8Z" fill="#fff"/><path d="M100.37,61.46h5.41V63.8A5.59,5.59,0,0,1,110.71,61c3.69,0,6.68,2.76,6.68,8.13v.24c0,5.39-3,8.09-6.71,8.09a5.23,5.23,0,0,1-4.9-2.67v7.56h-5.41Zm11.52,7.95v-.24c0-2.76-1.21-4.08-3.12-4.08s-3.14,1.41-3.14,4v.24c0,2.66,1.18,4,3.14,4S111.89,72,111.89,69.41Z" fill="#fff"/><path d="M118.51,69.5v-.24c0-5,3.78-8.22,8.55-8.22,4.33,0,8.05,2.46,8.05,8.1v1.41H124a3.14,3.14,0,0,0,3.3,3.26c1.78,0,2.54-.81,2.75-1.86h5.08c-.49,3.54-3.24,5.55-8,5.55C122.14,77.5,118.51,74.62,118.51,69.5Zm11.34-2c-.09-1.89-1-2.94-2.79-2.94s-2.75,1-3,2.94Z" fill="#fff"/><path d="M136.23,72.79c0-3.68,3.14-5.12,8.4-5.12h1.51v-.36c0-1.5-.36-2.49-2.08-2.49a1.93,1.93,0,0,0-2.15,1.86h-5.08c.24-3.78,3.23-5.64,7.56-5.64s7.13,1.77,7.13,5.94V77.14h-5.26V75.31a5.19,5.19,0,0,1-4.68,2.19C138.73,77.5,136.23,76.12,136.23,72.79Zm9.91-1.14v-1h-1.42c-2.18,0-3.14.41-3.14,1.7,0,.9.6,1.47,1.87,1.47C145,73.87,146.14,73,146.14,71.65Z" fill="#fff"/><path d="M153.1,72.16h5c.18,1.14.7,1.77,2.24,1.77,1.33,0,1.93-.51,1.93-1.29s-.75-1.11-2.93-1.41c-4.23-.53-6-1.76-6-5,0-3.48,3.11-5.16,6.77-5.16,3.9,0,6.62,1.32,7,5.07h-4.9a1.76,1.76,0,0,0-2-1.56c-1.18,0-1.78.51-1.78,1.23s.72,1,2.66,1.29c4.38.54,6.49,1.68,6.49,5,0,3.72-2.78,5.4-7.16,5.4S153.22,75.64,153.1,72.16Z" fill="#fff"/><path d="M173.71,75.55l-6.32-14.09h5.87l3.26,8.37,3-8.37h5.16l-8.46,20.93h-5.17Z" fill="#fff"/><path d="M182.66,79.57l2.54-7.89,5,1.77-4.35,7.35Z" fill="#fff"/><path d="M198.8,72.1v-7h-1.9V61.46h1.9V58.19h5.42v3.27h3.11v3.66h-3.11v6.47a1.44,1.44,0,0,0,1.6,1.65,4.15,4.15,0,0,0,1.54-.27v4.08a11.44,11.44,0,0,1-3,.45C200.8,77.5,198.8,75.79,198.8,72.1Z" fill="#fff"/><path d="M208.54,72.79c0-3.68,3.14-5.12,8.4-5.12h1.52v-.36c0-1.5-.37-2.49-2.09-2.49a1.94,1.94,0,0,0-2.15,1.86h-5.08c.25-3.78,3.24-5.64,7.56-5.64s7.13,1.77,7.13,5.94V77.14h-5.25V75.31a5.22,5.22,0,0,1-4.69,2.19C211.05,77.5,208.54,76.12,208.54,72.79Zm9.92-1.14v-1H217c-2.17,0-3.14.41-3.14,1.7,0,.9.61,1.47,1.87,1.47C217.31,73.87,218.46,73,218.46,71.65Z" fill="#fff"/><path d="M230.46,69.17l-4.93-7.71h6.23l2.45,4.14,2.38-4.14h5.56l-5,7.29,5.47,8.39h-6.23l-2.81-4.68-2.87,4.68H225.2Z" fill="#fff"/><path d="M242,69.5v-.24c0-5,3.77-8.22,8.55-8.22,4.32,0,8,2.46,8,8.1v1.41H247.42a3.14,3.14,0,0,0,3.29,3.26c1.78,0,2.54-.81,2.75-1.86h5.08c-.48,3.54-3.23,5.55-8,5.55C245.57,77.5,242,74.62,242,69.5Zm11.33-2c-.09-1.89-1-2.94-2.78-2.94s-2.75,1-3,2.94Z" fill="#fff"/><path d="M259.51,72.16h5c.18,1.14.69,1.77,2.23,1.77,1.33,0,1.94-.51,1.94-1.29s-.76-1.11-2.93-1.41c-4.24-.53-6-1.76-6-5,0-3.48,3.11-5.16,6.77-5.16,3.9,0,6.62,1.32,7,5.07h-4.89a1.77,1.77,0,0,0-2-1.56c-1.18,0-1.78.51-1.78,1.23s.73,1,2.66,1.29c4.38.54,6.5,1.68,6.5,5,0,3.72-2.78,5.4-7.17,5.4S259.63,75.64,259.51,72.16Z" fill="#fff"/><path d="M21.38,96.45h5.41v2.4A5.51,5.51,0,0,1,31.74,96,4.32,4.32,0,0,1,36,98.64,6.27,6.27,0,0,1,41.26,96c3,0,5.17,1.92,5.17,5.85v10.25H41v-9.35c0-1.59-.78-2.37-2-2.37a2.33,2.33,0,0,0-2.42,2.64v9.08H31.23v-9.35c0-1.59-.79-2.37-2-2.37a2.33,2.33,0,0,0-2.41,2.64v9.08H21.38Z" fill="#fff"/><path d="M48.16,107.78c0-3.69,3.14-5.12,8.4-5.12h1.52v-.36c0-1.5-.37-2.49-2.09-2.49a1.94,1.94,0,0,0-2.15,1.86H48.77C49,97.89,52,96,56.32,96s7.14,1.77,7.14,5.94v10.16H58.2V110.3a5.22,5.22,0,0,1-4.69,2.19C50.67,112.49,48.16,111.11,48.16,107.78Zm9.92-1.14v-1H56.65c-2.17,0-3.14.42-3.14,1.71,0,.9.61,1.47,1.87,1.47C56.93,108.86,58.08,108,58.08,106.64Z" fill="#fff"/><path d="M65.3,104.45v-.24c0-5.33,3-8.18,6.71-8.18a5.14,5.14,0,0,1,4.87,2.64V89.55h5.41v22.58H76.88v-2.55A5.34,5.34,0,0,1,72,112.49C68.29,112.49,65.3,109.88,65.3,104.45ZM77,104.36v-.24c0-2.63-1.12-4-3.11-4s-3.12,1.35-3.12,4.07v.24c0,2.64,1.18,4,3.06,4S77,107,77,104.36Z" fill="#fff"/><path d="M84.2,104.48v-.24c0-5,3.78-8.21,8.55-8.21,4.32,0,8,2.46,8,8.09v1.41H89.67A3.14,3.14,0,0,0,93,108.8c1.79,0,2.54-.81,2.75-1.86h5.08c-.48,3.54-3.23,5.55-8,5.55C87.82,112.49,84.2,109.61,84.2,104.48Zm11.33-2c-.09-1.89-1-2.94-2.78-2.94s-2.75,1.05-3,2.94Z" fill="#fff"/><path d="M113.58,109.7v2.43h-5.41V89.55h5.41v9.24A5.59,5.59,0,0,1,118.51,96c3.69,0,6.68,2.76,6.68,8.12v.24c0,5.4-3,8.1-6.71,8.1A5.14,5.14,0,0,1,113.58,109.7Zm6.11-5.31v-.24c0-2.75-1.21-4.07-3.12-4.07s-3.14,1.41-3.14,4v.24c0,2.67,1.18,4,3.14,4S119.69,107,119.69,104.39Z" fill="#fff"/><path d="M127.16,96.45h5.41v3.12a5,5,0,0,1,5.11-3.33v5c-3.3-.09-5.11.93-5.11,3.44v7.44h-5.41Z" fill="#fff"/><path d="M138.64,104.48v-.24c0-5,3.78-8.21,8.56-8.21,4.32,0,8,2.46,8,8.09v1.41H144.12a3.14,3.14,0,0,0,3.29,3.27c1.78,0,2.54-.81,2.75-1.86h5.08c-.48,3.54-3.24,5.55-8,5.55C142.27,112.49,138.64,109.61,138.64,104.48Zm11.34-2c-.09-1.89-1-2.94-2.78-2.94s-2.75,1.05-3,2.94Z" fill="#fff"/><path d="M156.27,104.48v-.24c0-5,3.78-8.21,8.56-8.21,4.32,0,8,2.46,8,8.09v1.41H161.74a3.15,3.15,0,0,0,3.3,3.27c1.78,0,2.54-.81,2.75-1.86h5.08c-.49,3.54-3.24,5.55-8,5.55C159.9,112.49,156.27,109.61,156.27,104.48Zm11.34-2c-.1-1.89-1-2.94-2.78-2.94s-2.76,1.05-3,2.94Z" fill="#fff"/><path d="M173.29,111.59l6.92-11.09H174v-4H188V97l-7.1,11.06h6.74v4h-14.3Z" fill="#fff"/><path d="M194.6,110.54l-6.31-14.09h5.86l3.26,8.36,3-8.36h5.17l-8.47,20.93H192Z" fill="#fff"/><path d="M204.46,109.43a3,3,0,0,1,3.08-3,3,3,0,1,1,0,6.06A3,3,0,0,1,204.46,109.43Z" fill="#fff"/></svg>