<svg xmlns="http://www.w3.org/2000/svg" viewBox="0 0 300 250"><title>300x250_legal</title><g id="Layer_2" data-name="Layer 2"><g id="_Starting_price_for_simple_returns." data-name="*Starting price for simple returns."><path d="M20.83,156.38l.75-1-1.12-.26.2-.6,1.07.43-.06-1.21h.66L22.27,155l1.06-.43.2.6-1.13.26.76,1-.51.37L22,155.67l-.64,1.08Z" fill="#fff"/><path d="M24.21,158.47H25c.1.76.41,1.41,1.72,1.41a1.32,1.32,0,0,0,1.48-1.21c0-.73-.34-1-1.57-1.24s-2.17-.63-2.17-1.77a1.88,1.88,0,0,1,2.08-1.75,2,2,0,0,1,2.24,1.78H28c-.15-.81-.63-1.15-1.53-1.15s-1.35.45-1.35,1.05.24.95,1.56,1.15,2.21.66,2.21,1.87a2,2,0,0,1-2.24,1.9A2.16,2.16,0,0,1,24.21,158.47Z" fill="#fff"/><path d="M30.25,159.25v-2.9h-.68v-.63h.68v-1.07H31v1.07h1.1v.63H31v2.83c0,.46.2.68.59.68a1.68,1.68,0,0,0,.58-.09v.63a2,2,0,0,1-.65.1A1.15,1.15,0,0,1,30.25,159.25Z" fill="#fff"/><path d="M32.83,159.13c0-1.09,1.16-1.46,2.38-1.46h.68v-.34c0-.75-.29-1.07-1-1.07s-1,.27-1.09.85H33a1.66,1.66,0,0,1,1.88-1.47,1.53,1.53,0,0,1,1.73,1.69v3.1h-.75v-.59a1.72,1.72,0,0,1-1.48.67C33.53,160.51,32.83,160.09,32.83,159.13Zm3.06-.35v-.58h-.66c-.95,0-1.65.23-1.65.93,0,.48.24.79.9.79S35.89,159.51,35.89,158.78Z" fill="#fff"/><path d="M38,155.72h.75v.85a1.67,1.67,0,0,1,1.57-.93v.7c-1,0-1.57.35-1.57,1.51v2.58H38Z" fill="#fff"/><path d="M41.47,159.25v-2.9h-.69v-.63h.69v-1.07h.75v1.07h1.11v.63H42.22v2.83c0,.46.21.68.59.68a1.64,1.64,0,0,0,.58-.09v.63a1.89,1.89,0,0,1-.64.1A1.15,1.15,0,0,1,41.47,159.25Z" fill="#fff"/><path d="M44.27,154.25a.5.5,0,0,1,1,0,.5.5,0,0,1-1,0Zm.13,1.47h.76v4.71H44.4Z" fill="#fff"/><path d="M46.56,155.72h.76v.75a1.62,1.62,0,0,1,1.52-.83c1,0,1.67.53,1.67,1.9v2.89h-.75v-2.94c0-.83-.35-1.2-1.12-1.2a1.24,1.24,0,0,0-1.32,1.29v2.85h-.76Z" fill="#fff"/><path d="M51.6,160.7h.77c.11.54.56.82,1.37.82s1.53-.44,1.53-1.45v-.68a2,2,0,0,1-1.61.89,2.13,2.13,0,0,1-2.16-2.23V158a2.24,2.24,0,0,1,2.21-2.34,1.73,1.73,0,0,1,1.56.84v-.76H56v4.4c0,1.37-.94,2-2.27,2S51.73,161.49,51.6,160.7ZM55.29,158v-.06a1.47,1.47,0,0,0-1.5-1.67A1.51,1.51,0,0,0,52.28,158V158a1.49,1.49,0,0,0,1.46,1.64A1.53,1.53,0,0,0,55.29,158Z" fill="#fff"/><path d="M59.67,155.72h.76v.8a1.94,1.94,0,0,1,1.6-.88A2.15,2.15,0,0,1,64.19,158v.07A2.18,2.18,0,0,1,62,160.51a1.78,1.78,0,0,1-1.6-.85v2.41h-.76Zm3.74,2.4v-.07c0-1.19-.66-1.79-1.46-1.79s-1.55.58-1.55,1.79v.07c0,1.2.64,1.77,1.56,1.77S63.41,159.26,63.41,158.12Z" fill="#fff"/><path d="M65.23,155.72H66v.85a1.67,1.67,0,0,1,1.56-.93v.7c-1,0-1.56.35-1.56,1.51v2.58h-.75Z" fill="#fff"/><path d="M68.38,154.25a.5.5,0,0,1,1,0,.5.5,0,0,1-1,0Zm.14,1.47h.75v4.71h-.75Z" fill="#fff"/><path d="M70.32,158.13v-.08a2.3,2.3,0,0,1,2.31-2.41,1.86,1.86,0,0,1,2.06,1.65H74a1.19,1.19,0,0,0-1.32-1,1.6,1.6,0,0,0-1.53,1.79v.08c0,1.15.64,1.76,1.56,1.76A1.28,1.28,0,0,0,74,158.74h.7a2,2,0,0,1-2.07,1.77A2.25,2.25,0,0,1,70.32,158.13Z" fill="#fff"/><path d="M75.36,158.13v-.08a2.22,2.22,0,0,1,2.22-2.41A2.07,2.07,0,0,1,79.72,158v.25H76.14c0,1.07.55,1.66,1.53,1.66.73,0,1.16-.27,1.26-.82h.75a1.82,1.82,0,0,1-2,1.44A2.22,2.22,0,0,1,75.36,158.13Zm3.59-.51c-.08-1-.59-1.36-1.37-1.36a1.41,1.41,0,0,0-1.41,1.36Z" fill="#fff"/><path d="M83.16,156.35h-.68v-.63h.68V155c0-1,.47-1.51,1.42-1.51a1.4,1.4,0,0,1,.56.09v.63a1.39,1.39,0,0,0-.53-.1c-.49,0-.69.33-.69.81v.84h1.16v.63H83.92v4.08h-.76Z" fill="#fff"/><path d="M85.42,158.12v-.07a2.34,2.34,0,1,1,4.67,0v.07a2.34,2.34,0,1,1-4.67,0Zm3.89,0v-.07a1.57,1.57,0,1,0-3.11,0v.07a1.57,1.57,0,1,0,3.11,0Z" fill="#fff"/><path d="M91.12,155.72h.75v.85a1.67,1.67,0,0,1,1.56-.93v.7c-1,0-1.56.35-1.56,1.51v2.58h-.75Z" fill="#fff"/><path d="M96.27,159H97c0,.56.35.91,1.11.91s1-.24,1-.75-.37-.65-1.11-.79c-1.23-.22-1.65-.56-1.65-1.38A1.47,1.47,0,0,1,98,155.64,1.51,1.51,0,0,1,99.72,157H99c-.1-.51-.39-.74-1-.74s-.9.27-.9.68.23.59,1.11.75,1.67.39,1.67,1.39-.59,1.43-1.75,1.43S96.32,160,96.27,159Z" fill="#fff"/><path d="M100.76,154.25a.5.5,0,0,1,1,0,.5.5,0,0,1-1,0Zm.14,1.47h.75v4.71h-.75Z" fill="#fff"/><path d="M103.06,155.72h.75v.72a1.56,1.56,0,0,1,1.42-.8,1.38,1.38,0,0,1,1.39.88,1.83,1.83,0,0,1,1.62-.88c.86,0,1.6.51,1.6,1.87v2.92h-.75v-3c0-.83-.36-1.17-1-1.17a1.2,1.2,0,0,0-1.25,1.26v2.88h-.76v-3c0-.83-.35-1.17-1-1.17a1.21,1.21,0,0,0-1.25,1.26v2.88h-.75Z" fill="#fff"/><path d="M111.18,155.72h.75v.8a2,2,0,0,1,1.61-.88A2.15,2.15,0,0,1,115.7,158v.07a2.18,2.18,0,0,1-2.16,2.43,1.8,1.8,0,0,1-1.61-.85v2.41h-.75Zm3.74,2.4v-.07c0-1.19-.66-1.79-1.46-1.79s-1.56.58-1.56,1.79v.07c0,1.2.64,1.77,1.57,1.77S114.92,159.26,114.92,158.12Z" fill="#fff"/><path d="M116.75,153.47h.76v7h-.76Z" fill="#fff"/><path d="M118.56,158.13v-.08a2.23,2.23,0,0,1,2.23-2.41,2.07,2.07,0,0,1,2.13,2.34v.25h-3.58c0,1.07.56,1.66,1.53,1.66.73,0,1.16-.27,1.26-.82h.75a1.82,1.82,0,0,1-2,1.44A2.22,2.22,0,0,1,118.56,158.13Zm3.59-.51c-.07-1-.58-1.36-1.36-1.36a1.43,1.43,0,0,0-1.42,1.36Z" fill="#fff"/><path d="M126.2,155.72H127v.85a1.65,1.65,0,0,1,1.56-.93v.7c-1,0-1.56.35-1.56,1.51v2.58h-.76Z" fill="#fff"/><path d="M129,158.13v-.08a2.22,2.22,0,0,1,2.22-2.41,2.07,2.07,0,0,1,2.13,2.34v.25h-3.57c0,1.07.55,1.66,1.52,1.66.74,0,1.17-.27,1.26-.82h.76a1.83,1.83,0,0,1-2,1.44A2.21,2.21,0,0,1,129,158.13Zm3.58-.51c-.07-1-.58-1.36-1.36-1.36a1.43,1.43,0,0,0-1.42,1.36Z" fill="#fff"/><path d="M134.52,159.25v-2.9h-.68v-.63h.68v-1.07h.75v1.07h1.11v.63h-1.11v2.83c0,.46.21.68.59.68a1.7,1.7,0,0,0,.59-.09v.63a2,2,0,0,1-.65.1A1.15,1.15,0,0,1,134.52,159.25Z" fill="#fff"/><path d="M137.4,158.7v-3h.75v2.95c0,.83.35,1.19,1.1,1.19a1.25,1.25,0,0,0,1.31-1.28v-2.86h.75v4.71h-.75v-.75a1.62,1.62,0,0,1-1.51.83C138.1,160.51,137.4,160,137.4,158.7Z" fill="#fff"/><path d="M142.7,155.72h.75v.85a1.67,1.67,0,0,1,1.56-.93v.7c-.95,0-1.56.35-1.56,1.51v2.58h-.75Z" fill="#fff"/><path d="M146,155.72h.75v.75a1.65,1.65,0,0,1,1.53-.83c1,0,1.67.53,1.67,1.9v2.89h-.75v-2.94c0-.83-.36-1.2-1.12-1.2a1.25,1.25,0,0,0-1.33,1.29v2.85H146Z" fill="#fff"/><path d="M150.87,159h.73c.06.56.36.91,1.12.91s1-.24,1-.75-.38-.65-1.11-.79c-1.24-.22-1.65-.56-1.65-1.38a1.47,1.47,0,0,1,1.6-1.33,1.51,1.51,0,0,1,1.72,1.36h-.73a.87.87,0,0,0-1-.74c-.54,0-.89.27-.89.68s.23.59,1.1.75,1.67.39,1.67,1.39-.59,1.43-1.74,1.43S150.92,160,150.87,159Z" fill="#fff"/><path d="M155.42,159.9a.58.58,0,0,1,.58-.58.58.58,0,1,1,0,1.16A.58.58,0,0,1,155.42,159.9Z" fill="#fff"/></g><g id="Rect"><rect width="300" height="250" fill="none"/></g></g></svg>