<svg xmlns="http://www.w3.org/2000/svg" viewBox="0 0 300 250"><title>300x250</title><g id="Layer_2" data-name="Layer 2"><g id="_59_takes_taxes_off_your_to-do_list." data-name="$59* takes taxes  off your to-do list."><path d="M24.93,65.71c-3.05-.21-4.53-1.82-4.66-4.13h3.26a1.67,1.67,0,0,0,1.4,1.64V60.67c-3.07-.44-4.38-1.54-4.38-4,0-2.11,1.68-3.64,4.38-3.83V51.32H26.3v1.57c2.56.21,4.07,1.38,4.28,3.78H27.39a1.4,1.4,0,0,0-1.09-1.32v2.42c2.7.38,4.46,1.29,4.46,3.83,0,2.13-1.39,3.91-4.46,4.11v2.18H24.93Zm0-8.15V55.32c-.8.14-1.2.56-1.2,1.12S24,57.37,24.93,57.56ZM26.3,60.9v2.32A1.25,1.25,0,0,0,27.48,62C27.48,61.41,27.23,61.11,26.3,60.9Z" fill="#fff"/><path d="M31.78,68.77H37.4c.22,1.5.82,2.49,2.82,2.49,1.78,0,2.6-1.32,2.6-3a2.74,2.74,0,0,0-2.94-3.06,4.45,4.45,0,0,0-3.57,1.53H32.63l.45-12.62H47.66v4.5H37.55l-.12,4.74a5.78,5.78,0,0,1,5-2.28c4,0,6.57,2.64,6.57,7.28s-3.3,7.56-8.77,7.56C34.53,75.88,31.93,72.79,31.78,68.77Z" fill="#fff"/><path d="M50.53,69.46h5.68c.22,1.08.88,1.83,2.54,1.83,2.58,0,3.63-1.92,3.72-5.58a5.14,5.14,0,0,1-4.89,2.52c-4.15,0-7.32-2.37-7.32-6.92s3.38-7.56,8.89-7.56c6.44,0,9.46,4.29,9.46,10.5V65c0,7-3.38,10.89-9.55,10.89C54,75.85,51,73.57,50.53,69.46ZM62,61.28a2.92,2.92,0,0,0-3-3.21,2.89,2.89,0,0,0-2.88,3.15,2.81,2.81,0,0,0,2.88,3.06A2.86,2.86,0,0,0,62,61.28Z" fill="#fff"/><path d="M70.7,62.12l2.69-2.7L69.85,59l1-3.69,3.33,1.59-.73-3.69h4.33l-.73,3.69,3.3-1.59L81.44,59l-3.57.39,2.69,2.7-3.24,2.31L75.63,61,74,64.43Z" fill="#fff"/><path d="M89.66,70.48v-7h-1.9V59.84h1.9V56.57h5.41v3.27h3.12V63.5H95.07V70a1.44,1.44,0,0,0,1.61,1.65,4.15,4.15,0,0,0,1.54-.27v4.08a11.44,11.44,0,0,1-3,.45C91.66,75.88,89.66,74.17,89.66,70.48Z" fill="#fff"/><path d="M99.4,71.17c0-3.69,3.14-5.13,8.41-5.13h1.51v-.36c0-1.49-.36-2.48-2.09-2.48a1.94,1.94,0,0,0-2.15,1.85H100c.25-3.77,3.24-5.63,7.56-5.63s7.14,1.77,7.14,5.93V75.52h-5.26V73.69a5.22,5.22,0,0,1-4.69,2.19C101.91,75.88,99.4,74.5,99.4,71.17ZM109.32,70v-1H107.9c-2.18,0-3.15.42-3.15,1.71,0,.9.61,1.47,1.88,1.47C108.17,72.25,109.32,71.38,109.32,70Z" fill="#fff"/><path d="M117.33,52.94h5.42V66l4.26-6.2h5.62l-5.17,7,5.6,8.64h-6l-4.26-6.87v6.87h-5.42Z" fill="#fff"/><path d="M132.66,67.87v-.24c0-5,3.79-8.21,8.56-8.21,4.33,0,8.05,2.46,8.05,8.09v1.41H138.14a3.15,3.15,0,0,0,3.3,3.27c1.78,0,2.54-.81,2.75-1.86h5.08c-.49,3.54-3.24,5.55-8,5.55C136.29,75.88,132.66,73,132.66,67.87Zm11.35-2C143.92,64,143,63,141.22,63s-2.75,1.05-3,2.93Z" fill="#fff"/><path d="M150.23,70.54h5c.19,1.14.7,1.77,2.24,1.77,1.33,0,1.94-.51,1.94-1.29s-.76-1.11-2.94-1.41c-4.23-.54-6-1.77-6-5,0-3.48,3.11-5.16,6.77-5.16,3.9,0,6.62,1.32,7,5.07h-4.9a1.77,1.77,0,0,0-2-1.56c-1.18,0-1.78.51-1.78,1.23s.72,1,2.66,1.28c4.38.54,6.5,1.68,6.5,5,0,3.72-2.78,5.4-7.17,5.4S150.36,74,150.23,70.54Z" fill="#fff"/><path d="M172.64,70.48v-7h-1.9V59.84h1.9V56.57h5.42v3.27h3.11V63.5h-3.11V70a1.44,1.44,0,0,0,1.6,1.65,4.15,4.15,0,0,0,1.54-.27v4.08a11.37,11.37,0,0,1-3,.45C174.64,75.88,172.64,74.17,172.64,70.48Z" fill="#fff"/><path d="M182.38,71.17c0-3.69,3.14-5.13,8.41-5.13h1.51v-.36c0-1.49-.36-2.48-2.09-2.48a1.94,1.94,0,0,0-2.15,1.85H183c.25-3.77,3.24-5.63,7.56-5.63s7.14,1.77,7.14,5.93V75.52h-5.26V73.69a5.22,5.22,0,0,1-4.69,2.19C184.89,75.88,182.38,74.5,182.38,71.17ZM192.3,70v-1h-1.42c-2.18,0-3.15.42-3.15,1.71,0,.9.61,1.47,1.88,1.47C191.15,72.25,192.3,71.38,192.3,70Z" fill="#fff"/><path d="M204.3,67.54l-4.92-7.7h6.23L208.05,64l2.39-4.14H216l-5,7.28,5.47,8.4h-6.23l-2.81-4.68-2.87,4.68H199Z" fill="#fff"/><path d="M215.8,67.87v-.24c0-5,3.78-8.21,8.55-8.21,4.33,0,8.05,2.46,8.05,8.09v1.41H221.27a3.15,3.15,0,0,0,3.3,3.27c1.78,0,2.54-.81,2.75-1.86h5.08c-.48,3.54-3.24,5.55-8,5.55C219.42,75.88,215.8,73,215.8,67.87Zm11.34-2c-.09-1.88-1-2.93-2.79-2.93s-2.75,1.05-3,2.93Z" fill="#fff"/><path d="M233.37,70.54h5c.18,1.14.69,1.77,2.23,1.77,1.33,0,1.94-.51,1.94-1.29s-.76-1.11-2.93-1.41c-4.24-.54-6-1.77-6-5,0-3.48,3.11-5.16,6.77-5.16,3.9,0,6.62,1.32,7,5.07h-4.9a1.77,1.77,0,0,0-2-1.56c-1.18,0-1.78.51-1.78,1.23s.72,1,2.66,1.28c4.38.54,6.5,1.68,6.5,5,0,3.72-2.78,5.4-7.17,5.4S233.49,74,233.37,70.54Z" fill="#fff"/><path d="M20.61,99.86v-.24c0-5,3.78-8.21,8.68-8.21s8.61,3.09,8.61,8.06v.24c0,5.1-3.78,8.16-8.64,8.16S20.61,104.93,20.61,99.86Zm11.79-.09v-.24c0-2.64-1.06-4.1-3.11-4.1s-3.15,1.4-3.15,4v.24c0,2.7,1.06,4.17,3.15,4.17S32.4,102.38,32.4,99.77Z" fill="#fff"/><path d="M40.63,95.49h-2V91.83h2v-1.2c0-3.9,2.42-5.73,6.17-5.73a9.09,9.09,0,0,1,2.41.3v3.93a4.74,4.74,0,0,0-1.45-.21A1.57,1.57,0,0,0,46,90.63v1.2h4.6V90.45c0-3.9,2.48-5.76,6.2-5.76a9.8,9.8,0,0,1,2.48.33V89a5.08,5.08,0,0,0-1.49-.21A1.57,1.57,0,0,0,56,90.45v1.38h3.21v3.66H56v12H50.61v-12H46v12H40.63Z" fill="#fff"/><path d="M71.47,105.92,65.15,91.83H71l3.27,8.36,3-8.36h5.17L74,112.76H68.84Z" fill="#fff"/><path d="M82.18,99.86v-.24c0-5,3.78-8.21,8.68-8.21s8.62,3.09,8.62,8.06v.24c0,5.1-3.78,8.16-8.65,8.16S82.18,104.93,82.18,99.86ZM94,99.77v-.24c0-2.64-1.06-4.1-3.11-4.1s-3.15,1.4-3.15,4v.24c0,2.7,1.06,4.17,3.15,4.17S94,102.38,94,99.77Z" fill="#fff"/><path d="M101.26,102.05V91.83h5.41v9.35c0,1.77.7,2.64,2.24,2.64s2.69-1,2.69-3v-9H117v15.68H111.6v-2.43a5.2,5.2,0,0,1-5,2.79C103.53,107.87,101.26,106,101.26,102.05Z" fill="#fff"/><path d="M119.77,91.83h5.41V95a5,5,0,0,1,5.11-3.33v5c-3.29-.09-5.11.93-5.11,3.45v7.44h-5.41Z" fill="#fff"/><path d="M138.49,102.47v-7h-1.91V91.83h1.91V88.56h5.41v3.27H147v3.66H143.9V102a1.44,1.44,0,0,0,1.6,1.65,4.2,4.2,0,0,0,1.55-.27v4.08a11.53,11.53,0,0,1-3,.45C140.48,107.87,138.49,106.16,138.49,102.47Z" fill="#fff"/><path d="M148.22,99.86v-.24c0-5,3.78-8.21,8.68-8.21s8.62,3.09,8.62,8.06v.24c0,5.1-3.78,8.16-8.65,8.16S148.22,104.93,148.22,99.86Zm11.8-.09v-.24c0-2.64-1.06-4.1-3.12-4.1s-3.14,1.4-3.14,4v.24c0,2.7,1.06,4.17,3.14,4.17S160,102.38,160,99.77Z" fill="#fff"/><path d="M167.37,96.92h8.47v4h-8.47Z" fill="#fff"/><path d="M177.74,99.83v-.24c0-5.33,3-8.18,6.71-8.18a5.13,5.13,0,0,1,4.87,2.64V84.93h5.42v22.58h-5.42V105a5.33,5.33,0,0,1-4.93,2.91C180.73,107.87,177.74,105.26,177.74,99.83Zm11.73-.09V99.5c0-2.64-1.12-4-3.11-4s-3.12,1.34-3.12,4.07v.24c0,2.64,1.18,4,3.06,4S189.47,102.41,189.47,99.74Z" fill="#fff"/><path d="M196.64,99.86v-.24c0-5,3.78-8.21,8.68-8.21s8.62,3.09,8.62,8.06v.24c0,5.1-3.78,8.16-8.65,8.16S196.64,104.93,196.64,99.86Zm11.8-.09v-.24c0-2.64-1.06-4.1-3.12-4.1s-3.14,1.4-3.14,4v.24c0,2.7,1,4.17,3.14,4.17S208.44,102.38,208.44,99.77Z" fill="#fff"/><path d="M221.5,84.93h5.38v22.58H221.5Z" fill="#fff"/><path d="M229.66,87.57a3,3,0,1,1,3,2.76A2.82,2.82,0,0,1,229.66,87.57Zm.28,4.26h5.41v15.68h-5.41Z" fill="#fff"/><path d="M237.19,102.53h5c.19,1.14.7,1.77,2.24,1.77,1.33,0,1.94-.51,1.94-1.29s-.76-1.11-2.94-1.41c-4.23-.54-6-1.77-6-5,0-3.47,3.11-5.15,6.77-5.15,3.9,0,6.62,1.32,7,5.06h-4.9a1.77,1.77,0,0,0-2-1.55c-1.18,0-1.78.51-1.78,1.23s.72,1,2.66,1.28c4.38.54,6.5,1.68,6.5,5,0,3.72-2.78,5.4-7.17,5.4S237.31,106,237.19,102.53Z" fill="#fff"/><path d="M254.1,102.47v-7h-1.91V91.83h1.91V88.56h5.41v3.27h3.12v3.66h-3.12V102a1.44,1.44,0,0,0,1.6,1.65,4.2,4.2,0,0,0,1.55-.27v4.08a11.53,11.53,0,0,1-3,.45C256.09,107.87,254.1,106.16,254.1,102.47Z" fill="#fff"/><path d="M264.47,104.81a3,3,0,0,1,3.09-3,3,3,0,1,1,0,6.06A3,3,0,0,1,264.47,104.81Z" fill="#fff"/></g><g id="Rect"><rect width="300" height="250" fill="none"/></g></g></svg>