<svg xmlns="http://www.w3.org/2000/svg" viewBox="0 0 164 38"><title>file_online_now</title><g id="Layer_2" data-name="Layer 2"><g id="File_online_now" data-name="File online now"><path d="M24.11,12.15h7.83v2.17H26.87v3.25h4v2.09h-4v4.75H24.11Z" fill="#262626"/><path d="M33,12.87a1.41,1.41,0,1,1,1.4,1.35A1.35,1.35,0,0,1,33,12.87Zm.19,2.57h2.45v9H33.21Z" fill="#262626"/><path d="M37.75,11.37H40.2v13H37.75Z" fill="#262626"/><path d="M41.65,20V19.9a4.45,4.45,0,0,1,4.59-4.67c2.31,0,4.35,1.36,4.35,4.57v.68H44.16a2.15,2.15,0,0,0,2.22,2.35c1.14,0,1.7-.5,1.86-1.25h2.34c-.29,1.94-1.83,3-4.27,3A4.35,4.35,0,0,1,41.65,20ZM48.19,19c-.09-1.36-.77-2-1.95-2a2,2,0,0,0-2,2Z" fill="#262626"/><path d="M55,20v-.14a4.49,4.49,0,0,1,4.71-4.65,4.44,4.44,0,0,1,4.69,4.6V20A4.7,4.7,0,0,1,55,20Zm6.89,0v-.12c0-1.71-.8-2.74-2.18-2.74s-2.19,1-2.19,2.71V20c0,1.71.79,2.74,2.19,2.74S61.84,21.68,61.84,20Z" fill="#262626"/><path d="M65.75,15.44h2.47v1.42a3.09,3.09,0,0,1,2.9-1.63c1.76,0,3,1.07,3,3.47v5.71H71.65V19.06c0-1.22-.47-1.8-1.57-1.8a1.77,1.77,0,0,0-1.86,2v5.18H65.75Z" fill="#262626"/><path d="M76.06,11.37h2.46v13H76.06Z" fill="#262626"/><path d="M80.39,12.87a1.41,1.41,0,1,1,1.4,1.35A1.36,1.36,0,0,1,80.39,12.87Zm.19,2.57H83v9H80.58Z" fill="#262626"/><path d="M85.05,15.44h2.48v1.42a3.07,3.07,0,0,1,2.9-1.63c1.75,0,3,1.07,3,3.47v5.71H91V19.06c0-1.22-.48-1.8-1.57-1.8a1.77,1.77,0,0,0-1.86,2v5.18H85.05Z" fill="#262626"/><path d="M94.75,20V19.9a4.44,4.44,0,0,1,4.58-4.67c2.31,0,4.36,1.36,4.36,4.57v.68H97.25a2.15,2.15,0,0,0,2.22,2.35c1.14,0,1.71-.5,1.86-1.25h2.34c-.29,1.94-1.83,3-4.27,3A4.34,4.34,0,0,1,94.75,20ZM101.28,19c-.09-1.36-.77-2-2-2a2.06,2.06,0,0,0-2,2Z" fill="#262626"/><path d="M108.59,15.44h2.47v1.42a3.08,3.08,0,0,1,2.9-1.63c1.76,0,3,1.07,3,3.47v5.71h-2.47V19.06c0-1.22-.48-1.8-1.57-1.8a1.77,1.77,0,0,0-1.86,2v5.18h-2.47Z" fill="#262626"/><path d="M118.28,20v-.14A4.49,4.49,0,0,1,123,15.23a4.44,4.44,0,0,1,4.69,4.6V20a4.7,4.7,0,0,1-9.4.05Zm6.89,0v-.12c0-1.71-.8-2.74-2.18-2.74s-2.19,1-2.19,2.71V20c0,1.71.79,2.74,2.19,2.74S125.17,21.68,125.17,20Z" fill="#262626"/><path d="M128,15.44h2.59l1.58,6,1.73-6h2l1.57,6,1.69-6h2.37l-2.82,9h-2.42l-1.52-5.63-1.64,5.63h-2.45Z" fill="#262626"/></g><g id="Rect"><rect width="164" height="38" fill="none"/></g></g></svg>