<svg xmlns="http://www.w3.org/2000/svg" viewBox="0 0 600 500"><title>txt</title><g id="Layer_2" data-name="Layer 2"><g id="H_R_Block_Free_Online_includes_student_loan_interest_deduction" data-name="H&amp;R Block Free Online includes student loan  interest deduction"><path d="M42.32,99.69h9.9v13.13h11.3V99.69h9.86v34.38H63.52V120.51H52.22v13.56h-9.9Z" fill="#fff"/><path d="M107.08,127.05l5.72,7H101.6l-2-2.5a13.71,13.71,0,0,1-9.28,3.08c-7.31,0-12.07-3.85-12.07-10.39,0-4.42,2.69-7.69,7.55-10a11,11,0,0,1-2.12-6c0-5.87,5-9,11.06-9,5.48,0,10.43,2.74,10.43,8,0,3.75-2.21,6.49-6.87,8.51l4.33,5.29,2.5-4.91h7.5Zm-11.93-1-5.43-6.54a4.07,4.07,0,0,0-2.31,3.7,4,4,0,0,0,4.38,4.28A4.49,4.49,0,0,0,95.15,126ZM94.1,112.19c2.3-1.1,3.41-2.4,3.41-4.18A2.48,2.48,0,0,0,95,105.36a2.75,2.75,0,0,0-2.84,3C92.12,109.6,92.89,110.8,94.1,112.19Z" fill="#fff"/><path d="M116.64,99.69H130.1c9,0,14,3.66,14,10.92v.19a9,9,0,0,1-6.21,9l8.23,14.23H135.73l-7-12.31h-2.31v12.31h-9.81Zm13,15.68c3.32,0,5-1.4,5-4.19V111c0-2.79-1.74-3.89-4.91-3.89h-3.22v8.27Z" fill="#fff"/><path d="M159.62,99.69H175c8.12,0,11.59,3.66,11.59,9v.19c0,3.85-2,6.4-5.82,7.41,4.23.72,6.87,3.27,6.87,8v.19c0,6.16-4,9.57-12.5,9.57H159.62ZM173,113.35c3.07,0,4.23-1.06,4.23-3.51v-.2c0-2.35-1.25-3.41-4.23-3.41h-3.75v7.12Zm.33,14.13c3.13,0,4.57-1.44,4.57-4v-.19c0-2.6-1.39-3.94-4.86-3.94h-3.79v8.12Z" fill="#fff"/><path d="M191.73,97.86h8.56v36.21h-8.56Z" fill="#fff"/><path d="M204.28,121.81v-.39c0-8.07,6-13.17,13.8-13.17s13.7,5,13.7,12.93v.39c0,8.17-6,13.08-13.75,13.08S204.28,129.93,204.28,121.81Zm18.75-.15v-.38c0-4.23-1.68-6.59-4.95-6.59s-5,2.26-5,6.49v.39c0,4.33,1.68,6.68,5,6.68S223,125.85,223,121.66Z" fill="#fff"/><path d="M234.18,121.81v-.39c0-8.36,6-13.17,13.42-13.17,6.15,0,11.83,2.69,12.31,10.34h-8.08c-.39-2.36-1.54-3.66-4-3.66-3,0-4.81,2.17-4.81,6.4v.38c0,4.38,1.69,6.64,5,6.64,2.4,0,4.08-1.45,4.37-4.19h7.74c-.24,6.35-4.52,10.49-12.64,10.49C239.91,134.65,234.18,130.27,234.18,121.81Z" fill="#fff"/><path d="M263.56,97.86h8.6v21l6.78-10h8.95l-8.22,11.3,8.89,13.85h-9.62l-6.78-11v11h-8.6Z" fill="#fff"/><path d="M301.54,99.69h23.22v7.65H311.44v7.3h10.63v7.26H311.44v12.17h-9.9Z" fill="#fff"/><path d="M327.79,108.92h8.6v5c1.59-3.75,4.23-5.38,8.13-5.33v8c-5.24-.15-8.13,1.49-8.13,5.53v11.92h-8.6Z" fill="#fff"/><path d="M346.78,121.81v-.39c0-8.07,6-13.17,13.6-13.17,6.88,0,12.79,3.94,12.79,13v2.26H355.48c.24,3.32,2.16,5.24,5.24,5.24,2.84,0,4-1.3,4.37-3h8.08c-.77,5.67-5.14,8.9-12.74,8.9C352.55,134.65,346.78,130,346.78,121.81Zm18-3.17c-.15-3-1.64-4.72-4.43-4.72-2.59,0-4.37,1.69-4.8,4.72Z" fill="#fff"/><path d="M375.53,121.81v-.39c0-8.07,6-13.17,13.6-13.17,6.88,0,12.79,3.94,12.79,13v2.26H384.23c.24,3.32,2.16,5.24,5.24,5.24,2.84,0,4-1.3,4.37-3h8.08c-.77,5.67-5.14,8.9-12.74,8.9C381.29,134.65,375.53,130,375.53,121.81Zm18-3.17c-.15-3-1.64-4.72-4.43-4.72-2.59,0-4.37,1.69-4.81,4.72Z" fill="#fff"/><path d="M414,117.1v-.39c0-10.48,7.89-17.5,18.18-17.5,10.48,0,18.22,6.59,18.22,17.26v.39c0,10.57-7.26,17.79-18.37,17.79S414,127.43,414,117.1Zm26.11-.1v-.38c0-6.11-3.08-9.72-7.93-9.72s-7.89,3.51-7.89,9.76v.39c0,6.25,3.18,9.85,7.94,9.85S440.14,123.15,440.14,117Z" fill="#fff"/><path d="M454.46,108.92h8.61v4a8.89,8.89,0,0,1,8.27-4.71c4.86,0,8.22,3,8.22,9.47v16.35H471V119.45c0-2.83-1.11-4.23-3.61-4.23s-4.28,1.54-4.28,4.76v14.09h-8.61Z" fill="#fff"/><path d="M484.7,97.86h8.56v36.21H484.7Z" fill="#fff"/><path d="M498.4,102.1a4.75,4.75,0,1,1,4.72,4.42A4.5,4.5,0,0,1,498.4,102.1Zm.44,6.82h8.6v25.15h-8.6Z" fill="#fff"/><path d="M512.78,108.92h8.61v4a8.87,8.87,0,0,1,8.27-4.71c4.85,0,8.22,3,8.22,9.47v16.35h-8.61V119.45c0-2.83-1.1-4.23-3.6-4.23s-4.28,1.54-4.28,4.76v14.09h-8.61Z" fill="#fff"/><path d="M541.43,121.81v-.39c0-8.07,6-13.17,13.61-13.17,6.88,0,12.79,3.94,12.79,13v2.26h-17.7c.25,3.32,2.17,5.24,5.25,5.24,2.83,0,4-1.3,4.37-3h8.08c-.77,5.67-5.15,8.9-12.74,8.9C547.2,134.65,541.43,130,541.43,121.81Zm18-3.17c-.14-3-1.63-4.72-4.42-4.72-2.6,0-4.38,1.69-4.81,4.72Z" fill="#fff"/><path d="M41.36,152.1a4.74,4.74,0,0,1,9.47,0,4.5,4.5,0,0,1-4.76,4.42A4.46,4.46,0,0,1,41.36,152.1Zm.43,6.82H50.4v25.15H41.79Z" fill="#fff"/><path d="M55.73,158.92h8.61v4a8.87,8.87,0,0,1,8.27-4.71c4.85,0,8.22,3,8.22,9.47v16.35H72.22V169.45c0-2.83-1.1-4.23-3.6-4.23s-4.28,1.54-4.28,4.76v14.09H55.73Z" fill="#fff"/><path d="M84.38,171.81v-.39c0-8.36,6-13.17,13.42-13.17,6.15,0,11.82,2.69,12.31,10.34H102c-.39-2.36-1.54-3.66-4-3.66-3,0-4.81,2.17-4.81,6.4v.38c0,4.38,1.68,6.64,4.95,6.64,2.41,0,4.09-1.45,4.38-4.19h7.74c-.24,6.35-4.52,10.49-12.65,10.49C90.1,184.65,84.38,180.27,84.38,171.81Z" fill="#fff"/><path d="M114,147.86h8.56v36.21H114Z" fill="#fff"/><path d="M127.7,175.32v-16.4h8.6v15c0,2.84,1.11,4.23,3.56,4.23s4.28-1.53,4.28-4.75V158.92h8.61v25.15h-8.61v-3.9c-1.35,2.6-3.8,4.48-8,4.48C131.3,184.65,127.7,181.67,127.7,175.32Z" fill="#fff"/><path d="M156.59,171.76v-.38c0-8.56,4.71-13.13,10.67-13.13,4,0,6.3,1.68,7.74,4.23V147.86h8.61v36.21H175V180a8.46,8.46,0,0,1-7.83,4.67C161.35,184.65,156.59,180.46,156.59,171.76Zm18.66-.14v-.39c0-4.23-1.78-6.49-5-6.49s-4.95,2.16-4.95,6.54v.38c0,4.24,1.88,6.4,4.86,6.4S175.25,175.9,175.25,171.62Z" fill="#fff"/><path d="M187.36,171.81v-.39c0-8.07,6-13.17,13.6-13.17,6.88,0,12.79,3.94,12.79,13v2.26H196.06c.24,3.32,2.16,5.24,5.24,5.24,2.84,0,4-1.3,4.38-3h8.07c-.76,5.67-5.14,8.9-12.74,8.9C193.13,184.65,187.36,180,187.36,171.81Zm18-3.17c-.15-3-1.64-4.72-4.43-4.72-2.59,0-4.37,1.69-4.8,4.72Z" fill="#fff"/><path d="M216,176.09h7.93c.29,1.82,1.11,2.83,3.56,2.83,2.12,0,3.08-.81,3.08-2.06s-1.2-1.78-4.67-2.26c-6.73-.87-9.56-2.84-9.56-8.08,0-5.58,5-8.27,10.77-8.27,6.2,0,10.53,2.12,11.1,8.13h-7.79c-.33-1.69-1.25-2.5-3.22-2.5s-2.83.81-2.83,2,1.15,1.68,4.23,2.06c7,.87,10.33,2.7,10.33,8.08,0,6-4.42,8.66-11.39,8.66C220.39,184.65,216.2,181.67,216,176.09Z" fill="#fff"/><path d="M250.24,176.09h7.93c.29,1.82,1.11,2.83,3.56,2.83,2.12,0,3.08-.81,3.08-2.06s-1.2-1.78-4.67-2.26c-6.73-.87-9.56-2.84-9.56-8.08,0-5.58,4.95-8.27,10.77-8.27,6.2,0,10.53,2.12,11.1,8.13h-7.79c-.33-1.69-1.25-2.5-3.22-2.5s-2.84.81-2.84,2,1.16,1.68,4.24,2.06c7,.87,10.33,2.7,10.33,8.08,0,6-4.42,8.66-11.39,8.66C254.61,184.65,250.43,181.67,250.24,176.09Z" fill="#fff"/><path d="M277.83,176v-11.2h-3v-5.87h3v-5.24h8.61v5.24h4.95v5.87h-4.95v10.38c0,1.83.91,2.65,2.55,2.65a6.73,6.73,0,0,0,2.45-.43v6.53a17.89,17.89,0,0,1-4.76.73C281,184.65,277.83,181.91,277.83,176Z" fill="#fff"/><path d="M295.19,175.32v-16.4h8.61v15c0,2.84,1.1,4.23,3.55,4.23s4.28-1.53,4.28-4.75V158.92h8.61v25.15h-8.61v-3.9c-1.34,2.6-3.8,4.48-8,4.48C298.8,184.65,295.19,181.67,295.19,175.32Z" fill="#fff"/><path d="M324.08,171.76v-.38c0-8.56,4.71-13.13,10.68-13.13,3.94,0,6.29,1.68,7.74,4.23V147.86h8.6v36.21h-8.6V180a8.47,8.47,0,0,1-7.84,4.67C328.84,184.65,324.08,180.46,324.08,171.76Zm18.66-.14v-.39c0-4.23-1.78-6.49-4.95-6.49s-5,2.16-5,6.54v.38c0,4.24,1.88,6.4,4.86,6.4S342.74,175.9,342.74,171.62Z" fill="#fff"/><path d="M354.85,171.81v-.39c0-8.07,6-13.17,13.61-13.17,6.87,0,12.79,3.94,12.79,13v2.26h-17.7c.24,3.32,2.17,5.24,5.24,5.24,2.84,0,4-1.3,4.38-3h8.08c-.77,5.67-5.15,8.9-12.75,8.9C360.62,184.65,354.85,180,354.85,171.81Zm18-3.17c-.14-3-1.63-4.72-4.42-4.72-2.6,0-4.38,1.69-4.81,4.72Z" fill="#fff"/><path d="M385,158.92h8.6v4a8.89,8.89,0,0,1,8.27-4.71c4.86,0,8.22,3,8.22,9.47v16.35h-8.6V169.45c0-2.83-1.11-4.23-3.61-4.23s-4.28,1.54-4.28,4.76v14.09H385Z" fill="#fff"/><path d="M416.1,176v-11.2h-3v-5.87h3v-5.24h8.61v5.24h5v5.87h-5v10.38c0,1.83.91,2.65,2.54,2.65a6.78,6.78,0,0,0,2.46-.43v6.53a18,18,0,0,1-4.76.73C419.27,184.65,416.1,181.91,416.1,176Z" fill="#fff"/><path d="M443.36,147.86h8.56v36.21h-8.56Z" fill="#fff"/><path d="M455.9,171.81v-.39c0-8.07,6-13.17,13.8-13.17s13.71,4.95,13.71,12.93v.39c0,8.17-6,13.08-13.75,13.08S455.9,179.93,455.9,171.81Zm18.76-.15v-.38c0-4.23-1.69-6.59-5-6.59s-5,2.26-5,6.49v.39c0,4.33,1.69,6.68,5,6.68S474.66,175.85,474.66,171.66Z" fill="#fff"/><path d="M485.71,177.1c0-5.92,5-8.22,13.37-8.22h2.4v-.58c0-2.41-.58-4-3.32-4a3.09,3.09,0,0,0-3.41,3h-8.08c.39-6.06,5.15-9,12-9S510,161.09,510,167.77v16.3h-8.37v-2.93c-1.2,1.82-3.41,3.51-7.45,3.51C489.7,184.65,485.71,182.43,485.71,177.1Zm15.77-1.83v-1.54h-2.26c-3.46,0-5,.67-5,2.74,0,1.44,1,2.36,3,2.36C499.65,178.83,501.48,177.43,501.48,175.27Z" fill="#fff"/><path d="M514.94,158.92h8.61v4a8.87,8.87,0,0,1,8.27-4.71c4.85,0,8.22,3,8.22,9.47v16.35h-8.61V169.45c0-2.83-1.1-4.23-3.6-4.23s-4.28,1.54-4.28,4.76v14.09h-8.61Z" fill="#fff"/><path d="M41.36,202.1a4.74,4.74,0,0,1,9.47,0,4.5,4.5,0,0,1-4.76,4.42A4.46,4.46,0,0,1,41.36,202.1Zm.43,6.82H50.4v25.15H41.79Z" fill="#fff"/><path d="M55.73,208.92h8.61v4a8.87,8.87,0,0,1,8.27-4.71c4.85,0,8.22,3,8.22,9.47v16.35H72.22V219.45c0-2.83-1.1-4.23-3.6-4.23s-4.28,1.54-4.28,4.76v14.09H55.73Z" fill="#fff"/><path d="M86.88,226v-11.2h-3v-5.87h3v-5.24h8.61v5.24h5v5.87h-5v10.38c0,1.83.91,2.65,2.55,2.65a6.73,6.73,0,0,0,2.45-.43v6.53a18,18,0,0,1-4.76.73C90.06,234.65,86.88,231.91,86.88,226Z" fill="#fff"/><path d="M103.08,221.81v-.39c0-8.07,6-13.17,13.61-13.17,6.88,0,12.79,3.94,12.79,13v2.26H111.79c.24,3.32,2.16,5.24,5.24,5.24,2.83,0,4-1.3,4.37-3h8.08c-.77,5.67-5.14,8.9-12.74,8.9C108.85,234.65,103.08,230,103.08,221.81Zm18-3.17c-.14-3-1.63-4.72-4.42-4.72-2.6,0-4.37,1.69-4.81,4.72Z" fill="#fff"/><path d="M133.18,208.92h8.61v5a7.91,7.91,0,0,1,8.12-5.33v8c-5.24-.15-8.12,1.49-8.12,5.53v11.92h-8.61Z" fill="#fff"/><path d="M152.17,221.81v-.39c0-8.07,6-13.17,13.61-13.17,6.87,0,12.78,3.94,12.78,13v2.26H160.87c.24,3.32,2.17,5.24,5.24,5.24,2.84,0,4-1.3,4.38-3h8.07c-.76,5.67-5.14,8.9-12.74,8.9C157.94,234.65,152.17,230,152.17,221.81Zm18-3.17c-.15-3-1.64-4.72-4.42-4.72-2.6,0-4.38,1.69-4.81,4.72Z" fill="#fff"/><path d="M180.82,226.09h7.93c.29,1.82,1.11,2.83,3.56,2.83,2.12,0,3.08-.81,3.08-2.06s-1.2-1.78-4.66-2.26c-6.74-.87-9.57-2.84-9.57-8.08,0-5.58,5-8.27,10.77-8.27,6.2,0,10.53,2.12,11.1,8.13h-7.79c-.33-1.69-1.25-2.5-3.22-2.5s-2.83.81-2.83,2,1.15,1.68,4.23,2.06c7,.87,10.33,2.7,10.33,8.08,0,6-4.42,8.66-11.39,8.66C185.2,234.65,181,231.67,180.82,226.09Z" fill="#fff"/><path d="M208.42,226v-11.2h-3v-5.87h3v-5.24H217v5.24H222v5.87H217v10.38c0,1.83.92,2.65,2.55,2.65a6.73,6.73,0,0,0,2.45-.43v6.53a17.89,17.89,0,0,1-4.76.73C211.59,234.65,208.42,231.91,208.42,226Z" fill="#fff"/><path d="M234.18,221.76v-.38c0-8.56,4.72-13.13,10.68-13.13,3.94,0,6.3,1.68,7.74,4.23V197.86h8.6v36.21h-8.6V230a8.47,8.47,0,0,1-7.84,4.67C238.94,234.65,234.18,230.46,234.18,221.76Zm18.66-.14v-.39c0-4.23-1.78-6.49-5-6.49s-5,2.16-5,6.54v.38c0,4.24,1.88,6.4,4.86,6.4C250.92,228.06,252.84,225.9,252.84,221.62Z" fill="#fff"/><path d="M265,221.81v-.39c0-8.07,6-13.17,13.61-13.17,6.87,0,12.79,3.94,12.79,13v2.26h-17.7c.24,3.32,2.17,5.24,5.25,5.24,2.83,0,4-1.3,4.37-3h8.08c-.77,5.67-5.15,8.9-12.74,8.9C270.72,234.65,265,230,265,221.81Zm18-3.17c-.14-3-1.63-4.72-4.42-4.72-2.6,0-4.38,1.69-4.81,4.72Z" fill="#fff"/><path d="M293.8,221.76v-.38c0-8.56,4.71-13.13,10.67-13.13,3.94,0,6.3,1.68,7.74,4.23V197.86h8.61v36.21h-8.61V230a8.47,8.47,0,0,1-7.84,4.67C298.56,234.65,293.8,230.46,293.8,221.76Zm18.65-.14v-.39c0-4.23-1.78-6.49-4.95-6.49s-4.95,2.16-4.95,6.54v.38c0,4.24,1.87,6.4,4.85,6.4C310.53,228.06,312.45,225.9,312.45,221.62Z" fill="#fff"/><path d="M325.72,225.32v-16.4h8.6v15c0,2.84,1.11,4.23,3.56,4.23,2.6,0,4.28-1.53,4.28-4.75V208.92h8.61v25.15h-8.61v-3.9c-1.34,2.6-3.8,4.48-8,4.48C329.32,234.65,325.72,231.67,325.72,225.32Z" fill="#fff"/><path d="M354.51,221.81v-.39c0-8.36,6-13.17,13.42-13.17,6.15,0,11.83,2.69,12.31,10.34h-8.08c-.38-2.36-1.54-3.66-4-3.66-3,0-4.81,2.17-4.81,6.4v.38c0,4.38,1.69,6.64,5,6.64,2.4,0,4.08-1.45,4.37-4.19h7.74c-.24,6.35-4.52,10.49-12.64,10.49C360.24,234.65,354.51,230.27,354.51,221.81Z" fill="#fff"/><path d="M385,226v-11.2h-3v-5.87h3v-5.24h8.61v5.24h5v5.87h-5v10.38c0,1.83.91,2.65,2.55,2.65a6.73,6.73,0,0,0,2.45-.43v6.53a18,18,0,0,1-4.76.73C388.22,234.65,385,231.91,385,226Z" fill="#fff"/><path d="M402.4,202.1a4.75,4.75,0,1,1,4.71,4.42A4.5,4.5,0,0,1,402.4,202.1Zm.43,6.82h8.61v25.15h-8.61Z" fill="#fff"/><path d="M415.43,221.81v-.39c0-8.07,6-13.17,13.79-13.17s13.71,4.95,13.71,12.93v.39c0,8.17-6,13.08-13.75,13.08S415.43,229.93,415.43,221.81Zm18.75-.15v-.38c0-4.23-1.69-6.59-5-6.59s-5,2.26-5,6.49v.39c0,4.33,1.69,6.68,5,6.68S434.18,225.85,434.18,221.66Z" fill="#fff"/><path d="M446.67,208.92h8.61v4a8.89,8.89,0,0,1,8.27-4.71c4.86,0,8.22,3,8.22,9.47v16.35h-8.6V219.45c0-2.83-1.11-4.23-3.61-4.23s-4.28,1.54-4.28,4.76v14.09h-8.61Z" fill="#fff"/><path d="M474.61,238l4-12.64,8,2.83-6.88,11.78Zm3-22a4.79,4.79,0,0,1,4.9-4.86,4.86,4.86,0,1,1,0,9.72A4.76,4.76,0,0,1,477.59,216Z" fill="#fff"/><path d="M48.9,257.29H40v-7.6H67.7v7.6H58.81v26.78H48.9Z" fill="#fff"/><path d="M69.19,275.32v-16.4H77.8v15c0,2.84,1.1,4.24,3.56,4.24s4.28-1.54,4.28-4.76V258.92h8.6v25.15h-8.6v-3.9c-1.35,2.6-3.8,4.48-8,4.48C72.8,284.65,69.19,281.67,69.19,275.32Z" fill="#fff"/><path d="M99.33,258.92h8.61v5c1.59-3.75,4.23-5.38,8.13-5.33v8c-5.24-.15-8.13,1.49-8.13,5.53v11.92H99.33Z" fill="#fff"/><path d="M128.52,280.17v3.9h-8.61V247.86h8.61v14.81a8.88,8.88,0,0,1,7.83-4.42c5.87,0,10.63,4.42,10.63,13v.39c0,8.65-4.76,13-10.67,13C132.56,284.65,129.77,282.87,128.52,280.17Zm9.71-8.5v-.39c0-4.42-1.92-6.54-4.95-6.54s-5,2.26-5,6.49v.39c0,4.28,1.87,6.44,5,6.44S138.23,275.8,138.23,271.67Z" fill="#fff"/><path d="M149.48,271.81v-.39c0-8.07,6-13.17,13.8-13.17S177,263.2,177,271.18v.39c0,8.17-6,13.08-13.75,13.08S149.48,279.93,149.48,271.81Zm18.75-.14v-.39c0-4.23-1.69-6.59-4.95-6.59s-5,2.26-5,6.49v.39c0,4.33,1.68,6.68,5,6.68S168.23,275.85,168.23,271.67Z" fill="#fff"/><path d="M188.08,257.29h-8.89v-7.6h27.69v7.6H198v26.78h-9.91Z" fill="#fff"/><path d="M205.87,277.1c0-5.92,5-8.22,13.37-8.22h2.4v-.58c0-2.41-.58-4-3.32-4a3.09,3.09,0,0,0-3.41,3h-8.08c.39-6.06,5.15-9,12-9s11.35,2.84,11.35,9.52v16.3h-8.37v-2.93c-1.2,1.82-3.41,3.51-7.45,3.51C209.86,284.65,205.87,282.43,205.87,277.1Zm15.77-1.83v-1.54h-2.26c-3.46,0-5,.68-5,2.74,0,1.45,1,2.36,3,2.36C219.81,278.83,221.64,277.43,221.64,275.27Z" fill="#fff"/><path d="M241.45,271.28l-7.84-12.36h9.9l3.9,6.64,3.8-6.64h8.84l-7.93,11.69,8.7,13.46h-9.9l-4.47-7.5-4.57,7.5h-8.8Z" fill="#fff"/><path d="M272.16,271.76v-.38c0-8.56,4.72-13.13,10.68-13.13,3.94,0,6.3,1.68,7.74,4.23V247.86h8.61v36.21h-8.61V280a8.47,8.47,0,0,1-7.84,4.67C276.92,284.65,272.16,280.46,272.16,271.76Zm18.66-.14v-.39c0-4.23-1.78-6.49-4.95-6.49s-5,2.16-5,6.54v.39c0,4.23,1.88,6.39,4.86,6.39C288.9,278.06,290.82,275.9,290.82,271.62Z" fill="#fff"/><path d="M302.93,271.81v-.39c0-8.07,6-13.17,13.8-13.17s13.7,4.95,13.7,12.93v.39c0,8.17-6,13.08-13.75,13.08S302.93,279.93,302.93,271.81Zm18.75-.14v-.39c0-4.23-1.68-6.59-4.95-6.59s-5,2.26-5,6.49v.39c0,4.33,1.68,6.68,5,6.68S321.68,275.85,321.68,271.67Z" fill="#fff"/><path d="M332.83,271.81v-.39c0-8.07,6-13.17,13.61-13.17,6.88,0,12.79,3.94,12.79,13v2.26H341.54c.24,3.32,2.16,5.24,5.24,5.24,2.83,0,4-1.3,4.37-3h8.08c-.77,5.67-5.15,8.9-12.74,8.9C338.6,284.65,332.83,280,332.83,271.81Zm18-3.17c-.14-3-1.63-4.72-4.42-4.72-2.6,0-4.37,1.69-4.81,4.72Z" fill="#fff"/><path d="M361.49,276.09h7.93c.29,1.83,1.11,2.83,3.56,2.83,2.11,0,3.07-.81,3.07-2.06s-1.2-1.78-4.66-2.26c-6.73-.87-9.57-2.84-9.57-8.08,0-5.58,5-8.27,10.77-8.27,6.21,0,10.53,2.12,11.11,8.13h-7.79c-.34-1.69-1.25-2.5-3.22-2.5s-2.84.81-2.84,2,1.16,1.68,4.23,2.06c7,.87,10.34,2.7,10.34,8.08,0,6-4.42,8.66-11.39,8.66C365.86,284.65,361.68,281.67,361.49,276.09Z" fill="#fff"/><path d="M387.93,258.92h8.6v4a8.89,8.89,0,0,1,8.27-4.71c4.86,0,8.23,3,8.23,9.47v16.35h-8.61V269.45c0-2.83-1.11-4.23-3.61-4.23s-4.28,1.54-4.28,4.76v14.09h-8.6Z" fill="#fff"/><path d="M416.44,261.62l3.84-12.55,7.6,2.55-6.59,11.87Z" fill="#fff"/><path d="M432,276v-11.2h-3v-5.87h3v-5.24h8.6v5.24h5v5.87h-5v10.38c0,1.83.92,2.65,2.55,2.65a6.73,6.73,0,0,0,2.45-.43v6.53a17.89,17.89,0,0,1-4.76.73C435.14,284.65,432,281.91,432,276Z" fill="#fff"/><path d="M449.18,279.74a4.79,4.79,0,0,1,4.9-4.85,4.86,4.86,0,1,1,0,9.71A4.8,4.8,0,0,1,449.18,279.74Z" fill="#fff"/></g><g id="Rect"><rect width="600" height="500" fill="none"/></g></g></svg>