<svg xmlns="http://www.w3.org/2000/svg" viewBox="0 0 300 600"><title>txt1</title><g id="Layer_2" data-name="Layer 2"><g id="Rect"><rect width="300" height="600" fill="none"/></g><g id="Right_now_he_s_doing_his_taxes." data-name="Right now,  he’s doing  his taxes."><path d="M20.41,44.75h9.8c6.54,0,10.18,2.66,10.18,7.94v.14a6.54,6.54,0,0,1-4.51,6.58l6,10.36H34.3l-5.07-9H27.55v9H20.41Zm9.45,11.41c2.42,0,3.6-1,3.6-3V53c0-2-1.25-2.83-3.56-2.83H27.55v6Z" fill="#fff"/><path d="M43.57,46.5A3.45,3.45,0,1,1,47,49.72,3.27,3.27,0,0,1,43.57,46.5Zm.32,5h6.26v18.3H43.89Z" fill="#fff"/><path d="M52.49,69.77h6.23c.28,1.33,1.09,2.39,3.36,2.39,2.76,0,3.88-1.58,3.88-3.86V65.5a6.41,6.41,0,0,1-5.67,3.36c-4.26,0-7.76-3.15-7.76-8.78V59.8C52.53,54.41,56,51,60.29,51A5.94,5.94,0,0,1,66,54.06V51.47h6.27V68.23c0,5.47-3.61,8.34-10.15,8.34C55.85,76.57,53,73.94,52.49,69.77ZM66.14,60V59.8c0-2.52-1.3-4.13-3.61-4.13s-3.6,1.64-3.6,4.16v.28c0,2.52,1.33,4.13,3.57,4.13S66.14,62.63,66.14,60Z" fill="#fff"/><path d="M75.41,43.42h6.26v11a6.46,6.46,0,0,1,6-3.43c3.53,0,6,2.2,6,6.89v11.9H87.41V59.13c0-2.06-.81-3.08-2.63-3.08s-3.11,1.12-3.11,3.47V69.77H75.41Z" fill="#fff"/><path d="M97.55,63.89V55.74H95.34V51.47h2.21V47.65h6.26v3.82h3.61v4.27h-3.61V63.3a1.67,1.67,0,0,0,1.86,1.92,4.75,4.75,0,0,0,1.78-.31v4.76a13.1,13.1,0,0,1-3.46.52C99.86,70.19,97.55,68.2,97.55,63.89Z" fill="#fff"/><path d="M116.16,51.47h6.26v2.94a6.47,6.47,0,0,1,6-3.43c3.53,0,6,2.2,6,6.89v11.9h-6.26V59.13c0-2.06-.8-3.08-2.62-3.08s-3.12,1.12-3.12,3.47V69.77h-6.26Z" fill="#fff"/><path d="M136.48,60.85v-.28c0-5.88,4.38-9.59,10-9.59s10,3.6,10,9.41v.28c0,6-4.38,9.52-10,9.52S136.48,66.76,136.48,60.85Zm13.65-.11v-.28c0-3.08-1.23-4.79-3.61-4.79s-3.63,1.64-3.63,4.72v.28c0,3.15,1.22,4.87,3.63,4.87S150.13,63.79,150.13,60.74Z" fill="#fff"/><path d="M156.56,51.47h6.55l2.65,11,3.08-11h5l2.73,11,3-11h5.95l-5.8,18.3h-6L171,59.55l-2.83,10.22h-6.09Z" fill="#fff"/><path d="M183.29,72.61l2.94-9.21L192,65.47l-5,8.58Z" fill="#fff"/><path d="M19.85,78.42h6.27v11a6.46,6.46,0,0,1,6-3.43c3.53,0,6,2.2,6,6.89v11.9H31.86V94.13c0-2.06-.81-3.08-2.63-3.08s-3.11,1.12-3.11,3.47v10.25H19.85Z" fill="#fff"/><path d="M40.18,95.85v-.28c0-5.88,4.37-9.59,9.9-9.59,5,0,9.31,2.87,9.31,9.45v1.64H46.51c.18,2.42,1.58,3.82,3.82,3.82,2.06,0,2.93-1,3.18-2.17h5.88c-.56,4.13-3.75,6.47-9.27,6.47C44.38,105.19,40.18,101.83,40.18,95.85ZM53.3,93.54c-.11-2.21-1.19-3.43-3.22-3.43s-3.18,1.22-3.5,3.43Z" fill="#fff"/><path d="M60,88.43l2.8-9.14,5.53,1.86-4.79,8.64Z" fill="#fff"/><path d="M66.24,99H72c.21,1.33.81,2.07,2.59,2.07,1.54,0,2.24-.6,2.24-1.51s-.87-1.29-3.39-1.64c-4.9-.63-7-2.07-7-5.88,0-4.06,3.6-6,7.83-6,4.52,0,7.67,1.54,8.09,5.91H76.74a2.05,2.05,0,0,0-2.35-1.82c-1.36,0-2.06.6-2.06,1.44s.84,1.22,3.08,1.5c5.07.63,7.52,2,7.52,5.88,0,4.34-3.22,6.3-8.29,6.3S66.38,103,66.24,99Z" fill="#fff"/><path d="M90.41,95.81v-.28c0-6.23,3.43-9.55,7.77-9.55a5.91,5.91,0,0,1,5.63,3.08V78.42h6.27v26.35h-6.27v-3a6.14,6.14,0,0,1-5.7,3.39C93.88,105.19,90.41,102.15,90.41,95.81Zm13.58-.1v-.28c0-3.08-1.29-4.73-3.6-4.73s-3.61,1.58-3.61,4.76v.28c0,3.08,1.37,4.66,3.54,4.66S104,98.82,104,95.71Z" fill="#fff"/><path d="M112.28,95.85v-.28c0-5.88,4.37-9.59,10-9.59s10,3.6,10,9.41v.28c0,6-4.37,9.52-10,9.52S112.28,101.76,112.28,95.85Zm13.64-.11v-.28c0-3.08-1.22-4.79-3.6-4.79s-3.64,1.64-3.64,4.72v.28c0,3.15,1.23,4.87,3.64,4.87S125.92,98.79,125.92,95.74Z" fill="#fff"/><path d="M134.35,81.5a3.45,3.45,0,1,1,3.43,3.22A3.27,3.27,0,0,1,134.35,81.5Zm.32,5h6.26v18.3h-6.26Z" fill="#fff"/><path d="M144.29,86.47h6.26v2.94a6.46,6.46,0,0,1,6-3.43c3.53,0,6,2.2,6,6.89v11.9h-6.26V94.13c0-2.06-.81-3.08-2.63-3.08s-3.11,1.12-3.11,3.47v10.25h-6.26Z" fill="#fff"/><path d="M164.58,104.77h6.22c.28,1.33,1.09,2.39,3.36,2.39,2.77,0,3.89-1.58,3.89-3.86v-2.8a6.43,6.43,0,0,1-5.67,3.36c-4.27,0-7.77-3.15-7.77-8.78V94.8c0-5.39,3.47-8.82,7.77-8.82a6,6,0,0,1,5.67,3.08V86.47h6.26v16.76c0,5.47-3.6,8.34-10.15,8.34C167.93,111.57,165.07,108.94,164.58,104.77ZM178.22,95V94.8c0-2.52-1.29-4.13-3.6-4.13S171,92.31,171,94.83v.28c0,2.52,1.33,4.13,3.57,4.13S178.22,97.63,178.22,95Z" fill="#fff"/><path d="M19.85,113.42h6.27v11a6.46,6.46,0,0,1,6-3.43c3.53,0,6,2.2,6,6.89v11.9H31.86V129.13c0-2.06-.81-3.08-2.63-3.08s-3.11,1.12-3.11,3.47v10.25H19.85Z" fill="#fff"/><path d="M41,116.5a3.45,3.45,0,1,1,3.43,3.22A3.27,3.27,0,0,1,41,116.5Zm.31,5H47.6v18.3H41.33Z" fill="#fff"/><path d="M49.73,134H55.5c.21,1.33.81,2.07,2.59,2.07,1.54,0,2.24-.6,2.24-1.51s-.87-1.29-3.39-1.64c-4.9-.63-7-2.07-7-5.88,0-4.06,3.61-6,7.84-6,4.51,0,7.66,1.54,8.08,5.91H60.23a2.05,2.05,0,0,0-2.35-1.82c-1.36,0-2.06.6-2.06,1.44s.84,1.22,3.08,1.5c5.07.63,7.52,2,7.52,5.88,0,4.34-3.22,6.3-8.29,6.3C52.91,140.19,49.87,138,49.73,134Z" fill="#fff"/><path d="M75.65,133.89v-8.15h-2.2v-4.27h2.2v-3.82h6.26v3.82h3.61v4.27H81.91v7.56a1.67,1.67,0,0,0,1.86,1.92,4.75,4.75,0,0,0,1.78-.31v4.76a13.1,13.1,0,0,1-3.46.52C78,140.19,75.65,138.2,75.65,133.89Z" fill="#fff"/><path d="M86.91,134.7c0-4.31,3.64-6,9.73-6h1.75v-.42c0-1.75-.42-2.9-2.41-2.9a2.25,2.25,0,0,0-2.49,2.17H87.61c.28-4.41,3.75-6.58,8.75-6.58s8.26,2.06,8.26,6.93v11.86H98.53v-2.13c-.87,1.33-2.48,2.55-5.42,2.55C89.82,140.19,86.91,138.58,86.91,134.7Zm11.48-1.33v-1.12H96.75c-2.52,0-3.64.49-3.64,2,0,1,.7,1.72,2.17,1.72C97.06,136,98.39,134.94,98.39,133.37Z" fill="#fff"/><path d="M112.28,130.46l-5.71-9h7.21l2.84,4.83,2.76-4.83h6.44L120,130l6.34,9.8h-7.21l-3.25-5.46-3.33,5.46h-6.4Z" fill="#fff"/><path d="M125.57,130.85v-.28c0-5.88,4.37-9.59,9.9-9.59,5,0,9.31,2.87,9.31,9.45v1.64H131.9c.18,2.42,1.58,3.82,3.82,3.82,2.06,0,2.93-.95,3.18-2.17h5.88c-.56,4.13-3.75,6.47-9.27,6.47C129.77,140.19,125.57,136.83,125.57,130.85Zm13.12-2.31c-.11-2.21-1.19-3.43-3.22-3.43s-3.18,1.22-3.5,3.43Z" fill="#fff"/><path d="M145.89,134h5.78c.21,1.33.8,2.07,2.59,2.07,1.53,0,2.24-.6,2.24-1.51s-.88-1.29-3.4-1.64c-4.9-.63-7-2.07-7-5.88,0-4.06,3.6-6,7.84-6,4.51,0,7.66,1.54,8.08,5.91h-5.67a2,2,0,0,0-2.34-1.82c-1.37,0-2.07.6-2.07,1.44s.84,1.22,3.08,1.5c5.07.63,7.52,2,7.52,5.88,0,4.34-3.22,6.3-8.29,6.3S146,138,145.89,134Z" fill="#fff"/><path d="M164.36,136.62a3.49,3.49,0,0,1,3.57-3.53,3.54,3.54,0,1,1,0,7.07A3.5,3.5,0,0,1,164.36,136.62Z" fill="#fff"/></g></g></svg>