<svg xmlns="http://www.w3.org/2000/svg" viewBox="0 0 728 90"><title>Asset 3</title><rect width="728" height="90" fill="none"/><path d="M122.41,15.48h8.69c8.49,0,12.81,4.25,12.81,11.67v.27c0,7.46-4.42,12-12.84,12h-8.66Zm8.46,18.63c4.08,0,5.88-2.14,5.88-6.59v-.27c0-4.54-1.8-6.48-5.95-6.48h-1.5V34.11Z" fill="#fff"/><path d="M145.28,30.87V30.6c0-5.62,4.18-9.16,9.59-9.16s9.53,3.44,9.53,9v.27c0,5.69-4.18,9.1-9.56,9.1S145.28,36.52,145.28,30.87Zm13-.1V30.5c0-2.94-1.17-4.58-3.45-4.58s-3.47,1.57-3.47,4.51v.27c0,3,1.17,4.65,3.47,4.65S158.32,33.68,158.32,30.77Z" fill="#fff"/><path d="M166.51,21.9h6v2.81a6.17,6.17,0,0,1,5.75-3.27c3.37,0,5.71,2.1,5.71,6.58V39.4h-6V29.23c0-2-.77-2.94-2.51-2.94s-3,1.07-3,3.31v9.8h-6Z" fill="#fff"/><path d="M185.84,23.78l2.67-8.73,5.28,1.77-4.58,8.26Z" fill="#fff"/><path d="M196.14,33.78V26H194V21.9h2.11V18.26h6V21.9h3.44V26h-3.44v7.23c0,1.27.63,1.84,1.77,1.84a4.61,4.61,0,0,0,1.71-.3V39.3a12.63,12.63,0,0,1-3.31.5C198.34,39.8,196.14,37.89,196.14,33.78Z" fill="#fff"/><path d="M214.09,14.21H220V39.4h-5.95Z" fill="#fff"/><path d="M222.32,30.87V30.6c0-5.62,4.17-9.16,9.46-9.16,4.78,0,8.89,2.74,8.89,9V32h-12.3c.16,2.31,1.5,3.64,3.64,3.64,2,0,2.81-.9,3-2.07h5.62c-.54,4-3.58,6.19-8.86,6.19C226.33,39.8,222.32,36.59,222.32,30.87Zm12.53-2.21c-.1-2.11-1.13-3.28-3.07-3.28s-3.05,1.17-3.35,3.28Z" fill="#fff"/><path d="M241.91,34.55c0-4.12,3.48-5.72,9.29-5.72h1.67v-.4c0-1.68-.4-2.78-2.3-2.78a2.16,2.16,0,0,0-2.38,2.07h-5.61c.26-4.21,3.57-6.28,8.35-6.28s7.89,2,7.89,6.62V39.4H253v-2a5.76,5.76,0,0,1-5.18,2.44C244.68,39.8,241.91,38.26,241.91,34.55Zm11-1.27V32.21H251.3c-2.4,0-3.47.46-3.47,1.9,0,1,.66,1.64,2.07,1.64C251.6,35.75,252.87,34.78,252.87,33.28Z" fill="#fff"/><path d="M259.73,21.9h6.38l3.65,11.28,3.58-11.28h5.71l-6.38,17.5h-6.52Z" fill="#fff"/><path d="M278.69,30.87V30.6c0-5.62,4.18-9.16,9.46-9.16,4.78,0,8.89,2.74,8.89,9V32h-12.3c.17,2.31,1.5,3.64,3.64,3.64,2,0,2.81-.9,3-2.07H297c-.53,4-3.58,6.19-8.86,6.19C282.7,39.8,278.69,36.59,278.69,30.87Zm12.53-2.21c-.1-2.11-1.13-3.28-3.07-3.28s-3,1.17-3.35,3.28Z" fill="#fff"/><path d="M305.2,14.21h6v10.5a6.17,6.17,0,0,1,5.75-3.27c3.37,0,5.71,2.1,5.71,6.58V39.4h-6V29.23c0-2-.77-2.94-2.51-2.94s-3,1.07-3,3.31v9.8h-6Z" fill="#fff"/><path d="M324.63,30.87V30.6c0-5.62,4.18-9.16,9.59-9.16s9.53,3.44,9.53,9v.27c0,5.69-4.18,9.1-9.56,9.1S324.63,36.52,324.63,30.87Zm13-.1V30.5c0-2.94-1.17-4.58-3.45-4.58s-3.47,1.57-3.47,4.51v.27c0,3,1.17,4.65,3.47,4.65S337.67,33.68,337.67,30.77Z" fill="#fff"/><path d="M345.86,21.9h6v2.68a6.13,6.13,0,0,1,5.49-3.14,4.75,4.75,0,0,1,4.74,2.91,6.92,6.92,0,0,1,5.79-2.91c3.31,0,5.71,2.14,5.71,6.52V39.4h-6V29c0-1.77-.87-2.64-2.24-2.64-1.6,0-2.67,1-2.67,2.94V39.4h-5.92V29c0-1.77-.87-2.64-2.24-2.64-1.61,0-2.68,1-2.68,2.94V39.4h-6Z" fill="#fff"/><path d="M375.55,30.87V30.6c0-5.62,4.18-9.16,9.46-9.16,4.78,0,8.89,2.74,8.89,9V32H381.6c.17,2.31,1.5,3.64,3.64,3.64,2,0,2.81-.9,3.05-2.07h5.61c-.53,4-3.57,6.19-8.86,6.19C379.56,39.8,375.55,36.59,375.55,30.87Zm12.54-2.21c-.1-2.11-1.14-3.28-3.08-3.28s-3,1.17-3.34,3.28Z" fill="#fff"/><path d="M403,26h-2.21V21.9H403V20.37c0-4.35,2.7-6.43,6.85-6.43a10.68,10.68,0,0,1,2.74.37v4.38a5.62,5.62,0,0,0-1.64-.23,1.76,1.76,0,0,0-2,1.91V21.9h3.54V26h-3.54V39.4H403Z" fill="#fff"/><path d="M412.93,30.87V30.6c0-5.62,4.18-9.16,9.6-9.16s9.52,3.44,9.52,9v.27c0,5.69-4.17,9.1-9.56,9.1S412.93,36.52,412.93,30.87Zm13-.1V30.5c0-2.94-1.17-4.58-3.44-4.58s-3.48,1.57-3.48,4.51v.27c0,3,1.17,4.65,3.48,4.65S426,33.68,426,30.77Z" fill="#fff"/><path d="M434.16,21.9h6v3.48a5.51,5.51,0,0,1,5.65-3.71v5.58c-3.65-.1-5.65,1-5.65,3.85v8.3h-6Z" fill="#fff"/><path d="M454.86,33.78V26h-2.11V21.9h2.11V18.26h6V21.9h3.45V26h-3.45v7.23a1.6,1.6,0,0,0,1.77,1.84,4.57,4.57,0,0,0,1.71-.3V39.3a12.63,12.63,0,0,1-3.31.5C457.07,39.8,454.86,37.89,454.86,33.78Z" fill="#fff"/><path d="M465.62,34.55c0-4.12,3.48-5.72,9.3-5.72h1.67v-.4c0-1.68-.4-2.78-2.31-2.78a2.15,2.15,0,0,0-2.37,2.07h-5.62c.27-4.21,3.58-6.28,8.36-6.28s7.89,2,7.89,6.62V39.4h-5.82v-2c-.83,1.27-2.37,2.44-5.18,2.44C468.4,39.8,465.62,38.26,465.62,34.55Zm11-1.27V32.21H475c-2.41,0-3.48.46-3.48,1.9,0,1,.67,1.64,2.07,1.64C475.32,35.75,476.59,34.78,476.59,33.28Z" fill="#fff"/><path d="M489.86,30.5l-5.44-8.6h6.88L494,26.52l2.64-4.62h6.15L497.29,30l6,9.37h-6.89l-3.11-5.22-3.17,5.22h-6.12Z" fill="#fff"/><path d="M121.87,55.68h6v2.61a6.18,6.18,0,0,1,5.45-3.08c4.08,0,7.39,3.08,7.39,9.07v.26c0,6-3.31,9-7.43,9a5.75,5.75,0,0,1-5.41-3V79h-6Zm12.74,8.86v-.26c0-3.08-1.34-4.55-3.44-4.55s-3.48,1.57-3.48,4.51v.27c0,3,1.31,4.48,3.48,4.48S134.61,67.42,134.61,64.54Z" fill="#fff"/><path d="M142.87,55.68h6v3.48a5.49,5.49,0,0,1,5.65-3.71V61c-3.65-.1-5.65,1-5.65,3.85v8.29h-6Z" fill="#fff"/><path d="M155.58,64.64v-.26c0-5.62,4.18-9.17,9.46-9.17,4.78,0,8.89,2.74,8.89,9v1.57h-12.3c.17,2.31,1.5,3.65,3.64,3.65,2,0,2.81-.9,3-2.07h5.62c-.53,3.94-3.58,6.18-8.86,6.18C159.59,73.57,155.58,70.36,155.58,64.64Zm12.53-2.2c-.1-2.11-1.13-3.28-3.07-3.28s-3,1.17-3.34,3.28Z" fill="#fff"/><path d="M176,55.68h6v2.61a6.18,6.18,0,0,1,5.45-3.08c4.08,0,7.39,3.08,7.39,9.07v.26c0,6-3.31,9-7.42,9a5.77,5.77,0,0,1-5.42-3V79h-6Zm12.73,8.86v-.26c0-3.08-1.33-4.55-3.44-4.55s-3.48,1.57-3.48,4.51v.27c0,3,1.31,4.48,3.48,4.48S188.74,67.42,188.74,64.54Z" fill="#fff"/><path d="M196.34,70.16a3.33,3.33,0,0,1,3.41-3.38,3.38,3.38,0,1,1,0,6.76A3.33,3.33,0,0,1,196.34,70.16Z" fill="#fff"/><path d="M212.52,63.47V49.26h6.85V63.17c0,3.38.84,5,3.75,5s3.74-1.54,3.74-5.12V49.26h6.92V63.37c0,7-4.08,10.2-10.66,10.2C216.36,73.57,212.52,70.16,212.52,63.47Z" fill="#fff"/><path d="M237,55.68h6v2.81a6.17,6.17,0,0,1,5.75-3.28c3.38,0,5.72,2.11,5.72,6.59V73.17h-6V63c0-2-.76-2.94-2.5-2.94s-3,1.07-3,3.31v9.8h-6Z" fill="#fff"/><path d="M257.56,48h5.95V73.17h-5.95Z" fill="#fff"/><path d="M265.78,64.64v-.26c0-5.62,4.18-9.17,9.46-9.17,4.78,0,8.9,2.74,8.9,9v1.57H271.83c.17,2.31,1.51,3.65,3.65,3.65,2,0,2.81-.9,3-2.07h5.62c-.54,3.94-3.58,6.18-8.86,6.18C269.79,73.57,265.78,70.36,265.78,64.64Zm12.54-2.2c-.1-2.11-1.14-3.28-3.08-3.28s-3,1.17-3.34,3.28Z" fill="#fff"/><path d="M285.21,67.62h5.51c.2,1.27.77,2,2.48,2,1.47,0,2.14-.57,2.14-1.44s-.84-1.23-3.25-1.57c-4.68-.6-6.65-2-6.65-5.62,0-3.88,3.44-5.75,7.49-5.75,4.31,0,7.32,1.47,7.72,5.65h-5.41A2,2,0,0,0,293,59.12c-1.31,0-2,.57-2,1.38s.81,1.17,3,1.43c4.84.61,7.18,1.88,7.18,5.62,0,4.15-3.07,6-7.92,6S285.34,71.5,285.21,67.62Z" fill="#fff"/><path d="M302,67.62h5.51c.2,1.27.77,2,2.48,2,1.47,0,2.14-.57,2.14-1.44s-.84-1.23-3.25-1.57c-4.68-.6-6.65-2-6.65-5.62,0-3.88,3.44-5.75,7.49-5.75,4.31,0,7.32,1.47,7.72,5.65h-5.41a2,2,0,0,0-2.24-1.74c-1.31,0-2,.57-2,1.38s.81,1.17,2.94,1.43c4.85.61,7.19,1.88,7.19,5.62,0,4.15-3.07,6-7.92,6S302.16,71.5,302,67.62Z" fill="#fff"/><path d="M331.48,71.4l-7-15.72H331L334.59,65l3.34-9.33h5.72L334.29,79h-5.72Z" fill="#fff"/><path d="M343.32,64.64v-.26c0-5.62,4.18-9.17,9.59-9.17s9.53,3.45,9.53,9v.27c0,5.68-4.18,9.09-9.56,9.09S343.32,70.29,343.32,64.64Zm13-.1v-.26c0-3-1.17-4.59-3.45-4.59s-3.47,1.57-3.47,4.52v.27c0,3,1.17,4.64,3.47,4.64S356.36,67.45,356.36,64.54Z" fill="#fff"/><path d="M364.42,67.08V55.68h6V66.11c0,2,.77,3,2.47,3s3-1.07,3-3.31V55.68h6V73.17h-6V70.46a5.74,5.74,0,0,1-5.55,3.11C366.92,73.57,364.42,71.5,364.42,67.08Z" fill="#fff"/><path d="M389.49,55.68h6.25l2.55,10.47,2.94-10.47H406l2.61,10.47,2.84-10.47h5.68l-5.55,17.49h-5.71l-2.61-9.76-2.71,9.76h-5.82Z" fill="#fff"/><path d="M417,68.32c0-4.11,3.48-5.72,9.3-5.72H428v-.4c0-1.67-.4-2.78-2.31-2.78a2.15,2.15,0,0,0-2.37,2.08h-5.62c.27-4.22,3.58-6.29,8.36-6.29s7.89,2,7.89,6.62V73.17h-5.82v-2c-.83,1.27-2.37,2.44-5.18,2.44C419.82,73.57,417,72,417,68.32Zm11-1.27V66h-1.57c-2.41,0-3.48.47-3.48,1.91,0,1,.67,1.64,2.07,1.64C426.74,69.53,428,68.56,428,67.05Z" fill="#fff"/><path d="M436.87,55.68h6v2.81a6.18,6.18,0,0,1,5.76-3.28c3.37,0,5.71,2.11,5.71,6.59V73.17h-6V63c0-2-.77-2.94-2.51-2.94s-3,1.07-3,3.31v9.8h-6Z" fill="#fff"/><path d="M458,67.55V59.76h-2.11V55.68H458V52h6v3.65h3.44v4.08H464V67c0,1.27.63,1.84,1.77,1.84a4.61,4.61,0,0,0,1.71-.3v4.55a12.63,12.63,0,0,1-3.31.5C460.24,73.57,458,71.67,458,67.55Z" fill="#fff"/><path d="M476.62,67.55V59.76h-2.1V55.68h2.1V52h6v3.65h3.44v4.08h-3.44V67c0,1.27.63,1.84,1.77,1.84a4.61,4.61,0,0,0,1.71-.3v4.55a12.63,12.63,0,0,1-3.31.5C478.83,73.57,476.62,71.67,476.62,67.55Z" fill="#fff"/><path d="M487.39,64.64v-.26c0-5.62,4.18-9.17,9.6-9.17s9.52,3.45,9.52,9v.27c0,5.68-4.17,9.09-9.56,9.09S487.39,70.29,487.39,64.64Zm13-.1v-.26c0-3-1.17-4.59-3.44-4.59s-3.48,1.57-3.48,4.52v.27c0,3,1.17,4.64,3.48,4.64S500.43,67.45,500.43,64.54Z" fill="#fff"/><path d="M507.65,70.16a3.34,3.34,0,0,1,3.41-3.38,3.38,3.38,0,1,1,0,6.76A3.33,3.33,0,0,1,507.65,70.16Z" fill="#fff"/></svg>