<svg xmlns="http://www.w3.org/2000/svg" viewBox="0 0 728 90"><title>Asset 7</title><rect width="728" height="90" fill="none"/><path d="M128.16,29.16l-7.79-13.68h7.45l4.05,8.06,4-8.06h6.55l-7.42,13.68V39.4h-6.89Z" fill="#fff"/><path d="M140,30.87V30.6c0-5.62,4.18-9.16,9.6-9.16s9.53,3.44,9.53,9v.27c0,5.69-4.18,9.1-9.57,9.1S140,36.52,140,30.87Zm13-.1V30.5c0-2.94-1.17-4.58-3.44-4.58s-3.48,1.57-3.48,4.51v.27c0,3,1.17,4.65,3.48,4.65S153,33.68,153,30.77Z" fill="#fff"/><path d="M161.06,33.31V21.9h6V32.34c0,2,.76,2.94,2.47,2.94s3-1.07,3-3.31V21.9h6V39.4h-6V36.69a5.75,5.75,0,0,1-5.55,3.11C163.57,39.8,161.06,37.72,161.06,33.31Z" fill="#fff"/><path d="M181.52,21.9h6v3.48a5.51,5.51,0,0,1,5.65-3.71v5.58c-3.65-.1-5.65,1-5.65,3.85v8.3h-6Z" fill="#fff"/><path d="M202.22,33.78V26h-2.11V21.9h2.11V18.26h6V21.9h3.45V26H208.2v7.23A1.6,1.6,0,0,0,210,35.05a4.56,4.56,0,0,0,1.7-.3V39.3a12.63,12.63,0,0,1-3.31.5C204.43,39.8,202.22,37.89,202.22,33.78Z" fill="#fff"/><path d="M213,34.55c0-4.12,3.47-5.72,9.29-5.72H224v-.4c0-1.68-.4-2.78-2.31-2.78a2.15,2.15,0,0,0-2.37,2.07h-5.62c.27-4.21,3.58-6.28,8.36-6.28s7.89,2,7.89,6.62V39.4h-5.82v-2c-.83,1.27-2.37,2.44-5.18,2.44C215.76,39.8,213,38.26,213,34.55Zm11-1.27V32.21h-1.57c-2.41,0-3.48.46-3.48,1.9,0,1,.67,1.64,2.08,1.64C222.68,35.75,224,34.78,224,33.28Z" fill="#fff"/><path d="M237.23,30.5l-5.45-8.6h6.88l2.71,4.62L244,21.9h6.15L244.65,30l6,9.37h-6.89l-3.11-5.22-3.17,5.22h-6.12Z" fill="#fff"/><path d="M258.46,21.9h6v2.61a6.17,6.17,0,0,1,5.45-3.07c4.08,0,7.39,3.07,7.39,9.06v.27c0,6-3.31,9-7.42,9a5.78,5.78,0,0,1-5.42-3v8.43h-6Zm12.73,8.87V30.5c0-3.08-1.33-4.55-3.44-4.55s-3.48,1.57-3.48,4.52v.26c0,3,1.31,4.49,3.48,4.49S271.19,33.64,271.19,30.77Z" fill="#fff"/><path d="M279.45,21.9h6v3.48a5.51,5.51,0,0,1,5.65-3.71v5.58c-3.65-.1-5.65,1-5.65,3.85v8.3h-6Z" fill="#fff"/><path d="M292.16,30.87V30.6c0-5.62,4.18-9.16,9.6-9.16s9.52,3.44,9.52,9v.27c0,5.69-4.18,9.1-9.56,9.1S292.16,36.52,292.16,30.87Zm13-.1V30.5c0-2.94-1.17-4.58-3.44-4.58s-3.48,1.57-3.48,4.51v.27c0,3,1.17,4.65,3.48,4.65S305.2,33.68,305.2,30.77Z" fill="#fff"/><path d="M318,21.9h6.25l2.54,10.47,2.94-10.47h4.81l2.61,10.47L340,21.9h5.69l-5.55,17.5h-5.72l-2.61-9.77-2.7,9.77h-5.82Z" fill="#fff"/><path d="M345.52,30.87V30.6c0-5.62,4.18-9.16,9.6-9.16s9.53,3.44,9.53,9v.27c0,5.69-4.18,9.1-9.57,9.1S345.52,36.52,345.52,30.87Zm13-.1V30.5c0-2.94-1.17-4.58-3.44-4.58s-3.48,1.57-3.48,4.51v.27c0,3,1.17,4.65,3.48,4.65S358.56,33.68,358.56,30.77Z" fill="#fff"/><path d="M366.75,21.9h6v2.81a6.18,6.18,0,0,1,5.75-3.27c3.38,0,5.72,2.1,5.72,6.58V39.4h-6V29.23c0-2-.77-2.94-2.51-2.94s-3,1.07-3,3.31v9.8h-6Z" fill="#fff"/><path d="M386,15.48h5.85l-.7,9.2h-4.48Z" fill="#fff"/><path d="M395.54,33.78V26h-2.1V21.9h2.1V18.26h6V21.9H405V26h-3.44v7.23c0,1.27.63,1.84,1.77,1.84a4.52,4.52,0,0,0,1.7-.3V39.3a12.49,12.49,0,0,1-3.31.5C397.75,39.8,395.54,37.89,395.54,33.78Z" fill="#fff"/><path d="M413.33,14.21h6V28.83L424,21.9h6.22l-5.72,7.86,6.18,9.64H424l-4.72-7.66V39.4h-6Z" fill="#fff"/><path d="M432.12,21.9h6v2.81a6.2,6.2,0,0,1,5.76-3.27c3.37,0,5.71,2.1,5.71,6.58V39.4h-6V29.23c0-2-.77-2.94-2.51-2.94s-3,1.07-3,3.31v9.8h-6Z" fill="#fff"/><path d="M451.55,30.87V30.6c0-5.62,4.18-9.16,9.59-9.16s9.53,3.44,9.53,9v.27c0,5.69-4.18,9.1-9.56,9.1S451.55,36.52,451.55,30.87Zm13-.1V30.5c0-2.94-1.17-4.58-3.45-4.58s-3.47,1.57-3.47,4.51v.27c0,3,1.17,4.65,3.47,4.65S464.59,33.68,464.59,30.77Z" fill="#fff"/><path d="M470.74,21.9H477l2.54,10.47,2.94-10.47h4.82l2.61,10.47,2.84-10.47h5.68l-5.55,17.5h-5.72l-2.6-9.77-2.71,9.77H476Z" fill="#fff"/><path d="M127.36,71.4l-7-15.72h6.49L130.47,65l3.34-9.33h5.72L130.17,79h-5.72Z" fill="#fff"/><path d="M139.19,64.64v-.26c0-5.62,4.18-9.17,9.6-9.17s9.53,3.45,9.53,9v.27c0,5.68-4.18,9.09-9.56,9.09S139.19,70.29,139.19,64.64Zm13-.1v-.26c0-3-1.17-4.59-3.44-4.59s-3.48,1.57-3.48,4.52v.27c0,3,1.17,4.64,3.48,4.64S152.23,67.45,152.23,64.54Z" fill="#fff"/><path d="M160.29,67.08V55.68h6V66.11c0,2,.76,3,2.47,3s3-1.07,3-3.31V55.68h6V73.17h-6V70.46a5.75,5.75,0,0,1-5.55,3.11C162.8,73.57,160.29,71.5,160.29,67.08Z" fill="#fff"/><path d="M180.35,49.26h5.85l-.7,9.2H181Z" fill="#fff"/><path d="M188.81,55.68h6v3.48a5.49,5.49,0,0,1,5.65-3.71V61c-3.65-.1-5.65,1-5.65,3.85v8.29h-6Z" fill="#fff"/><path d="M201.52,64.64v-.26c0-5.62,4.18-9.17,9.46-9.17,4.78,0,8.89,2.74,8.89,9v1.57h-12.3c.17,2.31,1.5,3.65,3.64,3.65,2,0,2.81-.9,3-2.07h5.62c-.53,3.94-3.58,6.18-8.86,6.18C205.53,73.57,201.52,70.36,201.52,64.64Zm12.53-2.2c-.1-2.11-1.13-3.28-3.07-3.28s-3,1.17-3.34,3.28Z" fill="#fff"/><path d="M227.9,50.93A3.3,3.3,0,1,1,231.17,54,3.12,3.12,0,0,1,227.9,50.93Zm.3,4.75h6V73.17h-6Z" fill="#fff"/><path d="M237.39,55.68h6v2.81a6.16,6.16,0,0,1,5.75-3.28c3.38,0,5.72,2.11,5.72,6.59V73.17h-6V63c0-2-.77-2.94-2.51-2.94s-3,1.07-3,3.31v9.8h-6Z" fill="#fff"/><path d="M269.32,71.4l-7-15.72h6.48L272.43,65l3.35-9.33h5.71L272.13,79h-5.71Z" fill="#fff"/><path d="M281.16,64.64v-.26c0-5.62,4.18-9.17,9.6-9.17s9.52,3.45,9.52,9v.27c0,5.68-4.18,9.09-9.56,9.09S281.16,70.29,281.16,64.64Zm13-.1v-.26c0-3-1.17-4.59-3.44-4.59s-3.48,1.57-3.48,4.52v.27c0,3,1.17,4.64,3.48,4.64S294.2,67.45,294.2,64.54Z" fill="#fff"/><path d="M302.26,67.08V55.68h6V66.11c0,2,.77,3,2.48,3s3-1.07,3-3.31V55.68h6V73.17h-6V70.46a5.73,5.73,0,0,1-5.55,3.11C304.77,73.57,302.26,71.5,302.26,67.08Z" fill="#fff"/><path d="M322.72,55.68h6v3.48a5.49,5.49,0,0,1,5.64-3.71V61c-3.64-.1-5.64,1-5.64,3.85v8.29h-6Z" fill="#fff"/><path d="M342.61,55.68h6v2.61a6.18,6.18,0,0,1,5.45-3.08c4.08,0,7.39,3.08,7.39,9.07v.26c0,6-3.31,9-7.42,9a5.76,5.76,0,0,1-5.42-3V79h-6Zm12.74,8.86v-.26c0-3.08-1.33-4.55-3.44-4.55s-3.48,1.57-3.48,4.51v.27c0,3,1.31,4.48,3.48,4.48S355.35,67.42,355.35,64.54Z" fill="#fff"/><path d="M362.61,68.32c0-4.11,3.48-5.72,9.29-5.72h1.67v-.4c0-1.67-.4-2.78-2.3-2.78a2.16,2.16,0,0,0-2.38,2.08h-5.61c.26-4.22,3.57-6.29,8.36-6.29s7.89,2,7.89,6.62V73.17h-5.82v-2a5.76,5.76,0,0,1-5.18,2.44C365.38,73.57,362.61,72,362.61,68.32Zm11-1.27V66H372c-2.4,0-3.47.47-3.47,1.91,0,1,.67,1.64,2.07,1.64C372.3,69.53,373.57,68.56,373.57,67.05Z" fill="#fff"/><path d="M380.46,75c1.47-.1,2.14-.7,2.14-2.08V55.68h5.95V73c0,3.78-1.77,6.29-8.09,6.29Zm1.84-24.05A3.3,3.3,0,1,1,385.58,54,3.13,3.13,0,0,1,382.3,50.93Z" fill="#fff"/><path d="M390.79,68.32c0-4.11,3.48-5.72,9.3-5.72h1.67v-.4c0-1.67-.4-2.78-2.31-2.78a2.15,2.15,0,0,0-2.37,2.08h-5.62c.27-4.22,3.58-6.29,8.36-6.29s7.89,2,7.89,6.62V73.17h-5.82v-2c-.83,1.27-2.37,2.44-5.18,2.44C393.57,73.57,390.79,72,390.79,68.32Zm11-1.27V66h-1.57c-2.41,0-3.48.47-3.48,1.91,0,1,.67,1.64,2.07,1.64C400.49,69.53,401.76,68.56,401.76,67.05Z" fill="#fff"/><path d="M410.62,55.68h6v2.67a6.13,6.13,0,0,1,5.49-3.14,4.75,4.75,0,0,1,4.74,2.91,6.94,6.94,0,0,1,5.79-2.91c3.31,0,5.72,2.14,5.72,6.52V73.17h-6V62.74c0-1.78-.87-2.65-2.24-2.65-1.6,0-2.67,1-2.67,2.95V73.17h-5.92V62.74c0-1.78-.87-2.65-2.24-2.65-1.61,0-2.68,1-2.68,2.95V73.17h-6Z" fill="#fff"/><path d="M440.24,68.32c0-4.11,3.48-5.72,9.3-5.72h1.67v-.4c0-1.67-.4-2.78-2.31-2.78a2.15,2.15,0,0,0-2.37,2.08h-5.62c.27-4.22,3.58-6.29,8.36-6.29s7.89,2,7.89,6.62V73.17h-5.82v-2c-.83,1.27-2.37,2.44-5.18,2.44C443,73.57,440.24,72,440.24,68.32Zm11-1.27V66h-1.57c-2.41,0-3.48.47-3.48,1.91,0,1,.67,1.64,2.07,1.64C449.94,69.53,451.21,68.56,451.21,67.05Z" fill="#fff"/><path d="M458.9,67.62h5.52c.2,1.27.77,2,2.47,2,1.47,0,2.14-.57,2.14-1.44s-.83-1.23-3.24-1.57c-4.68-.6-6.65-2-6.65-5.62,0-3.88,3.44-5.75,7.48-5.75,4.32,0,7.33,1.47,7.73,5.65h-5.42a2,2,0,0,0-2.24-1.74c-1.3,0-2,.57-2,1.38s.8,1.17,2.94,1.43c4.85.61,7.19,1.88,7.19,5.62,0,4.15-3.08,6-7.93,6S459,71.5,458.9,67.62Z" fill="#fff"/><path d="M476.56,70.16A3.33,3.33,0,0,1,480,66.78a3.38,3.38,0,1,1,0,6.76A3.33,3.33,0,0,1,476.56,70.16Z" fill="#fff"/></svg>