<svg xmlns="http://www.w3.org/2000/svg" viewBox="0 0 300 600"><title>Asset 5</title><rect width="300" height="600" fill="none"/><path d="M22.87,70.73H34.56c11.42,0,17.22,5.66,17.22,15.56v.36c0,9.95-5.93,16-17.26,16H22.87ZM34.25,95.57c5.48,0,7.91-2.85,7.91-8.79v-.35c0-6.07-2.43-8.65-8-8.65h-2V95.57Z" fill="#fff"/><path d="M53.62,91.24v-.35c0-7.49,5.62-12.22,12.9-12.22s12.81,4.59,12.81,12V91c0,7.58-5.62,12.13-12.86,12.13S53.62,98.78,53.62,91.24Zm17.53-.13v-.36c0-3.92-1.57-6.11-4.63-6.11s-4.68,2.1-4.68,6V91c0,4,1.58,6.2,4.68,6.2S71.15,95,71.15,91.11Z" fill="#fff"/><path d="M82.16,79.29h8V83a8.3,8.3,0,0,1,7.73-4.37c4.54,0,7.69,2.81,7.69,8.78v15.17h-8V89.06c0-2.63-1-3.93-3.37-3.93s-4,1.43-4,4.42v13.07h-8Z" fill="#fff"/><path d="M108,70.73h7.87l-1,12.26h-6Z" fill="#fff"/><path d="M120.86,95.12V84.73H118V79.29h2.83V74.43h8v4.86h4.63v5.44h-4.63v9.64a2.13,2.13,0,0,0,2.38,2.45,6.11,6.11,0,0,0,2.29-.4v6.06a16.85,16.85,0,0,1-4.45.67C123.83,103.15,120.86,100.61,120.86,95.12Z" fill="#fff"/><path d="M143.6,91.2v-.36c0-7.94,4.41-12.17,10-12.17,3.69,0,5.89,1.56,7.24,3.92V69h8.05v33.59h-8.05V98.83a7.93,7.93,0,0,1-7.33,4.32C148.05,103.15,143.6,99.27,143.6,91.2ZM161,91.07v-.36c0-3.93-1.66-6-4.63-6s-4.63,2-4.63,6.06v.36c0,3.93,1.76,5.93,4.54,5.93C159.25,97,161,95,161,91.07Z" fill="#fff"/><path d="M171.7,91.24v-.35c0-7.49,5.62-12.22,12.9-12.22s12.81,4.59,12.81,12V91c0,7.58-5.62,12.13-12.86,12.13S171.7,98.78,171.7,91.24Zm17.53-.13v-.36c0-3.92-1.58-6.11-4.63-6.11s-4.68,2.1-4.68,6V91c0,4,1.58,6.2,4.68,6.2S189.23,95,189.23,91.11Z" fill="#fff"/><path d="M23.23,144.72V134.33H20.4v-5.45h2.83V124h8.05v4.86h4.63v5.45H31.28V144a2.13,2.13,0,0,0,2.38,2.45A6.16,6.16,0,0,0,36,146v6.07a17.43,17.43,0,0,1-4.45.67C26.2,152.75,23.23,150.2,23.23,144.72Z" fill="#fff"/><path d="M37.71,145.74c0-5.48,4.67-7.62,12.49-7.62h2.25v-.54c0-2.23-.54-3.7-3.1-3.7a2.88,2.88,0,0,0-3.19,2.77H38.61c.36-5.62,4.81-8.39,11.23-8.39s10.61,2.63,10.61,8.83v15.12H52.63v-2.72c-1.12,1.7-3.19,3.26-7,3.26C41.44,152.75,37.71,150.69,37.71,145.74Zm14.74-1.69v-1.43H50.34c-3.24,0-4.68.63-4.68,2.54,0,1.34.9,2.19,2.79,2.19C50.74,147.35,52.45,146.06,52.45,144.05Z" fill="#fff"/><path d="M70.29,140.35,63,128.88h9.26L75.87,135l3.55-6.16h8.27l-7.42,10.84,8.14,12.49H79.15l-4.18-7-4.27,7H62.47Z" fill="#fff"/><path d="M87.37,140.84v-.36c0-7.49,5.62-12.22,12.73-12.22,6.42,0,12,3.66,12,12v2.1H95.51c.22,3.08,2,4.86,4.9,4.86,2.65,0,3.78-1.2,4.09-2.76h7.55c-.72,5.26-4.81,8.25-11.91,8.25C92.77,152.75,87.37,148.46,87.37,140.84Zm16.86-3c-.13-2.81-1.53-4.37-4.13-4.37-2.43,0-4.1,1.56-4.5,4.37Z" fill="#fff"/><path d="M113.49,144.81h7.41c.27,1.69,1,2.63,3.33,2.63,2,0,2.88-.76,2.88-1.92s-1.13-1.65-4.36-2.1c-6.3-.8-9-2.63-9-7.49,0-5.17,4.63-7.67,10.07-7.67,5.8,0,9.85,2,10.39,7.54H127c-.31-1.56-1.17-2.32-3-2.32s-2.65.76-2.65,1.83,1.08,1.56,4,1.91c6.52.81,9.67,2.5,9.67,7.5,0,5.53-4.14,8-10.65,8C117.58,152.75,113.67,150,113.49,144.81Z" fill="#fff"/><path d="M137.22,148.2a4.46,4.46,0,0,1,4.58-4.51,4.51,4.51,0,1,1,0,9A4.46,4.46,0,0,1,137.22,148.2Z" fill="#fff"/><path d="M159.2,120.32h9.26v24.8H180.6v7.09H159.2Z" fill="#fff"/><path d="M181.94,140.84v-.36c0-7.49,5.62-12.22,12.73-12.22,6.42,0,12,3.66,12,12v2.1H190.08c.22,3.08,2,4.86,4.9,4.86,2.65,0,3.77-1.2,4.09-2.76h7.55c-.72,5.26-4.81,8.25-11.91,8.25C187.34,152.75,181.94,148.46,181.94,140.84Zm16.86-3c-.13-2.81-1.53-4.37-4.13-4.37-2.43,0-4.1,1.56-4.5,4.37Z" fill="#fff"/><path d="M210.48,144.72V134.33h-2.83v-5.45h2.83V124h8.05v4.86h4.63v5.45h-4.63V144a2.14,2.14,0,0,0,2.38,2.45,6.16,6.16,0,0,0,2.3-.4v6.07a17.43,17.43,0,0,1-4.45.67C213.45,152.75,210.48,150.2,210.48,144.72Z" fill="#fff"/><path d="M20.81,195.34c0-5.49,4.67-7.63,12.49-7.63h2.25v-.54c0-2.23-.54-3.7-3.1-3.7a2.88,2.88,0,0,0-3.19,2.77H21.71c.36-5.62,4.81-8.39,11.23-8.39s10.61,2.63,10.61,8.83V201.8H35.73v-2.72c-1.12,1.7-3.19,3.26-7,3.26C24.54,202.34,20.81,200.29,20.81,195.34Zm14.74-1.7v-1.43H33.44c-3.24,0-4.68.63-4.68,2.55,0,1.33.9,2.18,2.79,2.18C33.84,196.94,35.55,195.65,35.55,193.64Z" fill="#fff"/><path d="M56.72,194.31V183.92H53.89v-5.44h2.83v-4.86h8v4.86H69.4v5.44H64.77v9.63A2.14,2.14,0,0,0,67.15,196a6.11,6.11,0,0,0,2.29-.41v6.07a16.85,16.85,0,0,1-4.45.67C59.69,202.34,56.72,199.8,56.72,194.31Z" fill="#fff"/><path d="M71.19,195.34c0-5.49,4.68-7.63,12.5-7.63h2.25v-.54c0-2.23-.54-3.7-3.1-3.7a2.89,2.89,0,0,0-3.2,2.77H72.09c.36-5.62,4.81-8.39,11.24-8.39s10.61,2.63,10.61,8.83V201.8H86.12v-2.72c-1.13,1.7-3.19,3.26-7,3.26C74.92,202.34,71.19,200.29,71.19,195.34Zm14.75-1.7v-1.43H83.82c-3.23,0-4.67.63-4.67,2.55,0,1.33.9,2.18,2.79,2.18C84.23,196.94,85.94,195.65,85.94,193.64Z" fill="#fff"/><path d="M103.78,189.94l-7.33-11.46h9.26l3.64,6.15,3.56-6.15h8.27l-7.42,10.84,8.14,12.48h-9.26l-4.18-7-4.28,7H96Z" fill="#fff"/><path d="M132.32,178.48h8.05V182a8.3,8.3,0,0,1,7.32-4.11c5.49,0,9.94,4.11,9.94,12.09v.36c0,8-4.45,12-10,12-3.55,0-6.11-1.65-7.28-4v11.24h-8.05Zm17.13,11.82v-.36c0-4.1-1.8-6.07-4.63-6.07s-4.68,2.1-4.68,6v.35c0,4,1.76,6,4.68,6S149.45,194.13,149.45,190.3Z" fill="#fff"/><path d="M160.55,178.48h8v4.64a7.41,7.41,0,0,1,7.6-5v7.44c-4.9-.13-7.6,1.39-7.6,5.13V201.8h-8Z" fill="#fff"/><path d="M177.63,190.43v-.36c0-7.49,5.62-12.22,12.9-12.22s12.81,4.6,12.81,12v.36c0,7.58-5.62,12.13-12.86,12.13S177.63,198,177.63,190.43Zm17.53-.13v-.36c0-3.93-1.57-6.11-4.63-6.11s-4.68,2.1-4.68,6v.36c0,4,1.58,6.2,4.68,6.2S195.16,194.18,195.16,190.3Z" fill="#fff"/><path d="M21,240v-.36c0-7.94,4.4-12.17,10-12.17,3.68,0,5.88,1.56,7.23,3.92V217.81h8V251.4h-8v-3.79a7.93,7.93,0,0,1-7.32,4.32C25.44,251.93,21,248.05,21,240Zm17.44-.14v-.35c0-3.93-1.66-6-4.63-6s-4.63,2-4.63,6.06v.36c0,3.92,1.75,5.93,4.54,5.93S38.43,243.81,38.43,239.84Z" fill="#fff"/><path d="M49.08,240v-.35c0-7.5,5.62-12.22,12.9-12.22s12.81,4.59,12.81,12v.36c0,7.58-5.62,12.13-12.85,12.13S49.08,247.56,49.08,240Zm17.53-.13v-.36c0-3.92-1.57-6.11-4.63-6.11s-4.67,2.1-4.67,6v.36c0,4,1.57,6.2,4.67,6.2S66.61,243.77,66.61,239.89Z" fill="#fff"/><path d="M86.88,243.9V233.51H84.05v-5.44h2.83v-4.86h8.05v4.86h4.63v5.44H94.93v9.64a2.13,2.13,0,0,0,2.38,2.45,6.32,6.32,0,0,0,2.29-.4v6.06a16.85,16.85,0,0,1-4.45.67C89.85,251.93,86.88,249.39,86.88,243.9Z" fill="#fff"/><path d="M102.61,217.81h8v14a8.3,8.3,0,0,1,7.73-4.37c4.54,0,7.69,2.81,7.69,8.78V251.4h-8V237.84c0-2.63-1-3.93-3.37-3.93s-4,1.43-4,4.42V251.4h-8Z" fill="#fff"/><path d="M128.73,240v-.35c0-7.5,5.61-12.22,12.72-12.22,6.43,0,12,3.65,12,12v2.09H136.86c.23,3.08,2,4.87,4.9,4.87,2.65,0,3.78-1.21,4.09-2.77h7.55c-.71,5.26-4.81,8.25-11.91,8.25C134.12,251.93,128.73,247.65,128.73,240Zm16.85-2.94c-.13-2.81-1.53-4.37-4.13-4.37-2.43,0-4.09,1.56-4.5,4.37Z" fill="#fff"/><path d="M156.19,228.07h8.05v3.57a8.22,8.22,0,0,1,7.37-4.19c3.1,0,5.26,1.33,6.38,3.88a9.32,9.32,0,0,1,7.78-3.88c4.45,0,7.69,2.85,7.69,8.69V251.4h-8.05V237.48c0-2.36-1.17-3.52-3-3.52-2.16,0-3.6,1.38-3.6,3.92V251.4h-8V237.48c0-2.36-1.17-3.52-3-3.52-2.16,0-3.59,1.38-3.59,3.92V251.4h-8.05Z" fill="#fff"/><path d="M206.76,233.51h-3v-5.44h3v-2c0-5.8,3.64-8.57,9.21-8.57a14.37,14.37,0,0,1,3.69.5v5.84a7.48,7.48,0,0,0-2.21-.31c-1.88,0-2.69,1-2.69,2.54v2h4.76v5.44h-4.76V251.4h-8Z" fill="#fff"/><path d="M220.15,240v-.35c0-7.5,5.62-12.22,12.9-12.22s12.81,4.59,12.81,12v.36c0,7.58-5.62,12.13-12.85,12.13S220.15,247.56,220.15,240Zm17.53-.13v-.36c0-3.92-1.57-6.11-4.63-6.11s-4.67,2.1-4.67,6v.36c0,4,1.57,6.2,4.67,6.2S237.68,243.77,237.68,239.89Z" fill="#fff"/><path d="M248.69,228.07h8.05v4.64a7.39,7.39,0,0,1,7.59-5v7.45c-4.9-.14-7.59,1.38-7.59,5.13V251.4h-8.05Z" fill="#fff"/><path d="M29.53,298.63l-9.4-21h8.72l4.86,12.45,4.49-12.45h7.69L33.3,308.79H25.62Z" fill="#fff"/><path d="M45.44,289.62v-.36c0-7.49,5.62-12.22,12.9-12.22s12.81,4.59,12.81,12v.35c0,7.59-5.62,12.13-12.86,12.13S45.44,297.15,45.44,289.62ZM63,289.48v-.35c0-3.93-1.57-6.12-4.63-6.12s-4.68,2.1-4.68,6v.35c0,4,1.58,6.2,4.68,6.2S63,293.36,63,289.48Z" fill="#fff"/><path d="M73.8,292.87V277.66h8v13.92c0,2.63,1,3.92,3.32,3.92s4-1.42,4-4.41V277.66h8V301h-8v-3.61c-1.25,2.41-3.55,4.14-7.46,4.14C77.17,301.52,73.8,298.76,73.8,292.87Z" fill="#fff"/><path d="M107.51,277.66h8.41l3.41,14,4-14h6.47l3.51,14,3.82-14h7.64L137.27,301h-7.69l-3.5-13-3.65,13h-7.82Z" fill="#fff"/><path d="M146.61,271.33a4.44,4.44,0,1,1,4.41,4.1A4.19,4.19,0,0,1,146.61,271.33Zm.41,6.33h8V301h-8Z" fill="#fff"/><path d="M160.46,293.5V283.1h-2.83v-5.44h2.83V272.8h8v4.86h4.63v5.44H168.5v9.64a2.14,2.14,0,0,0,2.39,2.45,6.11,6.11,0,0,0,2.29-.4v6.07a17.35,17.35,0,0,1-4.45.66C163.42,301.52,160.46,299,160.46,293.5Z" fill="#fff"/><path d="M176.19,267.4h8.05v14A8.29,8.29,0,0,1,192,277c4.54,0,7.68,2.81,7.68,8.78V301h-8V287.43c0-2.63-1-3.92-3.37-3.92s-4,1.42-4,4.41V301h-8.05Z" fill="#fff"/><path d="M202.3,289.62v-.36c0-7.49,5.62-12.22,12.91-12.22S228,281.63,228,289v.35c0,7.59-5.62,12.13-12.86,12.13S202.3,297.15,202.3,289.62Zm17.53-.14v-.35c0-3.93-1.57-6.12-4.62-6.12s-4.68,2.1-4.68,6v.35c0,4,1.57,6.2,4.68,6.2S219.83,293.36,219.83,289.48Z" fill="#fff"/><path d="M230.67,292.87V277.66h8v13.92c0,2.63,1,3.92,3.33,3.92s4-1.42,4-4.41V277.66h8V301h-8v-3.61c-1.26,2.41-3.55,4.14-7.46,4.14C234,301.52,230.67,298.76,230.67,292.87Z" fill="#fff"/><path d="M259.25,293.5V283.1h-2.83v-5.44h2.83V272.8h8.05v4.86h4.63v5.44H267.3v9.64a2.13,2.13,0,0,0,2.38,2.45,6.11,6.11,0,0,0,2.29-.4v6.07a17.35,17.35,0,0,1-4.45.66C262.22,301.52,259.25,299,259.25,293.5Z" fill="#fff"/><path d="M22.38,317h8v33.58h-8Z" fill="#fff"/><path d="M33.44,339.21v-.36c0-7.49,5.62-12.22,12.72-12.22,6.43,0,12,3.66,12,12v2.1H41.57c.23,3.08,2,4.86,4.9,4.86,2.65,0,3.78-1.2,4.09-2.76h7.56c-.72,5.26-4.81,8.25-11.92,8.25C38.83,351.12,33.44,346.84,33.44,339.21Zm16.85-2.95c-.13-2.8-1.52-4.37-4.13-4.37-2.43,0-4.09,1.57-4.5,4.37Z" fill="#fff"/><path d="M59.77,344.12c0-5.49,4.68-7.63,12.5-7.63h2.25V336c0-2.23-.54-3.7-3.1-3.7A2.88,2.88,0,0,0,68.23,335H60.67c.36-5.62,4.81-8.39,11.24-8.39s10.61,2.63,10.61,8.83v15.12H74.7v-2.72c-1.12,1.7-3.19,3.26-7,3.26C63.51,351.12,59.77,349.07,59.77,344.12Zm14.75-1.7V341H72.41c-3.24,0-4.68.63-4.68,2.55,0,1.33.9,2.18,2.79,2.18C72.81,345.72,74.52,344.43,74.52,342.42Z" fill="#fff"/><path d="M83.73,327.26h8.59l4.9,15,4.81-15h7.69l-8.59,23.32H92.36Z" fill="#fff"/><path d="M111.56,320.92a4.18,4.18,0,0,1,4.4-4.15,4.14,4.14,0,1,1,0,8.26A4.15,4.15,0,0,1,111.56,320.92Zm.4,6.34H120v23.32H112Z" fill="#fff"/><path d="M124.32,327.26h8.05V331a8.3,8.3,0,0,1,7.73-4.37c4.54,0,7.69,2.81,7.69,8.79v15.16h-8V337c0-2.63-1-3.92-3.37-3.92s-4,1.43-4,4.41v13.07h-8.05Z" fill="#fff"/><path d="M150.39,350.58h8c.36,1.7,1.39,3,4.32,3,3.55,0,5-2,5-4.91v-3.57a8.27,8.27,0,0,1-7.29,4.28c-5.48,0-10-4-10-11.19v-.36c0-6.87,4.45-11.24,10-11.24,3.73,0,5.94,1.56,7.29,3.93v-3.3h8v21.36c0,7-4.63,10.61-13,10.61C154.7,359.23,151,355.89,150.39,350.58Zm17.53-12.4v-.31c0-3.21-1.66-5.26-4.63-5.26s-4.63,2.09-4.63,5.31v.35c0,3.21,1.71,5.27,4.59,5.27S167.92,341.48,167.92,338.18Z" fill="#fff"/><path d="M22.16,366.59h8v14a8.32,8.32,0,0,1,7.73-4.37c4.54,0,7.69,2.81,7.69,8.79v15.16h-8V386.62c0-2.64-1-3.93-3.37-3.93s-4,1.43-4,4.42v13.06h-8Z" fill="#fff"/><path d="M48.27,388.8v-.36c0-7.49,5.62-12.22,12.9-12.22s12.81,4.6,12.81,12v.36c0,7.58-5.62,12.13-12.85,12.13S48.27,396.34,48.27,388.8Zm17.53-.13v-.36c0-3.92-1.57-6.11-4.63-6.11s-4.67,2.1-4.67,6v.36c0,4,1.57,6.2,4.67,6.2S65.8,392.55,65.8,388.67Z" fill="#fff"/><path d="M76.81,376.85h8v3.57a8.23,8.23,0,0,1,7.37-4.2c3.1,0,5.26,1.34,6.38,3.88a9.36,9.36,0,0,1,7.78-3.88c4.45,0,7.69,2.86,7.69,8.7v15.25h-8V386.26c0-2.36-1.17-3.52-3-3.52-2.16,0-3.6,1.38-3.6,3.92v13.51h-8V386.26c0-2.36-1.17-3.52-3-3.52-2.15,0-3.59,1.38-3.59,3.92v13.51h-8Z" fill="#fff"/><path d="M116.73,388.8v-.36c0-7.49,5.61-12.22,12.72-12.22,6.43,0,12,3.66,12,12v2.09H124.86c.23,3.08,2,4.86,4.9,4.86,2.65,0,3.78-1.2,4.09-2.76h7.55c-.71,5.26-4.81,8.25-11.91,8.25C122.12,400.71,116.73,396.43,116.73,388.8Zm16.85-2.94c-.13-2.81-1.53-4.37-4.13-4.37-2.43,0-4.09,1.56-4.5,4.37Z" fill="#fff"/><path d="M143.65,396.16a4.46,4.46,0,0,1,4.58-4.5,4.51,4.51,0,1,1,0,9A4.46,4.46,0,0,1,143.65,396.16Z" fill="#fff"/></svg>