<svg xmlns="http://www.w3.org/2000/svg" viewBox="0 0 129 35"><title>cta_txt</title><g id="Layer_2" data-name="Layer 2"><g id="Rect"><rect width="129" height="35" fill="none"/></g><g id="Try_Tax_Pro_Go" data-name="Try Tax Pro Go"><path d="M17.59,13H14.68v-1.9H23V13h-2.9v8.87H17.59Z" fill="#262626"/><path d="M23.54,14h2.19v1.5a2.59,2.59,0,0,1,2.54-1.63v2c-1.61,0-2.54.51-2.54,2v3.94H23.54Z" fill="#262626"/><path d="M32,21.05,28.83,14h2.35l1.91,4.72L34.85,14H37L32.69,24.53H30.58Z" fill="#262626"/><path d="M43.32,13H40.41v-1.9h8.27V13H45.77v8.87H43.32Z" fill="#262626"/><path d="M48.29,19.67c0-1.84,1.69-2.53,4.1-2.53h.89v-.32c0-.93-.29-1.44-1.28-1.44a1.18,1.18,0,0,0-1.34,1.11H48.59c.14-1.87,1.61-2.7,3.54-2.7s3.3.79,3.3,2.93v5.13H53.31v-1A2.68,2.68,0,0,1,50.93,22C49.5,22,48.29,21.32,48.29,19.67Zm5-.57v-.67h-.85c-1.26,0-2,.27-2,1.12,0,.57.35.95,1.14.95C52.54,20.5,53.28,20,53.28,19.1Z" fill="#262626"/><path d="M59.06,17.83,56.55,14h2.5l1.47,2.36L62,14h2.26l-2.52,3.68,2.77,4.19H62L60.31,19.2l-1.7,2.65H56.37Z" fill="#262626"/><path d="M68.81,11.08h3.72c2.62,0,4.11,1.16,4.11,3.44v.06c0,2.27-1.58,3.36-4,3.36H71.23v3.91H68.81Zm3.66,5.15c1.19,0,1.82-.57,1.82-1.64v-.06c0-1.14-.66-1.59-1.82-1.59H71.23v3.29Z" fill="#262626"/><path d="M77.82,14H80v1.5a2.61,2.61,0,0,1,2.54-1.63v2c-1.61,0-2.54.51-2.54,2v3.94H77.82Z" fill="#262626"/><path d="M83.13,18v-.12a4,4,0,0,1,4.16-4.09,3.91,3.91,0,0,1,4.14,4V18a4.15,4.15,0,0,1-8.3.05Zm6.09,0v-.11c0-1.51-.71-2.41-1.93-2.41s-1.93.87-1.93,2.38V18c0,1.51.7,2.41,1.93,2.41S89.22,19.46,89.22,18Z" fill="#262626"/><path d="M95.43,16.54v-.13a5.27,5.27,0,0,1,5.48-5.49c2.39,0,4.53,1.1,4.79,3.76h-2.43a2.08,2.08,0,0,0-2.33-1.83c-1.87,0-3,1.4-3,3.59v.13c0,2.07.89,3.56,3,3.56a2.27,2.27,0,0,0,2.59-2.27h-2.43V16.08H106v1.15c0,2.87-1.84,4.79-5.06,4.79A5.1,5.1,0,0,1,95.43,16.54Z" fill="#262626"/><path d="M106.83,18v-.12A4,4,0,0,1,111,13.79a3.92,3.92,0,0,1,4.14,4V18a4.15,4.15,0,0,1-8.3.05Zm6.09,0v-.11c0-1.51-.71-2.41-1.93-2.41s-1.93.87-1.93,2.38V18c0,1.51.69,2.41,1.93,2.41S112.92,19.46,112.92,18Z" fill="#262626"/></g></g></svg>