<svg xmlns="http://www.w3.org/2000/svg" viewBox="0 0 600 100"><title>txt1</title><g id="Layer_2" data-name="Layer 2"><g id="Rect"><rect width="600" height="100" fill="none"/></g><g id="Upload_your_docs_and_a_tax_pro_does_the_rest._Tax_Pro_Go." data-name="Upload your docs and a  tax pro does the rest.  Tax Pro Go."><path d="M124.84,25.77V14.88h5.25V25.54c0,2.59.64,3.84,2.87,3.84s2.86-1.17,2.86-3.92V14.88h5.3V25.69c0,5.34-3.12,7.82-8.16,7.82S124.84,30.9,124.84,25.77Z" fill="#fff"/><path d="M143.6,19.8h4.58v2a4.71,4.71,0,0,1,4.17-2.36c3.12,0,5.66,2.36,5.66,7v.2c0,4.61-2.54,6.92-5.68,6.92a4.42,4.42,0,0,1-4.15-2.28v6.46H143.6Zm9.75,6.79v-.2c0-2.36-1-3.49-2.64-3.49s-2.66,1.2-2.66,3.46v.2c0,2.29,1,3.44,2.66,3.44S153.35,28.79,153.35,26.59Z" fill="#fff"/><path d="M159.8,13.9h4.55V33.2H159.8Z" fill="#fff"/><path d="M166.09,26.67v-.21c0-4.3,3.2-7,7.35-7s7.29,2.64,7.29,6.89v.21c0,4.36-3.2,7-7.32,7S166.09,31,166.09,26.67Zm10-.08v-.2c0-2.26-.9-3.52-2.63-3.52s-2.67,1.21-2.67,3.46v.21c0,2.31.9,3.56,2.67,3.56S176.07,28.82,176.07,26.59Z" fill="#fff"/><path d="M181.57,29.49c0-3.16,2.66-4.39,7.12-4.39H190v-.3c0-1.29-.31-2.13-1.77-2.13a1.65,1.65,0,0,0-1.82,1.59h-4.3c.21-3.23,2.74-4.82,6.4-4.82s6,1.51,6,5.07V33.2h-4.45V31.64a4.41,4.41,0,0,1-4,1.87C183.7,33.51,181.57,32.33,181.57,29.49Zm8.4-1v-.82h-1.21c-1.84,0-2.66.36-2.66,1.46,0,.77.51,1.26,1.59,1.26A2,2,0,0,0,190,28.51Z" fill="#fff"/><path d="M196.08,26.64v-.2c0-4.57,2.51-7,5.68-7a4.35,4.35,0,0,1,4.12,2.25V13.9h4.58V33.2h-4.58V31a4.51,4.51,0,0,1-4.17,2.48C198.61,33.51,196.08,31.28,196.08,26.64Zm9.93-.08v-.2c0-2.26-.95-3.46-2.64-3.46s-2.63,1.15-2.63,3.49v.2c0,2.26,1,3.41,2.58,3.41S206,28.85,206,26.56Z" fill="#fff"/><path d="M221.64,31.85l-5.35-12h5L224,27l2.56-7.15H231l-7.17,17.89h-4.37Z" fill="#fff"/><path d="M230.7,26.67v-.21c0-4.3,3.2-7,7.34-7s7.3,2.64,7.3,6.89v.21c0,4.36-3.2,7-7.32,7S230.7,31,230.7,26.67Zm10-.08v-.2c0-2.26-.9-3.52-2.64-3.52s-2.66,1.21-2.66,3.46v.21c0,2.31.9,3.56,2.66,3.56S240.68,28.82,240.68,26.59Z" fill="#fff"/><path d="M246.85,28.54V19.8h4.58v8c0,1.52.59,2.26,1.89,2.26s2.28-.82,2.28-2.54V19.8h4.58V33.2H255.6V31.13a4.4,4.4,0,0,1-4.25,2.38C248.77,33.51,246.85,31.92,246.85,28.54Z" fill="#fff"/><path d="M262.51,19.8h4.58v2.66a4.2,4.2,0,0,1,4.32-2.84V23.9c-2.79-.08-4.32.79-4.32,3V33.2h-4.58Z" fill="#fff"/><path d="M277.07,26.64v-.2c0-4.57,2.5-7,5.68-7a4.36,4.36,0,0,1,4.12,2.25V13.9h4.58V33.2h-4.58V31a4.52,4.52,0,0,1-4.18,2.48C279.6,33.51,277.07,31.28,277.07,26.64Zm9.92-.08v-.2c0-2.26-.94-3.46-2.63-3.46s-2.64,1.15-2.64,3.49v.2c0,2.26,1,3.41,2.59,3.41S287,28.85,287,26.56Z" fill="#fff"/><path d="M293.06,26.67v-.21c0-4.3,3.2-7,7.34-7s7.29,2.64,7.29,6.89v.21c0,4.36-3.19,7-7.31,7S293.06,31,293.06,26.67Zm10-.08v-.2c0-2.26-.9-3.52-2.64-3.52s-2.66,1.21-2.66,3.46v.21c0,2.31.9,3.56,2.66,3.56S303,28.82,303,26.59Z" fill="#fff"/><path d="M308.59,26.67v-.21c0-4.46,3.2-7,7.14-7,3.27,0,6.29,1.43,6.55,5.51H318A2,2,0,0,0,315.83,23c-1.61,0-2.56,1.16-2.56,3.41v.21c0,2.33.9,3.53,2.64,3.53a2.24,2.24,0,0,0,2.33-2.23h4.12c-.13,3.39-2.41,5.59-6.73,5.59C311.63,33.51,308.59,31.18,308.59,26.67Z" fill="#fff"/><path d="M323.12,29h4.23c.15,1,.58,1.51,1.89,1.51,1.13,0,1.64-.43,1.64-1.1s-.64-.95-2.49-1.21c-3.58-.46-5.09-1.51-5.09-4.3,0-3,2.64-4.41,5.74-4.41,3.3,0,5.6,1.13,5.91,4.33H330.8a1.49,1.49,0,0,0-1.71-1.33c-1,0-1.51.43-1.51,1s.61.9,2.25,1.1c3.71.46,5.5,1.44,5.5,4.31,0,3.18-2.35,4.61-6.07,4.61S323.23,31.92,323.12,29Z" fill="#fff"/><path d="M340.7,29.49c0-3.16,2.66-4.39,7.12-4.39h1.27v-.3c0-1.29-.3-2.13-1.76-2.13a1.65,1.65,0,0,0-1.82,1.59h-4.3c.21-3.23,2.74-4.82,6.4-4.82s6,1.51,6,5.07V33.2H349.2V31.64a4.41,4.41,0,0,1-4,1.87C342.83,33.51,340.7,32.33,340.7,29.49Zm8.39-1v-.82h-1.2c-1.84,0-2.66.36-2.66,1.46,0,.77.51,1.26,1.59,1.26A2,2,0,0,0,349.09,28.51Z" fill="#fff"/><path d="M355.88,19.8h4.58V22a4.72,4.72,0,0,1,4.4-2.51c2.58,0,4.37,1.61,4.37,5V33.2h-4.58V25.41c0-1.51-.59-2.25-1.92-2.25s-2.27.82-2.27,2.53V33.2h-4.58Z" fill="#fff"/><path d="M370.79,26.64v-.2c0-4.57,2.51-7,5.68-7a4.34,4.34,0,0,1,4.12,2.25V13.9h4.58V33.2h-4.58V31a4.51,4.51,0,0,1-4.17,2.48C373.33,33.51,370.79,31.28,370.79,26.64Zm9.93-.08v-.2c0-2.26-.94-3.46-2.63-3.46s-2.64,1.15-2.64,3.49v.2c0,2.26,1,3.41,2.59,3.41S380.72,28.85,380.72,26.56Z" fill="#fff"/><path d="M391.39,29.49c0-3.16,2.66-4.39,7.11-4.39h1.28v-.3c0-1.29-.3-2.13-1.76-2.13a1.64,1.64,0,0,0-1.82,1.59h-4.3c.21-3.23,2.74-4.82,6.4-4.82s6,1.51,6,5.07V33.2h-4.45V31.64a4.41,4.41,0,0,1-4,1.87C393.52,33.51,391.39,32.33,391.39,29.49Zm8.39-1v-.82h-1.2c-1.84,0-2.66.36-2.66,1.46,0,.77.51,1.26,1.59,1.26A2,2,0,0,0,399.78,28.51Z" fill="#fff"/><path d="M125.18,55.74v-6h-1.62V46.64h1.62V43.85h4.58v2.79h2.63v3.13h-2.63v5.54c0,1,.48,1.41,1.35,1.41a3.6,3.6,0,0,0,1.31-.23V60a9.34,9.34,0,0,1-2.54.39C126.86,60.36,125.18,58.9,125.18,55.74Z" fill="#fff"/><path d="M133.42,56.33c0-3.15,2.66-4.38,7.11-4.38h1.28v-.31c0-1.28-.31-2.13-1.77-2.13a1.64,1.64,0,0,0-1.81,1.59h-4.3c.2-3.23,2.74-4.82,6.39-4.82s6,1.52,6,5.08v8.69h-4.45V58.49a4.41,4.41,0,0,1-4,1.87C135.54,60.36,133.42,59.18,133.42,56.33Zm8.39-1v-.82h-1.2c-1.85,0-2.67.36-2.67,1.46,0,.77.52,1.26,1.59,1.26A2,2,0,0,0,141.81,55.36Z" fill="#fff"/><path d="M152,53.23l-4.17-6.59h5.27l2.07,3.54,2-3.54h4.71l-4.22,6.23,4.63,7.18H157l-2.38-4-2.43,4h-4.69Z" fill="#fff"/><path d="M168.21,46.64h4.58v2A4.73,4.73,0,0,1,177,46.28c3.12,0,5.65,2.36,5.65,6.95v.21c0,4.61-2.53,6.92-5.68,6.92a4.43,4.43,0,0,1-4.15-2.28v6.46h-4.58Zm9.75,6.8v-.21c0-2.36-1-3.49-2.63-3.49s-2.66,1.21-2.66,3.47v.2c0,2.28,1,3.44,2.66,3.44S178,55.64,178,53.44Z" fill="#fff"/><path d="M184.28,46.64h4.58v2.67a4.24,4.24,0,0,1,4.33-2.85v4.28c-2.79-.07-4.33.8-4.33,2.95v6.36h-4.58Z" fill="#fff"/><path d="M194,53.51v-.2c0-4.31,3.2-7,7.34-7s7.29,2.64,7.29,6.9v.2c0,4.36-3.19,7-7.31,7S194,57.85,194,53.51Zm10-.07v-.21c0-2.26-.9-3.51-2.64-3.51s-2.66,1.2-2.66,3.46v.2c0,2.31.9,3.57,2.66,3.57S204,55.67,204,53.44Z" fill="#fff"/><path d="M214.25,53.49v-.21c0-4.56,2.5-7,5.68-7a4.34,4.34,0,0,1,4.12,2.26V40.75h4.58v19.3h-4.58V57.87a4.52,4.52,0,0,1-4.17,2.49C216.78,60.36,214.25,58.13,214.25,53.49Zm9.93-.08v-.2c0-2.26-1-3.47-2.64-3.47s-2.64,1.16-2.64,3.49v.21c0,2.25,1,3.41,2.59,3.41S224.18,55.69,224.18,53.41Z" fill="#fff"/><path d="M230.24,53.51v-.2c0-4.31,3.2-7,7.34-7s7.3,2.64,7.3,6.9v.2c0,4.36-3.2,7-7.32,7S230.24,57.85,230.24,53.51Zm10-.07v-.21c0-2.26-.9-3.51-2.64-3.51s-2.66,1.2-2.66,3.46v.2c0,2.31.9,3.57,2.66,3.57S240.22,55.67,240.22,53.44Z" fill="#fff"/><path d="M245.77,53.51v-.2c0-4.31,3.2-7,7.24-7,3.66,0,6.81,2.11,6.81,6.93v1.2H250.4a2.67,2.67,0,0,0,2.79,2.79c1.51,0,2.15-.69,2.33-1.58h4.3c-.41,3-2.74,4.74-6.78,4.74C248.84,60.36,245.77,57.9,245.77,53.51Zm9.6-1.69c-.08-1.61-.87-2.51-2.36-2.51a2.55,2.55,0,0,0-2.56,2.51Z" fill="#fff"/><path d="M260.64,55.79h4.22c.15,1,.59,1.52,1.89,1.52,1.13,0,1.64-.44,1.64-1.1s-.64-1-2.48-1.21c-3.58-.46-5.09-1.51-5.09-4.31,0-3,2.63-4.41,5.73-4.41,3.3,0,5.6,1.13,5.91,4.34h-4.15a1.49,1.49,0,0,0-1.71-1.34c-1,0-1.51.44-1.51,1s.61.9,2.25,1.11c3.71.46,5.5,1.43,5.5,4.3,0,3.18-2.35,4.62-6.06,4.62S260.74,58.77,260.64,55.79Z" fill="#fff"/><path d="M279.6,55.74v-6H278V46.64h1.61V43.85h4.58v2.79h2.63v3.13h-2.63v5.54a1.23,1.23,0,0,0,1.36,1.41,3.54,3.54,0,0,0,1.3-.23V60a9.33,9.33,0,0,1-2.53.39C281.29,60.36,279.6,58.9,279.6,55.74Z" fill="#fff"/><path d="M288.55,40.75h4.58v8a4.73,4.73,0,0,1,4.41-2.52c2.58,0,4.37,1.62,4.37,5v8.72h-4.58V52.26c0-1.52-.59-2.26-1.92-2.26s-2.28.82-2.28,2.54v7.51h-4.58Z" fill="#fff"/><path d="M303.42,53.51v-.2c0-4.31,3.2-7,7.24-7,3.66,0,6.81,2.11,6.81,6.93v1.2h-9.42a2.67,2.67,0,0,0,2.79,2.79c1.51,0,2.15-.69,2.33-1.58h4.3c-.41,3-2.74,4.74-6.78,4.74C306.49,60.36,303.42,57.9,303.42,53.51Zm9.6-1.69c-.08-1.61-.87-2.51-2.36-2.51a2.55,2.55,0,0,0-2.56,2.51Z" fill="#fff"/><path d="M323.71,46.64h4.58v2.67a4.23,4.23,0,0,1,4.33-2.85v4.28c-2.79-.07-4.33.8-4.33,2.95v6.36h-4.58Z" fill="#fff"/><path d="M333.44,53.51v-.2c0-4.31,3.19-7,7.24-7,3.66,0,6.8,2.11,6.8,6.93v1.2h-9.41a2.67,2.67,0,0,0,2.79,2.79c1.51,0,2.15-.69,2.32-1.58h4.3c-.41,3-2.73,4.74-6.78,4.74S333.44,57.9,333.44,53.51ZM343,51.82c-.07-1.61-.87-2.51-2.35-2.51a2.55,2.55,0,0,0-2.56,2.51Z" fill="#fff"/><path d="M348.3,55.79h4.22c.16,1,.59,1.52,1.9,1.52,1.12,0,1.63-.44,1.63-1.1s-.63-1-2.48-1.21c-3.58-.46-5.09-1.51-5.09-4.31,0-3,2.64-4.41,5.73-4.41,3.3,0,5.61,1.13,5.91,4.34H356a1.5,1.5,0,0,0-1.72-1.34c-1,0-1.51.44-1.51,1s.62.9,2.26,1.11c3.71.46,5.5,1.43,5.5,4.3,0,3.18-2.36,4.62-6.07,4.62S348.4,58.77,348.3,55.79Z" fill="#fff"/><path d="M362.61,55.74v-6H361V46.64h1.62V43.85h4.58v2.79h2.63v3.13h-2.63v5.54c0,1,.48,1.41,1.35,1.41a3.6,3.6,0,0,0,1.31-.23V60a9.34,9.34,0,0,1-2.54.39C364.29,60.36,362.61,58.9,362.61,55.74Z" fill="#fff"/><path d="M371.38,57.74A2.56,2.56,0,0,1,374,55.15a2.59,2.59,0,1,1,0,5.18A2.55,2.55,0,0,1,371.38,57.74Z" fill="#fff"/><path d="M128.48,72.62h-4.74V68.57h14.74v4.05h-4.73V86.89h-5.27Z" fill="#fff"/><path d="M137.56,83.18c0-3.16,2.66-4.39,7.11-4.39H146v-.3c0-1.28-.3-2.13-1.76-2.13A1.64,1.64,0,0,0,142.37,78h-4.3c.21-3.23,2.74-4.82,6.4-4.82s6,1.51,6,5.07v8.69h-4.45V85.33a4.41,4.41,0,0,1-4,1.87C139.68,87.2,137.56,86,137.56,83.18Zm8.39-1v-.82h-1.2c-1.84,0-2.66.36-2.66,1.46,0,.77.51,1.26,1.59,1.26A2,2,0,0,0,146,82.2Z" fill="#fff"/><path d="M156.11,80.08l-4.17-6.59h5.27L159.29,77l2-3.54H166l-4.22,6.23,4.63,7.17h-5.27l-2.38-4-2.43,4h-4.68Z" fill="#fff"/><path d="M172.77,68.57h7c5,0,7.34,2.23,7.34,6.12v.1c0,3.85-2.58,5.93-7.11,5.93h-2v6.17h-5.22Zm6.73,8.56c1.69,0,2.58-.8,2.58-2.31v-.1c0-1.57-.92-2.21-2.56-2.21H178v4.62Z" fill="#fff"/><path d="M188.66,73.49h4.58v2.66a4.2,4.2,0,0,1,4.32-2.84v4.28c-2.78-.08-4.32.79-4.32,3v6.35h-4.58Z" fill="#fff"/><path d="M198.38,80.36v-.21c0-4.3,3.2-7,7.35-7S213,75.77,213,80v.21c0,4.36-3.2,7-7.32,7S198.38,84.69,198.38,80.36Zm10-.08v-.2c0-2.26-.89-3.52-2.63-3.52s-2.66,1.21-2.66,3.46v.21c0,2.31.89,3.56,2.66,3.56S208.36,82.51,208.36,80.28Z" fill="#fff"/><path d="M218.73,77.85v-.21c0-5.59,4.09-9.36,9.59-9.36,4.33,0,8.16,2,8.52,6.75h-5.19c-.26-1.72-1.36-2.62-3.3-2.62-2.59,0-4.15,2-4.15,5.31v.2c0,3,1.1,5.28,4.27,5.28,2.56,0,3.54-1.3,3.64-2.77h-3.43V76.77h8.6V79c0,4.67-3.05,8.18-9,8.18C222.1,87.2,218.73,83.33,218.73,77.85Z" fill="#fff"/><path d="M238.33,80.36v-.21c0-4.3,3.19-7,7.34-7S253,75.77,253,80v.21c0,4.36-3.2,7-7.32,7S238.33,84.69,238.33,80.36Zm10-.08v-.2c0-2.26-.9-3.52-2.64-3.52S243,77.77,243,80v.21c0,2.31.89,3.56,2.66,3.56S248.31,82.51,248.31,80.28Z" fill="#fff"/><path d="M253.83,84.59A2.55,2.55,0,0,1,256.44,82a2.59,2.59,0,1,1,0,5.18A2.56,2.56,0,0,1,253.83,84.59Z" fill="#fff"/></g></g></svg>