<svg xmlns="http://www.w3.org/2000/svg" viewBox="0 0 300 250"><title>Asset 7</title><rect width="300" height="250" fill="none"/><path d="M21.78,43.56h7.55c7.38,0,11.13,3.66,11.13,10.06v.23c0,6.43-3.84,10.32-11.16,10.32H21.78Zm7.35,16.06c3.54,0,5.11-1.85,5.11-5.68v-.23c0-3.92-1.57-5.59-5.17-5.59H27.76v11.5Z" fill="#fff"/><path d="M41.65,56.82v-.23c0-4.84,3.63-7.9,8.34-7.9s8.28,3,8.28,7.76v.23c0,4.9-3.63,7.84-8.31,7.84S41.65,61.69,41.65,56.82ZM53,56.73V56.5c0-2.53-1-4-3-4s-3,1.36-3,3.9v.23c0,2.59,1,4,3,4S53,59.24,53,56.73Z" fill="#fff"/><path d="M60.1,49.1h5.21v2.42a5.35,5.35,0,0,1,5-2.83c2.94,0,5,1.82,5,5.68v9.8h-5.2V55.41c0-1.7-.67-2.54-2.18-2.54s-2.58.92-2.58,2.86v8.44H60.1Z" fill="#fff"/><path d="M76.78,43.56h5.09l-.61,7.93H77.37Z" fill="#fff"/><path d="M85.12,59.33V52.61H83.29V49.1h1.83V46h5.2V49.1h3v3.51h-3v6.23a1.38,1.38,0,0,0,1.54,1.58,3.83,3.83,0,0,0,1.48-.26v3.92a10.55,10.55,0,0,1-2.87.44C87,64.52,85.12,62.87,85.12,59.33Z" fill="#fff"/><path d="M99.83,56.79v-.23c0-5.13,2.84-7.87,6.45-7.87A4.92,4.92,0,0,1,111,51.23V42.47h5.2v21.7H111V61.72a5.11,5.11,0,0,1-4.73,2.8C102.7,64.52,99.83,62,99.83,56.79Zm11.27-.08v-.23c0-2.54-1.08-3.9-3-3.9s-3,1.3-3,3.92v.23c0,2.54,1.14,3.84,2.94,3.84S111.1,59.27,111.1,56.71Z" fill="#fff"/><path d="M118,56.82v-.23c0-4.84,3.63-7.9,8.34-7.9s8.28,3,8.28,7.76v.23c0,4.9-3.64,7.84-8.31,7.84S118,61.69,118,56.82Zm11.33-.09V56.5c0-2.53-1-4-3-4s-3,1.36-3,3.9v.23c0,2.59,1,4,3,4S129.32,59.24,129.32,56.73Z" fill="#fff"/><path d="M142.42,59.33V52.61h-1.83V49.1h1.83V46h5.2V49.1h3v3.51h-3v6.23a1.38,1.38,0,0,0,1.54,1.58,3.88,3.88,0,0,0,1.49-.26v3.92a10.7,10.7,0,0,1-2.88.44C144.34,64.52,142.42,62.87,142.42,59.33Z" fill="#fff"/><path d="M151.78,60c0-3.54,3-4.93,8.08-4.93h1.45v-.34c0-1.44-.35-2.4-2-2.4a1.87,1.87,0,0,0-2.07,1.79h-4.88c.23-3.63,3.11-5.42,7.27-5.42s6.85,1.7,6.85,5.71v9.77h-5V62.41a5,5,0,0,1-4.51,2.11C154.19,64.52,151.78,63.19,151.78,60Zm9.53-1.09V58H160c-2.1,0-3,.41-3,1.65,0,.86.58,1.41,1.8,1.41C160.21,61,161.31,60.19,161.31,58.9Z" fill="#fff"/><path d="M172.85,56.5l-4.74-7.4h6l2.35,4,2.29-4h5.35l-4.79,7,5.25,8.07h-6l-2.7-4.5-2.76,4.5h-5.32Z" fill="#fff"/><path d="M183.89,56.82v-.23c0-4.84,3.63-7.9,8.22-7.9,4.16,0,7.73,2.37,7.73,7.79v1.35H189.15A3,3,0,0,0,192.31,61c1.72,0,2.44-.78,2.65-1.79h4.88c-.46,3.41-3.11,5.34-7.7,5.34C187.38,64.52,183.89,61.75,183.89,56.82Zm10.89-1.9c-.08-1.82-1-2.83-2.67-2.83s-2.64,1-2.9,2.83Z" fill="#fff"/><path d="M200.77,59.39h4.8c.17,1.09.66,1.7,2.15,1.7,1.27,0,1.86-.49,1.86-1.24s-.73-1.07-2.82-1.36c-4.07-.52-5.78-1.7-5.78-4.84,0-3.34,3-5,6.5-5,3.75,0,6.37,1.27,6.71,4.87h-4.7a1.7,1.7,0,0,0-2-1.5c-1.13,0-1.71.49-1.71,1.19s.69,1,2.55,1.24c4.22.51,6.25,1.61,6.25,4.84,0,3.57-2.67,5.19-6.89,5.19S200.89,62.73,200.77,59.39Z" fill="#fff"/><path d="M216.11,61.58a2.88,2.88,0,0,1,3-2.91,2.91,2.91,0,1,1,0,5.82A2.89,2.89,0,0,1,216.11,61.58Z" fill="#fff"/><path d="M230.32,43.56h6v16h7.84v4.58H230.32Z" fill="#fff"/><path d="M245,56.82v-.23c0-4.84,3.63-7.9,8.22-7.9,4.15,0,7.73,2.37,7.73,7.79v1.35H250.29A3,3,0,0,0,253.45,61c1.72,0,2.44-.78,2.65-1.79H261c-.47,3.41-3.11,5.34-7.7,5.34C248.51,64.52,245,61.75,245,56.82Zm10.89-1.9c-.09-1.82-1-2.83-2.67-2.83s-2.64,1-2.91,2.83Z" fill="#fff"/><path d="M263.48,59.33V52.61h-1.83V49.1h1.83V46h5.2V49.1h3v3.51h-3v6.23a1.38,1.38,0,0,0,1.54,1.58,3.83,3.83,0,0,0,1.48-.26v3.92a10.68,10.68,0,0,1-2.87.44C265.4,64.52,263.48,62.87,263.48,59.33Z" fill="#fff"/><path d="M20.44,89.94c0-3.54,3-4.93,8.08-4.93H30v-.34c0-1.44-.35-2.4-2-2.4a1.87,1.87,0,0,0-2.07,1.79H21c.23-3.63,3.11-5.42,7.27-5.42s6.85,1.7,6.85,5.71v9.77H30.09V92.36a5,5,0,0,1-4.51,2.11C22.85,94.47,20.44,93.14,20.44,89.94ZM30,88.85v-.93H28.6c-2.09,0-3,.41-3,1.65,0,.86.58,1.41,1.8,1.41C28.87,91,30,90.14,30,88.85Z" fill="#fff"/><path d="M43.66,89.28V82.56H41.83V79.05h1.83V75.9h5.2v3.15h3v3.51h-3v6.23a1.38,1.38,0,0,0,1.54,1.58,3.83,3.83,0,0,0,1.48-.26V94a10.7,10.7,0,0,1-2.88.44C45.58,94.47,43.66,92.82,43.66,89.28Z" fill="#fff"/><path d="M53,89.94C53,86.4,56,85,61.09,85h1.45v-.34c0-1.44-.34-2.4-2-2.4a1.86,1.86,0,0,0-2.06,1.79H53.6c.23-3.63,3.1-5.42,7.26-5.42s6.85,1.7,6.85,5.71v9.77h-5V92.36a5,5,0,0,1-4.5,2.11C55.43,94.47,53,93.14,53,89.94Zm9.53-1.09v-.93H61.18c-2.09,0-3,.41-3,1.65,0,.86.58,1.41,1.8,1.41C61.44,91,62.54,90.14,62.54,88.85Z" fill="#fff"/><path d="M74.08,86.45l-4.74-7.4h6l2.35,4,2.3-4h5.34l-4.79,7,5.26,8.07h-6l-2.7-4.5-2.76,4.5H69Z" fill="#fff"/><path d="M92.53,79.05h5.2v2.24a5.37,5.37,0,0,1,4.74-2.65c3.54,0,6.42,2.65,6.42,7.81v.23c0,5.19-2.88,7.79-6.45,7.79a5,5,0,0,1-4.71-2.57v7.26h-5.2Zm11.07,7.63v-.23c0-2.65-1.16-3.92-3-3.92s-3,1.36-3,3.89v.24c0,2.56,1.13,3.86,3,3.86S103.6,89.16,103.6,86.68Z" fill="#fff"/><path d="M110.78,79.05H116v3a4.79,4.79,0,0,1,4.91-3.2v4.82c-3.17-.09-4.91.89-4.91,3.31v7.15h-5.2Z" fill="#fff"/><path d="M121.82,86.77v-.23c0-4.84,3.63-7.9,8.34-7.9s8.28,3,8.28,7.76v.23c0,4.9-3.63,7.84-8.31,7.84S121.82,91.64,121.82,86.77Zm11.33-.09v-.23c0-2.53-1-4-3-4s-3,1.36-3,3.9v.23c0,2.59,1,4,3,4S133.15,89.19,133.15,86.68Z" fill="#fff"/><path d="M144.81,86.74v-.23c0-5.13,2.84-7.87,6.45-7.87a4.92,4.92,0,0,1,4.67,2.54V72.42h5.2v21.7h-5.2V91.67a5.11,5.11,0,0,1-4.73,2.8C147.68,94.47,144.81,92,144.81,86.74Zm11.27-.08v-.24c0-2.53-1.08-3.89-3-3.89s-3,1.3-3,3.92v.23c0,2.54,1.14,3.84,2.94,3.84S156.08,89.22,156.08,86.66Z" fill="#fff"/><path d="M163,86.77v-.23c0-4.84,3.63-7.9,8.34-7.9s8.28,3,8.28,7.76v.23c0,4.9-3.64,7.84-8.31,7.84S163,91.64,163,86.77Zm11.33-.09v-.23c0-2.53-1-4-3-4s-3,1.36-3,3.9v.23c0,2.59,1,4,3,4S174.3,89.19,174.3,86.68Z" fill="#fff"/><path d="M187.41,89.28V82.56h-1.83V79.05h1.83V75.9h5.2v3.15h3v3.51h-3v6.23a1.38,1.38,0,0,0,1.54,1.58,3.87,3.87,0,0,0,1.48-.26V94a10.7,10.7,0,0,1-2.88.44C189.32,94.47,187.41,92.82,187.41,89.28Z" fill="#fff"/><path d="M197.58,72.42h5.2v9a5.36,5.36,0,0,1,5-2.83c2.94,0,5,1.82,5,5.68v9.8h-5.2V85.36c0-1.7-.67-2.54-2.18-2.54s-2.58.92-2.58,2.86v8.44h-5.2Z" fill="#fff"/><path d="M214.46,86.77v-.23c0-4.84,3.63-7.9,8.22-7.9,4.15,0,7.73,2.37,7.73,7.78v1.36H219.72a3,3,0,0,0,3.16,3.14c1.72,0,2.44-.78,2.65-1.79h4.88c-.47,3.41-3.11,5.34-7.7,5.34C218,94.47,214.46,91.7,214.46,86.77Zm10.89-1.9c-.08-1.82-1-2.83-2.67-2.83s-2.64,1-2.9,2.83Z" fill="#fff"/><path d="M232.21,79.05h5.2v2.3a5.34,5.34,0,0,1,4.77-2.71,4.14,4.14,0,0,1,4.12,2.51,6,6,0,0,1,5-2.51c2.88,0,5,1.85,5,5.62v9.86h-5.2v-9c0-1.53-.76-2.28-1.95-2.28a2.24,2.24,0,0,0-2.32,2.54v8.73h-5.15v-9c0-1.53-.75-2.28-1.94-2.28a2.24,2.24,0,0,0-2.33,2.54v8.73h-5.2Z" fill="#fff"/><path d="M22.1,112.51H20.18V109H22.1v-1.33c0-3.75,2.35-5.53,5.95-5.53a9.57,9.57,0,0,1,2.39.31v3.78A4.73,4.73,0,0,0,29,106a1.52,1.52,0,0,0-1.74,1.64V109h3.08v3.51H27.27v11.56H22.1Z" fill="#fff"/><path d="M30.76,116.72v-.23c0-4.84,3.63-7.9,8.33-7.9s8.28,3,8.28,7.76v.23c0,4.9-3.63,7.84-8.3,7.84S30.76,121.59,30.76,116.72Zm11.33-.09v-.23c0-2.53-1-4-3-4s-3,1.36-3,3.9v.23c0,2.59,1,4,3,4S42.09,119.14,42.09,116.63Z" fill="#fff"/><path d="M49.21,109h5.2v3a4.78,4.78,0,0,1,4.91-3.2v4.82c-3.17-.09-4.91.89-4.91,3.31v7.15h-5.2Z" fill="#fff"/><path d="M71.26,122.54,65.19,109h5.64L74,117l2.91-8h5L73.7,129.11h-5Z" fill="#fff"/><path d="M81.55,116.72v-.23c0-4.84,3.63-7.9,8.34-7.9s8.28,3,8.28,7.76v.23c0,4.9-3.63,7.84-8.31,7.84S81.55,121.59,81.55,116.72Zm11.33-.09v-.23c0-2.53-1-4-3-4s-3,1.36-3,3.9v.23c0,2.59,1,4,3,4S92.88,119.14,92.88,116.63Z" fill="#fff"/><path d="M99.88,118.82V109h5.2v9c0,1.7.67,2.53,2.15,2.53s2.59-.92,2.59-2.85V109H115v15.07h-5.2v-2.33a5,5,0,0,1-4.82,2.68C102.06,124.42,99.88,122.63,99.88,118.82Z" fill="#fff"/><path d="M117.46,121.48a2.89,2.89,0,0,1,3-2.92,2.92,2.92,0,1,1,0,5.83A2.89,2.89,0,0,1,117.46,121.48Z" fill="#fff"/></svg>