<svg xmlns="http://www.w3.org/2000/svg" viewBox="0 0 300 250"><title>Asset 2</title><rect width="300" height="250" fill="none"/><path d="M25.79,45.51H19.87v-5H38.29v5H32.38V63.18H25.79Z" fill="#fff"/><path d="M40.18,39.29h5.73v10a5.88,5.88,0,0,1,5.5-3.11c3.23,0,5.47,2,5.47,6.25V63.18H51.15V53.54c0-1.87-.73-2.79-2.4-2.79s-2.84,1-2.84,3.14v9.29H40.18Z" fill="#fff"/><path d="M58.76,55.09v-.25c0-5.33,4-8.69,9.05-8.69,4.58,0,8.51,2.6,8.51,8.56V56.2H64.55c.16,2.19,1.44,3.46,3.49,3.46,1.89,0,2.68-.86,2.91-2h5.37c-.51,3.75-3.42,5.87-8.47,5.87C62.6,63.56,58.76,60.52,58.76,55.09Zm12-2.09c-.1-2-1.09-3.11-3-3.11S64.9,51,64.62,53Z" fill="#fff"/><path d="M83.23,55.09v-.25c0-5.33,4-8.69,9-8.69,4.57,0,8.51,2.6,8.51,8.56V56.2H89c.16,2.19,1.44,3.46,3.48,3.46,1.89,0,2.69-.86,2.92-2h5.37c-.51,3.75-3.42,5.87-8.48,5.87C87.07,63.56,83.23,60.52,83.23,55.09Zm12-2.09c-.09-2-1.08-3.11-2.94-3.11S89.37,51,89.08,53Z" fill="#fff"/><path d="M102,58.58c0-3.9,3.33-5.42,8.89-5.42h1.6v-.38c0-1.59-.38-2.64-2.21-2.64a2.05,2.05,0,0,0-2.27,2h-5.37c.26-4,3.42-6,8-6s7.54,1.87,7.54,6.28V63.18h-5.56V61.25a5.52,5.52,0,0,1-5,2.31C104.63,63.56,102,62.1,102,58.58Zm10.49-1.2v-1H111c-2.3,0-3.33.45-3.33,1.81,0,.95.64,1.55,2,1.55C111.25,59.72,112.46,58.8,112.46,57.38Z" fill="#fff"/><path d="M119.82,57.92h5.27c.2,1.2.74,1.87,2.37,1.87,1.41,0,2-.54,2-1.37s-.8-1.17-3.1-1.49c-4.48-.57-6.37-1.87-6.37-5.33,0-3.68,3.3-5.45,7.17-5.45,4.12,0,7,1.39,7.38,5.36h-5.18a1.86,1.86,0,0,0-2.14-1.65c-1.25,0-1.89.54-1.89,1.3s.77,1.11,2.82,1.36c4.63.57,6.87,1.78,6.87,5.33,0,3.94-2.94,5.71-7.58,5.71S120,61.6,119.82,57.92Z" fill="#fff"/><path d="M136.8,42.09A3.16,3.16,0,1,1,139.93,45,3,3,0,0,1,136.8,42.09Zm.29,4.5h5.72V63.18h-5.72Z" fill="#fff"/><path d="M145,55.09v-.25c0-5.33,4-8.69,9-8.69,4.57,0,8.51,2.6,8.51,8.56V56.2H150.78c.16,2.19,1.44,3.46,3.48,3.46s2.69-.86,2.91-2h5.38c-.51,3.75-3.43,5.87-8.48,5.87C148.83,63.56,145,60.52,145,55.09ZM157,53c-.09-2-1.09-3.11-2.94-3.11S151.13,51,150.84,53Z" fill="#fff"/><path d="M163.57,57.92h5.28c.19,1.2.73,1.87,2.36,1.87,1.41,0,2-.54,2-1.37s-.8-1.17-3.1-1.49c-4.48-.57-6.37-1.87-6.37-5.33,0-3.68,3.3-5.45,7.17-5.45,4.12,0,7,1.39,7.39,5.36h-5.19A1.86,1.86,0,0,0,171,49.86c-1.25,0-1.89.54-1.89,1.3s.77,1.11,2.82,1.36c4.64.57,6.88,1.78,6.88,5.33,0,3.94-3,5.71-7.58,5.71S163.7,61.6,163.57,57.92Z" fill="#fff"/><path d="M181.45,57.85V50.46h-2V46.59h2V43.13h5.72v3.46h3.3v3.87h-3.3v6.85a1.52,1.52,0,0,0,1.7,1.75,4.39,4.39,0,0,0,1.63-.29v4.32a12.24,12.24,0,0,1-3.17.47C183.56,63.56,181.45,61.75,181.45,57.85Z" fill="#fff"/><path d="M197.06,46.59h6l2.43,9.93,2.81-9.93h4.61l2.49,9.93,2.72-9.93h5.44l-5.31,16.59h-5.47l-2.5-9.26-2.59,9.26h-5.56Z" fill="#fff"/><path d="M223.41,58.58c0-3.9,3.33-5.42,8.89-5.42h1.6v-.38c0-1.59-.38-2.64-2.21-2.64a2.05,2.05,0,0,0-2.27,2h-5.37c.25-4,3.42-6,8-6s7.55,1.87,7.55,6.28V63.18H234V61.25a5.52,5.52,0,0,1-5,2.31C226.06,63.56,223.41,62.1,223.41,58.58Zm10.49-1.2v-1h-1.5c-2.31,0-3.33.45-3.33,1.81,0,.95.64,1.55,2,1.55C232.68,59.72,233.9,58.8,233.9,57.38Z" fill="#fff"/><path d="M247,61.5l-6.68-14.91h6.2L250,55.44l3.2-8.85h5.47l-9,22.14h-5.47Z" fill="#fff"/><path d="M21.66,90.84V83.45h-2V79.58h2V76.12h5.73v3.46h3.29v3.87H27.39V90.3a1.52,1.52,0,0,0,1.69,1.75,4.39,4.39,0,0,0,1.63-.29v4.32a12.08,12.08,0,0,1-3.16.47C23.77,96.55,21.66,94.74,21.66,90.84Z" fill="#fff"/><path d="M32,88.08v-.25c0-5.33,4-8.69,9.18-8.69s9.12,3.26,9.12,8.53v.25c0,5.4-4,8.63-9.15,8.63S32,93.44,32,88.08ZM44.43,88v-.26c0-2.79-1.11-4.34-3.29-4.34s-3.33,1.49-3.33,4.28v.25c0,2.86,1.12,4.41,3.33,4.41S44.43,90.75,44.43,88Z" fill="#fff"/><path d="M57.16,96.17h5.7c.25,1.21,1,2.16,3.07,2.16,2.52,0,3.55-1.43,3.55-3.49V92.3a5.88,5.88,0,0,1-5.18,3c-3.91,0-7.1-2.86-7.1-8v-.25c0-4.89,3.16-8,7.1-8a5.45,5.45,0,0,1,5.18,2.79V79.58H75.2V94.77c0,5-3.29,7.56-9.27,7.56C60.23,102.33,57.61,100,57.16,96.17Zm12.48-8.82v-.22c0-2.28-1.19-3.74-3.3-3.74s-3.29,1.49-3.29,3.77v.26c0,2.28,1.21,3.74,3.26,3.74S69.64,89.7,69.64,87.35Z" fill="#fff"/><path d="M77.22,88.08v-.25c0-5.33,4-8.69,9-8.69,4.57,0,8.5,2.6,8.5,8.56v1.49H83c.16,2.19,1.43,3.46,3.48,3.46,1.89,0,2.69-.86,2.91-2h5.37c-.51,3.75-3.42,5.87-8.47,5.87C81.05,96.55,77.22,93.51,77.22,88.08Zm12-2.09c-.1-2-1.09-3.11-2.94-3.11S83.36,84,83.07,86Z" fill="#fff"/><path d="M97.53,90.84V83.45h-2V79.58h2V76.12h5.72v3.46h3.29v3.87h-3.29V90.3a1.52,1.52,0,0,0,1.7,1.75,4.46,4.46,0,0,0,1.63-.29v4.32a12.24,12.24,0,0,1-3.17.47C99.64,96.55,97.53,94.74,97.53,90.84Z" fill="#fff"/><path d="M115.31,90.84V83.45h-2V79.58h2V76.12H121v3.46h3.3v3.87H121V90.3a1.52,1.52,0,0,0,1.7,1.75,4.39,4.39,0,0,0,1.63-.29v4.32a12.17,12.17,0,0,1-3.17.47C117.42,96.55,115.31,94.74,115.31,90.84Z" fill="#fff"/><path d="M125.61,91.57c0-3.9,3.32-5.42,8.89-5.42h1.6v-.38c0-1.59-.39-2.64-2.21-2.64a2,2,0,0,0-2.27,2h-5.37c.25-4,3.42-6,8-6s7.55,1.87,7.55,6.28V96.17h-5.57V94.24a5.51,5.51,0,0,1-4.95,2.31C128.26,96.55,125.61,95.09,125.61,91.57Zm10.49-1.2v-1h-1.51c-2.3,0-3.32.44-3.32,1.81,0,1,.64,1.55,2,1.55C134.88,92.71,136.1,91.79,136.1,90.37Z" fill="#fff"/><path d="M148.79,87.73l-5.21-8.15h6.59L152.76,84l2.53-4.38h5.88l-5.28,7.71,5.79,8.88h-6.59l-3-5-3,5h-5.85Z" fill="#fff"/><path d="M161,88.08v-.25c0-5.33,4-8.69,9.05-8.69,4.57,0,8.5,2.6,8.5,8.56v1.49H166.73c.16,2.19,1.44,3.46,3.49,3.46,1.89,0,2.69-.86,2.91-2h5.37c-.51,3.75-3.42,5.87-8.47,5.87C164.78,96.55,161,93.51,161,88.08Zm12-2.09c-.1-2-1.09-3.11-2.94-3.11S167.09,84,166.8,86Z" fill="#fff"/><path d="M179.53,90.9h5.27c.2,1.21.74,1.88,2.37,1.88,1.41,0,2.05-.54,2.05-1.37s-.8-1.17-3.11-1.49c-4.47-.57-6.36-1.87-6.36-5.33,0-3.68,3.29-5.45,7.16-5.45,4.13,0,7,1.39,7.39,5.36h-5.18A1.86,1.86,0,0,0,187,82.85c-1.25,0-1.89.54-1.89,1.3s.77,1.11,2.82,1.36c4.63.57,6.87,1.78,6.87,5.33,0,3.93-2.94,5.71-7.58,5.71S179.65,94.58,179.53,90.9Z" fill="#fff"/><path d="M201.63,88.05V87.8c0-5.65,3.13-8.66,7.1-8.66a5.44,5.44,0,0,1,5.15,2.79V72.28h5.72V96.17h-5.72v-2.7a5.65,5.65,0,0,1-5.22,3.08C204.79,96.55,201.63,93.79,201.63,88.05ZM214,88V87.7c0-2.79-1.19-4.28-3.3-4.28s-3.29,1.43-3.29,4.31V88c0,2.79,1.24,4.22,3.23,4.22S214,90.78,214,88Z" fill="#fff"/><path d="M221.62,88.08v-.25c0-5.33,4-8.69,9.17-8.69s9.12,3.26,9.12,8.53v.25c0,5.4-4,8.63-9.15,8.63S221.62,93.44,221.62,88.08ZM234.09,88v-.26c0-2.79-1.12-4.34-3.3-4.34s-3.32,1.49-3.32,4.28v.25c0,2.86,1.12,4.41,3.32,4.41S234.09,90.75,234.09,88Z" fill="#fff"/><path d="M241.92,79.58h5.73v2.66a5.91,5.91,0,0,1,5.5-3.1c3.23,0,5.47,2,5.47,6.25V96.17h-5.73V86.53c0-1.87-.73-2.79-2.39-2.79s-2.85,1-2.85,3.14v9.29h-5.73Z" fill="#fff"/><path d="M260.51,88.08v-.25c0-5.33,4-8.69,9.05-8.69,4.57,0,8.5,2.6,8.5,8.56v1.49H266.29c.17,2.19,1.44,3.46,3.49,3.46,1.89,0,2.69-.86,2.91-2h5.37c-.51,3.75-3.42,5.87-8.47,5.87C264.34,96.55,260.51,93.51,260.51,88.08Zm12-2.09c-.1-2-1.09-3.11-2.94-3.11S266.65,84,266.36,86Z" fill="#fff"/><path d="M21.76,116.44H19.65v-3.87h2.11v-1.46c0-4.12,2.59-6.09,6.56-6.09a10.32,10.32,0,0,1,2.62.35v4.15a5.59,5.59,0,0,0-1.57-.22,1.68,1.68,0,0,0-1.92,1.81v1.46h3.39v3.87H27.45v12.72H21.76Z" fill="#fff"/><path d="M31.29,121.07v-.25c0-5.33,4-8.7,9.18-8.7s9.11,3.27,9.11,8.54v.25c0,5.39-4,8.63-9.14,8.63S31.29,126.43,31.29,121.07ZM43.76,121v-.26c0-2.79-1.12-4.34-3.29-4.34s-3.33,1.49-3.33,4.28v.25c0,2.86,1.12,4.41,3.33,4.41S43.76,123.74,43.76,121Z" fill="#fff"/><path d="M51.6,112.57h5.72v3.3a5.28,5.28,0,0,1,5.41-3.52v5.29c-3.49-.09-5.41,1-5.41,3.65v7.87H51.6Z" fill="#fff"/><path d="M75.87,127.48l-6.68-14.91h6.2l3.46,8.85,3.2-8.85h5.47l-9,22.14H73.09Z" fill="#fff"/><path d="M87.2,121.07v-.25c0-5.33,4-8.7,9.17-8.7s9.12,3.27,9.12,8.54v.25c0,5.39-4,8.63-9.15,8.63S87.2,126.43,87.2,121.07ZM99.67,121v-.26c0-2.79-1.12-4.34-3.3-4.34s-3.32,1.49-3.32,4.28v.25c0,2.86,1.12,4.41,3.32,4.41S99.67,123.74,99.67,121Z" fill="#fff"/><path d="M107.38,123.39V112.57h5.72v9.9c0,1.87.74,2.79,2.37,2.79s2.84-1,2.84-3.14v-9.55H124v16.59h-5.73v-2.57a5.5,5.5,0,0,1-5.31,2.95C109.77,129.54,107.38,127.57,107.38,123.39Z" fill="#fff"/><path d="M126.73,126.3a3.17,3.17,0,0,1,3.26-3.2,3.21,3.21,0,1,1,0,6.41A3.18,3.18,0,0,1,126.73,126.3Z" fill="#fff"/></svg>