<svg xmlns="http://www.w3.org/2000/svg" viewBox="0 0 300 600"><title>300x600_legal</title><g id="Layer_2" data-name="Layer 2"><g id="_Starting_price_for_simple_returns." data-name="*Starting price for simple returns."><path d="M20.83,472l.75-1-1.12-.26.2-.6,1.07.43-.06-1.21h.66l-.06,1.21,1.06-.43.2.6L22.4,471l.76,1-.51.37L22,471.32l-.64,1.08Z" fill="#fff"/><path d="M24.21,474.12H25c.1.77.41,1.41,1.72,1.41a1.32,1.32,0,0,0,1.48-1.21c0-.73-.34-1-1.57-1.24s-2.17-.62-2.17-1.77a1.87,1.87,0,0,1,2.08-1.74,2,2,0,0,1,2.24,1.77H28c-.15-.81-.63-1.14-1.53-1.14s-1.35.44-1.35,1,.24.95,1.56,1.15,2.21.66,2.21,1.87a2,2,0,0,1-2.24,1.9A2.16,2.16,0,0,1,24.21,474.12Z" fill="#fff"/><path d="M30.25,474.9V472h-.68v-.62h.68V470.3H31v1.08h1.1V472H31v2.83c0,.46.2.69.59.69a1.67,1.67,0,0,0,.58-.1v.63a2,2,0,0,1-.65.1A1.15,1.15,0,0,1,30.25,474.9Z" fill="#fff"/><path d="M32.83,474.78c0-1.09,1.16-1.46,2.38-1.46h.68V473c0-.75-.29-1.06-1-1.06s-1,.26-1.09.84H33a1.66,1.66,0,0,1,1.88-1.47A1.53,1.53,0,0,1,36.64,473v3.1h-.75v-.59a1.72,1.72,0,0,1-1.48.67C33.53,476.16,32.83,475.74,32.83,474.78Zm3.06-.34v-.59h-.66c-.95,0-1.65.23-1.65.93,0,.48.24.79.9.79S35.89,475.17,35.89,474.44Z" fill="#fff"/><path d="M38,471.38h.75v.84a1.67,1.67,0,0,1,1.57-.93V472c-1,0-1.57.34-1.57,1.5v2.58H38Z" fill="#fff"/><path d="M41.47,474.9V472h-.69v-.62h.69V470.3h.75v1.08h1.11V472H42.22v2.83c0,.46.21.69.59.69a1.63,1.63,0,0,0,.58-.1v.63a1.89,1.89,0,0,1-.64.1A1.15,1.15,0,0,1,41.47,474.9Z" fill="#fff"/><path d="M44.27,469.9a.5.5,0,0,1,1,0,.5.5,0,0,1-1,0Zm.13,1.48h.76v4.7H44.4Z" fill="#fff"/><path d="M46.56,471.38h.76v.74a1.62,1.62,0,0,1,1.52-.83c1,0,1.67.54,1.67,1.9v2.89h-.75v-2.94c0-.83-.35-1.2-1.12-1.2a1.24,1.24,0,0,0-1.32,1.29v2.85h-.76Z" fill="#fff"/><path d="M51.6,476.35h.77c.11.54.56.82,1.37.82s1.53-.44,1.53-1.45V475a2,2,0,0,1-1.61.89,2.13,2.13,0,0,1-2.16-2.23v-.07a2.24,2.24,0,0,1,2.21-2.34,1.73,1.73,0,0,1,1.56.84v-.75H56v4.39c0,1.37-.94,2-2.27,2S51.73,477.15,51.6,476.35Zm3.69-2.71v-.06a1.46,1.46,0,0,0-1.5-1.66,1.5,1.5,0,0,0-1.51,1.68v.07a1.49,1.49,0,0,0,1.46,1.64A1.52,1.52,0,0,0,55.29,473.64Z" fill="#fff"/><path d="M59.67,471.38h.76v.79a1.94,1.94,0,0,1,1.6-.88,2.15,2.15,0,0,1,2.16,2.37v.07A2.18,2.18,0,0,1,62,476.16a1.78,1.78,0,0,1-1.6-.85v2.41h-.76Zm3.74,2.39v-.07c0-1.19-.66-1.78-1.46-1.78s-1.55.57-1.55,1.78v.07c0,1.21.64,1.77,1.56,1.77S63.41,474.91,63.41,473.77Z" fill="#fff"/><path d="M65.23,471.38H66v.84a1.67,1.67,0,0,1,1.56-.93V472c-1,0-1.56.34-1.56,1.5v2.58h-.75Z" fill="#fff"/><path d="M68.38,469.9a.5.5,0,0,1,1,0,.5.5,0,0,1-1,0Zm.14,1.48h.75v4.7h-.75Z" fill="#fff"/><path d="M70.32,473.78v-.07a2.31,2.31,0,0,1,2.31-2.42,1.86,1.86,0,0,1,2.06,1.65H74a1.18,1.18,0,0,0-1.32-1,1.59,1.59,0,0,0-1.53,1.79v.07c0,1.15.64,1.76,1.56,1.76A1.27,1.27,0,0,0,74,474.39h.7a2,2,0,0,1-2.07,1.77A2.24,2.24,0,0,1,70.32,473.78Z" fill="#fff"/><path d="M75.36,473.78v-.07a2.23,2.23,0,0,1,2.22-2.42,2.07,2.07,0,0,1,2.14,2.34v.25H76.14c0,1.07.55,1.66,1.53,1.66.73,0,1.16-.27,1.26-.82h.75a1.82,1.82,0,0,1-2,1.44A2.22,2.22,0,0,1,75.36,473.78Zm3.59-.51c-.08-1-.59-1.35-1.37-1.35a1.41,1.41,0,0,0-1.41,1.35Z" fill="#fff"/><path d="M83.16,472h-.68v-.62h.68v-.77a1.32,1.32,0,0,1,1.42-1.51,1.4,1.4,0,0,1,.56.09v.63a1.39,1.39,0,0,0-.53-.1c-.49,0-.69.33-.69.81v.85h1.16V472H83.92v4.08h-.76Z" fill="#fff"/><path d="M85.42,473.77v-.07a2.34,2.34,0,1,1,4.67,0v.07a2.34,2.34,0,1,1-4.67,0Zm3.89,0v-.06a1.57,1.57,0,1,0-3.11,0v.07a1.57,1.57,0,1,0,3.11,0Z" fill="#fff"/><path d="M91.12,471.38h.75v.84a1.67,1.67,0,0,1,1.56-.93V472c-1,0-1.56.34-1.56,1.5v2.58h-.75Z" fill="#fff"/><path d="M96.27,474.63H97c0,.56.35.91,1.11.91s1-.24,1-.74-.37-.66-1.11-.8c-1.23-.22-1.65-.56-1.65-1.38A1.47,1.47,0,0,1,98,471.29a1.52,1.52,0,0,1,1.71,1.36H99c-.1-.51-.39-.73-1-.73s-.9.26-.9.67.23.59,1.11.75,1.67.39,1.67,1.39-.59,1.43-1.75,1.43S96.32,475.6,96.27,474.63Z" fill="#fff"/><path d="M100.76,469.9a.5.5,0,0,1,1,0,.5.5,0,0,1-1,0Zm.14,1.48h.75v4.7h-.75Z" fill="#fff"/><path d="M103.06,471.38h.75v.71a1.56,1.56,0,0,1,1.42-.8,1.39,1.39,0,0,1,1.39.89,1.82,1.82,0,0,1,1.62-.89c.86,0,1.6.51,1.6,1.88v2.91h-.75v-3c0-.83-.36-1.17-1-1.17a1.21,1.21,0,0,0-1.25,1.26v2.88h-.76v-3c0-.83-.35-1.17-1-1.17a1.21,1.21,0,0,0-1.25,1.26v2.88h-.75Z" fill="#fff"/><path d="M111.18,471.38h.75v.79a2,2,0,0,1,1.61-.88,2.15,2.15,0,0,1,2.16,2.37v.07a2.18,2.18,0,0,1-2.16,2.43,1.8,1.8,0,0,1-1.61-.85v2.41h-.75Zm3.74,2.39v-.07c0-1.19-.66-1.78-1.46-1.78s-1.56.57-1.56,1.78v.07c0,1.21.64,1.77,1.57,1.77S114.92,474.91,114.92,473.77Z" fill="#fff"/><path d="M116.75,469.12h.76v7h-.76Z" fill="#fff"/><path d="M118.56,473.78v-.07a2.23,2.23,0,0,1,2.23-2.42,2.07,2.07,0,0,1,2.13,2.34v.25h-3.58c0,1.07.56,1.66,1.53,1.66.73,0,1.16-.27,1.26-.82h.75a1.82,1.82,0,0,1-2,1.44A2.22,2.22,0,0,1,118.56,473.78Zm3.59-.51c-.07-1-.58-1.35-1.36-1.35a1.42,1.42,0,0,0-1.42,1.35Z" fill="#fff"/><path d="M126.2,471.38H127v.84a1.65,1.65,0,0,1,1.56-.93V472c-1,0-1.56.34-1.56,1.5v2.58h-.76Z" fill="#fff"/><path d="M129,473.78v-.07a2.22,2.22,0,0,1,2.22-2.42,2.07,2.07,0,0,1,2.13,2.34v.25h-3.57c0,1.07.55,1.66,1.52,1.66.74,0,1.17-.27,1.26-.82h.76a1.83,1.83,0,0,1-2,1.44A2.21,2.21,0,0,1,129,473.78Zm3.58-.51c-.07-1-.58-1.35-1.36-1.35a1.42,1.42,0,0,0-1.42,1.35Z" fill="#fff"/><path d="M134.52,474.9V472h-.68v-.62h.68V470.3h.75v1.08h1.11V472h-1.11v2.83c0,.46.21.69.59.69a1.69,1.69,0,0,0,.59-.1v.63a2,2,0,0,1-.65.1A1.15,1.15,0,0,1,134.52,474.9Z" fill="#fff"/><path d="M137.4,474.35v-3h.75v2.94c0,.83.35,1.2,1.1,1.2a1.25,1.25,0,0,0,1.31-1.29v-2.85h.75v4.7h-.75v-.74a1.63,1.63,0,0,1-1.51.82C138.1,476.16,137.4,475.65,137.4,474.35Z" fill="#fff"/><path d="M142.7,471.38h.75v.84a1.67,1.67,0,0,1,1.56-.93V472c-.95,0-1.56.34-1.56,1.5v2.58h-.75Z" fill="#fff"/><path d="M146,471.38h.75v.74a1.65,1.65,0,0,1,1.53-.83c1,0,1.67.54,1.67,1.9v2.89h-.75v-2.94c0-.83-.36-1.2-1.12-1.2a1.25,1.25,0,0,0-1.33,1.29v2.85H146Z" fill="#fff"/><path d="M150.87,474.63h.73c.06.56.36.91,1.12.91s1-.24,1-.74-.38-.66-1.11-.8c-1.24-.22-1.65-.56-1.65-1.38a1.47,1.47,0,0,1,1.6-1.33,1.52,1.52,0,0,1,1.72,1.36h-.73c-.11-.51-.4-.73-1-.73s-.89.26-.89.67.23.59,1.1.75,1.67.39,1.67,1.39-.59,1.43-1.74,1.43S150.92,475.6,150.87,474.63Z" fill="#fff"/><path d="M155.42,475.55A.57.57,0,0,1,156,475a.58.58,0,1,1-.58.57Z" fill="#fff"/></g><g id="Rect"><rect width="300" height="600" fill="none"/></g></g></svg>