<svg xmlns="http://www.w3.org/2000/svg" viewBox="0 0 154.25 35"><title>Asset 1</title><rect width="154.25" height="35" fill="none"/><g style="isolation:isolate"><g style="isolation:isolate"><path d="M26.57,12.55H23.45v-2h8.87v2H29.2V22H26.57Z" fill="#262626"/></g><g style="isolation:isolate"><path d="M33,13.61H35.3v1.6A2.77,2.77,0,0,1,38,13.48v2.16c-1.73,0-2.73.55-2.73,2.15V22H33Z" fill="#262626"/></g><g style="isolation:isolate"><path d="M42,21.13l-3.36-7.52h2.52l2,5,1.89-5h2.25L42.75,24.83H40.49Z" fill="#262626"/></g><g style="isolation:isolate"><path d="M54.17,12.55H51.05v-2h8.87v2H56.8V22H54.17Z" fill="#262626"/></g><g style="isolation:isolate"><path d="M59.5,19.66c0-1.95,1.81-2.69,4.4-2.69h.95v-.34c0-1-.31-1.53-1.37-1.53A1.27,1.27,0,0,0,62,16.28H59.82c.15-2,1.73-2.86,3.8-2.86s3.54.83,3.54,3.1V22H64.88V21a2.88,2.88,0,0,1-2.55,1.19C60.79,22.16,59.5,21.42,59.5,19.66Zm5.35-.61v-.7h-.91c-1.35,0-2.14.28-2.14,1.18,0,.61.37,1,1.22,1C64.06,20.54,64.85,20,64.85,19.05Z" fill="#262626"/><path d="M71,17.71l-2.69-4.1H71l1.58,2.51,1.55-2.51h2.43l-2.7,3.92,3,4.45h-2.7l-1.77-2.82L70.49,22H68.08Z" fill="#262626"/><path d="M81.27,10.54h4c2.81,0,4.41,1.23,4.41,3.65v.06c0,2.42-1.7,3.57-4.33,3.57H83.87V22h-2.6ZM85.19,16c1.28,0,2-.61,2-1.75V14.2c0-1.22-.71-1.7-2-1.7H83.87V16Z" fill="#262626"/></g><g style="isolation:isolate"><path d="M91.17,13.61h2.34v1.6a2.78,2.78,0,0,1,2.73-1.73v2.16c-1.73,0-2.73.55-2.73,2.15V22H91.17Z" fill="#262626"/></g><g style="isolation:isolate"><path d="M96.87,17.88v-.13a4.46,4.46,0,0,1,8.91,0v.12a4.46,4.46,0,0,1-8.91.05Zm6.53,0v-.11c0-1.6-.76-2.56-2.07-2.56s-2.07.93-2.07,2.53v.12c0,1.61.75,2.57,2.07,2.57S103.4,19.44,103.4,17.85Z" fill="#262626"/><path d="M109.9,16.33V16.2a5.63,5.63,0,0,1,5.88-5.84c2.57,0,4.86,1.17,5.14,4h-2.6a2.23,2.23,0,0,0-2.51-1.95c-2,0-3.18,1.49-3.18,3.82v.13c0,2.21,1,3.8,3.21,3.8,1.94,0,2.74-1.11,2.78-2.42H116V15.85h5.19v1.22c0,3.05-2,5.09-5.43,5.09C112,22.16,109.9,19.72,109.9,16.33Z" fill="#262626"/><path d="M122.05,17.88v-.13a4.21,4.21,0,0,1,4.46-4.33A4.17,4.17,0,0,1,131,17.71v.12a4.45,4.45,0,0,1-8.9.05Zm6.53,0v-.11c0-1.6-.76-2.56-2.07-2.56s-2.07.93-2.07,2.53v.12c0,1.61.74,2.57,2.07,2.57S128.58,19.44,128.58,17.85Z" fill="#262626"/></g></g></svg>