<svg xmlns="http://www.w3.org/2000/svg" viewBox="0 0 300 600"><title>300x600</title><g id="Layer_2" data-name="Layer 2"><g id="_59_takes_taxes_off_your_to-do_list." data-name="$59* takes taxes  off your to-do list."><path d="M28.23,120.89c-5.61-.39-8.34-3.35-8.57-7.6h6a3.06,3.06,0,0,0,2.56,3v-4.7c-5.65-.81-8-2.84-8-7.31,0-3.9,3.09-6.7,8.05-7V94.39h2.54v2.9c4.7.39,7.5,2.54,7.89,6.95H32.78a2.57,2.57,0,0,0-2-2.41v4.44c5,.71,8.21,2.38,8.21,7,0,3.93-2.56,7.22-8.21,7.57v4H28.23Zm0-15v-4.13c-1.46.26-2.2,1-2.2,2.07S26.48,105.53,28.23,105.89ZM30.77,112v4.28A2.33,2.33,0,0,0,32.94,114C32.94,113,32.49,112.42,30.77,112Z" fill="#fff"/><path d="M40.85,126.53H51.2c.39,2.76,1.51,4.59,5.18,4.59,3.29,0,4.79-2.43,4.79-5.58,0-3.54-2-5.64-5.4-5.64a8.18,8.18,0,0,0-6.57,2.82H42.41l.83-23.25H70.08v8.28H51.48l-.22,8.73c1.5-2.15,4.34-4.2,9.3-4.2,7.29,0,12.08,4.86,12.08,13.42,0,8.4-6.07,13.92-16.15,13.92C45.91,139.62,41.12,133.94,40.85,126.53Z" fill="#fff"/><path d="M75.37,127.8H85.84c.39,2,1.61,3.37,4.67,3.37,4.74,0,6.69-3.53,6.85-10.27-1.72,2.71-4.12,4.64-9,4.64-7.63,0-13.47-4.36-13.47-12.76S81.1,98.86,91.24,98.86c11.86,0,17.43,7.9,17.43,19.33v1.33c0,12.81-6.24,20-17.6,20C81.66,139.57,76.2,135.37,75.37,127.8Zm21.16-15.08c0-3.48-2.12-5.91-5.46-5.91-3.17,0-5.29,2.43-5.29,5.8s2,5.64,5.29,5.64A5.27,5.27,0,0,0,96.53,112.72Z" fill="#fff"/><path d="M112.51,114.27l5-5-6.52-.72,1.89-6.79,6.13,2.92-1.34-6.79h8l-1.33,6.79,6.07-2.92,1.95,6.79-6.57.72,5,5-6,4.25-3.11-6.35-3.07,6.35Z" fill="#fff"/><path d="M23.17,188.72V175.85H19.66v-6.74h3.51v-6h10v6h5.73v6.74H33.14v11.93c0,2.1,1,3,3,3a7.49,7.49,0,0,0,2.84-.5v7.52a21.17,21.17,0,0,1-5.52.83C26.84,198.67,23.17,195.52,23.17,188.72Z" fill="#fff"/><path d="M41.1,190c0-6.79,5.79-9.44,15.48-9.44h2.78v-.67c0-2.76-.67-4.58-3.84-4.58a3.56,3.56,0,0,0-4,3.42H42.21c.45-7,6-10.38,13.92-10.38s13.14,3.26,13.14,10.94V198H59.58v-3.37c-1.39,2.1-3.95,4-8.63,4C45.72,198.67,41.1,196.12,41.1,190Zm18.26-2.1v-1.76H56.74c-4,0-5.79.77-5.79,3.14,0,1.66,1.12,2.71,3.46,2.71C57.25,192,59.36,190.38,59.36,187.89Z" fill="#fff"/><path d="M74.12,156.41h10v24.14l7.86-11.44h10.35l-9.52,13L103.07,198H91.94l-7.86-12.65V198h-10Z" fill="#fff"/><path d="M102.35,183.92v-.45c0-9.28,7-15.13,15.76-15.13,8,0,14.81,4.53,14.81,14.91v2.6H112.43c.28,3.81,2.5,6,6.07,6,3.28,0,4.67-1.49,5.06-3.42h9.36c-.89,6.51-6,10.22-14.76,10.22C109,198.67,102.35,193.36,102.35,183.92Zm20.88-3.65c-.17-3.48-1.89-5.41-5.12-5.41-3,0-5.07,1.93-5.57,5.41Z" fill="#fff"/><path d="M134.7,188.83h9.19c.33,2.1,1.28,3.26,4.12,3.26,2.45,0,3.56-.94,3.56-2.37s-1.39-2.05-5.4-2.6c-7.79-1-11.08-3.26-11.08-9.28,0-6.41,5.74-9.5,12.47-9.5,7.19,0,12.2,2.43,12.86,9.33h-9c-.39-1.93-1.44-2.87-3.73-2.87s-3.28.94-3.28,2.27,1.34,1.93,4.9,2.37c8.07,1,12,3.1,12,9.28,0,6.85-5.12,9.95-13.2,9.95C139.77,198.67,134.92,195.24,134.7,188.83Z" fill="#fff"/><path d="M23.17,247.76V234.89H19.66v-6.74h3.51v-6h10v6h5.73v6.74H33.14v11.93c0,2.1,1,3,3,3a7.49,7.49,0,0,0,2.84-.5v7.52a21.17,21.17,0,0,1-5.52.83C26.84,257.71,23.17,254.56,23.17,247.76Z" fill="#fff"/><path d="M41.1,249c0-6.79,5.79-9.44,15.48-9.44h2.78v-.67c0-2.76-.67-4.58-3.84-4.58a3.56,3.56,0,0,0-4,3.42H42.21c.45-7,6-10.38,13.92-10.38s13.14,3.26,13.14,10.94V257H59.58v-3.37c-1.39,2.1-3.95,4-8.63,4C45.72,257.71,41.1,255.16,41.1,249Zm18.26-2.1v-1.76H56.74c-4,0-5.79.77-5.79,3.14C51,250,52.07,251,54.41,251,57.25,251,59.36,249.42,59.36,246.93Z" fill="#fff"/><path d="M81.47,242.35l-9.08-14.2H83.86l4.51,7.63,4.4-7.63H103l-9.19,13.43L103.91,257H92.44l-5.18-8.62L82,257H71.78Z" fill="#fff"/><path d="M102.63,243v-.45c0-9.28,7-15.13,15.75-15.13,8,0,14.81,4.53,14.81,14.91v2.6H112.7c.28,3.81,2.51,6,6.07,6,3.29,0,4.68-1.49,5.07-3.42h9.35c-.89,6.51-6,10.22-14.75,10.22C109.31,257.71,102.63,252.4,102.63,243Zm20.88-3.65c-.17-3.48-1.9-5.41-5.13-5.41-3,0-5.06,1.93-5.56,5.41Z" fill="#fff"/><path d="M135,247.87h9.19c.33,2.1,1.28,3.26,4.12,3.26,2.45,0,3.56-.94,3.56-2.37s-1.39-2-5.4-2.6c-7.8-1-11.08-3.26-11.08-9.28,0-6.41,5.73-9.5,12.47-9.5,7.18,0,12.19,2.43,12.86,9.33h-9c-.39-1.93-1.45-2.87-3.73-2.87s-3.28.94-3.28,2.27,1.33,1.93,4.9,2.37c8.07,1,12,3.1,12,9.28,0,6.85-5.13,9.95-13.2,9.95C140,257.71,135.2,254.28,135,247.87Z" fill="#fff"/><path d="M20.27,302v-.45c0-9.28,7-15.13,16-15.13s15.87,5.69,15.87,14.86v.44c0,9.39-7,15-15.92,15S20.27,311.33,20.27,302ZM42,301.83v-.44c0-4.86-2-7.57-5.74-7.57s-5.79,2.6-5.79,7.46v.44c0,5,1.95,7.68,5.79,7.68S42,306.64,42,301.83Z" fill="#fff"/><path d="M57.14,293.93H53.46v-6.74h3.68V285c0-7.18,4.45-10.55,11.35-10.55A16.5,16.5,0,0,1,73,275v7.23a8.87,8.87,0,0,0-2.67-.39A2.9,2.9,0,0,0,67.05,285v2.21h8.46v-2.54c0-7.18,4.57-10.6,11.41-10.6a18,18,0,0,1,4.57.6v7.24a9.2,9.2,0,0,0-2.73-.39c-2.28,0-3.28,1.27-3.28,3.15v2.54h5.9v6.74h-5.9v22.15h-10V293.93H67.05v22.15H57.14Z" fill="#fff"/><path d="M113.93,313.15l-11.64-26H113.1l6,15.41,5.57-15.41h9.52l-15.59,38.56h-9.52Z" fill="#fff"/><path d="M133.64,302v-.45c0-9.28,7-15.13,16-15.13s15.87,5.69,15.87,14.86v.44c0,9.39-7,15-15.92,15S133.64,311.33,133.64,302Zm21.72-.17v-.44c0-4.86-2-7.57-5.74-7.57s-5.79,2.6-5.79,7.46v.44c0,5,1.95,7.68,5.79,7.68S155.36,306.64,155.36,301.83Z" fill="#fff"/><path d="M168.78,306V287.19h10v17.24c0,3.26,1.28,4.86,4.12,4.86,3,0,4.95-1.77,4.95-5.47V287.19h10v28.89h-10v-4.47c-1.56,3-4.4,5.14-9.24,5.14C173,316.75,168.78,313.32,168.78,306Z" fill="#fff"/><path d="M202.86,287.19h10v5.75c1.84-4.31,4.9-6.19,9.41-6.13V296c-6.07-.16-9.41,1.71-9.41,6.35v13.7h-10Z" fill="#fff"/><path d="M23.17,365.84V353H19.66v-6.74h3.51v-6h10v6h5.73V353H33.14V364.9c0,2.1,1,3,3,3a7.69,7.69,0,0,0,2.84-.49V375a21.17,21.17,0,0,1-5.52.83C26.84,375.79,23.17,372.64,23.17,365.84Z" fill="#fff"/><path d="M41.1,361v-.44c0-9.28,7-15.14,16-15.14S73,351.15,73,360.32v.44c0,9.39-7,15-15.93,15S41.1,370.37,41.1,361Zm21.71-.17v-.44c0-4.86-2-7.57-5.73-7.57s-5.79,2.6-5.79,7.46v.44c0,5,2,7.68,5.79,7.68S62.81,365.68,62.81,360.87Z" fill="#fff"/><path d="M76.35,355.62H91.94v7.46H76.35Z" fill="#fff"/><path d="M95.44,361v-.44c0-9.83,5.46-15.08,12.37-15.08,4.56,0,7.29,1.93,9,4.86V333.53h10v41.59h-10v-4.69a9.84,9.84,0,0,1-9.08,5.36C101,375.79,95.44,371,95.44,361Zm21.61-.16v-.44c0-4.87-2.06-7.46-5.74-7.46s-5.73,2.48-5.73,7.51v.44c0,4.86,2.17,7.35,5.62,7.35C114.82,368.22,117.05,365.73,117.05,360.82Z" fill="#fff"/><path d="M130.25,361v-.44c0-9.28,7-15.14,16-15.14s15.87,5.69,15.87,14.86v.44c0,9.39-7,15-15.93,15S130.25,370.37,130.25,361Zm21.71-.17v-.44c0-4.86-2-7.57-5.73-7.57s-5.79,2.6-5.79,7.46v.44c0,5,1.95,7.68,5.79,7.68S152,365.68,152,360.87Z" fill="#fff"/><path d="M176,333.53h9.91v41.59H176Z" fill="#fff"/><path d="M191.05,338.39a5.5,5.5,0,1,1,5.46,5.08A5.19,5.19,0,0,1,191.05,338.39Zm.5,7.84h10v28.89h-10Z" fill="#fff"/><path d="M204.92,366h9.18c.34,2.1,1.28,3.26,4.12,3.26,2.45,0,3.57-.94,3.57-2.37s-1.39-2-5.4-2.6c-7.8-1-11.08-3.26-11.08-9.28,0-6.41,5.73-9.5,12.47-9.5,7.18,0,12.19,2.43,12.86,9.34h-9c-.39-1.94-1.45-2.88-3.73-2.88s-3.29.94-3.29,2.27,1.34,1.93,4.9,2.37c8.08,1,12,3.1,12,9.28,0,6.85-5.13,10-13.2,10C210,375.79,205.14,372.36,204.92,366Z" fill="#fff"/><path d="M236,365.84V353h-3.51v-6.74H236v-6h10v6h5.73V353H246V364.9c0,2.1,1.06,3,3,3a7.69,7.69,0,0,0,2.84-.49V375a21.08,21.08,0,0,1-5.51.83C239.72,375.79,236,372.64,236,365.84Z" fill="#fff"/><path d="M255.14,370.15a5.54,5.54,0,0,1,5.68-5.58,5.59,5.59,0,1,1,0,11.16A5.53,5.53,0,0,1,255.14,370.15Z" fill="#fff"/></g><g id="Rect"><rect width="300" height="600" fill="none"/></g></g></svg>