<svg xmlns="http://www.w3.org/2000/svg" viewBox="0 0 300 600"><title>Asset 2</title><rect width="300" height="600" fill="none"/><path d="M30.24,82.91H20.33v-8.4H51.2v8.4H41.29v29.63h-11Z" fill="#fff"/><path d="M54.36,72.49H64v16.7A9.91,9.91,0,0,1,73.18,84c5.41,0,9.16,3.35,9.16,10.47v18.09H72.75V96.37c0-3.14-1.23-4.68-4-4.68S64,93.39,64,97v15.59h-9.6Z" fill="#fff"/><path d="M85.51,99v-.43c0-8.94,6.7-14.57,15.17-14.57,7.66,0,14.25,4.36,14.25,14.36v2.5H95.21c.27,3.67,2.41,5.79,5.84,5.79,3.16,0,4.5-1.43,4.88-3.29h9c-.85,6.27-5.73,9.84-14.2,9.84C91.94,113.18,85.51,108.07,85.51,99Zm20.1-3.52c-.16-3.35-1.83-5.21-4.93-5.21-2.9,0-4.88,1.86-5.36,5.21Z" fill="#fff"/><path d="M20.54,153.43V153c0-8.93,6.7-14.57,15.17-14.57,7.67,0,14.26,4.36,14.26,14.36v2.5H30.24c.27,3.67,2.42,5.8,5.85,5.8,3.16,0,4.5-1.44,4.87-3.3h9c-.86,6.28-5.74,9.84-14.21,9.84C27,167.63,20.54,162.52,20.54,153.43Zm20.1-3.51c-.16-3.35-1.82-5.22-4.93-5.22-2.89,0-4.88,1.87-5.36,5.22Z" fill="#fff"/><path d="M52,159.28c0-6.54,5.58-9.1,14.9-9.1h2.68v-.64c0-2.65-.64-4.41-3.7-4.41a3.43,3.43,0,0,0-3.8,3.3H53c.43-6.7,5.74-10,13.4-10S79.07,141.57,79.07,149v18H69.75v-3.24c-1.34,2-3.81,3.88-8.31,3.88C56.4,167.63,52,165.18,52,159.28Zm17.58-2v-1.7H67c-3.86,0-5.57.74-5.57,3,0,1.59,1.07,2.6,3.32,2.6C67.5,161.19,69.53,159.65,69.53,157.26Z" fill="#fff"/><path d="M81.86,158.16H90.7c.33,2,1.24,3.14,4,3.14,2.36,0,3.43-.9,3.43-2.29s-1.34-2-5.2-2.5c-7.5-.95-10.66-3.14-10.66-8.93,0-6.17,5.52-9.15,12-9.15,6.92,0,11.74,2.34,12.38,9H97.94c-.37-1.86-1.39-2.77-3.59-2.77s-3.16.91-3.16,2.18,1.28,1.86,4.71,2.29c7.78,1,11.53,3,11.53,8.94,0,6.59-4.93,9.57-12.7,9.57C86.74,167.63,82.07,164.33,81.86,158.16Z" fill="#fff"/><path d="M110.32,131.62a5.3,5.3,0,1,1,5.26,4.89A5,5,0,0,1,110.32,131.62Zm.48,7.55h9.6V167h-9.6Z" fill="#fff"/><path d="M124,153.43V153c0-8.93,6.7-14.57,15.17-14.57,7.67,0,14.26,4.36,14.26,14.36v2.5H133.75c.26,3.67,2.41,5.8,5.84,5.8,3.16,0,4.5-1.44,4.88-3.3h9c-.85,6.28-5.73,9.84-14.2,9.84C130.48,167.63,124,162.52,124,153.43Zm20.11-3.51c-.17-3.35-1.83-5.22-4.94-5.22-2.89,0-4.87,1.87-5.36,5.22Z" fill="#fff"/><path d="M155.19,158.16H164c.32,2,1.23,3.14,4,3.14,2.36,0,3.43-.9,3.43-2.29s-1.34-2-5.2-2.5c-7.51-.95-10.67-3.14-10.67-8.93,0-6.17,5.52-9.15,12-9.15,6.91,0,11.74,2.34,12.38,9h-8.68c-.38-1.86-1.4-2.77-3.59-2.77s-3.17.91-3.17,2.18,1.29,1.86,4.72,2.29c7.77,1,11.52,3,11.52,8.94,0,6.59-4.93,9.57-12.7,9.57C160.06,167.63,155.4,164.33,155.19,158.16Z" fill="#fff"/><path d="M185.15,158.06v-12.4h-3.38v-6.49h3.38v-5.8h9.59v5.8h5.53v6.49h-5.53v11.49c0,2,1,2.93,2.84,2.93a7.36,7.36,0,0,0,2.74-.48v7.23a20.24,20.24,0,0,1-5.31.8C188.69,167.63,185.15,164.6,185.15,158.06Z" fill="#fff"/><path d="M19.68,193.62h10l4.07,16.65,4.72-16.65h7.72l4.18,16.65L55,193.62h9.11l-8.9,27.82H46l-4.18-15.53-4.34,15.53H28.15Z" fill="#fff"/><path d="M63.85,213.73c0-6.54,5.58-9.09,14.9-9.09h2.68V204c0-2.66-.64-4.42-3.7-4.42a3.43,3.43,0,0,0-3.8,3.3h-9c.43-6.7,5.74-10,13.4-10S91,196,91,203.41v18H81.65V218.2c-1.34,2-3.81,3.88-8.31,3.88C68.3,222.08,63.85,219.64,63.85,213.73Zm17.58-2V210H78.91c-3.86,0-5.57.74-5.57,3,0,1.6,1.07,2.61,3.32,2.61C79.4,215.65,81.43,214.1,81.43,211.71Z" fill="#fff"/><path d="M103.46,218.62l-11.2-25h10.4l5.79,14.85,5.36-14.85H123l-15,37.13H98.8Z" fill="#fff"/><path d="M136.48,212.51v-12.4H133.1v-6.49h3.38v-5.79h9.6v5.79h5.52v6.49h-5.52V211.6c0,2,1,2.93,2.84,2.93a7.34,7.34,0,0,0,2.73-.48v7.23a20.24,20.24,0,0,1-5.31.8C140,222.08,136.48,219.05,136.48,212.51Z" fill="#fff"/><path d="M153.74,207.88v-.43c0-8.93,6.7-14.57,15.38-14.57s15.28,5.48,15.28,14.31v.42c0,9-6.7,14.47-15.33,14.47S153.74,216.87,153.74,207.88Zm20.9-.16v-.42c0-4.69-1.87-7.29-5.52-7.29s-5.57,2.5-5.57,7.18v.42c0,4.79,1.87,7.4,5.57,7.4S174.64,212.35,174.64,207.72Z" fill="#fff"/><path d="M20.49,275.9H30c.43,2,1.66,3.61,5.15,3.61,4.23,0,6-2.39,6-5.85v-4.25a9.85,9.85,0,0,1-8.69,5.1c-6.54,0-11.9-4.78-11.9-13.35v-.42c0-8.19,5.31-13.41,11.9-13.41,4.45,0,7.08,1.86,8.69,4.68v-3.93h9.59v25.48c0,8.29-5.52,12.66-15.54,12.66C25.63,286.22,21.24,282.23,20.49,275.9Zm20.9-14.79v-.37c0-3.83-2-6.28-5.52-6.28s-5.52,2.5-5.52,6.33v.43c0,3.83,2,6.27,5.47,6.27S41.39,265.05,41.39,261.11Z" fill="#fff"/><path d="M54.1,262.33v-.42c0-8.94,6.7-14.58,15.17-14.58,7.66,0,14.25,4.36,14.25,14.36v2.5H63.8c.27,3.67,2.41,5.8,5.84,5.8,3.16,0,4.5-1.43,4.88-3.3h9c-.85,6.28-5.73,9.85-14.2,9.85C60.53,276.54,54.1,271.43,54.1,262.33Zm20.1-3.51c-.16-3.35-1.83-5.21-4.93-5.21-2.9,0-4.88,1.86-5.37,5.21Z" fill="#fff"/><path d="M88.13,267V254.57H84.75v-6.49h3.38v-5.8h9.6v5.8h5.52v6.49H97.73v11.49c0,2,1,2.92,2.84,2.92a7.34,7.34,0,0,0,2.73-.48v7.24a20.16,20.16,0,0,1-5.3.8C91.67,276.54,88.13,273.5,88.13,267Z" fill="#fff"/><path d="M117.93,267V254.57h-3.37v-6.49h3.37v-5.8h9.6v5.8h5.52v6.49h-5.52v11.49c0,2,1,2.92,2.84,2.92a7.3,7.3,0,0,0,2.73-.48v7.24a20.16,20.16,0,0,1-5.3.8C121.47,276.54,117.93,273.5,117.93,267Z" fill="#fff"/><path d="M135.19,268.18c0-6.54,5.58-9.09,14.9-9.09h2.68v-.64c0-2.66-.64-4.41-3.69-4.41a3.43,3.43,0,0,0-3.81,3.29h-9c.43-6.7,5.74-10,13.41-10s12.65,3.14,12.65,10.53v18H153v-3.25c-1.34,2-3.81,3.89-8.31,3.89C139.64,276.54,135.19,274.09,135.19,268.18Zm17.58-2v-1.7h-2.52c-3.85,0-5.57.75-5.57,3,0,1.6,1.07,2.61,3.32,2.61C150.74,270.1,152.77,268.56,152.77,266.16Z" fill="#fff"/><path d="M174.05,261.75l-8.73-13.67h11l4.34,7.34,4.24-7.34h9.86L186,261l9.71,14.9h-11l-5-8.3-5.09,8.3h-9.81Z" fill="#fff"/><path d="M194.42,262.33v-.42c0-8.94,6.7-14.58,15.17-14.58,7.67,0,14.26,4.36,14.26,14.36v2.5H204.12c.27,3.67,2.42,5.8,5.85,5.8,3.16,0,4.5-1.43,4.87-3.3h9c-.86,6.28-5.74,9.85-14.21,9.85C200.85,276.54,194.42,271.43,194.42,262.33Zm20.1-3.51c-.16-3.35-1.82-5.21-4.93-5.21-2.89,0-4.88,1.86-5.36,5.21Z" fill="#fff"/><path d="M225.56,267.07h8.85c.32,2,1.23,3.14,4,3.14,2.36,0,3.43-.91,3.43-2.29s-1.34-2-5.19-2.5c-7.51-1-10.67-3.14-10.67-8.94,0-6.17,5.52-9.15,12-9.15,6.91,0,11.73,2.34,12.38,9h-8.69c-.37-1.86-1.39-2.76-3.59-2.76s-3.16.9-3.16,2.18,1.29,1.86,4.72,2.28c7.77,1,11.52,3,11.52,8.94,0,6.6-4.93,9.58-12.7,9.58C230.44,276.54,225.78,273.24,225.56,267.07Z" fill="#fff"/><path d="M20.65,316.73v-.42c0-9.47,5.25-14.52,11.9-14.52,4.39,0,7,1.86,8.63,4.68V290.3h9.59v40.05H41.18v-4.52A9.45,9.45,0,0,1,32.44,331C26,331,20.65,326.36,20.65,316.73Zm20.8-.16v-.42c0-4.68-2-7.18-5.52-7.18s-5.53,2.39-5.53,7.23v.43c0,4.68,2.1,7.07,5.42,7.07C39.3,323.7,41.45,321.31,41.45,316.57Z" fill="#fff"/><path d="M54.15,316.79v-.43c0-8.94,6.7-14.57,15.38-14.57s15.28,5.47,15.28,14.3v.43c0,9-6.7,14.47-15.33,14.47S54.15,325.78,54.15,316.79Zm20.9-.16v-.43c0-4.68-1.87-7.29-5.52-7.29S64,311.41,64,316.09v.43c0,4.79,1.87,7.39,5.57,7.39S75.05,321.25,75.05,316.63Z" fill="#fff"/><path d="M88.19,302.53h9.59V307a9.91,9.91,0,0,1,9.22-5.21c5.42,0,9.17,3.35,9.17,10.47v18.09h-9.6V314.18c0-3.14-1.23-4.68-4-4.68s-4.77,1.7-4.77,5.26v15.59H88.19Z" fill="#fff"/><path d="M119.33,316.79v-.43c0-8.94,6.7-14.57,15.17-14.57,7.66,0,14.26,4.36,14.26,14.36v2.5H129c.27,3.67,2.41,5.8,5.84,5.8,3.17,0,4.51-1.44,4.88-3.3h9c-.86,6.27-5.74,9.84-14.21,9.84C125.76,331,119.33,325.88,119.33,316.79Zm20.1-3.51c-.16-3.36-1.82-5.22-4.93-5.22-2.9,0-4.88,1.86-5.36,5.22Z" fill="#fff"/><path d="M23.49,363.47H20V357h3.54v-2.44c0-6.92,4.34-10.22,11-10.22a17.08,17.08,0,0,1,4.39.59v7a8.55,8.55,0,0,0-2.62-.38c-2.25,0-3.22,1.23-3.22,3V357h5.68v6.49H33V384.8H23.49Z" fill="#fff"/><path d="M39.46,371.24v-.43c0-8.93,6.7-14.57,15.39-14.57s15.27,5.48,15.27,14.31V371c0,9-6.7,14.47-15.33,14.47S39.46,380.23,39.46,371.24Zm20.91-.16v-.43c0-4.68-1.88-7.28-5.52-7.28s-5.58,2.5-5.58,7.18V371c0,4.79,1.88,7.4,5.58,7.4S60.37,375.71,60.37,371.08Z" fill="#fff"/><path d="M73.5,357h9.59v5.53c1.77-4.14,4.72-5.95,9.06-5.9v8.88c-5.84-.16-9.06,1.65-9.06,6.12V384.8H73.5Z" fill="#fff"/><path d="M114.18,382,103,357h10.4l5.79,14.84L124.53,357h9.16l-15,37.13h-9.16Z" fill="#fff"/><path d="M133.16,371.24v-.43c0-8.93,6.7-14.57,15.38-14.57s15.28,5.48,15.28,14.31V371c0,9-6.7,14.47-15.33,14.47S133.16,380.23,133.16,371.24Zm20.9-.16v-.43c0-4.68-1.87-7.28-5.52-7.28s-5.57,2.5-5.57,7.18V371c0,4.79,1.87,7.4,5.57,7.4S154.06,375.71,154.06,371.08Z" fill="#fff"/><path d="M167,375.12V357h9.59v16.6c0,3.14,1.24,4.68,4,4.68,2.89,0,4.77-1.7,4.77-5.27V357h9.6V384.8h-9.6v-4.31c-1.5,2.88-4.23,4.95-8.9,4.95C171,385.44,167,382.14,167,375.12Z" fill="#fff"/><path d="M199.41,380a5.32,5.32,0,0,1,5.46-5.37,5.38,5.38,0,1,1,0,10.75A5.33,5.33,0,0,1,199.41,380Z" fill="#fff"/></svg>