<svg xmlns="http://www.w3.org/2000/svg" viewBox="0 0 728 90"><title>Asset 6</title><rect width="728" height="90" fill="none"/><path d="M122.55,15.75h9.06c8.86,0,13.36,4.42,13.36,12.16v.28c0,7.78-4.61,12.48-13.39,12.48h-9Zm8.82,19.42c4.25,0,6.14-2.24,6.14-6.87V28c0-4.74-1.89-6.77-6.21-6.77h-1.57V35.17Z" fill="#fff"/><path d="M146.39,31.78V31.5c0-5.85,4.36-9.55,10-9.55s9.94,3.59,9.94,9.38v.28c0,5.93-4.36,9.48-10,9.48S146.39,37.68,146.39,31.78Zm13.6-.1V31.4c0-3.07-1.22-4.78-3.59-4.78s-3.63,1.64-3.63,4.71v.28c0,3.14,1.22,4.85,3.63,4.85S160,34.71,160,31.68Z" fill="#fff"/><path d="M168.53,22.44h6.24v2.93a6.45,6.45,0,0,1,6-3.42c3.52,0,6,2.2,6,6.87V40.67h-6.24V30.08c0-2.06-.8-3.07-2.62-3.07s-3.1,1.11-3.1,3.45V40.67h-6.24Z" fill="#fff"/><path d="M188.54,15.75h6.1l-.73,9.58h-4.67Z" fill="#fff"/><path d="M198.54,34.82V26.69h-2.19V22.44h2.19v-3.8h6.25v3.8h3.59v4.25h-3.59v7.53c0,1.33.66,1.92,1.84,1.92a4.75,4.75,0,0,0,1.78-.31v4.74a13.08,13.08,0,0,1-3.45.52C200.85,41.09,198.54,39.11,198.54,34.82Z" fill="#fff"/><path d="M216.18,31.75v-.28c0-6.21,3.42-9.52,7.74-9.52A5.92,5.92,0,0,1,229.54,25V14.42h6.24V40.67h-6.24v-3a6.16,6.16,0,0,1-5.69,3.38C219.63,41.09,216.18,38.06,216.18,31.75Zm13.53-.11v-.27c0-3.07-1.29-4.71-3.59-4.71s-3.59,1.57-3.59,4.74v.28c0,3.07,1.36,4.64,3.52,4.64S229.71,34.75,229.71,31.64Z" fill="#fff"/><path d="M238,31.78V31.5c0-5.85,4.36-9.55,10-9.55s9.94,3.59,9.94,9.38v.28c0,5.93-4.36,9.48-10,9.48S238,37.68,238,31.78Zm13.6-.1V31.4c0-3.07-1.22-4.78-3.59-4.78s-3.63,1.64-3.63,4.71v.28c0,3.14,1.22,4.85,3.63,4.85S251.57,34.71,251.57,31.68Z" fill="#fff"/><path d="M267.29,34.82V26.69h-2.2V22.44h2.2v-3.8h6.24v3.8h3.59v4.25h-3.59v7.53c0,1.33.66,1.92,1.85,1.92a4.75,4.75,0,0,0,1.78-.31v4.74a13.15,13.15,0,0,1-3.45.52C269.59,41.09,267.29,39.11,267.29,34.82Z" fill="#fff"/><path d="M278.51,35.62c0-4.29,3.63-6,9.7-6H290v-.42c0-1.74-.42-2.9-2.41-2.9a2.25,2.25,0,0,0-2.47,2.17h-5.86c.28-4.4,3.73-6.56,8.72-6.56s8.23,2.06,8.23,6.9V40.67h-6.07V38.55c-.87,1.32-2.48,2.54-5.4,2.54C281.41,41.09,278.51,39.49,278.51,35.62ZM290,34.29V33.18h-1.64c-2.51,0-3.62.49-3.62,2,0,1,.69,1.7,2.16,1.7C288.63,36.87,290,35.86,290,34.29Z" fill="#fff"/><path d="M303.79,31.4l-5.68-9h7.18l2.82,4.81,2.76-4.81h6.41l-5.75,8.47,6.31,9.76h-7.18l-3.24-5.43-3.32,5.43h-6.38Z" fill="#fff"/><path d="M317,31.78V31.5c0-5.85,4.35-9.55,9.86-9.55,5,0,9.28,2.86,9.28,9.42V33H323.35c.17,2.41,1.57,3.8,3.8,3.8,2.05,0,2.93-.94,3.17-2.16h5.86c-.56,4.12-3.73,6.45-9.24,6.45C321.22,41.09,317,37.75,317,31.78Zm13.07-2.3c-.1-2.19-1.19-3.41-3.21-3.41s-3.17,1.22-3.48,3.41Z" fill="#fff"/><path d="M337.29,34.89H343c.21,1.32.8,2,2.58,2,1.54,0,2.23-.59,2.23-1.5s-.87-1.29-3.38-1.63c-4.88-.63-6.94-2.06-6.94-5.86,0-4.05,3.59-6,7.81-6,4.5,0,7.64,1.54,8.06,5.89h-5.65A2,2,0,0,0,345.41,26c-1.36,0-2.05.59-2.05,1.43s.83,1.22,3.06,1.5c5.06.63,7.5,1.95,7.5,5.86,0,4.32-3.21,6.27-8.26,6.27C340.46,41.09,337.43,38.93,337.29,34.89Z" fill="#fff"/><path d="M355.7,37.54A3.46,3.46,0,0,1,359.25,34a3.52,3.52,0,1,1,0,7A3.47,3.47,0,0,1,355.7,37.54Z" fill="#fff"/><path d="M372.74,15.75h7.18V35.13h9.42v5.54h-16.6Z" fill="#fff"/><path d="M390.38,31.78V31.5c0-5.85,4.36-9.55,9.87-9.55,5,0,9.27,2.86,9.27,9.42V33H396.69c.18,2.41,1.57,3.8,3.8,3.8,2.06,0,2.93-.94,3.18-2.16h5.85c-.56,4.12-3.73,6.45-9.24,6.45C394.57,41.09,390.38,37.75,390.38,31.78Zm13.08-2.3c-.11-2.19-1.19-3.41-3.21-3.41s-3.17,1.22-3.49,3.41Z" fill="#fff"/><path d="M412.52,34.82V26.69h-2.2V22.44h2.2v-3.8h6.24v3.8h3.59v4.25h-3.59v7.53c0,1.33.66,1.92,1.85,1.92a4.78,4.78,0,0,0,1.78-.31v4.74a13.17,13.17,0,0,1-3.46.52C414.82,41.09,412.52,39.11,412.52,34.82Z" fill="#fff"/><path d="M430,35.62c0-4.29,3.62-6,9.69-6h1.74v-.42c0-1.74-.41-2.9-2.4-2.9a2.25,2.25,0,0,0-2.48,2.17h-5.86c.28-4.4,3.74-6.56,8.72-6.56s8.23,2.06,8.23,6.9V40.67h-6.07V38.55c-.87,1.32-2.47,2.54-5.4,2.54C432.91,41.09,430,39.49,430,35.62Zm11.43-1.33V33.18h-1.63c-2.52,0-3.63.49-3.63,2,0,1,.7,1.7,2.16,1.7C440.13,36.87,441.45,35.86,441.45,34.29Z" fill="#fff"/><path d="M457.87,34.82V26.69h-2.2V22.44h2.2v-3.8h6.24v3.8h3.59v4.25h-3.59v7.53c0,1.33.66,1.92,1.85,1.92a4.75,4.75,0,0,0,1.78-.31v4.74a13.08,13.08,0,0,1-3.45.52C460.17,41.09,457.87,39.11,457.87,34.82Z" fill="#fff"/><path d="M469.1,35.62c0-4.29,3.62-6,9.69-6h1.74v-.42c0-1.74-.42-2.9-2.4-2.9a2.25,2.25,0,0,0-2.48,2.17h-5.86c.28-4.4,3.73-6.56,8.72-6.56s8.23,2.06,8.23,6.9V40.67h-6.07V38.55c-.87,1.32-2.47,2.54-5.4,2.54C472,41.09,469.1,39.49,469.1,35.62Zm11.43-1.33V33.18h-1.64c-2.51,0-3.62.49-3.62,2,0,1,.69,1.7,2.16,1.7C479.21,36.87,480.53,35.86,480.53,34.29Z" fill="#fff"/><path d="M494.37,31.4l-5.68-9h7.18l2.82,4.81,2.76-4.81h6.41l-5.75,8.47,6.31,9.76h-7.18L498,35.24l-3.32,5.43H488.3Z" fill="#fff"/><path d="M122,56.72h6.24v2.72a6.44,6.44,0,0,1,5.68-3.2c4.26,0,7.71,3.2,7.71,9.44V66c0,6.28-3.45,9.42-7.74,9.42a6,6,0,0,1-5.65-3.11v8.79H122ZM135.27,66v-.28c0-3.2-1.39-4.74-3.59-4.74s-3.62,1.64-3.62,4.71v.28c0,3.1,1.36,4.67,3.62,4.67S135.27,69,135.27,66Z" fill="#fff"/><path d="M143.88,56.72h6.24v3.63a5.76,5.76,0,0,1,5.9-3.87V62.3c-3.8-.1-5.9,1.08-5.9,4V75h-6.24Z" fill="#fff"/><path d="M157.13,66.07v-.28c0-5.86,4.36-9.55,10-9.55s9.93,3.59,9.93,9.38v.27c0,5.93-4.35,9.49-10,9.49S157.13,72,157.13,66.07Zm13.6-.11v-.28c0-3.06-1.22-4.77-3.59-4.77s-3.63,1.64-3.63,4.71v.27c0,3.14,1.22,4.85,3.63,4.85S170.73,69,170.73,66Z" fill="#fff"/><path d="M184.7,66v-.28c0-6.2,3.42-9.51,7.74-9.51a5.93,5.93,0,0,1,5.62,3.06V48.71h6.24V75h-6.24V72a6.15,6.15,0,0,1-5.68,3.38C188.16,75.38,184.7,72.34,184.7,66Zm13.53-.1v-.28c0-3.07-1.29-4.71-3.59-4.71s-3.59,1.57-3.59,4.74V66c0,3.07,1.36,4.64,3.52,4.64S198.23,69,198.23,65.93Z" fill="#fff"/><path d="M206.49,66.07v-.28c0-5.86,4.36-9.55,10-9.55s9.94,3.59,9.94,9.38v.27c0,5.93-4.36,9.49-10,9.49S206.49,72,206.49,66.07Zm13.6-.11v-.28c0-3.06-1.22-4.77-3.59-4.77s-3.63,1.64-3.63,4.71v.27c0,3.14,1.22,4.85,3.63,4.85S220.09,69,220.09,66Z" fill="#fff"/><path d="M235.81,69.1V61h-2.2V56.72h2.2v-3.8h6.24v3.8h3.59V61h-3.59v7.53a1.67,1.67,0,0,0,1.85,1.92,4.75,4.75,0,0,0,1.78-.32v4.74a13,13,0,0,1-3.45.53C238.11,75.38,235.81,73.39,235.81,69.1Z" fill="#fff"/><path d="M248,48.71h6.24V59.65a6.45,6.45,0,0,1,6-3.41c3.52,0,6,2.19,6,6.86V75H260V64.36c0-2.06-.8-3.07-2.61-3.07s-3.11,1.12-3.11,3.45V75H248Z" fill="#fff"/><path d="M268.27,66.07v-.28c0-5.86,4.35-9.55,9.86-9.55,5,0,9.28,2.85,9.28,9.41v1.64H274.58c.17,2.4,1.57,3.8,3.8,3.8,2.05,0,2.93-.94,3.17-2.16h5.86c-.56,4.11-3.73,6.45-9.24,6.45C272.45,75.38,268.27,72,268.27,66.07Zm13.07-2.3c-.1-2.2-1.18-3.42-3.21-3.42-1.88,0-3.17,1.22-3.48,3.42Z" fill="#fff"/><path d="M289.57,56.72h6.24v2.79a6.36,6.36,0,0,1,5.72-3.27,5,5,0,0,1,5,3,7.22,7.22,0,0,1,6-3c3.45,0,6,2.23,6,6.8V75h-6.24V64.08c0-1.85-.91-2.75-2.34-2.75-1.67,0-2.79,1.08-2.79,3.06V75h-6.17V64.08c0-1.85-.9-2.75-2.33-2.75-1.68,0-2.79,1.08-2.79,3.06V75h-6.24Z" fill="#fff"/><path d="M328.79,61h-2.31V56.72h2.31v-1.6c0-4.53,2.82-6.69,7.14-6.69a11.13,11.13,0,0,1,2.86.38v4.57a5.68,5.68,0,0,0-1.71-.25,1.83,1.83,0,0,0-2.09,2v1.6h3.7V61H335V75h-6.2Z" fill="#fff"/><path d="M339.17,66.07v-.28c0-5.86,4.36-9.55,10-9.55s9.94,3.59,9.94,9.38v.27c0,5.93-4.36,9.49-10,9.49S339.17,72,339.17,66.07Zm13.6-.11v-.28c0-3.06-1.22-4.77-3.59-4.77s-3.63,1.64-3.63,4.71v.27c0,3.14,1.22,4.85,3.63,4.85S352.77,69,352.77,66Z" fill="#fff"/><path d="M361.31,56.72h6.24v3.63a5.75,5.75,0,0,1,5.89-3.87V62.3c-3.8-.1-5.89,1.08-5.89,4V75h-6.24Z" fill="#fff"/><path d="M387.77,73.11l-7.29-16.39h6.77L391,66.45l3.49-9.73h6L390.7,81.06h-6Z" fill="#fff"/><path d="M400.11,66.07v-.28c0-5.86,4.36-9.55,10-9.55s9.93,3.59,9.93,9.38v.27c0,5.93-4.36,9.49-10,9.49S400.11,72,400.11,66.07Zm13.6-.11v-.28c0-3.06-1.22-4.77-3.59-4.77s-3.63,1.64-3.63,4.71v.27c0,3.14,1.22,4.85,3.63,4.85S413.71,69,413.71,66Z" fill="#fff"/><path d="M422.11,68.61V56.72h6.24V67.6c0,2.06.8,3.07,2.58,3.07s3.1-1.12,3.1-3.45V56.72h6.24V75H434V72.13a6,6,0,0,1-5.79,3.25C424.72,75.38,422.11,73.22,422.11,68.61Z" fill="#fff"/><path d="M443.2,71.82a3.48,3.48,0,0,1,3.55-3.52,3.52,3.52,0,1,1,0,7A3.48,3.48,0,0,1,443.2,71.82Z" fill="#fff"/></svg>