<svg xmlns="http://www.w3.org/2000/svg" viewBox="0 0 300 600"><title>Asset 8</title><rect width="300" height="600" fill="none"/><path d="M35.29,102.25,22.47,79.92H34.74L41.4,93.08l6.66-13.16H58.84L46.63,102.25V119H35.29Z" fill="#fff"/><path d="M54.72,105v-.44c0-9.18,6.88-15,15.79-15s15.68,5.62,15.68,14.69v.43c0,9.29-6.88,14.86-15.73,14.86S54.72,114.27,54.72,105Zm21.46-.17v-.43c0-4.81-1.93-7.49-5.67-7.49s-5.72,2.57-5.72,7.38v.43c0,4.92,1.92,7.59,5.72,7.59S76.18,109.62,76.18,104.87Z" fill="#fff"/><path d="M89.44,109V90.4h9.85v17c0,3.22,1.27,4.81,4.07,4.81,3,0,4.9-1.75,4.9-5.41V90.4h9.85V119h-9.85v-4.42c-1.54,2.95-4.35,5.08-9.13,5.08C93.57,119.62,89.44,116.23,89.44,109Z" fill="#fff"/><path d="M123.12,90.4H133v5.68c1.82-4.26,4.84-6.12,9.3-6.06v9.12c-6-.17-9.3,1.69-9.3,6.28V119h-9.85Z" fill="#fff"/><path d="M157.18,109.79V97.06h-3.46V90.4h3.46v-6H167v6h5.67v6.66H167v11.8c0,2.07,1.05,3,2.92,3a7.48,7.48,0,0,0,2.8-.49v7.43a20.61,20.61,0,0,1-5.44.82C160.81,119.62,157.18,116.5,157.18,109.79Z" fill="#fff"/><path d="M174.9,111c0-6.71,5.72-9.33,15.3-9.33H193v-.66c0-2.73-.66-4.53-3.8-4.53a3.52,3.52,0,0,0-3.9,3.38H176c.44-6.88,5.89-10.26,13.76-10.26s13,3.22,13,10.81V119h-9.57v-3.33c-1.38,2.08-3.91,4-8.53,4C179.47,119.62,174.9,117.11,174.9,111ZM193,109v-1.75h-2.59c-4,0-5.72.77-5.72,3.11,0,1.64,1.1,2.68,3.41,2.68C190.86,113,193,111.43,193,109Z" fill="#fff"/><path d="M214.8,104.44l-9-14h11.33l4.46,7.54L226,90.4h10.12L227,103.67,237,119H225.64l-5.12-8.52L215.29,119H205.22Z" fill="#fff"/><path d="M25,145.27H34.8v4.26a10.17,10.17,0,0,1,9-5c6.71,0,12.16,5,12.16,14.8v.44c0,9.83-5.45,14.74-12.22,14.74-4.34,0-7.48-2-8.91-4.86v13.77H25Zm21,14.47v-.44c0-5-2.2-7.42-5.66-7.42s-5.73,2.56-5.73,7.37v.43c0,4.87,2.15,7.32,5.73,7.32S45.91,164.44,45.91,159.74Z" fill="#fff"/><path d="M59.51,145.27h9.85V151c1.81-4.26,4.84-6.12,9.3-6.06V154c-6-.17-9.3,1.69-9.3,6.28v13.54H59.51Z" fill="#fff"/><path d="M80.42,159.9v-.43c0-9.18,6.88-15,15.79-15s15.68,5.63,15.68,14.69v.44c0,9.28-6.88,14.85-15.73,14.85S80.42,169.13,80.42,159.9Zm21.46-.16v-.44c0-4.8-1.93-7.48-5.67-7.48s-5.72,2.57-5.72,7.37v.44c0,4.92,1.92,7.59,5.72,7.59S101.88,164.49,101.88,159.74Z" fill="#fff"/><path d="M123,145.27h10.29l4.18,17.09,4.84-17.09h7.92l4.29,17.09,4.68-17.09h9.35l-9.13,28.56H150l-4.29-16-4.46,16h-9.57Z" fill="#fff"/><path d="M168.24,159.9v-.43c0-9.18,6.88-15,15.8-15s15.68,5.63,15.68,14.69v.44c0,9.28-6.88,14.85-15.74,14.85S168.24,169.13,168.24,159.9Zm21.46-.16v-.44c0-4.8-1.92-7.48-5.66-7.48s-5.73,2.57-5.73,7.37v.44c0,4.92,1.93,7.59,5.73,7.59S189.7,164.49,189.7,159.74Z" fill="#fff"/><path d="M203.19,145.27H213v4.58a10.17,10.17,0,0,1,9.46-5.35c5.56,0,9.41,3.44,9.41,10.76v18.57h-9.85v-16.6c0-3.22-1.27-4.81-4.13-4.81s-4.89,1.75-4.89,5.41v16h-9.85Z" fill="#fff"/><path d="M234.77,134.78h9.63l-1.15,15h-7.38Z" fill="#fff"/><path d="M250.56,164.65V151.93H247.1v-6.66h3.46v-6h9.85v6h5.67v6.66h-5.67v11.8c0,2.07,1,3,2.92,3a7.53,7.53,0,0,0,2.81-.49v7.43a21.26,21.26,0,0,1-5.45.81C254.2,174.48,250.56,171.37,250.56,164.65Z" fill="#fff"/><path d="M25,187.57H34.8v23.87l7.76-11.31H52.79L43.38,213,53.56,228.7h-11L34.8,216.19V228.7H25Z" fill="#fff"/><path d="M55.88,200.13h9.84v4.59a10.18,10.18,0,0,1,9.47-5.35c5.56,0,9.41,3.44,9.41,10.76V228.7H74.75V212.09c0-3.22-1.27-4.8-4.13-4.8s-4.9,1.75-4.9,5.4v16H55.88Z" fill="#fff"/><path d="M87.85,214.77v-.44c0-9.17,6.87-15,15.79-15s15.68,5.62,15.68,14.69v.44c0,9.28-6.88,14.85-15.74,14.85S87.85,224,87.85,214.77Zm21.46-.16v-.44c0-4.81-1.93-7.48-5.67-7.48s-5.72,2.56-5.72,7.37v.44c0,4.91,1.92,7.59,5.72,7.59S109.31,219.36,109.31,214.61Z" fill="#fff"/><path d="M119.43,200.13h10.29l4.18,17.1,4.85-17.1h7.92l4.29,17.1,4.68-17.1H165l-9.13,28.57h-9.41l-4.29-15.95L137.7,228.7h-9.57Z" fill="#fff"/><path d="M34,280.67,22.47,255H33.15l5.94,15.24L44.59,255H54L38.59,293.12h-9.4Z" fill="#fff"/><path d="M53.45,269.64v-.44c0-9.18,6.88-15,15.8-15s15.68,5.62,15.68,14.69v.43c0,9.29-6.88,14.86-15.74,14.86S53.45,278.87,53.45,269.64Zm21.46-.17V269c0-4.81-1.92-7.49-5.66-7.49s-5.73,2.57-5.73,7.38v.43c0,4.92,1.93,7.59,5.73,7.59S74.91,274.22,74.91,269.47Z" fill="#fff"/><path d="M88.18,273.62V255H98v17c0,3.22,1.26,4.8,4.07,4.8,3,0,4.89-1.74,4.89-5.4V255h9.85v28.56H107v-4.42c-1.54,2.95-4.34,5.08-9.13,5.08C92.3,284.22,88.18,280.83,88.18,273.62Z" fill="#fff"/><path d="M121.19,244.52h9.63l-1.15,15h-7.38Z" fill="#fff"/><path d="M135.12,255H145v5.68c1.82-4.26,4.85-6.12,9.3-6.06v9.12c-6-.17-9.3,1.69-9.3,6.28v13.54h-9.84Z" fill="#fff"/><path d="M156,269.64v-.44c0-9.18,6.88-15,15.57-15,7.87,0,14.64,4.47,14.64,14.74v2.57H166c.27,3.77,2.47,5.95,6,5.95,3.25,0,4.63-1.47,5-3.39h9.25c-.88,6.45-5.89,10.11-14.59,10.11C162.63,284.22,156,279,156,269.64ZM176.66,266c-.16-3.44-1.87-5.35-5.06-5.35-3,0-5,1.91-5.5,5.35Z" fill="#fff"/><path d="M24.73,302.11A5.13,5.13,0,0,1,30.12,297a5.07,5.07,0,1,1,0,10.11A5.08,5.08,0,0,1,24.73,302.11Zm.49,7.76h9.85v28.56H25.22Z" fill="#fff"/><path d="M40.36,309.87h9.85v4.58a10.17,10.17,0,0,1,9.46-5.35c5.56,0,9.41,3.44,9.41,10.76v18.57H59.23v-16.6c0-3.23-1.27-4.81-4.13-4.81s-4.89,1.75-4.89,5.41v16H40.36Z" fill="#fff"/><path d="M92.91,335.53l-11.5-25.66H92.08L98,325.1l5.51-15.23h9.41L97.53,348H88.12Z" fill="#fff"/><path d="M112.39,324.5v-.43c0-9.18,6.88-15,15.79-15s15.68,5.63,15.68,14.69v.44c0,9.28-6.88,14.85-15.73,14.85S112.39,333.73,112.39,324.5Zm21.46-.16v-.44c0-4.8-1.93-7.48-5.67-7.48s-5.72,2.57-5.72,7.37v.44c0,4.91,1.92,7.59,5.72,7.59S133.85,329.09,133.85,324.34Z" fill="#fff"/><path d="M147.11,328.49V309.87H157v17c0,3.22,1.27,4.8,4.07,4.8,3,0,4.9-1.75,4.9-5.41V309.87h9.85v28.56h-9.85V334c-1.54,2.95-4.35,5.08-9.13,5.08C151.24,339.08,147.11,335.7,147.11,328.49Z" fill="#fff"/><path d="M180.79,309.87h9.85v5.68c1.81-4.26,4.84-6.12,9.3-6.07v9.12c-6-.16-9.3,1.7-9.3,6.28v13.55h-9.85Z" fill="#fff"/><path d="M25,364.73H34.8V369a10.16,10.16,0,0,1,9-5c6.71,0,12.16,5,12.16,14.8v.44C55.93,389,50.48,394,43.71,394c-4.34,0-7.48-2-8.91-4.86v13.76H25Zm21,14.48v-.44c0-5-2.2-7.43-5.66-7.43s-5.73,2.57-5.73,7.37v.44c0,4.86,2.15,7.32,5.73,7.32S45.91,383.9,45.91,379.21Z" fill="#fff"/><path d="M57.86,385.38c0-6.72,5.72-9.34,15.29-9.34H75.9v-.66c0-2.73-.66-4.53-3.79-4.53a3.52,3.52,0,0,0-3.91,3.39H59C59.4,367.35,64.84,364,72.71,364s13,3.22,13,10.81v18.51H76.12V390c-1.37,2.08-3.9,4-8.52,4C62.42,394,57.86,391.44,57.86,385.38Zm18-2.08v-1.75H73.32c-4,0-5.72.77-5.72,3.12,0,1.63,1.1,2.67,3.41,2.67C73.81,387.34,75.9,385.76,75.9,383.3Z" fill="#fff"/><path d="M87.24,396.24c2.42-.16,3.52-1.14,3.52-3.38V364.73h9.8v28.35c0,6.17-2.92,10.26-13.32,10.26Zm3-39.26a5.12,5.12,0,0,1,5.39-5.08,5.06,5.06,0,1,1,0,10.1A5.08,5.08,0,0,1,90.27,357Z" fill="#fff"/><path d="M104.25,385.38c0-6.72,5.72-9.34,15.29-9.34h2.75v-.66c0-2.73-.66-4.53-3.79-4.53a3.52,3.52,0,0,0-3.91,3.39h-9.24c.44-6.89,5.88-10.27,13.75-10.27s13,3.22,13,10.81v18.51h-9.58V390c-1.37,2.08-3.9,4-8.53,4C108.81,394,104.25,391.44,104.25,385.38Zm18-2.08v-1.75h-2.58c-4,0-5.73.77-5.73,3.12,0,1.63,1.1,2.67,3.42,2.67C120.2,387.34,122.29,385.76,122.29,383.3Z" fill="#fff"/><path d="M136.88,364.73h9.85v4.37a10.06,10.06,0,0,1,9-5.13c3.8,0,6.44,1.64,7.81,4.75a11.45,11.45,0,0,1,9.52-4.75c5.45,0,9.41,3.49,9.41,10.65v18.67h-9.85v-17c0-2.9-1.43-4.32-3.68-4.32-2.65,0-4.41,1.69-4.41,4.81v16.54h-9.74v-17c0-2.9-1.43-4.32-3.68-4.32-2.64,0-4.4,1.69-4.4,4.81v16.54h-9.85Z" fill="#fff"/><path d="M185.63,385.38c0-6.72,5.73-9.34,15.3-9.34h2.75v-.66c0-2.73-.66-4.53-3.8-4.53a3.52,3.52,0,0,0-3.9,3.39h-9.25c.44-6.89,5.89-10.27,13.76-10.27s13,3.22,13,10.81v18.51H203.9V390c-1.38,2.08-3.91,4-8.53,4C190.2,394,185.63,391.44,185.63,385.38Zm18.05-2.08v-1.75h-2.59c-4,0-5.72.77-5.72,3.12,0,1.63,1.1,2.67,3.41,2.67C201.59,387.34,203.68,385.76,203.68,383.3Z" fill="#fff"/><path d="M216.34,384.23h9.08c.33,2.07,1.26,3.22,4.07,3.22,2.42,0,3.52-.93,3.52-2.35s-1.38-2-5.34-2.56c-7.7-1-10.95-3.23-10.95-9.18,0-6.33,5.67-9.39,12.33-9.39,7.1,0,12,2.4,12.71,9.23h-8.92c-.38-1.91-1.43-2.84-3.68-2.84s-3.25.93-3.25,2.24,1.32,1.91,4.84,2.35c8,1,11.83,3.05,11.83,9.17,0,6.77-5.06,9.83-13,9.83C221.34,394,216.56,390.56,216.34,384.23Z" fill="#fff"/><path d="M245.39,388.38a5.47,5.47,0,0,1,5.62-5.52,5.53,5.53,0,1,1,0,11A5.47,5.47,0,0,1,245.39,388.38Z" fill="#fff"/></svg>