<svg xmlns="http://www.w3.org/2000/svg" viewBox="0 0 160 600"><title>Asset 1</title><rect width="160" height="600" fill="none"/><path d="M26.12,83.83H19.69v-5.5h20v5.5H33.28V103.2H26.12Z" fill="#fff"/><path d="M41.76,77H48V87.93a6.41,6.41,0,0,1,6-3.41c3.51,0,5.94,2.19,5.94,6.85V103.2H53.68V92.63c0-2.06-.8-3.06-2.61-3.06S48,90.68,48,93V103.2H41.76Z" fill="#fff"/><path d="M62,94.33v-.28c0-5.84,4.34-9.53,9.84-9.53,5,0,9.24,2.86,9.24,9.39v1.64H68.24c.17,2.4,1.56,3.79,3.79,3.79,2,0,2.92-.94,3.16-2.16H81c-.56,4.11-3.72,6.44-9.21,6.44C66.12,103.62,62,100.28,62,94.33ZM75,92c-.1-2.2-1.18-3.41-3.19-3.41S68.62,89.84,68.31,92Z" fill="#fff"/><path d="M19.83,131.33v-.28c0-5.84,4.34-9.53,9.83-9.53,5,0,9.25,2.86,9.25,9.39v1.64H26.12c.17,2.4,1.56,3.79,3.79,3.79,2.05,0,2.92-.94,3.16-2.16h5.84c-.56,4.11-3.72,6.44-9.21,6.44C24,140.62,19.83,137.28,19.83,131.33Zm13-2.29c-.1-2.2-1.18-3.41-3.2-3.41s-3.16,1.21-3.47,3.41Z" fill="#fff"/><path d="M40.19,135.16c0-4.28,3.62-5.95,9.66-5.95h1.74v-.42c0-1.74-.41-2.88-2.4-2.88a2.22,2.22,0,0,0-2.46,2.15H40.89c.28-4.38,3.72-6.54,8.69-6.54s8.2,2.06,8.2,6.89V140.2H51.73v-2.12c-.87,1.32-2.47,2.54-5.39,2.54C43.08,140.62,40.19,139,40.19,135.16Zm11.4-1.33v-1.11H50c-2.5,0-3.62.49-3.62,2,0,1.05.7,1.71,2.16,1.71C50.27,136.41,51.59,135.4,51.59,133.83Z" fill="#fff"/><path d="M59.58,134.43h5.74c.21,1.32.8,2,2.57,2,1.53,0,2.23-.59,2.23-1.5s-.87-1.29-3.38-1.63c-4.86-.63-6.91-2-6.91-5.85,0-4,3.58-6,7.78-6,4.49,0,7.62,1.53,8,5.88H70a2,2,0,0,0-2.33-1.81c-1.35,0-2.05.59-2.05,1.43s.84,1.22,3.06,1.49c5,.63,7.47,2,7.47,5.85,0,4.31-3.19,6.26-8.23,6.26S59.72,138.46,59.58,134.43Z" fill="#fff"/><path d="M78,117.07a3.25,3.25,0,0,1,3.4-3.23,3.22,3.22,0,1,1,0,6.43A3.22,3.22,0,0,1,78,117.07Zm.31,4.94h6.22V140.2H78.35Z" fill="#fff"/><path d="M86.94,131.33v-.28c0-5.84,4.34-9.53,9.83-9.53,5,0,9.25,2.86,9.25,9.39v1.64H93.23c.17,2.4,1.56,3.79,3.79,3.79,2,0,2.92-.94,3.16-2.16H106c-.56,4.11-3.72,6.44-9.21,6.44C91.11,140.62,86.94,137.28,86.94,131.33ZM100,129c-.1-2.2-1.18-3.41-3.2-3.41-1.87,0-3.16,1.21-3.47,3.41Z" fill="#fff"/><path d="M107.13,134.43h5.73c.21,1.32.8,2,2.57,2,1.53,0,2.23-.59,2.23-1.5s-.87-1.29-3.37-1.63c-4.87-.63-6.92-2-6.92-5.85,0-4,3.58-6,7.79-6,4.48,0,7.61,1.53,8,5.88h-5.63a2,2,0,0,0-2.33-1.81c-1.35,0-2,.59-2,1.43s.84,1.22,3.06,1.49c5,.63,7.48,2,7.48,5.85,0,4.31-3.2,6.26-8.24,6.26S107.26,138.46,107.13,134.43Z" fill="#fff"/><path d="M126.55,134.36v-8.11h-2.19V122h2.19v-3.79h6.23V122h3.58v4.24h-3.58v7.51c0,1.33.66,1.92,1.84,1.92a4.73,4.73,0,0,0,1.77-.32v4.73a12.93,12.93,0,0,1-3.44.53C128.85,140.62,126.55,138.63,126.55,134.36Z" fill="#fff"/><path d="M19.27,159h6.5l2.64,10.89L31.47,159h5l2.71,10.89,3-10.89h5.91L42.28,177.2H36.34L33.63,167,30.81,177.2h-6Z" fill="#fff"/><path d="M47.91,172.16c0-4.28,3.61-5.95,9.66-5.95h1.74v-.42c0-1.74-.42-2.88-2.4-2.88a2.23,2.23,0,0,0-2.47,2.15H48.6c.28-4.38,3.72-6.54,8.69-6.54s8.21,2.06,8.21,6.89V177.2h-6v-2.12c-.87,1.32-2.47,2.54-5.39,2.54C50.79,177.62,47.91,176,47.91,172.16Zm11.4-1.33v-1.11H57.67c-2.5,0-3.61.49-3.61,2,0,1.05.69,1.71,2.15,1.71C58,173.41,59.31,172.4,59.31,170.83Z" fill="#fff"/><path d="M73.59,175.35,66.33,159h6.74l3.75,9.7L80.3,159h5.94l-9.73,24.27H70.57Z" fill="#fff"/><path d="M21.63,208.36v-8.11H19.44V196h2.19v-3.79h6.23V196h3.58v4.24H27.86v7.51c0,1.33.66,1.92,1.84,1.92a4.69,4.69,0,0,0,1.77-.32v4.73a12.93,12.93,0,0,1-3.44.53C23.93,214.62,21.63,212.63,21.63,208.36Z" fill="#fff"/><path d="M32.82,205.33v-.28c0-5.84,4.35-9.53,10-9.53s9.91,3.59,9.91,9.36v.28c0,5.91-4.35,9.46-9.94,9.46S32.82,211.21,32.82,205.33Zm13.56-.1V205c0-3.06-1.22-4.77-3.58-4.77s-3.61,1.64-3.61,4.7v.28c0,3.13,1.21,4.83,3.61,4.83S46.38,208.25,46.38,205.23Z" fill="#fff"/><path d="M60.21,214.2H66.4c.28,1.32,1.08,2.36,3.33,2.36,2.75,0,3.86-1.56,3.86-3.82V210A6.39,6.39,0,0,1,68,213.29c-4.24,0-7.71-3.13-7.71-8.73v-.27c0-5.36,3.44-8.77,7.71-8.77a5.91,5.91,0,0,1,5.63,3.06V196h6.22v16.66c0,5.42-3.58,8.27-10.08,8.27C63.55,220.94,60.7,218.34,60.21,214.2Zm13.56-9.67v-.24c0-2.51-1.29-4.11-3.58-4.11s-3.58,1.64-3.58,4.14v.28c0,2.5,1.32,4.1,3.54,4.1S73.77,207.1,73.77,204.53Z" fill="#fff"/><path d="M82,205.33v-.28c0-5.84,4.35-9.53,9.84-9.53,5,0,9.24,2.86,9.24,9.39v1.64H88.29c.18,2.4,1.57,3.79,3.79,3.79,2,0,2.92-.94,3.16-2.16h5.84c-.55,4.11-3.72,6.44-9.21,6.44C86.17,214.62,82,211.28,82,205.33ZM95,203c-.11-2.2-1.19-3.41-3.2-3.41s-3.17,1.21-3.48,3.41Z" fill="#fff"/><path d="M104.07,208.36v-8.11h-2.19V196h2.19v-3.79h6.22V196h3.58v4.24h-3.58v7.51c0,1.33.66,1.92,1.84,1.92a4.75,4.75,0,0,0,1.78-.32v4.73a13,13,0,0,1-3.45.53C106.36,214.62,104.07,212.63,104.07,208.36Z" fill="#fff"/><path d="M21.63,245.36v-8.11H19.44V233h2.19v-3.79h6.23V233h3.58v4.24H27.86v7.51c0,1.33.66,1.92,1.84,1.92a4.69,4.69,0,0,0,1.77-.32v4.73a12.93,12.93,0,0,1-3.44.53C23.93,251.62,21.63,249.63,21.63,245.36Z" fill="#fff"/><path d="M32.82,246.16c0-4.28,3.62-5.95,9.67-5.95h1.74v-.42c0-1.74-.42-2.88-2.4-2.88a2.23,2.23,0,0,0-2.47,2.15H33.52c.28-4.38,3.72-6.54,8.69-6.54s8.2,2.06,8.2,6.89V251.2h-6v-2.12c-.86,1.32-2.46,2.54-5.38,2.54C35.71,251.62,32.82,250,32.82,246.16Zm11.41-1.33v-1.11H42.59c-2.5,0-3.61.49-3.61,2,0,1.05.69,1.71,2.15,1.71C42.9,247.41,44.23,246.4,44.23,244.83Z" fill="#fff"/><path d="M58,242,52.36,233h7.16l2.81,4.8,2.75-4.8h6.39l-5.73,8.45L72,251.2H64.87l-3.23-5.43-3.31,5.43H52Z" fill="#fff"/><path d="M71.23,242.33v-.28c0-5.84,4.34-9.53,9.83-9.53,5,0,9.25,2.86,9.25,9.39v1.64H77.52c.17,2.4,1.56,3.79,3.79,3.79,2,0,2.92-.94,3.16-2.16h5.84c-.56,4.11-3.72,6.44-9.21,6.44C75.4,251.62,71.23,248.28,71.23,242.33Zm13-2.29c-.1-2.2-1.18-3.41-3.2-3.41s-3.16,1.21-3.47,3.41Z" fill="#fff"/><path d="M91.42,245.43h5.73c.21,1.32.8,2,2.58,2,1.52,0,2.22-.59,2.22-1.5s-.87-1.29-3.37-1.63c-4.87-.63-6.92-2-6.92-5.85,0-4,3.58-6,7.79-6,4.48,0,7.61,1.53,8,5.88h-5.63a2,2,0,0,0-2.33-1.81c-1.36,0-2,.59-2,1.43s.83,1.22,3,1.49c5,.63,7.48,2,7.48,5.85,0,4.31-3.2,6.26-8.24,6.26S91.56,249.46,91.42,245.43Z" fill="#fff"/><path d="M19.9,279.3V279c0-6.19,3.4-9.5,7.71-9.5a5.9,5.9,0,0,1,5.6,3.06V262h6.22V288.2H33.21v-3a6.13,6.13,0,0,1-5.67,3.38C23.34,288.62,19.9,285.59,19.9,279.3Zm13.48-.11v-.28c0-3.06-1.28-4.69-3.58-4.69s-3.58,1.56-3.58,4.73v.28c0,3.06,1.36,4.62,3.51,4.62S33.38,282.29,33.38,279.19Z" fill="#fff"/><path d="M41.62,279.33v-.28c0-5.84,4.34-9.53,10-9.53s9.91,3.59,9.91,9.36v.28c0,5.91-4.35,9.46-9.94,9.46S41.62,285.21,41.62,279.33Zm13.55-.1V279c0-3.06-1.21-4.77-3.58-4.77S48,275.82,48,278.88v.28c0,3.13,1.21,4.83,3.61,4.83S55.17,282.25,55.17,279.23Z" fill="#fff"/><path d="M63.69,270h6.22v2.92a6.41,6.41,0,0,1,6-3.41c3.51,0,5.94,2.19,5.94,6.85V288.2H75.61V277.63c0-2.06-.8-3.06-2.61-3.06s-3.09,1.11-3.09,3.44V288.2H63.69Z" fill="#fff"/><path d="M83.88,279.33v-.28c0-5.84,4.34-9.53,9.83-9.53,5,0,9.25,2.86,9.25,9.39v1.64H90.17c.17,2.4,1.56,3.79,3.79,3.79,2.05,0,2.92-.94,3.16-2.16H103c-.56,4.11-3.72,6.44-9.21,6.44C88.05,288.62,83.88,285.28,83.88,279.33Zm13-2.29c-.1-2.2-1.18-3.41-3.2-3.41-1.87,0-3.16,1.21-3.47,3.41Z" fill="#fff"/><path d="M21.74,311.25h-2.3V307h2.3v-1.6c0-4.52,2.81-6.68,7.12-6.68a11,11,0,0,1,2.85.39v4.55a5.64,5.64,0,0,0-1.7-.24,1.82,1.82,0,0,0-2.08,2V307h3.68v4.24H27.93V325.2H21.74Z" fill="#fff"/><path d="M32.1,316.33v-.28c0-5.84,4.34-9.53,10-9.53S52,310.11,52,315.88v.28c0,5.91-4.35,9.46-9.94,9.46S32.1,322.21,32.1,316.33Zm13.55-.1V316c0-3.06-1.22-4.77-3.58-4.77s-3.61,1.64-3.61,4.7v.28c0,3.13,1.21,4.83,3.61,4.83S45.65,319.25,45.65,316.23Z" fill="#fff"/><path d="M54.16,307h6.23v3.62a5.71,5.71,0,0,1,5.87-3.86v5.81c-3.79-.11-5.87,1.07-5.87,4v8.63H54.16Z" fill="#fff"/><path d="M26.5,360.36,19.24,344H26l3.75,9.7,3.48-9.7h5.94l-9.73,24.27H23.48Z" fill="#fff"/><path d="M38.8,353.33v-.28c0-5.84,4.35-9.53,10-9.53s9.9,3.59,9.9,9.36v.28c0,5.91-4.34,9.46-9.94,9.46S38.8,359.21,38.8,353.33Zm13.56-.1V353c0-3.06-1.22-4.77-3.58-4.77s-3.62,1.64-3.62,4.7v.28c0,3.13,1.22,4.83,3.62,4.83S52.36,356.25,52.36,353.23Z" fill="#fff"/><path d="M60.73,355.87V344H67v10.85c0,2.05.8,3.06,2.58,3.06s3.09-1.11,3.09-3.44V344h6.22V362.2H72.62v-2.82a6,6,0,0,1-5.77,3.24C63.34,362.62,60.73,360.46,60.73,355.87Z" fill="#fff"/><path d="M81.76,359.07a3.46,3.46,0,0,1,3.54-3.51,3.51,3.51,0,1,1,0,7A3.46,3.46,0,0,1,81.76,359.07Z" fill="#fff"/></svg>