<svg xmlns="http://www.w3.org/2000/svg" viewBox="0 0 728 90"><title>txt</title><g id="Layer_2" data-name="Layer 2"><g id="Expert_tax_prep_without_the_office_visit._Tax_Pro_Go." data-name="Expert tax prep, without the office visit. Tax Pro Go."><path d="M122.18,17.55h15.6v5h-9.16v3.88h7.3v4.62h-7.3v4.1h9.67v5H122.18Z" fill="#fff"/><path d="M144.76,31.74l-5.15-8.12h6.51L148.68,28l2.49-4.36H157l-5.21,7.68,5.72,8.85H151l-2.93-4.93-3,4.93h-5.78Z" fill="#fff"/><path d="M159.07,23.62h5.65v2.46a5.82,5.82,0,0,1,5.15-2.9c3.85,0,7,2.9,7,8.56V32c0,5.69-3.13,8.54-7,8.54a5.44,5.44,0,0,1-5.12-2.82v8h-5.65Zm12,8.37v-.25c0-2.91-1.26-4.3-3.25-4.3s-3.29,1.49-3.29,4.27V32c0,2.82,1.23,4.24,3.29,4.24S171.1,34.71,171.1,32Z" fill="#fff"/><path d="M178,32.09v-.25c0-5.31,4-8.66,8.94-8.66,4.52,0,8.4,2.59,8.4,8.53V33.2H183.73c.16,2.18,1.42,3.44,3.44,3.44s2.66-.85,2.88-2h5.3c-.5,3.73-3.37,5.85-8.37,5.85C181.8,40.53,178,37.49,178,32.09ZM189.86,30c-.1-2-1.07-3.09-2.91-3.09S184.08,28,183.79,30Z" fill="#fff"/><path d="M197.31,23.62H203v3.29a5.21,5.21,0,0,1,5.34-3.51v5.28c-3.44-.1-5.34,1-5.34,3.63v7.84h-5.65Z" fill="#fff"/><path d="M211.36,34.84V27.48h-2V23.62h2V20.18H217v3.44h3.25v3.86H217V34.3c0,1.2.6,1.74,1.67,1.74a4.28,4.28,0,0,0,1.61-.29v4.3a11.74,11.74,0,0,1-3.12.48C213.45,40.53,211.36,38.73,211.36,34.84Z" fill="#fff"/><path d="M228.92,34.84V27.48h-2V23.62h2V20.18h5.66v3.44h3.25v3.86h-3.25V34.3c0,1.2.6,1.74,1.67,1.74a4.28,4.28,0,0,0,1.61-.29v4.3a11.83,11.83,0,0,1-3.13.48C231,40.53,228.92,38.73,228.92,34.84Z" fill="#fff"/><path d="M239.09,35.57c0-3.89,3.29-5.41,8.78-5.41h1.58v-.38c0-1.58-.38-2.62-2.18-2.62a2,2,0,0,0-2.24,2h-5.31c.26-4,3.38-5.94,7.9-5.94s7.45,1.86,7.45,6.25V40.15h-5.49V38.22a5.44,5.44,0,0,1-4.9,2.31C241.71,40.53,239.09,39.07,239.09,35.57Zm10.36-1.21v-1H248c-2.28,0-3.29.45-3.29,1.8,0,1,.63,1.55,2,1.55C248.25,36.7,249.45,35.79,249.45,34.36Z" fill="#fff"/><path d="M262,31.74l-5.15-8.12h6.51L265.9,28l2.5-4.36h5.81L269,31.3l5.72,8.85h-6.51l-2.94-4.93-3,4.93h-5.78Z" fill="#fff"/><path d="M282,23.62h5.65v2.46a5.84,5.84,0,0,1,5.15-2.9c3.86,0,7,2.9,7,8.56V32c0,5.69-3.12,8.54-7,8.54a5.46,5.46,0,0,1-5.12-2.82v8H282Zm12,8.37v-.25c0-2.91-1.26-4.3-3.25-4.3s-3.28,1.49-3.28,4.27V32c0,2.82,1.23,4.24,3.28,4.24S294.07,34.71,294.07,32Z" fill="#fff"/><path d="M301.87,23.62h5.66v3.29a5.2,5.2,0,0,1,5.34-3.51v5.28c-3.45-.1-5.34,1-5.34,3.63v7.84h-5.66Z" fill="#fff"/><path d="M313.87,32.09v-.25c0-5.31,3.95-8.66,8.94-8.66,4.52,0,8.41,2.59,8.41,8.53V33.2H319.59c.16,2.18,1.42,3.44,3.44,3.44s2.66-.85,2.88-2h5.31c-.51,3.73-3.38,5.85-8.38,5.85C317.67,40.53,313.87,37.49,313.87,32.09ZM325.72,30c-.1-2-1.07-3.09-2.91-3.09S319.94,28,319.65,30Z" fill="#fff"/><path d="M333.17,23.62h5.65v2.46a5.84,5.84,0,0,1,5.15-2.9c3.86,0,7,2.9,7,8.56V32c0,5.69-3.12,8.54-7,8.54a5.46,5.46,0,0,1-5.12-2.82v8h-5.65Zm12,8.37v-.25c0-2.91-1.26-4.3-3.25-4.3s-3.28,1.49-3.28,4.27V32c0,2.82,1.23,4.24,3.28,4.24S345.2,34.71,345.2,32Z" fill="#fff"/><path d="M351.42,42.71l2.66-8.31,5.24,1.86L354.77,44Z" fill="#fff"/><path d="M366.14,23.62h5.91l2.4,9.89,2.78-9.89h4.55l2.46,9.89,2.68-9.89h5.37l-5.24,16.53h-5.4l-2.46-9.23-2.56,9.23h-5.5Z" fill="#fff"/><path d="M393.62,19.13a3,3,0,0,1,3.09-2.94,2.93,2.93,0,1,1,0,5.85A2.92,2.92,0,0,1,393.62,19.13Zm.28,4.49h5.65V40.15H393.9Z" fill="#fff"/><path d="M403.34,34.84V27.48h-2V23.62h2V20.18H409v3.44h3.25v3.86H409V34.3c0,1.2.6,1.74,1.67,1.74a4.28,4.28,0,0,0,1.61-.29v4.3a11.74,11.74,0,0,1-3.12.48C405.43,40.53,403.34,38.73,403.34,34.84Z" fill="#fff"/><path d="M414.4,16.35h5.65v9.92a5.85,5.85,0,0,1,5.43-3.09c3.19,0,5.41,2,5.41,6.22V40.15h-5.66V30.54c0-1.86-.73-2.78-2.37-2.78s-2.81,1-2.81,3.13v9.26H414.4Z" fill="#fff"/><path d="M432.75,32.09v-.25c0-5.31,3.94-8.66,9.06-8.66s9,3.25,9,8.5v.25c0,5.37-3.95,8.6-9,8.6S432.75,37.43,432.75,32.09Zm12.31-.1v-.25c0-2.78-1.1-4.33-3.25-4.33s-3.28,1.49-3.28,4.27v.25c0,2.85,1.1,4.39,3.28,4.39S445.06,34.74,445.06,32Z" fill="#fff"/><path d="M452.67,34.4V23.62h5.66v9.86c0,1.86.72,2.78,2.34,2.78s2.81-1,2.81-3.13V23.62h5.65V40.15h-5.65V37.59a5.45,5.45,0,0,1-5.25,2.94C455,40.53,452.67,38.57,452.67,34.4Z" fill="#fff"/><path d="M472.76,34.84V27.48h-2V23.62h2V20.18h5.65v3.44h3.26v3.86h-3.26V34.3A1.51,1.51,0,0,0,480.09,36a4.32,4.32,0,0,0,1.61-.29v4.3a11.83,11.83,0,0,1-3.13.48C474.84,40.53,472.76,38.73,472.76,34.84Z" fill="#fff"/><path d="M490.32,34.84V27.48h-2V23.62h2V20.18H496v3.44h3.26v3.86H496V34.3A1.51,1.51,0,0,0,497.65,36a4.32,4.32,0,0,0,1.61-.29v4.3a11.83,11.83,0,0,1-3.13.48C492.4,40.53,490.32,38.73,490.32,34.84Z" fill="#fff"/><path d="M501.37,16.35H507v9.92a5.83,5.83,0,0,1,5.43-3.09c3.19,0,5.4,2,5.4,6.22V40.15h-5.65V30.54c0-1.86-.73-2.78-2.37-2.78s-2.81,1-2.81,3.13v9.26h-5.66Z" fill="#fff"/><path d="M519.72,32.09v-.25c0-5.31,3.95-8.66,8.94-8.66,4.52,0,8.4,2.59,8.4,8.53V33.2H525.44c.16,2.18,1.42,3.44,3.44,3.44,1.86,0,2.65-.85,2.87-2h5.31c-.5,3.73-3.38,5.85-8.37,5.85C523.51,40.53,519.72,37.49,519.72,32.09ZM531.56,30c-.09-2-1.07-3.09-2.9-3.09S525.79,28,525.5,30Z" fill="#fff"/><path d="M120.79,65.75V65.5c0-5.31,3.95-8.66,9.06-8.66s9,3.26,9,8.5v.26c0,5.37-4,8.59-9,8.59S120.79,71.09,120.79,65.75Zm12.32-.09v-.25c0-2.79-1.11-4.33-3.26-4.33s-3.28,1.48-3.28,4.26v.26c0,2.84,1.11,4.39,3.28,4.39S133.11,68.41,133.11,65.66Z" fill="#fff"/><path d="M141.7,61.14h-2.09V57.28h2.09V56c0-4.11,2.52-6,6.44-6a9.51,9.51,0,0,1,2.53.32v4.14a4.89,4.89,0,0,0-1.52-.22,1.65,1.65,0,0,0-1.83,1.8v1.26h4.8V55.83c0-4.11,2.59-6.07,6.48-6.07a10.07,10.07,0,0,1,2.59.35v4.14a5.15,5.15,0,0,0-1.55-.22,1.65,1.65,0,0,0-1.87,1.8v1.45h3.35v3.86h-3.35V73.81h-5.65V61.14h-4.8V73.81H141.7Z" fill="#fff"/><path d="M162.86,52.8A2.94,2.94,0,0,1,166,49.86a2.93,2.93,0,1,1,0,5.84A2.92,2.92,0,0,1,162.86,52.8Zm.28,4.48h5.65V73.81h-5.65Z" fill="#fff"/><path d="M170.94,65.75V65.5c0-5.5,3.95-8.66,8.81-8.66,4.05,0,7.77,1.77,8.09,6.8h-5.31a2.44,2.44,0,0,0-2.65-2.41c-2,0-3.16,1.43-3.16,4.21v.25c0,2.88,1.11,4.36,3.25,4.36a2.76,2.76,0,0,0,2.88-2.75h5.08c-.15,4.17-3,6.89-8.3,6.89C174.7,74.19,170.94,71.32,170.94,65.75Z" fill="#fff"/><path d="M188.88,65.75V65.5c0-5.31,4-8.66,8.94-8.66,4.51,0,8.4,2.59,8.4,8.53v1.49H194.6C194.75,69,196,70.3,198,70.3c1.86,0,2.65-.85,2.87-2h5.31c-.51,3.73-3.38,5.85-8.37,5.85C192.67,74.19,188.88,71.16,188.88,65.75Zm11.84-2.08c-.09-2-1.07-3.1-2.9-3.1s-2.88,1.11-3.16,3.1Z" fill="#fff"/><path d="M212.5,57.28h6L222,67.93l3.38-10.65h5.4l-6,16.53h-6.16Z" fill="#fff"/><path d="M232.05,52.8a3.12,3.12,0,1,1,3.09,2.9A3,3,0,0,1,232.05,52.8Zm.28,4.48H238V73.81h-5.66Z" fill="#fff"/><path d="M239.91,68.57h5.21c.19,1.2.73,1.86,2.34,1.86,1.39,0,2-.54,2-1.36s-.79-1.17-3.06-1.48c-4.42-.57-6.29-1.87-6.29-5.31,0-3.67,3.26-5.44,7.08-5.44,4.07,0,6.92,1.39,7.3,5.34h-5.12a1.85,1.85,0,0,0-2.12-1.64c-1.23,0-1.86.54-1.86,1.29s.76,1.11,2.78,1.36c4.58.57,6.79,1.77,6.79,5.31,0,3.92-2.91,5.69-7.49,5.69S240,72.23,239.91,68.57Z" fill="#fff"/><path d="M256.68,52.8a3.12,3.12,0,1,1,3.1,2.9A3,3,0,0,1,256.68,52.8Zm.29,4.48h5.65V73.81H257Z" fill="#fff"/><path d="M266.41,68.5V61.14h-2V57.28h2V53.84h5.65v3.44h3.26v3.86h-3.26V68a1.5,1.5,0,0,0,1.68,1.73,4.32,4.32,0,0,0,1.61-.28v4.3a11.89,11.89,0,0,1-3.13.47C268.49,74.19,266.41,72.39,266.41,68.5Z" fill="#fff"/><path d="M277.24,71a3.15,3.15,0,0,1,3.22-3.19,3.19,3.19,0,1,1,0,6.38A3.15,3.15,0,0,1,277.24,71Z" fill="#fff"/><path d="M297,56.21h-5.84v-5h18.19v5h-5.84v17.6H297Z" fill="#fff"/><path d="M308.22,69.23c0-3.89,3.29-5.4,8.78-5.4h1.58v-.38c0-1.58-.38-2.63-2.18-2.63a2,2,0,0,0-2.24,2h-5.31c.26-4,3.38-5.94,7.9-5.94s7.46,1.87,7.46,6.26V73.81h-5.5V71.88a5.43,5.43,0,0,1-4.9,2.31C310.84,74.19,308.22,72.74,308.22,69.23ZM318.58,68V67H317.1c-2.28,0-3.29.44-3.29,1.8,0,1,.63,1.55,2,1.55C317.38,70.37,318.58,69.45,318.58,68Z" fill="#fff"/><path d="M331.12,65.41,326,57.28h6.51L335,61.65l2.49-4.37h5.81L338.13,65l5.72,8.85h-6.51l-2.94-4.93-3,4.93h-5.78Z" fill="#fff"/><path d="M351.68,51.22h8.59c6.19,0,9.06,2.75,9.06,7.55v.13c0,4.74-3.19,7.3-8.78,7.3h-2.43v7.61h-6.44ZM360,61.77c2.09,0,3.19-1,3.19-2.84V58.8c0-1.93-1.13-2.72-3.15-2.72h-1.9v5.69Z" fill="#fff"/><path d="M371.29,57.28h5.65v3.29a5.21,5.21,0,0,1,5.34-3.51v5.28c-3.44-.09-5.34,1-5.34,3.63v7.84h-5.65Z" fill="#fff"/><path d="M383.29,65.75V65.5c0-5.31,3.95-8.66,9.06-8.66s9,3.26,9,8.5v.26c0,5.37-3.95,8.59-9,8.59S383.29,71.09,383.29,65.75Zm12.32-.09v-.25c0-2.79-1.11-4.33-3.26-4.33s-3.28,1.48-3.28,4.26v.26c0,2.84,1.1,4.39,3.28,4.39S395.61,68.41,395.61,65.66Z" fill="#fff"/><path d="M408.4,62.66V62.4c0-6.89,5.05-11.53,11.84-11.53,5.34,0,10.08,2.43,10.52,8.31h-6.41C424,57.06,422.67,56,420.27,56c-3.19,0-5.11,2.46-5.11,6.54v.25c0,3.67,1.35,6.51,5.27,6.51,3.16,0,4.36-1.61,4.49-3.41h-4.24V61.33H431.3v2.78c0,5.75-3.76,10.08-11.06,10.08C412.57,74.19,408.4,69.42,408.4,62.66Z" fill="#fff"/><path d="M432.59,65.75V65.5c0-5.31,4-8.66,9.06-8.66s9,3.26,9,8.5v.26c0,5.37-3.94,8.59-9,8.59S432.59,71.09,432.59,65.75Zm12.32-.09v-.25c0-2.79-1.11-4.33-3.26-4.33s-3.28,1.48-3.28,4.26v.26c0,2.84,1.1,4.39,3.28,4.39S444.91,68.41,444.91,65.66Z" fill="#fff"/><path d="M451.73,71A3.14,3.14,0,0,1,455,67.78a3.19,3.19,0,1,1,0,6.38A3.14,3.14,0,0,1,451.73,71Z" fill="#fff"/><rect width="728" height="90" fill="none"/></g></g></svg>