<svg xmlns="http://www.w3.org/2000/svg" viewBox="0 0 160 600"><title>Asset 6</title><rect width="160" height="600" fill="none"/><path d="M21.77,116.77h7.45c7.27,0,11,3.64,11,10V127c0,6.39-3.78,10.26-11,10.26H21.77Zm7.25,16c3.49,0,5-1.83,5-5.64v-.23c0-3.9-1.54-5.56-5.09-5.56H27.67v11.43Z" fill="#fff"/><path d="M41.35,130v-.23c0-4.81,3.58-7.85,8.22-7.85s8.16,2.95,8.16,7.71v.23c0,4.87-3.58,7.79-8.19,7.79S41.35,134.8,41.35,130Zm11.17-.08v-.23c0-2.52-1-3.93-3-3.93s-3,1.35-3,3.87v.23c0,2.58,1,4,3,4S52.52,132.36,52.52,129.87Z" fill="#fff"/><path d="M59.53,122.27h5.13v2.41a5.27,5.27,0,0,1,4.92-2.81c2.89,0,4.89,1.81,4.89,5.65v9.74H69.35v-8.71c0-1.69-.66-2.52-2.15-2.52s-2.54.92-2.54,2.84v8.39H59.53Z" fill="#fff"/><path d="M76,116.77h5l-.6,7.88H76.54Z" fill="#fff"/><path d="M84.18,132.45v-6.68h-1.8v-3.5h1.8v-3.12H89.3v3.12h3v3.5h-3V132a1.37,1.37,0,0,0,1.52,1.58,4,4,0,0,0,1.46-.26v3.9a10.88,10.88,0,0,1-2.83.42C86.07,137.6,84.18,136,84.18,132.45Z" fill="#fff"/><path d="M98.66,129.93v-.23c0-5.1,2.81-7.83,6.36-7.83a4.87,4.87,0,0,1,4.61,2.52v-8.71h5.12v21.58h-5.12v-2.43A5.06,5.06,0,0,1,105,137.6C101.5,137.6,98.66,135.11,98.66,129.93Zm11.11-.09v-.23c0-2.52-1.06-3.87-3-3.87s-2.95,1.29-2.95,3.9v.23c0,2.52,1.12,3.81,2.9,3.81S109.77,132.39,109.77,129.84Z" fill="#fff"/><path d="M116.56,130v-.23c0-4.81,3.57-7.85,8.21-7.85s8.16,2.95,8.16,7.71v.23c0,4.87-3.58,7.79-8.19,7.79S116.56,134.8,116.56,130Zm11.16-.08v-.23c0-2.52-1-3.93-3-3.93s-3,1.35-3,3.87v.23c0,2.58,1,4,3,4S127.72,132.36,127.72,129.87Z" fill="#fff"/><path d="M22,169.79v-6.68H20.2v-3.49H22v-3.13h5.13v3.13h2.94v3.49H27.13v6.19c0,1.09.54,1.58,1.51,1.58a3.88,3.88,0,0,0,1.46-.26v3.9a10.81,10.81,0,0,1-2.83.43C23.89,175,22,173.31,22,169.79Z" fill="#fff"/><path d="M31.22,170.45c0-3.53,3-4.9,8-4.9h1.43v-.35c0-1.43-.34-2.37-2-2.37a1.84,1.84,0,0,0-2,1.77H31.79c.23-3.61,3.07-5.38,7.16-5.38s6.75,1.69,6.75,5.67v9.71h-5v-1.74A4.92,4.92,0,0,1,36.29,175C33.6,175,31.22,173.63,31.22,170.45Zm9.39-1.09v-.92H39.26c-2.06,0-3,.4-3,1.64,0,.86.57,1.4,1.77,1.4C39.52,171.48,40.61,170.65,40.61,169.36Z" fill="#fff"/><path d="M52,167l-4.66-7.36H53.2l2.32,3.95,2.26-3.95h5.27l-4.72,7,5.18,8h-5.9L55,170.13l-2.72,4.47H47Z" fill="#fff"/><path d="M62.85,167.3v-.23c0-4.82,3.58-7.85,8.1-7.85,4.1,0,7.62,2.34,7.62,7.73v1.35H68c.15,2,1.29,3.12,3.12,3.12s2.41-.77,2.61-1.77h4.81C78.11,173,75.5,175,71,175,66.29,175,62.85,172.2,62.85,167.3Zm10.74-1.9c-.09-1.8-1-2.8-2.64-2.8s-2.6,1-2.86,2.8Z" fill="#fff"/><path d="M79.48,169.85h4.73c.17,1.09.65,1.69,2.11,1.69,1.26,0,1.84-.49,1.84-1.23s-.72-1.07-2.78-1.35c-4-.52-5.7-1.69-5.7-4.82,0-3.32,2.95-4.92,6.42-4.92,3.69,0,6.26,1.26,6.61,4.84H88.07a1.67,1.67,0,0,0-1.92-1.49c-1.11,0-1.69.49-1.69,1.17s.69,1,2.52,1.24c4.15.51,6.16,1.6,6.16,4.81,0,3.55-2.64,5.16-6.79,5.16S79.6,173.17,79.48,169.85Z" fill="#fff"/><path d="M94.6,172a2.85,2.85,0,0,1,2.92-2.89,2.9,2.9,0,1,1,0,5.79A2.86,2.86,0,0,1,94.6,172Z" fill="#fff"/><path d="M21.77,191.46h5.9v15.93H35.4V212H21.77Z" fill="#fff"/><path d="M36.26,204.64v-.23c0-4.81,3.58-7.85,8.1-7.85,4.09,0,7.61,2.35,7.61,7.73v1.35H41.44a3,3,0,0,0,3.12,3.13c1.69,0,2.4-.78,2.61-1.78H52c-.45,3.38-3.06,5.3-7.58,5.3C39.69,212.29,36.26,209.54,36.26,204.64ZM47,202.75c-.08-1.81-1-2.81-2.63-2.81s-2.61,1-2.86,2.81Z" fill="#fff"/><path d="M54.44,207.13v-6.68H52.63V197h1.81v-3.13h5.12V197h2.95v3.49H59.56v6.19c0,1.09.54,1.58,1.52,1.58a4,4,0,0,0,1.46-.26v3.9a10.83,10.83,0,0,1-2.84.43C56.33,212.29,54.44,210.66,54.44,207.13Z" fill="#fff"/><path d="M68.81,207.79c0-3.52,3-4.9,8-4.9H78.2v-.34c0-1.44-.35-2.38-2-2.38a1.84,1.84,0,0,0-2,1.77H69.38c.23-3.61,3.06-5.38,7.16-5.38s6.75,1.69,6.75,5.67V212h-5V210.2a4.92,4.92,0,0,1-4.44,2.09C71.18,212.29,68.81,211,68.81,207.79Zm9.39-1.09v-.92H76.85c-2.06,0-3,.41-3,1.64,0,.86.58,1.4,1.78,1.4C77.11,208.82,78.2,208,78.2,206.7Z" fill="#fff"/><path d="M91.68,207.13v-6.68h-1.8V197h1.8v-3.13H96.8V197h3v3.49h-3v6.19a1.37,1.37,0,0,0,1.52,1.58,4,4,0,0,0,1.46-.26v3.9a10.81,10.81,0,0,1-2.83.43C93.57,212.29,91.68,210.66,91.68,207.13Z" fill="#fff"/><path d="M100.9,207.79c0-3.52,3-4.9,7.95-4.9h1.44v-.34c0-1.44-.35-2.38-2-2.38a1.84,1.84,0,0,0-2,1.77h-4.81c.23-3.61,3.06-5.38,7.16-5.38s6.75,1.69,6.75,5.67V212h-5V210.2a4.92,4.92,0,0,1-4.44,2.09C103.27,212.29,100.9,211,100.9,207.79Zm9.39-1.09v-.92h-1.35c-2.06,0-3,.41-3,1.64,0,.86.58,1.4,1.78,1.4C109.2,208.82,110.29,208,110.29,206.7Z" fill="#fff"/><path d="M121.65,204.32,117,197h5.9l2.32,3.95,2.26-3.95h5.27l-4.73,7,5.19,8h-5.9l-2.66-4.47L121.91,212h-5.24Z" fill="#fff"/><path d="M21.31,234.3h5.13v2.24a5.26,5.26,0,0,1,4.66-2.64c3.5,0,6.33,2.64,6.33,7.77v.23c0,5.15-2.83,7.73-6.35,7.73a4.93,4.93,0,0,1-4.64-2.55v7.22H21.31Zm10.91,7.6v-.23c0-2.64-1.14-3.9-2.95-3.9s-3,1.35-3,3.87v.23c0,2.55,1.11,3.84,3,3.84S32.22,244.36,32.22,241.9Z" fill="#fff"/><path d="M39.29,234.3h5.13v3a4.72,4.72,0,0,1,4.83-3.18v4.79c-3.12-.09-4.83.88-4.83,3.29v7.11H39.29Z" fill="#fff"/><path d="M50.17,242v-.23c0-4.81,3.58-7.85,8.22-7.85s8.15,2.95,8.15,7.71v.23c0,4.87-3.57,7.79-8.18,7.79S50.17,246.82,50.17,242Zm11.16-.08v-.23c0-2.53-1-3.93-2.94-3.93s-3,1.35-3,3.87v.23c0,2.58,1,4,3,4S61.33,244.39,61.33,241.9Z" fill="#fff"/><path d="M72.81,242v-.23c0-5.1,2.81-7.82,6.36-7.82a4.85,4.85,0,0,1,4.61,2.52v-8.71H88.9v21.58H83.78v-2.44a5.05,5.05,0,0,1-4.67,2.78C75.65,249.63,72.81,247.14,72.81,242Zm11.11-.08v-.23c0-2.52-1.06-3.87-3-3.87s-3,1.29-3,3.9v.23c0,2.52,1.12,3.81,2.9,3.81S83.92,244.42,83.92,241.87Z" fill="#fff"/><path d="M90.71,242v-.23c0-4.81,3.57-7.85,8.21-7.85s8.16,2.95,8.16,7.71v.23c0,4.87-3.58,7.79-8.19,7.79S90.71,246.82,90.71,242Zm11.16-.08v-.23c0-2.53-1-3.93-3-3.93s-3,1.35-3,3.87v.23c0,2.58,1,4,3,4S101.87,244.39,101.87,241.9Z" fill="#fff"/><path d="M22,281.82v-6.68H20.2v-3.5H22v-3.12h5.13v3.12h2.94v3.5H27.13v6.19c0,1.09.54,1.57,1.51,1.57a3.89,3.89,0,0,0,1.46-.25v3.89a10.41,10.41,0,0,1-2.83.43C23.89,287,22,285.34,22,281.82Z" fill="#fff"/><path d="M32,265.05h5.13v9a5.27,5.27,0,0,1,4.92-2.81c2.89,0,4.89,1.81,4.89,5.65v9.74H41.84v-8.71c0-1.69-.66-2.52-2.15-2.52s-2.54.91-2.54,2.83v8.4H32Z" fill="#fff"/><path d="M48.65,279.32v-.23c0-4.81,3.58-7.85,8.1-7.85,4.1,0,7.62,2.35,7.62,7.74v1.35H53.83c.15,2,1.29,3.12,3.12,3.12s2.41-.77,2.61-1.78h4.81c-.46,3.38-3.06,5.3-7.59,5.3C52.09,287,48.65,284.22,48.65,279.32Zm10.74-1.89c-.09-1.8-1-2.81-2.64-2.81s-2.6,1-2.86,2.81Z" fill="#fff"/><path d="M66.14,271.64h5.13v2.3a5.21,5.21,0,0,1,4.69-2.7A4.09,4.09,0,0,1,80,273.73a6,6,0,0,1,5-2.49c2.83,0,4.9,1.84,4.9,5.59v9.8H84.75v-8.94c0-1.52-.74-2.26-1.92-2.26A2.22,2.22,0,0,0,80.54,278v8.68H75.48v-8.94c0-1.52-.75-2.26-1.92-2.26A2.21,2.21,0,0,0,71.27,278v8.68H66.14Z" fill="#fff"/><path d="M98.35,275.14H96.46v-3.5h1.89v-1.32c0-3.72,2.32-5.5,5.87-5.5a9.12,9.12,0,0,1,2.34.32v3.75a4.84,4.84,0,0,0-1.4-.2,1.51,1.51,0,0,0-1.72,1.63v1.32h3v3.5h-3v11.49H98.35Z" fill="#fff"/><path d="M106.88,279.32v-.23c0-4.81,3.58-7.85,8.22-7.85s8.15,2.95,8.15,7.71v.23c0,4.87-3.57,7.79-8.18,7.79S106.88,284.17,106.88,279.32Zm11.16-.08V279c0-2.52-1-3.93-2.94-3.93s-3,1.35-3,3.87v.23c0,2.58,1,4,3,4S118,281.73,118,279.24Z" fill="#fff"/><path d="M125.06,271.64h5.12v3a4.73,4.73,0,0,1,4.84-3.18v4.79c-3.12-.09-4.84.89-4.84,3.29v7.11h-5.12Z" fill="#fff"/><path d="M26,322.45,20,309h5.55l3.09,8,2.86-8h4.9l-8,20H23.52Z" fill="#fff"/><path d="M36.14,316.67v-.23c0-4.82,3.58-7.86,8.22-7.86s8.16,3,8.16,7.71v.23c0,4.87-3.58,7.8-8.19,7.8S36.14,321.51,36.14,316.67Zm11.17-.09v-.23c0-2.52-1-3.93-3-3.93s-3,1.35-3,3.87v.23c0,2.58,1,4,3,4S47.31,319.07,47.31,316.58Z" fill="#fff"/><path d="M54.21,318.76V309h5.12v8.94c0,1.69.66,2.52,2.12,2.52s2.55-.92,2.55-2.84V309h5.12v15H64v-2.32a4.94,4.94,0,0,1-4.76,2.67C56.35,324.32,54.21,322.54,54.21,318.76Z" fill="#fff"/><path d="M71.53,321.39a2.85,2.85,0,0,1,2.92-2.89,2.9,2.9,0,1,1,0,5.79A2.86,2.86,0,0,1,71.53,321.39Z" fill="#fff"/></svg>