<svg xmlns="http://www.w3.org/2000/svg" viewBox="0 0 160 600"><title>Asset 7</title><rect width="160" height="600" fill="none"/><path d="M29.62,104,23.33,93h6l3.26,6.51L35.88,93h5.28l-6,11v8.26H29.62Z" fill="#fff"/><path d="M39.14,105.37v-.22c0-4.53,3.37-7.4,7.74-7.4s7.69,2.79,7.69,7.27v.21c0,4.59-3.37,7.34-7.71,7.34S39.14,109.93,39.14,105.37Zm10.52-.08v-.22c0-2.38-.94-3.7-2.78-3.7s-2.8,1.27-2.8,3.65v.21c0,2.43.94,3.75,2.8,3.75S49.66,107.63,49.66,105.29Z" fill="#fff"/><path d="M56.16,107.34V98.13H61v8.42c0,1.6.62,2.38,2,2.38s2.4-.86,2.4-2.67V98.13h4.83v14.12H65.39v-2.19a4.64,4.64,0,0,1-4.48,2.51C58.19,112.57,56.16,110.9,56.16,107.34Z" fill="#fff"/><path d="M72.67,98.13H77.5v2.81a4.46,4.46,0,0,1,4.56-3v4.51c-2.94-.08-4.56.84-4.56,3.11v6.69H72.67Z" fill="#fff"/><path d="M25.19,142.13v-6.29h-1.7v-3.3h1.7V129.6H30v2.94H32.8v3.3H30v5.83a1.29,1.29,0,0,0,1.43,1.48,3.73,3.73,0,0,0,1.38-.24v3.67a10.19,10.19,0,0,1-2.67.41C27,147,25.19,145.45,25.19,142.13Z" fill="#fff"/><path d="M33.88,142.75c0-3.32,2.81-4.62,7.5-4.62h1.35v-.32c0-1.35-.33-2.24-1.86-2.24A1.73,1.73,0,0,0,39,137.24H34.42c.21-3.4,2.89-5.07,6.74-5.07s6.37,1.59,6.37,5.34v9.15H42.84V145a4.66,4.66,0,0,1-4.19,2C36.12,147,33.88,145.74,33.88,142.75Zm8.85-1v-.86H41.46c-1.94,0-2.81.38-2.81,1.54,0,.81.54,1.32,1.68,1.32A2.13,2.13,0,0,0,42.73,141.72Z" fill="#fff"/><path d="M53.44,139.48,49,132.54H54.6l2.18,3.73,2.13-3.73h5l-4.45,6.56,4.88,7.56H58.75l-2.51-4.21-2.56,4.21H48.74Z" fill="#fff"/><path d="M70.57,132.54H75.4v2.11a5,5,0,0,1,4.39-2.48c3.3,0,6,2.48,6,7.31v.22c0,4.86-2.67,7.29-6,7.29a4.65,4.65,0,0,1-4.37-2.41v6.81H70.57Zm10.28,7.16v-.22c0-2.48-1.08-3.67-2.78-3.67s-2.81,1.27-2.81,3.64v.22c0,2.4,1,3.62,2.81,3.62S80.85,142,80.85,139.7Z" fill="#fff"/><path d="M87.51,132.54h4.83v2.81a4.44,4.44,0,0,1,4.56-3v4.5c-2.94-.08-4.56.84-4.56,3.11v6.69H87.51Z" fill="#fff"/><path d="M97.76,139.78v-.22c0-4.53,3.37-7.39,7.74-7.39s7.69,2.78,7.69,7.26v.21c0,4.59-3.37,7.35-7.71,7.35S97.76,144.34,97.76,139.78Zm10.52-.08v-.22c0-2.37-.94-3.7-2.78-3.7s-2.8,1.27-2.8,3.65v.21c0,2.43.94,3.76,2.8,3.76S108.28,142.05,108.28,139.7Z" fill="#fff"/><path d="M23.36,167h5l2.05,8.44L32.83,167h3.88l2.11,8.44L41.11,167H45.7l-4.48,14.11H36.6l-2.1-7.88-2.19,7.88H27.62Z" fill="#fff"/><path d="M45.56,174.19V174c0-4.53,3.37-7.39,7.74-7.39S61,169.36,61,173.84v.22c0,4.58-3.37,7.34-7.71,7.34S45.56,178.75,45.56,174.19Zm10.52-.08v-.22c0-2.37-.94-3.69-2.78-3.69s-2.8,1.26-2.8,3.64v.22c0,2.42.94,3.75,2.8,3.75S56.08,176.46,56.08,174.11Z" fill="#fff"/><path d="M62.69,167h4.83v2.26a5,5,0,0,1,4.64-2.64c2.73,0,4.61,1.7,4.61,5.32v9.17H72v-8.2c0-1.6-.63-2.38-2-2.38s-2.4.87-2.4,2.67v7.91H62.69Z" fill="#fff"/><path d="M78.18,161.77H82.9l-.57,7.43H78.72Z" fill="#fff"/><path d="M85.92,176.54v-6.29h-1.7V167h1.7v-3h4.83v3h2.78v3.29H90.75v5.83c0,1,.51,1.48,1.43,1.48a3.68,3.68,0,0,0,1.37-.24V181a10.12,10.12,0,0,1-2.67.41C87.7,181.4,85.92,179.86,85.92,176.54Z" fill="#fff"/><path d="M24.55,195.16h4.82V207l3.81-5.59h5l-4.62,6.34,5,7.78H33.18l-3.81-6.19v6.19H24.55Z" fill="#fff"/><path d="M39.71,201.37h4.83v2.27A5,5,0,0,1,49.18,201c2.72,0,4.61,1.7,4.61,5.32v9.18H49v-8.21c0-1.59-.62-2.38-2-2.38s-2.4.87-2.4,2.68v7.91H39.71Z" fill="#fff"/><path d="M55.38,208.6v-.21c0-4.54,3.37-7.4,7.74-7.4s7.69,2.78,7.69,7.26v.22c0,4.59-3.37,7.34-7.71,7.34S55.38,213.16,55.38,208.6Zm10.52-.08v-.21c0-2.38-.94-3.7-2.78-3.7s-2.8,1.27-2.8,3.64v.22c0,2.43.94,3.75,2.8,3.75S65.9,210.87,65.9,208.52Z" fill="#fff"/><path d="M70.87,201.37h5l2,8.45,2.38-8.45h3.88l2.1,8.45,2.3-8.45H93.2l-4.47,14.12H84.11L82,207.6l-2.19,7.89H75.13Z" fill="#fff"/><path d="M29,248.47l-5.64-12.69h5.24l2.91,7.53,2.7-7.53h4.61l-7.55,18.84H26.62Z" fill="#fff"/><path d="M38.52,243v-.21c0-4.54,3.37-7.4,7.74-7.4S54,238.18,54,242.66v.22c0,4.59-3.37,7.34-7.71,7.34S38.52,247.58,38.52,243ZM49,242.93v-.21c0-2.38-.94-3.7-2.78-3.7s-2.8,1.27-2.8,3.64v.22c0,2.43.94,3.75,2.8,3.75S49,245.28,49,242.93Z" fill="#fff"/><path d="M55.54,245v-9.2h4.83v8.42c0,1.59.62,2.38,2,2.38s2.4-.87,2.4-2.68v-8.12H69.6V249.9H64.77v-2.19a4.64,4.64,0,0,1-4.48,2.51C57.57,250.22,55.54,248.55,55.54,245Z" fill="#fff"/><path d="M71.73,230.6h4.72L75.88,238H72.27Z" fill="#fff"/><path d="M78.55,235.78h4.83v2.81a4.45,4.45,0,0,1,4.56-3v4.51c-2.94-.08-4.56.84-4.56,3.1v6.7H78.55Z" fill="#fff"/><path d="M88.81,243v-.21c0-4.54,3.37-7.4,7.63-7.4,3.86,0,7.18,2.22,7.18,7.29V244H93.69a2.81,2.81,0,0,0,2.94,2.94c1.59,0,2.27-.73,2.45-1.67h4.54c-.43,3.18-2.89,5-7.15,5C92,250.22,88.81,247.63,88.81,243Zm10.11-1.78c-.08-1.7-.91-2.64-2.48-2.64s-2.45.94-2.7,2.64Z" fill="#fff"/><path d="M24.44,266.36a2.52,2.52,0,0,1,2.64-2.51,2.5,2.5,0,1,1,0,5A2.49,2.49,0,0,1,24.44,266.36Zm.24,3.83h4.83v14.12H24.68Z" fill="#fff"/><path d="M32.1,270.19h4.83v2.27a5,5,0,0,1,4.64-2.65c2.72,0,4.61,1.7,4.61,5.32v9.18H41.35V276.1c0-1.59-.62-2.37-2-2.37s-2.4.86-2.4,2.67v7.91H32.1Z" fill="#fff"/><path d="M57.86,282.88l-5.64-12.69h5.24l2.91,7.53,2.7-7.53h4.61L60.13,289H55.52Z" fill="#fff"/><path d="M67.41,277.43v-.22c0-4.54,3.38-7.4,7.75-7.4s7.68,2.78,7.68,7.26v.22c0,4.59-3.37,7.34-7.71,7.34S67.41,282,67.41,277.43Zm10.52-.09v-.21c0-2.38-.94-3.7-2.77-3.7s-2.81,1.27-2.81,3.64v.22c0,2.43.94,3.75,2.81,3.75S77.93,279.69,77.93,277.34Z" fill="#fff"/><path d="M84.44,279.4v-9.21h4.82v8.42c0,1.6.62,2.38,2,2.38s2.4-.87,2.4-2.67v-8.13h4.83v14.12H93.66v-2.19a4.63,4.63,0,0,1-4.48,2.51C86.46,284.63,84.44,283,84.44,279.4Z" fill="#fff"/><path d="M101,270.19h4.82V273a4.46,4.46,0,0,1,4.56-3v4.51c-2.94-.08-4.56.84-4.56,3.1v6.7H101Z" fill="#fff"/><path d="M24.55,304.6h4.82v2.11a5,5,0,0,1,4.4-2.49c3.29,0,6,2.49,6,7.32v.22c0,4.85-2.67,7.28-6,7.28a4.67,4.67,0,0,1-4.38-2.4v6.8H24.55Zm10.27,7.16v-.22c0-2.48-1.07-3.67-2.77-3.67s-2.81,1.27-2.81,3.64v.22c0,2.4,1.05,3.62,2.81,3.62S34.82,314.08,34.82,311.76Z" fill="#fff"/><path d="M40.68,314.81c0-3.32,2.8-4.62,7.5-4.62h1.35v-.32c0-1.35-.33-2.24-1.86-2.24a1.73,1.73,0,0,0-1.92,1.67H41.22c.21-3.4,2.88-5.08,6.74-5.08s6.37,1.6,6.37,5.35v9.15h-4.7v-1.65a4.61,4.61,0,0,1-4.18,2C42.92,319,40.68,317.8,40.68,314.81Zm8.85-1v-.86H48.26c-1.94,0-2.81.37-2.81,1.54,0,.8.54,1.32,1.68,1.32A2.13,2.13,0,0,0,49.53,313.78Z" fill="#fff"/><path d="M55.08,320.18c1.19-.08,1.73-.57,1.73-1.68V304.6h4.8v14c0,3.05-1.43,5.08-6.53,5.08Zm1.49-19.41a2.52,2.52,0,0,1,2.64-2.51,2.5,2.5,0,1,1,0,5A2.49,2.49,0,0,1,56.57,300.77Z" fill="#fff"/><path d="M63.42,314.81c0-3.32,2.81-4.62,7.5-4.62h1.35v-.32c0-1.35-.32-2.24-1.86-2.24a1.74,1.74,0,0,0-1.92,1.67H64c.22-3.4,2.89-5.08,6.74-5.08s6.37,1.6,6.37,5.35v9.15H72.38v-1.65a4.64,4.64,0,0,1-4.18,2C65.66,319,63.42,317.8,63.42,314.81Zm8.85-1v-.86H71c-1.94,0-2.8.37-2.8,1.54,0,.8.53,1.32,1.67,1.32A2.13,2.13,0,0,0,72.27,313.78Z" fill="#fff"/><path d="M79.42,304.6h4.83v2.16a4.93,4.93,0,0,1,4.42-2.54,3.84,3.84,0,0,1,3.83,2.35,5.62,5.62,0,0,1,4.67-2.35c2.67,0,4.61,1.73,4.61,5.27v9.23H97V310.3c0-1.43-.7-2.13-1.8-2.13A2.09,2.09,0,0,0,93,310.54v8.18H88.21V310.3c0-1.43-.7-2.13-1.81-2.13a2.08,2.08,0,0,0-2.15,2.37v8.18H79.42Z" fill="#fff"/><path d="M103.32,314.81c0-3.32,2.8-4.62,7.5-4.62h1.35v-.32c0-1.35-.33-2.24-1.86-2.24a1.74,1.74,0,0,0-1.92,1.67h-4.53c.22-3.4,2.89-5.08,6.74-5.08s6.37,1.6,6.37,5.35v9.15h-4.69v-1.65a4.64,4.64,0,0,1-4.19,2C105.56,319,103.32,317.8,103.32,314.81Zm8.85-1v-.86H110.9c-1.94,0-2.81.37-2.81,1.54,0,.8.54,1.32,1.68,1.32A2.13,2.13,0,0,0,112.17,313.78Z" fill="#fff"/><path d="M118.37,314.24h4.45c.17,1,.63,1.59,2,1.59,1.19,0,1.73-.46,1.73-1.16s-.68-1-2.62-1.27c-3.78-.48-5.37-1.59-5.37-4.53,0-3.13,2.78-4.65,6-4.65,3.47,0,5.9,1.19,6.23,4.57h-4.37a1.58,1.58,0,0,0-1.81-1.41c-1,0-1.59.46-1.59,1.11s.64.94,2.37,1.16c3.91.49,5.8,1.51,5.8,4.53,0,3.35-2.48,4.86-6.39,4.86S118.48,317.37,118.37,314.24Z" fill="#fff"/><path d="M132.62,316.29a2.69,2.69,0,0,1,2.75-2.73,2.73,2.73,0,1,1,0,5.46A2.69,2.69,0,0,1,132.62,316.29Z" fill="#fff"/><rect y="580" width="20" height="20" fill="none"/></svg>