<svg xmlns="http://www.w3.org/2000/svg" viewBox="0 0 120 22"><title>cta_txt</title><g id="Layer_2" data-name="Layer 2"><g id="CTA"><g id="Rectangle_1" data-name="Rectangle 1"><rect width="120" height="22" fill="none"/></g><g id="Try_Tax_Pro_Go" data-name="Try Tax Pro Go"><path d="M15.77,6.58h-2.7V4.81h7.69V6.58H18.05v8.25H15.77Z" fill="#262626"/><path d="M21.3,7.5h2V8.9A2.4,2.4,0,0,1,25.7,7.39V9.28c-1.5,0-2.37.47-2.37,1.88v3.67h-2Z" fill="#262626"/><path d="M29.12,14.08,26.21,7.5H28.4l1.78,4.4,1.63-4.4h1.95l-4,9.82h-2Z" fill="#262626"/><path d="M39.68,6.58H37V4.81h7.69V6.58H42v8.25H39.68Z" fill="#262626"/><path d="M44.3,12.79c0-1.71,1.57-2.35,3.81-2.35h.83v-.29c0-.87-.27-1.35-1.19-1.35a1.11,1.11,0,0,0-1.25,1H44.58c.13-1.74,1.5-2.51,3.29-2.51s3.07.73,3.07,2.72v4.78H49v-.89a2.48,2.48,0,0,1-2.21,1A2.15,2.15,0,0,1,44.3,12.79Zm4.64-.53v-.61h-.79c-1.18,0-1.86.25-1.86,1,0,.53.32.88,1.06.88C48.25,13.56,48.94,13.07,48.94,12.26Z" fill="#262626"/><path d="M54.31,11.08,52,7.5H54.3l1.37,2.2L57,7.5h2.1l-2.33,3.43,2.57,3.9H57l-1.54-2.47-1.58,2.47H51.8Z" fill="#262626"/><path d="M63.37,4.81h3.46c2.43,0,3.82,1.08,3.82,3.19v.06c0,2.11-1.47,3.12-3.75,3.12H65.62v3.65H63.37Zm3.4,4.79c1.11,0,1.7-.53,1.7-1.53V8c0-1.07-.62-1.49-1.7-1.49H65.62V9.6Z" fill="#262626"/><path d="M71.74,7.5h2V8.9a2.4,2.4,0,0,1,2.37-1.51V9.28c-1.5,0-2.37.47-2.37,1.88v3.67h-2Z" fill="#262626"/><path d="M76.68,11.24v-.11a3.68,3.68,0,0,1,3.87-3.8,3.63,3.63,0,0,1,3.85,3.75v.12a3.86,3.86,0,0,1-7.72,0Zm5.66,0v-.1c0-1.4-.66-2.24-1.79-2.24s-1.8.81-1.8,2.21v.12c0,1.4.65,2.24,1.8,2.24S82.34,12.6,82.34,11.21Z" fill="#262626"/><path d="M88.1,9.88V9.77a4.91,4.91,0,0,1,5.1-5.11c2.23,0,4.22,1,4.46,3.5H95.4a1.92,1.92,0,0,0-2.17-1.71c-1.74,0-2.76,1.3-2.76,3.35v.11c0,1.93.83,3.32,2.79,3.32a2.12,2.12,0,0,0,2.41-2.12H93.41V9.46h4.5v1.06C97.91,13.2,96.2,15,93.2,15A4.75,4.75,0,0,1,88.1,9.88Z" fill="#262626"/><path d="M98.7,11.24v-.11a3.68,3.68,0,0,1,3.87-3.8,3.63,3.63,0,0,1,3.85,3.75v.12a3.86,3.86,0,0,1-7.72,0Zm5.66,0v-.1c0-1.4-.66-2.24-1.79-2.24s-1.79.81-1.79,2.21v.12c0,1.4.64,2.24,1.79,2.24S104.36,12.6,104.36,11.21Z" fill="#262626"/></g></g></g></svg>