<svg xmlns="http://www.w3.org/2000/svg" viewBox="0 0 120 22"><title>cta_txt</title><g id="Layer_2" data-name="Layer 2"><g id="CTA"><g id="Rectangle_1" data-name="Rectangle 1"><rect width="120" height="22" fill="none"/></g><g id="Try_Tax_Pro_Go" data-name="Try Tax Pro Go"><path d="M15.77,7.58H13.06V5.81h7.69V7.58h-2.7v8.25H15.77Z" transform="translate(0 0)" fill="#262626"/><path d="M21.3,8.5h2V9.9A2.39,2.39,0,0,1,25.7,8.39v1.89c-1.5,0-2.37.47-2.37,1.88v3.67h-2Z" transform="translate(0 0)" fill="#262626"/><path d="M29.12,15.08,26.21,8.5h2.18l1.78,4.4,1.64-4.4h1.95l-4,9.82h-2Z" transform="translate(0 0)" fill="#262626"/><path d="M39.68,7.58H37V5.81h7.69V7.58H42v8.25H39.68Z" transform="translate(0 0)" fill="#262626"/><path d="M44.3,13.79c0-1.71,1.57-2.35,3.81-2.35h.82v-.29c0-.87-.26-1.35-1.19-1.35a1.1,1.1,0,0,0-1.24,1H44.58c.12-1.74,1.5-2.51,3.29-2.51s3.07.73,3.07,2.72v4.78H49v-.89a2.48,2.48,0,0,1-2.21,1A2.15,2.15,0,0,1,44.3,13.79Zm4.63-.53v-.61h-.78c-1.18,0-1.86.25-1.86,1,0,.53.32.88,1.06.88C48.25,14.56,48.93,14.07,48.93,13.26Z" transform="translate(0 0)" fill="#262626"/><path d="M54.31,12.08,52,8.5h2.32l1.38,2.2L57,8.5h2.1l-2.34,3.43,2.58,3.9H57l-1.54-2.47-1.58,2.47H51.8Z" transform="translate(0 0)" fill="#262626"/><path d="M63.37,5.81h3.46c2.43,0,3.82,1.08,3.82,3.19v.06c0,2.11-1.47,3.12-3.75,3.12H65.62v3.65H63.37Zm3.4,4.79c1.11,0,1.69-.53,1.69-1.53V9c0-1.07-.61-1.49-1.69-1.49H65.62V10.6Z" transform="translate(0 0)" fill="#262626"/><path d="M71.74,8.5h2V9.9a2.4,2.4,0,0,1,2.37-1.51v1.89c-1.5,0-2.37.47-2.37,1.88v3.67h-2Z" transform="translate(0 0)" fill="#262626"/><path d="M76.68,12.24v-.11a3.68,3.68,0,0,1,3.87-3.8,3.63,3.63,0,0,1,3.85,3.75v.12a3.86,3.86,0,0,1-7.72,0Zm5.66,0v-.1c0-1.4-.66-2.24-1.79-2.24s-1.8.81-1.8,2.21v.12c0,1.4.65,2.24,1.8,2.24S82.34,13.6,82.34,12.21Z" transform="translate(0 0)" fill="#262626"/><path d="M88.1,10.88v-.11a4.91,4.91,0,0,1,5.1-5.11c2.23,0,4.22,1,4.46,3.5H95.4a1.93,1.93,0,0,0-2.17-1.71c-1.74,0-2.76,1.3-2.76,3.35v.11c0,1.93.83,3.32,2.79,3.32a2.12,2.12,0,0,0,2.41-2.12H93.41V10.46h4.5v1.06C97.91,14.2,96.2,16,93.2,16A4.75,4.75,0,0,1,88.1,10.88Z" transform="translate(0 0)" fill="#262626"/><path d="M98.7,12.24v-.11a3.68,3.68,0,0,1,3.87-3.8,3.63,3.63,0,0,1,3.85,3.75v.12a3.86,3.86,0,0,1-7.72,0Zm5.66,0v-.1c0-1.4-.66-2.24-1.79-2.24s-1.8.81-1.8,2.21v.12c0,1.4.65,2.24,1.8,2.24S104.36,13.6,104.36,12.21Z" transform="translate(0 0)" fill="#262626"/></g></g></g></svg>