<svg xmlns="http://www.w3.org/2000/svg" viewBox="0 0 300 250"><title>txt3</title><g id="Layer_2" data-name="Layer 2"><g id="Rect"><rect width="300" height="250" fill="none"/></g><g id="Tax_Pro_GoSM_" data-name="Tax Pro GoSM"><path d="M26.94,20.73H22.5V17H36.31v3.78H31.88V34.09H26.94Z" fill="#fff"/><path d="M35.44,30.61c0-2.95,2.5-4.1,6.67-4.1h1.2v-.29c0-1.19-.29-2-1.66-2A1.55,1.55,0,0,0,40,25.72h-4c.2-3,2.57-4.51,6-4.51s5.65,1.42,5.65,4.75v8.13H43.4V32.62a4.09,4.09,0,0,1-3.71,1.75C37.43,34.37,35.44,33.27,35.44,30.61Zm7.87-.91v-.77H42.18c-1.72,0-2.49.34-2.49,1.37,0,.72.48,1.17,1.48,1.17C42.4,31.47,43.31,30.78,43.31,29.7Z" fill="#fff"/><path d="M52.82,27.71l-3.91-6.16h4.94l1.94,3.31,1.9-3.31H62.1l-4,5.83,4.34,6.71H57.54l-2.23-3.74L53,34.09H48.65Z" fill="#fff"/><path d="M23.65,40.92h6.52c4.7,0,6.88,2.09,6.88,5.73v.1c0,3.6-2.42,5.54-6.66,5.54H28.54v5.77H23.65Zm6.31,8c1.58,0,2.42-.74,2.42-2.16v-.09c0-1.46-.86-2.06-2.4-2.06H28.54v4.31Z" fill="#fff"/><path d="M38.54,45.53h4.29V48a4,4,0,0,1,4.05-2.66v4c-2.61-.07-4.05.75-4.05,2.76v5.94H38.54Z" fill="#fff"/><path d="M47.64,52v-.19c0-4,3-6.57,6.88-6.57s6.84,2.47,6.84,6.45v.19c0,4.08-3,6.52-6.86,6.52S47.64,56,47.64,52ZM57,51.88v-.19c0-2.11-.84-3.29-2.47-3.29S52,49.53,52,51.64v.19c0,2.16.84,3.33,2.49,3.33S57,54,57,51.88Z" fill="#fff"/><path d="M66.7,49.6v-.19c0-5.22,3.83-8.75,9-8.75,4,0,7.64,1.85,8,6.31H78.8c-.24-1.61-1.27-2.45-3.09-2.45-2.42,0-3.88,1.87-3.88,5v.19c0,2.79,1,4.94,4,4.94,2.4,0,3.31-1.22,3.4-2.59H76V48.6h8.06v2.11c0,4.36-2.86,7.64-8.39,7.64C69.86,58.35,66.7,54.73,66.7,49.6Z" fill="#fff"/><path d="M85.05,52v-.19c0-4,3-6.57,6.88-6.57s6.84,2.47,6.84,6.45v.19c0,4.08-3,6.52-6.86,6.52S85.05,56,85.05,52Zm9.35-.07v-.19c0-2.11-.84-3.29-2.47-3.29s-2.49,1.13-2.49,3.24v.19c0,2.16.84,3.33,2.49,3.33S94.4,54,94.4,51.88Z" fill="#fff"/><path d="M99.1,47.6H100c0,.23.13.41.5.41s.41-.13.41-.31-.12-.25-.5-.31c-.89-.1-1.19-.37-1.19-1s.47-1,1.22-1,1.18.31,1.24,1h-.84a.35.35,0,0,0-.4-.34c-.24,0-.37.11-.37.27s.1.25.49.31c.8.09,1.21.29,1.21,1s-.46,1-1.27,1S99.13,48.29,99.1,47.6Z" fill="#fff"/><path d="M102.09,45.45h1.18l.61,1.68.6-1.68h1.15V48.6h-.9v-2l-.77,2h-.3l-.76-2v2h-.81Z" fill="#fff"/></g></g></svg>