<svg xmlns="http://www.w3.org/2000/svg" viewBox="0 0 160 600"><title>Asset 4</title><rect width="160" height="600" fill="none"/><path d="M21.86,54.8h7.79c7.6,0,11.46,3.81,11.46,10.46v.24c0,6.68-4,10.72-11.49,10.72H21.86Zm7.58,16.69c3.65,0,5.27-1.92,5.27-5.9v-.24c0-4.08-1.62-5.81-5.33-5.81H28V71.49Z" fill="#fff"/><path d="M42.34,68.58v-.24c0-5,3.74-8.21,8.59-8.21s8.53,3.09,8.53,8.06v.24c0,5.09-3.74,8.15-8.56,8.15S42.34,73.64,42.34,68.58ZM54,68.49v-.24c0-2.63-1.05-4.1-3.09-4.1s-3.11,1.41-3.11,4v.24c0,2.7,1,4.17,3.11,4.17S54,71.1,54,68.49Z" fill="#fff"/><path d="M61.35,60.55h5.36v2.52a5.52,5.52,0,0,1,5.15-2.94C74.88,60.13,77,62,77,66V76.22H71.62V67.11c0-1.76-.69-2.63-2.25-2.63s-2.66,1-2.66,3v8.78H61.35Z" fill="#fff"/><path d="M78.53,54.8h5.24L83.14,63h-4Z" fill="#fff"/><path d="M87.12,71.19v-7H85.24V60.55h1.88V57.29h5.36v3.26h3.09v3.66H92.48v6.47a1.43,1.43,0,0,0,1.59,1.65,4,4,0,0,0,1.52-.27v4.07a11.11,11.11,0,0,1-3,.45C89.1,76.58,87.12,74.87,87.12,71.19Z" fill="#fff"/><path d="M102.27,68.55v-.24c0-5.33,2.93-8.18,6.65-8.18a5.08,5.08,0,0,1,4.82,2.64v-9.1h5.35V76.22h-5.35V73.67a5.28,5.28,0,0,1-4.88,2.91C105.23,76.58,102.27,74,102.27,68.55Zm11.61-.09v-.24c0-2.63-1.1-4-3.08-4s-3.08,1.35-3.08,4.07v.24c0,2.64,1.17,4,3,4S113.88,71.13,113.88,68.46Z" fill="#fff"/><path d="M121,68.58v-.24c0-5,3.74-8.21,8.59-8.21s8.53,3.09,8.53,8.06v.24c0,5.09-3.74,8.15-8.56,8.15S121,73.64,121,68.58Zm11.67-.09v-.24c0-2.63-1-4.1-3.08-4.1s-3.11,1.41-3.11,4v.24c0,2.7,1,4.17,3.11,4.17S132.65,71.1,132.65,68.49Z" fill="#fff"/><path d="M22.1,107.79v-7H20.22V97.15H22.1V93.89h5.36v3.26h3.09v3.66H27.46v6.47a1.43,1.43,0,0,0,1.59,1.65,4.09,4.09,0,0,0,1.53-.27v4.07a11.27,11.27,0,0,1-3,.45C24.08,113.18,22.1,111.47,22.1,107.79Z" fill="#fff"/><path d="M31.74,108.48c0-3.69,3.12-5.13,8.32-5.13h1.5V103c0-1.5-.36-2.49-2.06-2.49a1.93,1.93,0,0,0-2.13,1.86h-5c.24-3.78,3.2-5.63,7.49-5.63s7.06,1.76,7.06,5.93v10.15H41.68V111A5.13,5.13,0,0,1,37,113.18C34.23,113.18,31.74,111.8,31.74,108.48Zm9.82-1.14v-1H40.15c-2.15,0-3.11.42-3.11,1.71,0,.9.6,1.47,1.86,1.47C40.42,109.56,41.56,108.69,41.56,107.34Z" fill="#fff"/><path d="M53.45,104.85l-4.88-7.7h6.16l2.43,4.14,2.36-4.14H65l-4.94,7.28,5.42,8.39H59.34l-2.78-4.67-2.84,4.67H48.24Z" fill="#fff"/><path d="M64.82,105.18v-.24c0-5,3.74-8.2,8.47-8.2,4.28,0,8,2.45,8,8.08v1.41h-11c.15,2.07,1.35,3.27,3.26,3.27s2.52-.81,2.73-1.86h5c-.48,3.53-3.21,5.54-7.94,5.54C68.41,113.18,64.82,110.3,64.82,105.18Zm11.23-2c-.09-1.89-1-2.94-2.76-2.94s-2.72,1-3,2.94Z" fill="#fff"/><path d="M82.21,107.85h4.94c.18,1.14.69,1.77,2.22,1.77,1.32,0,1.92-.51,1.92-1.29s-.75-1.11-2.91-1.41c-4.19-.54-6-1.77-6-5,0-3.48,3.09-5.15,6.71-5.15,3.86,0,6.56,1.31,6.91,5.06H91.2a1.75,1.75,0,0,0-2-1.56c-1.17,0-1.77.51-1.77,1.23s.72,1,2.64,1.29c4.34.54,6.43,1.67,6.43,5,0,3.71-2.75,5.39-7.09,5.39S82.33,111.32,82.21,107.85Z" fill="#fff"/><path d="M98,110.12a3,3,0,0,1,3-3,3,3,0,1,1,0,6.05A3,3,0,0,1,98,110.12Z" fill="#fff"/><path d="M21.86,128H28v16.66h8.08v4.76H21.86Z" fill="#fff"/><path d="M37,141.78v-.24c0-5,3.74-8.2,8.47-8.2,4.28,0,8,2.45,8,8.08v1.41h-11c.15,2.07,1.35,3.27,3.26,3.27s2.52-.81,2.73-1.86h5c-.48,3.53-3.21,5.54-7.94,5.54C40.6,149.78,37,146.9,37,141.78Zm11.23-2c-.09-1.89-1-2.94-2.76-2.94s-2.72,1-3,2.94Z" fill="#fff"/><path d="M56,144.39v-7H54.13v-3.65H56v-3.27h5.36v3.27h3.08v3.65H61.38v6.47A1.43,1.43,0,0,0,63,145.53a4.07,4.07,0,0,0,1.52-.27v4.07a11.18,11.18,0,0,1-3,.45C58,149.78,56,148.07,56,144.39Z" fill="#fff"/><path d="M71.05,145.08c0-3.69,3.11-5.12,8.32-5.12h1.5v-.36c0-1.5-.36-2.49-2.07-2.49A1.91,1.91,0,0,0,76.68,139h-5c.24-3.78,3.2-5.63,7.48-5.63s7.07,1.76,7.07,5.93v10.15H81v-1.83a5.15,5.15,0,0,1-4.64,2.19C73.53,149.78,71.05,148.4,71.05,145.08Zm9.82-1.14v-1H79.46c-2.16,0-3.11.42-3.11,1.71,0,.9.59,1.47,1.85,1.47C79.73,146.16,80.87,145.29,80.87,143.94Z" fill="#fff"/><path d="M95,144.39v-7H93.08v-3.65H95v-3.27h5.36v3.27h3.08v3.65h-3.08v6.47c0,1.14.56,1.65,1.58,1.65a4.09,4.09,0,0,0,1.53-.27v4.07a11.27,11.27,0,0,1-3,.45C96.94,149.78,95,148.07,95,144.39Z" fill="#fff"/><path d="M104.6,145.08c0-3.69,3.12-5.12,8.33-5.12h1.49v-.36c0-1.5-.36-2.49-2.06-2.49a1.93,1.93,0,0,0-2.13,1.86h-5c.24-3.78,3.21-5.63,7.49-5.63s7.06,1.76,7.06,5.93v10.15h-5.21v-1.83a5.12,5.12,0,0,1-4.64,2.19C107.09,149.78,104.6,148.4,104.6,145.08Zm9.82-1.14v-1H113c-2.16,0-3.12.42-3.12,1.71,0,.9.6,1.47,1.86,1.47C113.29,146.16,114.42,145.29,114.42,143.94Z" fill="#fff"/><path d="M126.31,141.45l-4.88-7.69h6.17l2.42,4.13,2.37-4.13h5.5L133,141l5.42,8.39h-6.16l-2.79-4.67-2.84,4.67H121.1Z" fill="#fff"/><path d="M21.38,170.36h5.36v2.33a5.53,5.53,0,0,1,4.88-2.75c3.66,0,6.62,2.75,6.62,8.11v.24c0,5.4-3,8.09-6.65,8.09a5.18,5.18,0,0,1-4.85-2.66v7.54H21.38Zm11.41,7.93v-.24c0-2.75-1.2-4.07-3.08-4.07s-3.12,1.41-3.12,4v.24c0,2.67,1.17,4,3.12,4S32.79,180.87,32.79,178.29Z" fill="#fff"/><path d="M40.18,170.36h5.36v3.11a4.93,4.93,0,0,1,5.06-3.32v5c-3.26-.09-5.06.93-5.06,3.44V186H40.18Z" fill="#fff"/><path d="M51.56,178.38v-.24c0-5,3.74-8.2,8.59-8.2S68.68,173,68.68,178v.24c0,5.1-3.74,8.15-8.56,8.15S51.56,183.45,51.56,178.38Zm11.68-.09v-.24c0-2.63-1.05-4.1-3.09-4.1S57,175.36,57,178v.24c0,2.7,1.05,4.17,3.11,4.17S63.24,180.9,63.24,178.29Z" fill="#fff"/><path d="M75.24,178.35v-.24c0-5.33,2.93-8.17,6.64-8.17a5.08,5.08,0,0,1,4.83,2.63v-9.1h5.35V186H86.71v-2.54a5.29,5.29,0,0,1-4.88,2.9C78.2,186.38,75.24,183.77,75.24,178.35Zm11.61-.09V178c0-2.63-1.1-4-3.08-4s-3.08,1.35-3.08,4.07v.24c0,2.64,1.16,4,3,4S86.85,180.93,86.85,178.26Z" fill="#fff"/><path d="M94,178.38v-.24c0-5,3.74-8.2,8.59-8.2s8.53,3.08,8.53,8.05v.24c0,5.1-3.74,8.15-8.56,8.15S94,183.45,94,178.38Zm11.67-.09v-.24c0-2.63-1-4.1-3.08-4.1s-3.11,1.41-3.11,4v.24c0,2.7,1,4.17,3.11,4.17S105.62,180.9,105.62,178.29Z" fill="#fff"/><path d="M22.1,217.59v-7H20.22V207H22.1v-3.27h5.36V207h3.09v3.65H27.46v6.47a1.43,1.43,0,0,0,1.59,1.65,4.09,4.09,0,0,0,1.53-.27v4.07a11.27,11.27,0,0,1-3,.45C24.08,223,22.1,221.27,22.1,217.59Z" fill="#fff"/><path d="M32.58,200.07h5.36v9.4a5.53,5.53,0,0,1,5.15-2.93c3,0,5.12,1.88,5.12,5.9v10.18H42.85v-9.1c0-1.77-.69-2.64-2.25-2.64s-2.66,1-2.66,3v8.77H32.58Z" fill="#fff"/><path d="M50,215v-.24c0-5,3.75-8.2,8.48-8.2,4.28,0,8,2.45,8,8.08V216h-11c.15,2.07,1.35,3.27,3.26,3.27s2.52-.81,2.73-1.86h5c-.48,3.53-3.2,5.54-7.93,5.54C53.57,223,50,220.11,50,215Zm11.23-2c-.09-1.89-1-2.94-2.75-2.94s-2.73,1.05-3,2.94Z" fill="#fff"/><path d="M68.26,207h5.36v2.39a5.49,5.49,0,0,1,4.91-2.81,4.26,4.26,0,0,1,4.25,2.6,6.23,6.23,0,0,1,5.18-2.6c3,0,5.12,1.91,5.12,5.84v10.24H87.72v-9.34c0-1.59-.78-2.37-2-2.37a2.33,2.33,0,0,0-2.4,2.64v9.07H78v-9.34c0-1.59-.78-2.37-2-2.37a2.33,2.33,0,0,0-2.4,2.64v9.07H68.26Z" fill="#fff"/><path d="M22.19,247.21h-2v-3.65h2v-1.38c0-3.89,2.43-5.75,6.14-5.75a9.57,9.57,0,0,1,2.46.33v3.92a4.93,4.93,0,0,0-1.47-.21,1.58,1.58,0,0,0-1.8,1.71v1.38H30.7v3.65H27.52v12H22.19Z" fill="#fff"/><path d="M31.11,251.58v-.23c0-5,3.75-8.21,8.6-8.21s8.53,3.08,8.53,8.06v.24c0,5.09-3.74,8.14-8.56,8.14S31.11,256.65,31.11,251.58Zm11.68-.09v-.23c0-2.64-1-4.11-3.08-4.11s-3.12,1.41-3.12,4v.24c0,2.69,1,4.16,3.12,4.16S42.79,254.1,42.79,251.49Z" fill="#fff"/><path d="M50.12,243.56h5.36v3.11a4.94,4.94,0,0,1,5.06-3.32v5c-3.26-.09-5.06.93-5.06,3.44v7.43H50.12Z" fill="#fff"/><path d="M72.84,257.64l-6.25-14.08h5.8l3.24,8.35,3-8.35h5.12l-8.38,20.9H70.24Z" fill="#fff"/><path d="M83.44,251.58v-.23c0-5,3.74-8.21,8.59-8.21s8.54,3.08,8.54,8.06v.24c0,5.09-3.75,8.14-8.57,8.14S83.44,256.65,83.44,251.58Zm11.68-.09v-.23c0-2.64-1.05-4.11-3.09-4.11s-3.11,1.41-3.11,4v.24c0,2.69,1,4.16,3.11,4.16S95.12,254.1,95.12,251.49Z" fill="#fff"/><path d="M102.33,253.77V243.56h5.36v9.34c0,1.77.69,2.64,2.21,2.64s2.67-1,2.67-3v-9h5.36v15.66h-5.36V256.8a5.16,5.16,0,0,1-5,2.78C104.58,259.58,102.33,257.73,102.33,253.77Z" fill="#fff"/><path d="M20.07,280.16h5.6l2.27,9.37,2.64-9.37h4.31l2.33,9.37,2.55-9.37h5.09l-5,15.66H34.77l-2.34-8.74L30,295.82H24.8Z" fill="#fff"/><path d="M46.11,275.9A2.8,2.8,0,0,1,49,273.12a2.78,2.78,0,1,1,0,5.54A2.78,2.78,0,0,1,46.11,275.9Zm.27,4.26h5.36v15.66H46.38Z" fill="#fff"/><path d="M55.33,290.79v-7H53.45v-3.65h1.88v-3.27h5.36v3.27h3.08v3.65H60.69v6.47a1.43,1.43,0,0,0,1.59,1.65,4,4,0,0,0,1.52-.27v4.07a11.11,11.11,0,0,1-3,.45C57.31,296.18,55.33,294.48,55.33,290.79Z" fill="#fff"/><path d="M65.81,273.27h5.36v9.4a5.53,5.53,0,0,1,5.15-2.93c3,0,5.12,1.89,5.12,5.9v10.18H76.08v-9.1c0-1.77-.69-2.64-2.25-2.64s-2.66,1-2.66,3v8.77H65.81Z" fill="#fff"/><path d="M83.2,288.19V288c0-5,3.74-8.21,8.59-8.21s8.54,3.08,8.54,8.06V288c0,5.09-3.75,8.14-8.57,8.14S83.2,293.25,83.2,288.19Zm11.68-.09v-.24c0-2.64-1-4.11-3.09-4.11s-3.11,1.41-3.11,4.05V288c0,2.69,1,4.16,3.11,4.16S94.88,290.7,94.88,288.1Z" fill="#fff"/><path d="M102.09,290.37V280.16h5.36v9.34c0,1.77.69,2.64,2.22,2.64s2.66-1,2.66-3v-9h5.36v15.66h-5.36V293.4a5.16,5.16,0,0,1-5,2.78C104.34,296.18,102.09,294.33,102.09,290.37Z" fill="#fff"/><path d="M121.13,290.79v-7h-1.89v-3.65h1.89v-3.27h5.36v3.27h3.08v3.65h-3.08v6.47a1.43,1.43,0,0,0,1.59,1.65,4.07,4.07,0,0,0,1.52-.27v4.07a11.18,11.18,0,0,1-3,.45C123.11,296.18,121.13,294.48,121.13,290.79Z" fill="#fff"/><path d="M21.53,309.87h5.33v22.55H21.53Z" fill="#fff"/><path d="M28.9,324.79v-.24c0-5,3.74-8.21,8.47-8.21,4.28,0,8,2.45,8,8.09v1.4h-11c.15,2.07,1.34,3.27,3.26,3.27s2.51-.81,2.72-1.86h5c-.48,3.54-3.2,5.54-7.93,5.54C32.49,332.78,28.9,329.91,28.9,324.79Zm11.22-2c-.09-1.89-1-2.94-2.75-2.94s-2.72,1.05-3,2.94Z" fill="#fff"/><path d="M46.44,328.08c0-3.68,3.11-5.12,8.32-5.12h1.5v-.36c0-1.5-.36-2.49-2.07-2.49A1.92,1.92,0,0,0,52.07,322H47c.24-3.77,3.2-5.63,7.48-5.63s7.07,1.77,7.07,5.93v10.15H56.38V330.6a5.14,5.14,0,0,1-4.64,2.18C48.92,332.78,46.44,331.41,46.44,328.08Zm9.82-1.14v-1H54.85c-2.15,0-3.11.42-3.11,1.71,0,.9.6,1.47,1.86,1.47C55.12,329.16,56.26,328.29,56.26,326.94Z" fill="#fff"/><path d="M62.4,316.76h5.71l3.27,10.09,3.2-10.09H79.7L74,332.42H68.14Z" fill="#fff"/><path d="M80.93,312.5a3,3,0,1,1,2.93,2.76A2.79,2.79,0,0,1,80.93,312.5Zm.27,4.26h5.35v15.66H81.2Z" fill="#fff"/><path d="M89.43,316.76h5.36v2.51a5.52,5.52,0,0,1,5.15-2.93c3,0,5.11,1.89,5.11,5.9v10.18H99.7v-9.1c0-1.77-.69-2.64-2.25-2.64s-2.66,1-2.66,3v8.77H89.43Z" fill="#fff"/><path d="M106.79,332.42h5.33c.24,1.14.93,2,2.87,2,2.37,0,3.33-1.35,3.33-3.29v-2.4a5.5,5.5,0,0,1-4.85,2.88c-3.66,0-6.65-2.7-6.65-7.52v-.24c0-4.62,3-7.55,6.65-7.55a5.11,5.11,0,0,1,4.85,2.63v-2.21h5.35v14.35c0,4.67-3.08,7.12-8.68,7.12C109.66,338.23,107.21,336,106.79,332.42Zm11.68-8.32v-.21c0-2.16-1.11-3.54-3.09-3.54s-3.08,1.41-3.08,3.57v.24c0,2.15,1.14,3.53,3,3.53S118.47,326.31,118.47,324.1Z" fill="#fff"/><path d="M21.38,346.47h5.36v9.41a5.53,5.53,0,0,1,5.15-2.94c3,0,5.12,1.89,5.12,5.9V369H31.65v-9.1c0-1.77-.69-2.64-2.24-2.64s-2.67,1-2.67,3V369H21.38Z" fill="#fff"/><path d="M38.78,361.39v-.24c0-5,3.74-8.21,8.59-8.21S55.9,356,55.9,361v.24c0,5.09-3.74,8.14-8.56,8.14S38.78,366.45,38.78,361.39Zm11.67-.09v-.24c0-2.64-1.05-4.11-3.08-4.11s-3.11,1.41-3.11,4.05v.24c0,2.69,1,4.16,3.11,4.16S50.45,363.9,50.45,361.3Z" fill="#fff"/><path d="M57.79,353.36h5.36v2.39a5.47,5.47,0,0,1,4.91-2.81,4.27,4.27,0,0,1,4.25,2.61,6.19,6.19,0,0,1,5.18-2.61c3,0,5.11,1.92,5.11,5.84V369H77.25v-9.34c0-1.59-.78-2.37-2-2.37A2.32,2.32,0,0,0,72.85,360V369h-5.3v-9.34c0-1.59-.78-2.37-2-2.37A2.32,2.32,0,0,0,63.15,360V369H57.79Z" fill="#fff"/><path d="M84.37,361.39v-.24c0-5,3.74-8.21,8.47-8.21,4.28,0,8,2.46,8,8.09v1.4h-11c.15,2.07,1.35,3.27,3.26,3.27s2.52-.81,2.73-1.86h5c-.48,3.54-3.21,5.54-7.94,5.54C88,369.38,84.37,366.51,84.37,361.39Zm11.23-2c-.09-1.89-1-2.94-2.76-2.94s-2.72,1-3,2.94Z" fill="#fff"/><path d="M102.3,366.33a3,3,0,0,1,3-3,3,3,0,1,1,0,6.05A3,3,0,0,1,102.3,366.33Z" fill="#fff"/></svg>