<svg xmlns="http://www.w3.org/2000/svg" viewBox="0 0 728 90"><title>txt</title><g id="Layer_2" data-name="Layer 2"><g id="Rect"><rect width="728" height="90" fill="none"/></g><g id="Upload_your_docs_and_a_tax_pro_does_the_rest._Tax_Pro_Go." data-name="Upload your docs and a tax pro does the rest. Tax Pro Go."><path d="M122,30.41V17.35h6.3V30.13c0,3.1.77,4.61,3.44,4.61s3.44-1.41,3.44-4.7V17.35h6.36v13c0,6.4-3.75,9.38-9.8,9.38C125.5,39.69,122,36.55,122,30.41Z" fill="#fff"/><path d="M144.49,23.25H150v2.39a5.68,5.68,0,0,1,5-2.82c3.75,0,6.79,2.82,6.79,8.32v.25c0,5.53-3,8.3-6.82,8.3A5.3,5.3,0,0,1,150,37V44.7h-5.5Zm11.71,8.14v-.25C156.2,28.32,155,27,153,27s-3.2,1.45-3.2,4.15v.25c0,2.73,1.2,4.12,3.2,4.12S156.2,34,156.2,31.39Z" fill="#fff"/><path d="M163.94,16.18h5.47V39.32h-5.47Z" fill="#fff"/><path d="M171.49,31.48v-.24c0-5.17,3.84-8.42,8.82-8.42s8.76,3.16,8.76,8.26v.25c0,5.22-3.84,8.36-8.79,8.36S171.49,36.68,171.49,31.48Zm12-.09v-.25c0-2.7-1.08-4.21-3.17-4.21s-3.19,1.45-3.19,4.15v.25c0,2.76,1.07,4.27,3.19,4.27S183.48,34.06,183.48,31.39Z" fill="#fff"/><path d="M190.08,34.86c0-3.78,3.2-5.25,8.54-5.25h1.54v-.37c0-1.54-.37-2.55-2.12-2.55a2,2,0,0,0-2.18,1.9H190.7c.24-3.87,3.28-5.77,7.68-5.77s7.25,1.81,7.25,6.08V39.32h-5.35V37.44a5.26,5.26,0,0,1-4.76,2.25C192.63,39.69,190.08,38.27,190.08,34.86Zm10.08-1.17v-1h-1.44c-2.22,0-3.2.43-3.2,1.75,0,.92.61,1.51,1.91,1.51C199,36,200.16,35.08,200.16,33.69Z" fill="#fff"/><path d="M207.5,31.45v-.24c0-5.47,3-8.39,6.82-8.39a5.21,5.21,0,0,1,5,2.7V16.18h5.5V39.32h-5.5V36.71a5.41,5.41,0,0,1-5,3C210.54,39.69,207.5,37,207.5,31.45Zm11.92-.09v-.25c0-2.7-1.13-4.15-3.16-4.15s-3.17,1.39-3.17,4.18v.25c0,2.7,1.2,4.09,3.11,4.09S219.42,34.09,219.42,31.36Z" fill="#fff"/><path d="M238.19,37.69l-6.42-14.44h6l3.32,8.57,3.08-8.57h5.25l-8.6,21.45h-5.26Z" fill="#fff"/><path d="M249.07,31.48v-.24c0-5.17,3.84-8.42,8.82-8.42s8.76,3.16,8.76,8.26v.25c0,5.22-3.84,8.36-8.79,8.36S249.07,36.68,249.07,31.48Zm12-.09v-.25c0-2.7-1.07-4.21-3.16-4.21s-3.2,1.45-3.2,4.15v.25c0,2.76,1.08,4.27,3.2,4.27S261.05,34.06,261.05,31.39Z" fill="#fff"/><path d="M268.46,33.73V23.25H274v9.58c0,1.82.7,2.71,2.27,2.71s2.74-1,2.74-3V23.25h5.5V39.32H279V36.83a5.28,5.28,0,0,1-5.1,2.86C270.76,39.69,268.46,37.78,268.46,33.73Z" fill="#fff"/><path d="M287.26,23.25h5.5v3.19A5.05,5.05,0,0,1,298,23v5.13c-3.35-.09-5.19,1-5.19,3.54v7.62h-5.5Z" fill="#fff"/><path d="M304.74,31.45v-.24c0-5.47,3-8.39,6.82-8.39a5.21,5.21,0,0,1,4.95,2.7V16.18H322V39.32h-5.5V36.71a5.41,5.41,0,0,1-5,3C307.78,39.69,304.74,37,304.74,31.45Zm11.92-.09v-.25c0-2.7-1.13-4.15-3.16-4.15s-3.17,1.39-3.17,4.18v.25c0,2.7,1.2,4.09,3.11,4.09S316.66,34.09,316.66,31.36Z" fill="#fff"/><path d="M323.94,31.48v-.24c0-5.17,3.84-8.42,8.82-8.42s8.76,3.16,8.76,8.26v.25c0,5.22-3.84,8.36-8.79,8.36S323.94,36.68,323.94,31.48Zm12-.09v-.25c0-2.7-1.08-4.21-3.17-4.21s-3.19,1.45-3.19,4.15v.25c0,2.76,1.07,4.27,3.19,4.27S335.93,34.06,335.93,31.39Z" fill="#fff"/><path d="M342.59,31.48v-.24c0-5.35,3.84-8.42,8.58-8.42,3.93,0,7.56,1.72,7.86,6.6h-5.16a2.37,2.37,0,0,0-2.58-2.33c-1.94,0-3.07,1.38-3.07,4.08v.25c0,2.8,1.07,4.24,3.16,4.24a2.68,2.68,0,0,0,2.8-2.67h4.95c-.16,4-2.89,6.7-8.09,6.7C346.25,39.69,342.59,36.89,342.59,31.48Z" fill="#fff"/><path d="M360,34.22h5.07c.19,1.16.71,1.81,2.28,1.81,1.35,0,2-.52,2-1.32s-.76-1.14-3-1.45c-4.3-.55-6.11-1.81-6.11-5.16,0-3.56,3.16-5.28,6.88-5.28,4,0,6.73,1.35,7.1,5.19h-5a1.79,1.79,0,0,0-2.06-1.6c-1.2,0-1.81.52-1.81,1.26s.74,1.08,2.7,1.32c4.46.56,6.61,1.72,6.61,5.17,0,3.81-2.83,5.53-7.28,5.53S360.17,37.78,360,34.22Z" fill="#fff"/><path d="M381.15,34.86c0-3.78,3.2-5.25,8.54-5.25h1.54v-.37c0-1.54-.37-2.55-2.12-2.55a2,2,0,0,0-2.18,1.9h-5.17c.25-3.87,3.29-5.77,7.69-5.77s7.25,1.81,7.25,6.08V39.32h-5.35V37.44a5.27,5.27,0,0,1-4.76,2.25C383.7,39.69,381.15,38.27,381.15,34.86Zm10.08-1.17v-1h-1.44c-2.22,0-3.2.43-3.2,1.75,0,.92.61,1.51,1.9,1.51C390.06,36,391.23,35.08,391.23,33.69Z" fill="#fff"/><path d="M399.37,23.25h5.5v2.58a5.67,5.67,0,0,1,5.29-3c3.1,0,5.25,1.93,5.25,6.05V39.32h-5.5V30c0-1.82-.71-2.71-2.31-2.71s-2.73,1-2.73,3v9h-5.5Z" fill="#fff"/><path d="M417.28,31.45v-.24c0-5.47,3-8.39,6.82-8.39a5.21,5.21,0,0,1,4.95,2.7V16.18h5.5V39.32h-5.5V36.71a5.41,5.41,0,0,1-5,3C420.32,39.69,417.28,37,417.28,31.45Zm11.92-.09v-.25c0-2.7-1.13-4.15-3.16-4.15s-3.17,1.39-3.17,4.18v.25c0,2.7,1.2,4.09,3.11,4.09S429.2,34.09,429.2,31.36Z" fill="#fff"/><path d="M442,34.86c0-3.78,3.2-5.25,8.55-5.25h1.53v-.37c0-1.54-.37-2.55-2.12-2.55a2,2,0,0,0-2.18,1.9h-5.16c.24-3.87,3.29-5.77,7.68-5.77s7.25,1.81,7.25,6.08V39.32h-5.35V37.44a5.26,5.26,0,0,1-4.76,2.25C444.56,39.69,442,38.27,442,34.86Zm10.08-1.17v-1h-1.44c-2.21,0-3.2.43-3.2,1.75,0,.92.62,1.51,1.91,1.51C450.92,36,452.09,35.08,452.09,33.69Z" fill="#fff"/><path d="M466.56,34.16V27h-1.94V23.25h1.94V19.9h5.5v3.35h3.17V27h-3.17v6.63a1.47,1.47,0,0,0,1.63,1.69,4.31,4.31,0,0,0,1.57-.27v4.18a11.76,11.76,0,0,1-3.05.46C468.59,39.69,466.56,37.94,466.56,34.16Z" fill="#fff"/><path d="M476.45,34.86c0-3.78,3.2-5.25,8.55-5.25h1.53v-.37c0-1.54-.37-2.55-2.12-2.55a2,2,0,0,0-2.18,1.9h-5.16c.24-3.87,3.29-5.77,7.68-5.77S492,24.63,492,28.9V39.32h-5.34V37.44a5.29,5.29,0,0,1-4.77,2.25C479,39.69,476.45,38.27,476.45,34.86Zm10.08-1.17v-1h-1.44c-2.21,0-3.2.43-3.2,1.75,0,.92.62,1.51,1.91,1.51C485.37,36,486.53,35.08,486.53,33.69Z" fill="#fff"/><path d="M498.73,31.14l-5-7.89h6.33l2.49,4.24L505,23.25h5.65l-5.07,7.46,5.56,8.61h-6.33l-2.86-4.8L499,39.32h-5.63Z" fill="#fff"/><path d="M518.24,23.25h5.5v2.39a5.68,5.68,0,0,1,5-2.82c3.75,0,6.79,2.82,6.79,8.32v.25c0,5.53-3,8.3-6.82,8.3a5.3,5.3,0,0,1-5-2.74V44.7h-5.5ZM530,31.39v-.25c0-2.82-1.23-4.18-3.17-4.18s-3.2,1.45-3.2,4.15v.25c0,2.73,1.2,4.12,3.2,4.12S530,34,530,31.39Z" fill="#fff"/><path d="M537.53,23.25H543v3.19a5.07,5.07,0,0,1,5.2-3.41v5.13c-3.35-.09-5.2,1-5.2,3.54v7.62h-5.5Z" fill="#fff"/><path d="M549.21,31.48v-.24c0-5.17,3.84-8.42,8.82-8.42s8.76,3.16,8.76,8.26v.25c0,5.22-3.85,8.36-8.79,8.36S549.21,36.68,549.21,31.48Zm12-.09v-.25c0-2.7-1.07-4.21-3.16-4.21s-3.2,1.45-3.2,4.15v.25c0,2.76,1.08,4.27,3.2,4.27S561.19,34.06,561.19,31.39Z" fill="#fff"/><path d="M120.83,64v-.25c0-5.47,3-8.39,6.82-8.39a5.21,5.21,0,0,1,4.95,2.71V48.72h5.5V71.86h-5.5V69.25a5.41,5.41,0,0,1-5,3C123.87,72.23,120.83,69.56,120.83,64Zm11.92-.1v-.24c0-2.71-1.13-4.15-3.16-4.15s-3.17,1.38-3.17,4.18v.24c0,2.71,1.2,4.09,3.11,4.09S132.75,66.64,132.75,63.9Z" fill="#fff"/><path d="M140,64v-.25c0-5.16,3.84-8.42,8.82-8.42s8.76,3.17,8.76,8.27v.24c0,5.23-3.84,8.36-8.79,8.36S140,69.22,140,64Zm12-.1v-.24c0-2.71-1.08-4.21-3.17-4.21s-3.19,1.44-3.19,4.15v.24c0,2.77,1.07,4.27,3.19,4.27S152,66.61,152,63.93Z" fill="#fff"/><path d="M158.68,64v-.25c0-5.16,3.84-8.42,8.7-8.42,4.39,0,8.17,2.52,8.17,8.3V65.1H164.24c.16,2.12,1.39,3.35,3.35,3.35s2.58-.83,2.8-1.9h5.16c-.49,3.62-3.29,5.68-8.14,5.68C162.37,72.23,158.68,69.28,158.68,64Zm11.53-2c-.1-1.94-1.05-3-2.83-3s-2.8,1.07-3.07,3Z" fill="#fff"/><path d="M176.53,66.76h5.07c.19,1.17.71,1.82,2.28,1.82,1.35,0,2-.53,2-1.33s-.77-1.13-3-1.44c-4.3-.55-6.11-1.81-6.11-5.16,0-3.57,3.16-5.29,6.88-5.29,4,0,6.73,1.35,7.1,5.19h-5A1.79,1.79,0,0,0,183.69,59c-1.2,0-1.81.52-1.81,1.26s.74,1.07,2.7,1.32c4.46.55,6.61,1.72,6.61,5.16,0,3.81-2.83,5.53-7.28,5.53S176.65,70.33,176.53,66.76Z" fill="#fff"/><path d="M199.3,66.7V59.54h-1.94V55.79h1.94V52.44h5.5v3.35H208v3.75H204.8v6.64c0,1.17.58,1.69,1.63,1.69a4.14,4.14,0,0,0,1.57-.28v4.18a11.41,11.41,0,0,1-3.05.46C201.33,72.23,199.3,70.48,199.3,66.7Z" fill="#fff"/><path d="M210.05,48.72h5.5v9.65a5.67,5.67,0,0,1,5.29-3c3.1,0,5.25,1.94,5.25,6.06V71.86h-5.5V62.52c0-1.81-.71-2.7-2.3-2.7s-2.74,1-2.74,3v9h-5.5Z" fill="#fff"/><path d="M227.9,64v-.25c0-5.16,3.84-8.42,8.7-8.42,4.39,0,8.17,2.52,8.17,8.3V65.1H233.46c.16,2.12,1.39,3.35,3.35,3.35s2.58-.83,2.8-1.9h5.16c-.49,3.62-3.29,5.68-8.14,5.68C231.59,72.23,227.9,69.28,227.9,64Zm11.53-2c-.1-1.94-1.05-3-2.83-3s-2.8,1.07-3.08,3Z" fill="#fff"/><path d="M252.27,55.79h5.5V59A5,5,0,0,1,263,55.58v5.13c-3.35-.09-5.19.95-5.19,3.53v7.62h-5.5Z" fill="#fff"/><path d="M263.94,64v-.25c0-5.16,3.84-8.42,8.7-8.42,4.39,0,8.17,2.52,8.17,8.3V65.1H269.5c.16,2.12,1.38,3.35,3.35,3.35,1.82,0,2.58-.83,2.8-1.9h5.16c-.49,3.62-3.29,5.68-8.14,5.68C267.63,72.23,263.94,69.28,263.94,64Zm11.52-2c-.09-1.94-1-3-2.82-3s-2.8,1.07-3.08,3Z" fill="#fff"/><path d="M281.79,66.76h5.07c.18,1.17.71,1.82,2.27,1.82,1.36,0,2-.53,2-1.33s-.77-1.13-3-1.44c-4.3-.55-6.12-1.81-6.12-5.16,0-3.57,3.17-5.29,6.89-5.29,4,0,6.73,1.35,7.1,5.19h-5A1.8,1.8,0,0,0,289,59c-1.2,0-1.81.52-1.81,1.26s.74,1.07,2.7,1.32c4.46.55,6.61,1.72,6.61,5.16,0,3.81-2.83,5.53-7.28,5.53S281.91,70.33,281.79,66.76Z" fill="#fff"/><path d="M299,66.7V59.54H297V55.79H299V52.44h5.51v3.35h3.16v3.75h-3.16v6.64c0,1.17.58,1.69,1.62,1.69a4.07,4.07,0,0,0,1.57-.28v4.18a11.26,11.26,0,0,1-3,.46C301,72.23,299,70.48,299,66.7Z" fill="#fff"/><path d="M309.5,69.1A3.07,3.07,0,0,1,312.64,66a3.11,3.11,0,1,1,0,6.21A3.06,3.06,0,0,1,309.5,69.1Z" fill="#fff"/><path d="M328.74,54.75h-5.69V49.89h17.7v4.86h-5.68V71.86h-6.33Z" fill="#fff"/><path d="M339.64,67.41c0-3.78,3.2-5.26,8.55-5.26h1.53v-.37c0-1.53-.37-2.55-2.12-2.55a2,2,0,0,0-2.18,1.91h-5.16c.24-3.87,3.29-5.78,7.68-5.78s7.25,1.81,7.25,6.09V71.86h-5.34V70a5.29,5.29,0,0,1-4.77,2.24C342.19,72.23,339.64,70.82,339.64,67.41Zm10.08-1.17v-1h-1.44c-2.21,0-3.2.43-3.2,1.75,0,.92.62,1.5,1.91,1.5C348.55,68.51,349.72,67.62,349.72,66.24Z" fill="#fff"/><path d="M361.92,63.69l-5-7.9h6.33L365.73,60l2.43-4.24h5.65l-5.07,7.47,5.56,8.6H368l-2.86-4.79-2.92,4.79h-5.62Z" fill="#fff"/><path d="M381.92,49.89h8.36c6,0,8.82,2.67,8.82,7.35v.12c0,4.61-3.11,7.1-8.55,7.1h-2.36v7.4h-6.27ZM390,60.15c2,0,3.1-.95,3.1-2.76v-.12c0-1.88-1.1-2.65-3.07-2.65h-1.84v5.53Z" fill="#fff"/><path d="M401,55.79h5.5V59a5,5,0,0,1,5.19-3.41v5.13c-3.35-.09-5.19.95-5.19,3.53v7.62H401Z" fill="#fff"/><path d="M412.67,64v-.25c0-5.16,3.84-8.42,8.82-8.42s8.76,3.17,8.76,8.27v.24c0,5.23-3.84,8.36-8.79,8.36S412.67,69.22,412.67,64Zm12-.1v-.24c0-2.71-1.08-4.21-3.17-4.21s-3.19,1.44-3.19,4.15v.24c0,2.77,1.07,4.27,3.19,4.27S424.66,66.61,424.66,63.93Z" fill="#fff"/><path d="M437.1,61v-.25c0-6.7,4.91-11.22,11.52-11.22,5.2,0,9.8,2.37,10.23,8.08h-6.23c-.31-2.05-1.63-3.13-4-3.13-3.1,0-5,2.4-5,6.36v.25c0,3.56,1.33,6.33,5.14,6.33,3.07,0,4.24-1.57,4.36-3.32h-4.12v-4.4h10.33v2.71c0,5.59-3.66,9.8-10.76,9.8C441.15,72.23,437.1,67.59,437.1,61Z" fill="#fff"/><path d="M460.63,64v-.25c0-5.16,3.84-8.42,8.82-8.42s8.76,3.17,8.76,8.27v.24c0,5.23-3.84,8.36-8.79,8.36S460.63,69.22,460.63,64Zm12-.1v-.24c0-2.71-1.08-4.21-3.17-4.21s-3.19,1.44-3.19,4.15v.24c0,2.77,1.07,4.27,3.19,4.27S472.62,66.61,472.62,63.93Z" fill="#fff"/><path d="M479.25,69.1A3.07,3.07,0,0,1,482.38,66a3.11,3.11,0,1,1,0,6.21A3.06,3.06,0,0,1,479.25,69.1Z" fill="#fff"/></g></g></svg>