<svg xmlns="http://www.w3.org/2000/svg" viewBox="0 0 300 600"><title>Asset 4</title><rect width="300" height="600" fill="none"/><path d="M25.28,98.82H37.51c12,0,18,5.93,18,16.3v.37c0,10.42-6.21,16.72-18.07,16.72H25.28Zm11.91,26c5.74,0,8.28-3,8.28-9.2v-.37c0-6.35-2.54-9.06-8.38-9.06H35v18.63Z" fill="#fff"/><path d="M57.47,120.3v-.37c0-7.85,5.88-12.8,13.5-12.8s13.42,4.81,13.42,12.57v.37c0,7.94-5.89,12.7-13.46,12.7S57.47,128.19,57.47,120.3Zm18.35-.14v-.37c0-4.11-1.65-6.4-4.85-6.4s-4.89,2.2-4.89,6.31v.37c0,4.2,1.65,6.49,4.89,6.49S75.82,124.22,75.82,120.16Z" fill="#fff"/><path d="M87.35,107.79h8.43v3.92a8.69,8.69,0,0,1,8.09-4.58c4.75,0,8,3,8,9.2v15.88h-8.43V118c0-2.75-1.08-4.1-3.53-4.1s-4.18,1.49-4.18,4.62v13.68H87.35Z" fill="#fff"/><path d="M114.55,110.4l3.77-12.18,7.43,2.47-6.44,11.53Z" fill="#fff"/><path d="M129.05,124.36V113.48h-3v-5.69h3V102.7h8.42v5.09h4.85v5.69h-4.85v10.09a2.24,2.24,0,0,0,2.5,2.57,6.5,6.5,0,0,0,2.4-.42v6.35a17.92,17.92,0,0,1-4.66.7C132.15,132.77,129.05,130.11,129.05,124.36Z" fill="#fff"/><path d="M154.32,97.05h8.37v35.16h-8.37Z" fill="#fff"/><path d="M165.89,120.3v-.37c0-7.85,5.89-12.8,13.32-12.8,6.73,0,12.52,3.83,12.52,12.61v2.2H174.41c.24,3.22,2.12,5.09,5.13,5.09,2.78,0,4-1.26,4.28-2.9h7.91c-.75,5.51-5,8.64-12.47,8.64C171.54,132.77,165.89,128.29,165.89,120.3Zm17.65-3.08c-.14-2.94-1.6-4.58-4.33-4.58-2.54,0-4.28,1.64-4.7,4.58Z" fill="#fff"/><path d="M193.47,125.44c0-5.74,4.9-8,13.08-8h2.36v-.56c0-2.33-.57-3.87-3.25-3.87a3,3,0,0,0-3.34,2.89h-7.91c.38-5.88,5-8.78,11.77-8.78s11.1,2.76,11.1,9.25v15.83h-8.19v-2.85c-1.17,1.77-3.34,3.41-7.29,3.41C197.38,132.77,193.47,130.62,193.47,125.44Zm15.44-1.78v-1.49h-2.22c-3.38,0-4.89.65-4.89,2.66,0,1.4.94,2.29,2.92,2.29C207.12,127.12,208.91,125.77,208.91,123.66Z" fill="#fff"/><path d="M218.55,107.79h9l5.13,15.73,5-15.73h8l-9,24.42h-9.17Z" fill="#fff"/><path d="M245.24,120.3v-.37c0-7.85,5.88-12.8,13.31-12.8,6.73,0,12.52,3.83,12.52,12.61v2.2H253.75c.24,3.22,2.12,5.09,5.13,5.09,2.78,0,4-1.26,4.29-2.9h7.9c-.75,5.51-5,8.64-12.47,8.64C250.88,132.77,245.24,128.29,245.24,120.3Zm17.64-3.08c-.14-2.94-1.6-4.58-4.33-4.58-2.54,0-4.28,1.64-4.7,4.58Z" fill="#fff"/><path d="M24.53,151.92H33v14.66A8.7,8.7,0,0,1,41,162c4.76,0,8.05,2.94,8.05,9.2v15.87H40.67V172.88c0-2.75-1.08-4.11-3.53-4.11S33,170.27,33,173.39v13.68H24.53Z" fill="#fff"/><path d="M51.87,175.17v-.38c0-7.84,5.88-12.79,13.5-12.79s13.42,4.81,13.42,12.56v.37c0,7.94-5.89,12.7-13.46,12.7S51.87,183.06,51.87,175.17ZM70.22,175v-.38c0-4.1-1.65-6.39-4.85-6.39s-4.89,2.19-4.89,6.3v.37c0,4.21,1.65,6.49,4.89,6.49S70.22,179.09,70.22,175Z" fill="#fff"/><path d="M81.75,162.65h8.43v3.74A8.6,8.6,0,0,1,97.89,162c3.25,0,5.51,1.4,6.69,4.06a9.78,9.78,0,0,1,8.14-4.06c4.66,0,8,3,8,9.11v16h-8.42V172.51c0-2.48-1.22-3.69-3.15-3.69-2.26,0-3.77,1.45-3.77,4.11v14.14H97.09V172.51c0-2.48-1.22-3.69-3.15-3.69-2.26,0-3.76,1.45-3.76,4.11v14.14H81.75Z" fill="#fff"/><path d="M123.54,175.17v-.38c0-7.84,5.88-12.79,13.32-12.79,6.73,0,12.52,3.83,12.52,12.61v2.19H132.06c.23,3.22,2.12,5.09,5.13,5.09,2.77,0,3.95-1.26,4.28-2.89h7.91c-.76,5.51-5,8.63-12.47,8.63C129.19,187.63,123.54,183.15,123.54,175.17Zm17.65-3.08c-.14-2.94-1.6-4.58-4.33-4.58-2.54,0-4.28,1.64-4.71,4.58Z" fill="#fff"/><path d="M162.13,168.35H159v-5.7h3.1v-2.14c0-6.07,3.81-9,9.65-9a15.14,15.14,0,0,1,3.86.52v6.11a8.13,8.13,0,0,0-2.31-.32c-2,0-2.82,1.07-2.82,2.66v2.14h5v5.7h-5v18.72h-8.38Z" fill="#fff"/><path d="M176.16,175.17v-.38c0-7.84,5.88-12.79,13.5-12.79s13.41,4.81,13.41,12.56v.37c0,7.94-5.88,12.7-13.46,12.7S176.16,183.06,176.16,175.17Zm18.35-.14v-.38c0-4.1-1.65-6.39-4.85-6.39s-4.89,2.19-4.89,6.3v.37c0,4.21,1.64,6.49,4.89,6.49S194.51,179.09,194.51,175Z" fill="#fff"/><path d="M206,162.65h8.42v4.86a7.75,7.75,0,0,1,7.95-5.18v7.8c-5.12-.14-7.95,1.44-7.95,5.37v11.57H206Z" fill="#fff"/><path d="M25.66,234.1V223.22h-3v-5.7h3v-5.09h8.42v5.09h4.85v5.7H34.08V233.3c0,1.78.89,2.57,2.49,2.57a6.46,6.46,0,0,0,2.4-.42v6.35a17.78,17.78,0,0,1-4.66.7C28.76,242.5,25.66,239.84,25.66,234.1Z" fill="#fff"/><path d="M40.81,235.17c0-5.74,4.89-8,13.08-8h2.35v-.56c0-2.34-.56-3.88-3.24-3.88a3,3,0,0,0-3.34,2.9H41.75c.38-5.89,5-8.78,11.77-8.78s11.1,2.75,11.1,9.24v15.83H56.43v-2.85c-1.17,1.78-3.34,3.41-7.29,3.41C44.72,242.5,40.81,240.35,40.81,235.17Zm15.43-1.77v-1.5H54c-3.39,0-4.89.66-4.89,2.66,0,1.4.94,2.29,2.92,2.29C54.46,236.85,56.24,235.5,56.24,233.4Z" fill="#fff"/><path d="M74.93,229.52l-7.67-12H77L80.76,224l3.72-6.44h8.66l-7.77,11.35,8.52,13.07H84.2l-4.38-7.28-4.47,7.28H66.74Z" fill="#fff"/><path d="M104.81,217.52h8.42v3.64a8.72,8.72,0,0,1,7.67-4.29c5.75,0,10.4,4.29,10.4,12.65v.38c0,8.4-4.65,12.6-10.44,12.6-3.72,0-6.4-1.73-7.63-4.15v11.76h-8.42Zm17.93,12.38v-.38c0-4.29-1.88-6.35-4.85-6.35s-4.89,2.2-4.89,6.3v.38c0,4.15,1.83,6.25,4.89,6.25S122.74,233.91,122.74,229.9Z" fill="#fff"/><path d="M134.36,217.52h8.43v4.86a7.77,7.77,0,0,1,8-5.19V225c-5.13-.14-8,1.45-8,5.37v11.58h-8.43Z" fill="#fff"/><path d="M152.25,230v-.38c0-7.84,5.88-12.79,13.31-12.79,6.73,0,12.52,3.83,12.52,12.6v2.2H160.76c.24,3.22,2.12,5.09,5.13,5.09,2.78,0,4-1.26,4.29-2.9h7.9c-.75,5.51-5,8.64-12.47,8.64C157.89,242.5,152.25,238,152.25,230ZM169.89,227c-.14-2.94-1.6-4.57-4.33-4.57-2.54,0-4.28,1.63-4.7,4.57Z" fill="#fff"/><path d="M181,217.52h8.42v3.64a8.71,8.71,0,0,1,7.67-4.29c5.74,0,10.4,4.29,10.4,12.65v.38c0,8.4-4.66,12.6-10.44,12.6-3.72,0-6.4-1.73-7.63-4.15v11.76H181Zm17.93,12.38v-.38c0-4.29-1.88-6.35-4.85-6.35s-4.89,2.2-4.89,6.3v.38c0,4.15,1.83,6.25,4.89,6.25S198.93,233.91,198.93,229.9Z" fill="#fff"/><path d="M209.61,237.74a4.68,4.68,0,0,1,4.8-4.72,4.72,4.72,0,1,1,0,9.44A4.68,4.68,0,0,1,209.61,237.74Z" fill="#fff"/><path d="M25,283.27V263.42h9.65v19.43c0,4.71,1.18,7,5.27,7s5.27-2.15,5.27-7.14V263.42H55v19.71c0,9.71-5.74,14.24-15,14.24C30.46,297.37,25,292.61,25,283.27Z" fill="#fff"/><path d="M59.54,272.39H68v3.92a8.71,8.71,0,0,1,8.1-4.58c4.75,0,8,2.95,8,9.2v15.88H75.68v-14.2c0-2.75-1.08-4.11-3.53-4.11S68,280,68,283.13v13.68H59.54Z" fill="#fff"/><path d="M88.43,261.65h8.38v35.16H88.43Z" fill="#fff"/><path d="M100,284.9v-.37c0-7.85,5.88-12.8,13.32-12.8,6.73,0,12.52,3.83,12.52,12.61v2.2H108.53c.23,3.22,2.12,5.09,5.13,5.09,2.77,0,4-1.27,4.28-2.9h7.91c-.76,5.51-5,8.64-12.47,8.64C105.66,297.37,100,292.89,100,284.9Zm17.65-3.08c-.14-2.94-1.6-4.58-4.33-4.58-2.54,0-4.28,1.64-4.71,4.58Z" fill="#fff"/><path d="M127.35,289.06h7.77c.28,1.77,1.08,2.75,3.48,2.75,2.07,0,3-.79,3-2s-1.18-1.72-4.56-2.19c-6.59-.84-9.37-2.76-9.37-7.84,0-5.42,4.85-8,10.54-8,6.07,0,10.31,2.06,10.87,7.9h-7.62c-.33-1.64-1.22-2.43-3.15-2.43s-2.78.79-2.78,1.91,1.13,1.64,4.14,2c6.82.84,10.12,2.61,10.12,7.84,0,5.79-4.33,8.41-11.15,8.41C131.63,297.37,127.54,294.47,127.35,289.06Z" fill="#fff"/><path d="M151,289.06h7.77c.28,1.77,1.08,2.75,3.48,2.75,2.07,0,3-.79,3-2s-1.17-1.72-4.56-2.19c-6.59-.84-9.37-2.76-9.37-7.84,0-5.42,4.85-8,10.54-8,6.07,0,10.31,2.06,10.87,7.9h-7.62c-.33-1.64-1.22-2.43-3.15-2.43s-2.78.79-2.78,1.91,1.13,1.64,4.14,2c6.83.84,10.12,2.61,10.12,7.84,0,5.79-4.33,8.41-11.15,8.41C155.3,297.37,151.21,294.47,151,289.06Z" fill="#fff"/><path d="M192.48,294.33l-9.83-21.94h9.13l5.08,13,4.7-13h8.05L196.43,305h-8Z" fill="#fff"/><path d="M209.14,284.9v-.37c0-7.85,5.88-12.8,13.51-12.8s13.41,4.81,13.41,12.56v.38c0,7.94-5.88,12.7-13.46,12.7S209.14,292.79,209.14,284.9Zm18.35-.14v-.37c0-4.11-1.64-6.4-4.84-6.4s-4.9,2.2-4.9,6.3v.38c0,4.2,1.65,6.49,4.9,6.49S227.49,288.82,227.49,284.76Z" fill="#fff"/><path d="M238.84,288.31V272.39h8.42V287c0,2.75,1.08,4.1,3.48,4.1s4.19-1.49,4.19-4.62V272.39h8.42v24.42h-8.42V293c-1.32,2.52-3.72,4.34-7.81,4.34C242.37,297.37,238.84,294.47,238.84,288.31Z" fill="#fff"/><path d="M22.46,327.25h8.8l3.57,14.62L39,327.25h6.78l3.67,14.62,4-14.62h8l-7.81,24.42h-8L41.89,338l-3.81,13.63H29.89Z" fill="#fff"/><path d="M61.23,344.9c0-5.74,4.9-8,13.09-8h2.35v-.56c0-2.33-.57-3.88-3.25-3.88a3,3,0,0,0-3.34,2.9H62.17c.38-5.88,5-8.78,11.77-8.78S85,329.36,85,335.85v15.82H76.86v-2.84c-1.18,1.77-3.34,3.41-7.3,3.41C65.14,352.24,61.23,350.09,61.23,344.9Zm15.44-1.77v-1.49H74.46c-3.39,0-4.9.65-4.9,2.66,0,1.4.94,2.28,2.92,2.28C74.88,346.58,76.67,345.23,76.67,343.13Z" fill="#fff"/><path d="M89.14,327.25h8.42v3.93a8.71,8.71,0,0,1,8.1-4.58c4.75,0,8,2.94,8,9.2v15.87h-8.42V337.48c0-2.75-1.08-4.11-3.53-4.11s-4.19,1.5-4.19,4.62v13.68H89.14Z" fill="#fff"/><path d="M118.93,343.83V333h-3v-5.7h3v-5.08h8.42v5.08h4.85V333h-4.85V343a2.24,2.24,0,0,0,2.5,2.56,6.5,6.5,0,0,0,2.4-.42v6.36a18.36,18.36,0,0,1-4.66.7C122,352.24,118.93,349.57,118.93,343.83Z" fill="#fff"/><path d="M145.09,343.83V333h-3v-5.7h3v-5.08h8.43v5.08h4.84V333h-4.84V343A2.23,2.23,0,0,0,156,345.6a6.46,6.46,0,0,0,2.4-.42v6.36a18.21,18.21,0,0,1-4.66.7C148.2,352.24,145.09,349.57,145.09,343.83Z" fill="#fff"/><path d="M160.25,339.77v-.38c0-7.84,5.88-12.79,13.5-12.79s13.41,4.81,13.41,12.56v.38c0,7.93-5.88,12.7-13.45,12.7S160.25,347.66,160.25,339.77Zm18.35-.14v-.38c0-4.1-1.65-6.39-4.85-6.39s-4.89,2.19-4.89,6.3v.38c0,4.2,1.65,6.49,4.89,6.49S178.6,343.69,178.6,339.63Z" fill="#fff"/><path d="M188.77,347.47a4.67,4.67,0,0,1,4.8-4.71,4.72,4.72,0,1,1,0,9.43A4.67,4.67,0,0,1,188.77,347.47Z" fill="#fff"/></svg>